<svg width="17" height="16" viewBox="0 0 17 16" fill="none" xmlns="http://www.w3.org/2000/svg">
<path d="M8.5 0C4.08156 0 0.5 3.58156 0.5 8C0.5 12.4184 4.08156 16 8.5 16C12.9181 16 16.5 12.4184 16.5 8C16.5 3.58156 12.9184 0 8.5 0ZM12.5425 8.24312H12.2131V11.5972C12.2131 11.9509 11.9262 12.2381 11.5722 12.2381H9.73594V10.0719C9.73594 9.73062 9.5975 9.42156 9.37375 9.19781C9.15031 8.97437 8.84125 8.83594 8.5 8.83594C7.8175 8.83594 7.26406 9.38906 7.26406 10.0719V12.2381H5.42781C5.07375 12.2381 4.78687 11.9509 4.78687 11.5972V8.24312H4.4575C3.85625 8.24312 3.58313 7.49188 4.04406 7.10563L7.67656 4.06125C8.15312 3.66219 8.84688 3.66219 9.32344 4.06125L12.9559 7.10563C13.4169 7.49188 13.1437 8.24312 12.5425 8.24312Z" fill="white"/>
</svg>
