<svg width="73" height="101" viewBox="0 0 73 101" fill="none" xmlns="http://www.w3.org/2000/svg">
<path d="M1.06028 45.1063C1.09549 43.2401 1.13069 41.3622 1.31849 39.496C1.56496 37.0782 3.51332 35.3176 5.09783 33.6509C5.34431 33.3693 5.60253 33.0876 5.84901 32.8059C4.40535 31.1744 4.7692 28.4514 4.85136 26.3857C4.91004 24.6486 5.15652 22.7707 6.61192 21.9608C5.56732 20.3411 5.3091 18.5218 6.20112 16.6204C6.7645 15.4115 7.39831 14.4021 8.39596 13.5218C10.0157 12.0899 11.788 12.219 12.5392 9.74249C13.2669 7.31291 14.4992 6.16268 16.9875 5.55235C18.2082 5.24719 19.5462 5.25892 20.7903 5.15329C23.8889 4.90681 25.626 3.42794 27.3514 0.99836C27.457 0.857515 27.5744 0.763618 27.7152 0.71667C28.0438 0.517139 28.4664 0.540614 28.6776 0.951412C28.7481 1.03357 28.795 1.12747 28.8302 1.2331C30.6143 4.76597 35.1448 3.88568 38.2668 5.5993C41.2481 7.23076 42.41 10.658 45.1213 12.5359C46.8819 13.7448 49.1471 14.0617 50.673 15.6228C52.4687 17.4655 51.4476 20.611 50.6964 22.7237C51.2363 23.2988 51.5532 24.1087 51.6119 25.1181C51.7645 27.8528 52.633 31.057 50.7668 33.2284C52.9147 35.3763 54.7927 37.6181 55.2622 40.5758C62.1518 40.834 69.7222 40.7284 72.0697 48.4514C73.5016 53.1697 72.7974 59.0148 72.8208 63.8622C72.8326 67.1369 72.8326 70.3998 72.8091 73.6744C72.7856 76.1627 72.8795 78.4632 71.7645 80.7519C69.0415 86.374 61.072 88.6392 55.3208 88.9796C54.5814 93.3106 52.7739 98.2167 48.0673 99.3904C43.8772 100.423 39.3114 100.4 35.0274 100.517C29.241 100.67 23.4429 100.588 17.6565 100.259C14.3819 100.071 10.0157 100.235 6.96403 98.7801C1.71755 96.2801 1.3537 90.3176 1.27154 85.212C1.1659 78.2636 1.072 71.3035 1.02506 64.3552C0.978109 57.935 0.942904 51.5148 1.06028 45.1063ZM33.4899 5.75188C31.4007 5.43498 29.6284 4.85986 28.3725 3.43967C28.3842 4.31996 28.7833 5.15329 29.2293 5.88099C30.1096 7.31291 31.5884 8.08756 33.0673 8.74484C33.126 8.76831 33.1025 8.87395 33.0321 8.87395C31.3068 8.81526 29.5814 7.62982 28.5955 6.25658C28.1495 5.62277 27.5509 4.47254 27.457 3.43967C26.7058 4.35517 25.8725 5.16503 24.7575 5.79883C22.6096 7.00775 19.7222 6.71432 17.3866 7.07817C15.4382 7.38334 14.7222 8.72136 14.0767 10.165C14.4288 9.90681 14.8044 9.67207 15.0978 9.49601C16.3889 8.72136 18.2903 7.97019 19.8161 8.28709C19.8396 8.28709 19.8514 8.33404 19.8279 8.34578C18.6424 8.9209 17.3396 9.15564 16.1542 9.76597C15.5086 10.0946 14.9218 10.5289 14.3819 11.0218C15.7082 10.6815 17.0579 10.4819 18.3373 10.3411C20.5556 10.1063 22.7974 10.2237 25.0039 10.5524C26.8232 10.8223 29.0298 11.2214 30.5438 12.3364C30.5673 12.3481 30.5791 12.3833 30.5673 12.4068C30.5556 12.4303 30.5321 12.442 30.5086 12.442C26.5767 11.6322 22.903 11.3857 18.9241 11.8904C15.8607 12.2777 12.6448 13.0054 9.88656 14.5312C7.75041 16.057 6.16591 18.9796 8.17295 21.5031C8.19642 21.5265 8.20816 21.5617 8.2199 21.5852C14.4992 20.9866 21.119 21.5852 27.4218 21.6204C27.5509 21.6204 27.6683 21.6204 27.7974 21.6204C25.7316 21.2331 23.6894 20.7401 21.6941 20.1181C20.2504 19.6721 18.5251 19.1908 17.2105 18.3106C17.0227 18.1815 16.8349 18.0406 16.6589 17.8998C16.6237 17.8646 16.6589 17.8176 16.6941 17.8293C18.6307 18.2284 20.4852 19.0383 22.4218 19.496C24.7809 20.0477 27.1753 20.4585 29.5697 20.7988C32.0462 21.1509 34.5462 21.4209 37.0462 21.6322C37.2222 21.6439 37.3866 21.6556 37.5626 21.6674C39.1589 21.6791 40.7434 21.6908 42.3396 21.7026C42.2222 21.1509 42.1049 20.611 41.8349 20.0711C41.3772 19.1674 40.403 18.4984 39.6166 17.8998C38.1495 16.7613 36.3654 16.0923 34.91 14.9655C34.8866 14.9538 34.8866 14.9303 34.8866 14.9068C34.8866 14.8833 34.91 14.8716 34.9335 14.8716C35.1096 14.8833 35.3208 14.9185 35.5438 14.9655C36.0368 15.0594 36.518 15.212 36.9875 15.4115C39.9922 16.5383 44.3819 19.2026 43.6542 21.7143C45.133 21.7261 46.6237 21.7378 48.1025 21.7495C48.5485 21.7495 48.9476 21.82 49.3114 21.9256C50.0626 19.7308 50.4499 17.7707 48.9476 16.3739C48.6307 16.1275 48.3138 15.9045 47.9852 15.6932C47.8561 15.6228 47.7269 15.5524 47.5861 15.4819C46.565 15.0124 45.626 14.5782 44.7575 14.05C44.0884 13.7801 43.3842 13.5336 42.6565 13.2988C40.0274 12.4303 36.9523 11.4092 34.8044 9.6486C34.8044 9.6486 34.7927 9.6486 34.7927 9.63686C34.7809 9.63686 34.7809 9.62512 34.7809 9.62512C34.7809 9.61338 34.7809 9.60165 34.7809 9.58991L34.7809 9.57817L34.7809 9.56644C34.7927 9.5547 34.7927 9.5547 34.8044 9.54296C34.8161 9.54296 34.8161 9.53122 34.8279 9.54296L34.8396 9.54296C37.1518 9.83639 39.5345 10.5993 41.7997 11.5031C39.4288 8.4162 37.4922 6.36221 33.4899 5.75188ZM55.7551 79.3786C59.3584 78.9209 63.5133 76.8786 63.8654 72.9115C64.1119 70.212 63.9006 67.4068 63.9006 64.7073C63.8889 62.219 63.8889 59.719 63.8185 57.2308C63.7715 55.5406 63.5485 53.9444 62.7504 52.4303C61.4945 50.0594 57.9147 50.2237 55.5204 50.1533C55.5438 52.1603 55.5556 54.1674 55.5673 56.1744C55.6143 62.3951 55.6495 68.6157 55.6612 74.8481C55.6729 76.327 55.7199 77.8528 55.7551 79.3786ZM70.8725 78.8974C71.6002 76.9843 71.2363 74.32 71.2481 72.3012C71.2598 69.7425 71.2598 67.1955 71.2481 64.6369C71.2363 60.658 71.2598 56.6674 71.0955 52.7002C70.9664 49.766 70.3326 46.9139 68.2199 44.7542C65.2739 41.7495 59.2762 42.266 55.3795 42.1369C55.4499 44.2847 55.4969 46.4326 55.5204 48.5805C59.5462 48.7566 63.2199 49.0031 64.8396 53.2167C66.0368 56.3387 65.4617 60.658 65.4852 63.9209C65.4969 66.1627 65.4969 68.4045 65.4852 70.6463C65.4734 72.219 65.626 73.9796 64.8631 75.4232C63.0673 78.7801 59.4758 80.5054 55.8138 80.9397C55.849 83.111 55.8138 85.2824 55.5673 87.4068C61.2246 87.0195 68.6776 84.6721 70.8725 78.8974ZM2.59783 65.1533C2.64478 71.4209 2.72694 77.7002 2.82084 83.9678C2.89126 89.0265 2.67998 96.28 8.8889 97.7354C13.4312 98.8035 18.3607 98.7801 22.9969 98.9209C28.7246 99.097 34.4758 99.0617 40.2035 98.7331C45.0157 98.4632 49.7575 98.5688 52.2809 93.7683C54.7457 89.097 54.1237 83.1932 54.1119 78.0876C54.0884 69.1204 54.0532 60.165 53.9593 51.1979C53.9241 48.0171 53.8889 44.8364 53.795 41.6556C53.6894 38.3575 51.3654 35.9984 49.0884 33.7683C48.8068 33.4866 48.7598 32.935 49.0884 32.665C51.2481 30.8693 50.0744 27.5242 50.0274 25.1063C49.9805 22.665 45.6847 23.2636 44.065 23.2519C39.0884 23.2167 34.1002 23.1815 29.1237 23.158C24.0884 23.1345 19.065 23.111 14.0298 23.0876C12.3161 23.0758 10.6143 23.0758 8.90065 23.0758C5.97812 23.0758 5.2152 30.658 7.35135 32.0664C7.78563 32.3481 7.85605 32.9115 7.50393 33.2988C7.06966 33.7801 6.63539 34.273 6.21285 34.7542C4.4875 36.5735 2.97342 38.111 2.79736 40.6345C2.65652 42.6885 2.63304 44.7542 2.59783 46.8082C2.50393 52.935 2.55088 59.05 2.59783 65.1533Z" fill="#E9E9E9"/>
<path d="M10.0523 33.194C9.9584 33.1823 9.93492 33.1118 9.94666 33.0414C9.9584 32.971 10.0054 32.9006 10.0992 32.9006C12.564 32.6072 15.064 32.748 17.5406 32.7832C20.8622 32.8419 24.1955 32.9006 27.5171 32.9475C31.0382 33.0062 34.5593 33.0297 38.0805 33.0884C41.003 33.1353 44.0194 32.971 46.9302 33.4053C46.942 33.4053 46.942 33.4053 46.9537 33.4053C46.9889 33.4053 47.0007 33.4405 47.0124 33.4757C47.0124 33.4874 47.0124 33.4874 47.0124 33.4992C47.0124 33.5109 47.0124 33.5227 47.0007 33.5344C46.9889 33.5461 46.9772 33.5579 46.9537 33.5579C44.442 34.133 41.7776 34.0626 39.219 34.133C35.6274 34.2269 32.0359 34.2151 28.4443 34.1917C24.8645 34.1565 21.2847 34.086 17.7049 33.9452C15.1345 33.8395 12.5288 33.8161 10.0523 33.194Z" fill="#E9E9E9"/>
<path d="M48.3953 30.5636C48.3953 30.5988 48.3718 30.6223 48.3366 30.634C48.3248 30.634 48.3248 30.634 48.3131 30.634C45.238 31.1152 41.9633 30.7748 38.8765 30.5871C35.2145 30.3523 31.5643 29.9767 27.9258 29.5307C24.4399 29.1082 20.9774 28.58 17.5267 27.9462C15.8718 27.641 14.2286 27.3124 12.5971 26.9251C11.2943 26.6082 9.74502 26.35 8.59479 25.634C8.52437 25.5988 8.50089 25.5166 8.52437 25.4579C8.53611 25.3875 8.59479 25.3406 8.67695 25.3406C9.96803 25.2936 11.2943 25.6809 12.5619 25.9157C14.0643 26.1856 15.5784 26.4791 17.0807 26.7373C20.6136 27.3594 24.1699 27.8758 27.7262 28.3335C31.2709 28.7795 34.8154 29.1434 38.3718 29.472C41.6699 29.7772 45.0854 29.8124 48.3248 30.5049C48.3601 30.5166 48.3718 30.5401 48.3718 30.5636C48.3835 30.5518 48.3953 30.5518 48.3953 30.5636Z" fill="#E9E9E9"/>
<path d="M14.6881 28.9097C14.5942 28.8627 14.6646 28.7336 14.7585 28.7454C17.0942 29.0975 19.4299 29.4027 21.7655 29.7782C21.789 29.7782 21.789 29.8252 21.7655 29.8252C19.4651 30.3768 16.7538 30.0247 14.6881 28.9097Z" fill="#E9E9E9"/>
<path d="M34.9338 17.5832C33.0559 18.3696 29.6287 17.7475 27.915 16.7499C27.8446 16.7147 27.8798 16.5973 27.9503 16.5973C28.9831 16.609 29.9808 16.8555 30.9902 17.0198C32.2695 17.2311 33.6897 17.0785 34.9221 17.501C34.969 17.5245 34.969 17.5715 34.9338 17.5832Z" fill="#E9E9E9"/>
<path d="M27.9626 17.3723C27.8804 17.3723 27.8335 17.4192 27.7396 17.4075C27.5753 17.3957 27.4227 17.3605 27.2701 17.2901C26.8828 17.1258 26.6598 16.938 26.425 16.5976C26.3194 16.4568 26.5072 16.3277 26.6363 16.3863C26.7889 16.4568 26.9767 16.4802 27.1175 16.5624C27.2584 16.6446 27.4109 16.7267 27.5518 16.8089C27.6692 16.8793 27.7865 16.9732 27.8804 17.0788C27.9508 17.161 27.9508 17.2314 27.9978 17.3136C28.0095 17.337 27.9861 17.3605 27.9626 17.3723Z" fill="#E9E9E9"/>
<path d="M8.5492 19.3203C8.51399 19.2616 8.57268 19.1677 8.6431 19.1912C9.42948 19.4494 10.1807 19.778 10.9905 19.9189C11.7886 20.0597 12.6689 20.001 13.4318 20.3062C13.4788 20.318 13.4788 20.3766 13.4318 20.3884C12.0116 20.987 9.35906 20.8344 8.5492 19.3203Z" fill="#E9E9E9"/>
<path d="M14.0756 20.3873C14.0521 20.3404 14.0756 20.2934 14.1226 20.2817C14.4864 20.1408 15.1789 20.1174 15.4723 20.4225C15.4958 20.446 15.4958 20.4812 15.4723 20.5047C15.1202 20.8568 14.3338 20.8098 14.0756 20.3873Z" fill="#E9E9E9"/>
<path d="M47.0217 16.385C48.395 16.2441 49.7447 18.9319 48.8527 19.9765C48.8175 20.0117 48.7706 20 48.7471 19.9648C48.395 19.4483 48.3363 18.7324 48.0546 18.169C47.7612 17.5704 47.1978 17.1831 46.9044 16.5962C46.8574 16.4906 46.9161 16.3967 47.0217 16.385Z" fill="#E9E9E9"/>
<path d="M18.9138 13.6168C18.6204 13.7224 18.3504 13.8867 18.0335 13.9219C17.787 13.9454 17.7283 13.5933 17.9161 13.4759C18.4091 13.1708 19.3363 12.8304 19.8528 13.2412C19.888 13.2647 19.8645 13.3233 19.8293 13.3351C19.5124 13.429 19.2072 13.4994 18.9138 13.6168Z" fill="#E9E9E9"/>
<path d="M19.5122 13.8161C19.5474 13.8396 19.5592 13.8748 19.5357 13.91C19.3831 14.1799 18.9371 14.3325 18.6554 14.2738C18.5146 14.2386 18.4442 14.0273 18.5615 13.9334C18.7963 13.7457 19.2657 13.6283 19.5122 13.8161Z" fill="#E9E9E9"/>
<path d="M26.3902 7.92416C26.1672 7.75985 25.6508 7.396 25.7447 7.06736C25.8503 6.70351 26.2729 7.03215 26.4137 7.17299C26.5546 7.32557 26.6954 7.48989 26.8362 7.65421C26.9771 7.80679 27.1531 7.92416 27.294 8.07675C27.3057 8.08848 27.3057 8.11196 27.2822 8.12369C26.9888 8.28801 26.6367 8.10022 26.3902 7.92416Z" fill="#E9E9E9"/>
<path d="M26.4466 8.47424C26.4818 8.52119 26.4701 8.60335 26.3879 8.60335C26.0593 8.57988 25.6954 8.54467 25.6015 8.16908C25.5898 8.12213 25.6133 8.07518 25.6602 8.06345C26.0241 7.96955 26.2353 8.22777 26.4466 8.47424Z" fill="#E9E9E9"/>
<path d="M41.4945 15.0477C41.8584 15.2707 42.3161 15.4937 42.4805 15.9162C42.4922 15.9397 42.4687 15.9632 42.4452 15.9749C42.0345 16.0336 41.6941 15.7754 41.3537 15.5876C40.9781 15.3763 40.4499 15.212 40.2739 14.7777C40.2504 14.7308 40.2739 14.6956 40.3208 14.6721C40.7316 14.5195 41.1424 14.8247 41.4945 15.0477Z" fill="#E9E9E9"/>
<path d="M40.5426 15.5162C40.8947 15.5397 41.2586 15.7744 41.3525 16.1266C41.3642 16.1618 41.3407 16.197 41.3055 16.197C40.9769 16.2204 40.6365 16.1148 40.3783 15.9153C40.214 15.7862 40.3431 15.4927 40.5426 15.5162Z" fill="#E9E9E9"/>
<path d="M62.3866 44.5312C62.3161 44.5078 62.2809 44.3904 62.3631 44.3435C64.3584 43.4749 67.6683 45.3176 68.0321 47.489C68.0438 47.5359 67.9969 47.5829 67.95 47.5477C67.1284 46.9256 66.4476 46.1862 65.5556 45.6463C64.5814 45.0712 63.4429 44.8951 62.3866 44.5312Z" fill="#E9E9E9"/>
<path d="M60.4734 44.226C60.45 44.1791 60.45 44.1086 60.4969 44.0734C60.7903 43.8152 61.4946 43.8856 61.7411 44.1908C61.788 44.2495 61.7763 44.3199 61.7176 44.3669C61.4007 44.6016 60.6847 44.5781 60.4734 44.226Z" fill="#E9E9E9"/>
<path d="M61.2716 80.8928C62.7387 80.2707 64.0063 79.4257 64.9335 78.0994C66.0133 76.5384 66.342 74.6369 66.9992 72.8999C67.0227 72.8294 67.1166 72.8412 67.1166 72.9116C67.4453 76.1745 65.3326 81.6557 61.3068 81.151C61.1542 81.1276 61.1307 80.9515 61.2716 80.8928Z" fill="#E9E9E9"/>
<path d="M22.2233 79.4968C29.0426 77.1964 32.9158 87.1611 26.4017 89.9076C26.3431 89.9428 26.2726 89.978 26.2022 90.0015C26.1318 90.025 26.0614 90.0367 26.0027 90.0485C23.1036 90.7762 20.005 89.6142 18.9839 86.5978C18.0097 83.7339 19.2186 80.5062 22.2233 79.4968ZM20.3571 85.7762C20.9909 88.2762 23.5144 89.133 25.7914 88.4874C30.451 86.6799 27.9276 79.755 23.174 80.8231C20.8384 81.3513 19.8055 83.6165 20.3571 85.7762Z" fill="#E9E9E9"/>
<path d="M11.306 85.1057C18.1252 82.8052 21.9985 92.77 15.4844 95.5165C15.4257 95.5517 15.3553 95.5869 15.2849 95.6104C15.2144 95.6339 15.144 95.6456 15.0853 95.6574C12.1863 96.3851 9.08767 95.2231 8.06654 92.2067C7.1041 89.3428 8.30129 86.1268 11.306 85.1057ZM9.43978 91.3968C10.0736 93.8968 12.5971 94.7536 14.8741 94.1081C19.5337 92.3006 17.0102 85.3757 12.2567 86.4437C9.93274 86.9602 8.89988 89.2372 9.43978 91.3968Z" fill="#E9E9E9"/>
<path d="M34.4163 84.7888C41.2356 82.4883 45.1088 92.4531 38.5947 95.1996C38.536 95.2348 38.4656 95.27 38.3952 95.2935C38.3248 95.317 38.2544 95.3287 38.1957 95.3405C35.2966 96.0682 32.198 94.9062 31.1769 91.8898C30.2145 89.0259 31.4116 85.7982 34.4163 84.7888ZM32.5501 91.0682C33.1839 93.5682 35.7074 94.425 37.9844 93.7794C42.644 91.9719 40.1206 85.047 35.367 86.1151C33.0431 86.6433 32.0102 88.9085 32.5501 91.0682Z" fill="#E9E9E9"/>
<path d="M28.4661 77.1482C28.3957 77.1717 28.3253 77.1835 28.2666 77.1952C25.3675 77.9229 22.2689 76.7609 21.2478 73.7445C20.2736 70.8806 21.4826 67.6647 24.4873 66.6436C31.3065 64.3431 35.1797 74.3079 28.6657 77.0544C28.607 77.1013 28.5365 77.1248 28.4661 77.1482ZM25.438 67.9698C23.114 68.498 22.0812 70.7633 22.6211 72.9229C23.2549 75.4229 25.7783 76.2797 28.0553 75.6342C32.715 73.8384 30.1797 66.9018 25.438 67.9698Z" fill="#E9E9E9"/>
<path d="M9.37013 55.4115C16.1894 53.111 20.0626 63.0758 13.5485 65.8223C13.4898 65.8575 13.4194 65.8927 13.349 65.9162C13.2786 65.9397 13.2082 65.9514 13.1495 65.9631C10.2504 66.6908 7.15182 65.5289 6.13069 62.5124C5.15651 59.6486 6.3537 56.4326 9.37013 55.4115ZM7.50393 61.7026C8.13773 64.2026 10.6612 65.0594 12.9382 64.4138C17.5978 62.6063 15.0744 55.6815 10.3208 56.7495C7.98515 57.266 6.95229 59.5312 7.50393 61.7026Z" fill="#E9E9E9"/>
<path d="M47.9967 64.8596C47.938 64.8948 47.8675 64.93 47.7971 64.9535C47.7267 64.977 47.6563 64.9887 47.5976 65.0005C44.6985 65.7282 41.5999 64.5662 40.5788 61.5498C39.6046 58.6859 40.8136 55.4699 43.8182 54.4488C50.6375 52.1483 54.5107 62.1014 47.9967 64.8596ZM44.7572 55.7751C42.4333 56.3033 41.4004 58.5685 41.9403 60.7282C42.5741 63.2282 45.0976 64.085 47.3746 63.4394C52.0459 61.6319 49.5107 54.6953 44.7572 55.7751Z" fill="#E9E9E9"/>
<path d="M15.7325 83.0177C15.709 83.0294 15.6973 83.0294 15.6738 83.0412C15.6269 83.0647 15.5917 83.0881 15.5447 83.0999C9.59402 85.1421 6.08464 76.4097 11.8358 73.8393C14.418 72.6891 17.3053 74.0154 18.3968 76.5506C19.5001 79.1327 18.209 81.9027 15.7325 83.0177ZM12.1997 75.3886C10.4626 76.1632 10.0048 78.1586 10.709 79.8017C11.4954 81.6562 13.256 82.2078 15.0635 81.6093C19.1715 79.614 16.5072 73.4637 12.1997 75.3886Z" fill="#E9E9E9"/>
<path d="M6.92823 82.4885C7.9024 81.9955 8.6301 83.4861 7.67939 83.9908C7.66766 84.0025 7.64419 84.0025 7.63245 84.0025C7.60898 84.0143 7.59724 84.026 7.57376 84.0378C6.59959 84.3194 6.02447 82.9579 6.92823 82.4885Z" fill="#E9E9E9"/>
<path d="M21.2844 76.5507C22.2585 76.0578 22.9862 77.5484 22.0355 78.0531C22.0238 78.0648 22.0003 78.0648 21.9886 78.0648C21.9651 78.0765 21.9534 78.0883 21.9182 78.1C20.9675 78.37 20.3806 77.0202 21.2844 76.5507Z" fill="#E9E9E9"/>
<path d="M20.7546 92.2541C21.7288 91.7611 22.4565 93.2517 21.5058 93.7564C21.494 93.7682 21.4705 93.7682 21.4588 93.7682C21.4353 93.7799 21.4236 93.7916 21.3884 93.8034C20.4259 94.0733 19.8508 92.7118 20.7546 92.2541Z" fill="#E9E9E9"/>
<path d="M43.7593 94.0849C44.7335 93.5919 45.4612 95.0825 44.5105 95.5872C44.4987 95.599 44.4752 95.599 44.4635 95.599C44.44 95.6107 44.4283 95.6225 44.3931 95.6342C43.4306 95.9041 42.8555 94.5426 43.7593 94.0849Z" fill="#E9E9E9"/>
<path d="M25.9194 50.2942C25.9077 50.3059 25.8842 50.3059 25.8725 50.3059C25.849 50.3177 25.8373 50.3294 25.8138 50.3411C24.8513 50.6228 24.2762 49.2496 25.18 48.7918C26.1424 48.2989 26.8819 49.8012 25.9194 50.2942Z" fill="#E9E9E9"/>
<path d="M25.1682 64.5547C25.1565 64.5664 25.133 64.5664 25.1213 64.5664C25.0978 64.5782 25.0861 64.5899 25.0626 64.6016C24.1002 64.8833 23.525 63.5218 24.4288 63.0523C25.3912 62.5594 26.1189 64.0617 25.1682 64.5547Z" fill="#E9E9E9"/>
<path d="M20.6269 55.0483C20.6152 55.0601 20.5917 55.0601 20.58 55.0601C20.5565 55.0718 20.5448 55.0835 20.5096 55.0953C19.5471 55.3652 18.972 54.0037 19.8758 53.546C20.8499 53.053 21.5894 54.5554 20.6269 55.0483Z" fill="#E9E9E9"/>
<path d="M37.6923 52.3485C37.6806 52.3602 37.6571 52.3602 37.6454 52.3602C37.6219 52.372 37.6101 52.3837 37.5749 52.3954C36.6125 52.6654 36.0374 51.3156 36.9411 50.8462C37.9153 50.3532 38.6547 51.8555 37.6923 52.3485Z" fill="#E9E9E9"/>
<path d="M13.9355 43.498C13.9238 43.5097 13.9003 43.5097 13.8886 43.5097C13.8651 43.5215 13.8534 43.5332 13.8299 43.545C12.8675 43.8266 12.2923 42.4534 13.1961 41.9957C14.1585 41.5027 14.898 42.9933 13.9355 43.498Z" fill="#E9E9E9"/>
<path d="M33.1136 42.3241C33.0901 42.3358 33.0784 42.3475 33.0432 42.3593C32.0807 42.6292 31.5056 41.2677 32.4094 40.81C33.3835 40.317 34.1112 41.8076 33.1605 42.3123C33.1371 42.3123 33.1253 42.3123 33.1136 42.3241Z" fill="#E9E9E9"/>
<path d="M45.0395 48.3577C45.0278 48.3695 45.0043 48.3695 44.9926 48.3695C44.9691 48.3812 44.9573 48.393 44.9339 48.4047C43.9714 48.6864 43.3963 47.3249 44.3001 46.8554C45.2625 46.3624 45.9902 47.8531 45.0395 48.3577Z" fill="#E9E9E9"/>
<path d="M8.43093 51.9137C8.41919 51.9254 8.39571 51.9254 8.38398 51.9254C8.3605 51.9372 8.34876 51.9489 8.32529 51.9606C7.36285 52.2306 6.78774 50.8808 7.69149 50.4113C8.65393 49.9184 9.38163 51.4207 8.43093 51.9137Z" fill="#E9E9E9"/>
<path d="M32.9509 74.391C33.9251 73.8981 34.6528 75.3887 33.7021 75.8934C33.6904 75.9051 33.6669 75.9051 33.6552 75.9051C33.6317 75.9169 33.6199 75.9286 33.5847 75.9403C32.6223 76.2103 32.0472 74.8605 32.9509 74.391Z" fill="#E9E9E9"/>
<path d="M23.1142 43.8153C23.1025 43.827 23.079 43.827 23.0673 43.827C23.0438 43.8388 23.0321 43.8505 23.0086 43.8622C22.0462 44.1439 21.4711 42.7707 22.3748 42.313C23.3373 41.82 24.0767 43.3223 23.1142 43.8153Z" fill="#E9E9E9"/>
<path d="M50.872 76.7726C51.8462 76.2797 52.5739 77.7703 51.6232 78.275C51.6114 78.2867 51.588 78.2867 51.5762 78.2867C51.5528 78.2985 51.541 78.3102 51.5058 78.3219C50.5551 78.5919 49.9683 77.2304 50.872 76.7726Z" fill="#E9E9E9"/>
<path d="M38.4557 62.3956C38.444 62.4073 38.4205 62.4073 38.4088 62.4073C38.3853 62.4191 38.3735 62.4308 38.3383 62.4425C37.3759 62.7125 36.8008 61.3627 37.7045 60.8932C38.6787 60.4003 39.4064 61.8909 38.4557 62.3956Z" fill="#E9E9E9"/>
<path d="M36.355 65.424C38.9371 64.2738 41.8244 65.6001 42.916 68.1353C44.0193 70.7175 42.7399 73.4874 40.2517 74.6024C40.2282 74.6142 40.2165 74.6142 40.193 74.6259C40.1578 74.6494 40.1108 74.6728 40.0639 74.6846C34.1014 76.7268 30.592 67.9944 36.355 65.424ZM36.7188 66.9616C34.9817 67.7362 34.524 69.7315 35.2282 71.3747C36.0146 73.2292 37.7751 73.7808 39.5827 73.1822C43.6906 71.1987 41.0263 65.0367 36.7188 66.9616Z" fill="#E9E9E9"/>
<path d="M29.1125 56.4565C31.6946 55.3063 34.5819 56.6325 35.6735 59.1678C36.7768 61.7499 35.4974 64.5199 33.0092 65.6349C32.9857 65.6466 32.974 65.6466 32.9505 65.6584C32.9035 65.6818 32.8683 65.7053 32.8214 65.7171C26.8707 67.7593 23.3613 59.0269 29.1125 56.4565ZM29.4763 57.994C27.7392 58.7687 27.2815 60.764 27.9857 62.4072C28.7721 64.2617 30.5326 64.8133 32.3402 64.2147C36.4481 62.2311 33.7838 56.0809 29.4763 57.994Z" fill="#E9E9E9"/>
<path d="M41.8599 75.8937C44.4421 74.7435 47.3294 76.0698 48.4209 78.605C49.5242 81.1872 48.2449 83.9571 45.7566 85.0722C45.7331 85.0839 45.7214 85.0839 45.6979 85.0956C45.6627 85.1191 45.6158 85.1426 45.5688 85.1543C39.6181 87.1966 36.1087 78.4642 41.8599 75.8937ZM40.7331 81.8562C41.5195 83.7106 43.2801 84.2623 45.0876 83.6637C49.2073 81.6684 46.5313 75.5182 42.2355 77.443C40.4867 78.2177 40.0289 80.213 40.7331 81.8562Z" fill="#E9E9E9"/>
<path d="M25.0026 91.3145C26.6693 90.5633 28.5942 91.3614 29.3101 93.0281C30.0261 94.6948 29.2632 96.5492 27.62 97.2769C27.5965 97.2887 27.5848 97.2887 27.5613 97.3004C27.5144 97.3239 27.4792 97.3473 27.4322 97.3591C23.5824 98.6854 21.282 92.9812 25.0026 91.3145ZM24.7796 94.9412C25.1787 95.8919 26.012 96.1619 26.9275 95.8802C28.9345 94.8591 27.6904 91.8192 25.5425 92.7816C24.6975 93.1572 24.4275 94.1196 24.7796 94.9412Z" fill="#E9E9E9"/>
<path d="M18.3364 72.2303C18.3129 72.242 18.3012 72.242 18.2777 72.2538C18.2425 72.2772 18.1955 72.3007 18.1486 72.3125C14.2988 73.6387 11.9866 67.9345 15.719 66.2679C17.3857 65.5167 19.3105 66.3148 20.0265 67.9815C20.7425 69.6481 19.9796 71.4909 18.3364 72.2303ZM16.2589 67.7233C15.4138 68.0988 15.1439 69.0613 15.496 69.8829C15.8951 70.8336 16.7284 71.1035 17.6439 70.8218C19.6509 69.8007 18.4068 66.7608 16.2589 67.7233Z" fill="#E9E9E9"/>
<path d="M49.6525 74.4964C49.629 74.5081 49.6173 74.5081 49.5938 74.5199C49.5586 74.5434 49.5116 74.5668 49.4647 74.5786C45.6149 75.9049 43.3027 70.2006 47.0351 68.534C48.7018 67.7828 50.6266 68.5809 51.3426 70.2476C52.0586 71.9143 51.2957 73.757 49.6525 74.4964ZM47.575 69.9894C46.7182 70.365 46.46 71.3274 46.8121 72.149C47.2112 73.0997 48.0445 73.3696 48.96 73.088C50.967 72.0668 49.7229 69.0269 47.575 69.9894Z" fill="#E9E9E9"/>
<path d="M7.51602 67.6653C9.18268 66.9141 11.1076 67.7123 11.8118 69.3789C12.5277 71.0456 11.7648 72.9001 10.1216 73.6278C10.0982 73.6395 10.0864 73.6395 10.063 73.6512C10.0277 73.6747 9.9808 73.6982 9.93385 73.7099C6.09582 75.0362 3.78362 69.332 7.51602 67.6653ZM7.28127 71.2921C7.68033 72.2428 8.51367 72.5127 9.42916 72.231C11.4362 71.2099 10.1921 68.17 8.04418 69.1325C7.19911 69.508 6.92916 70.4705 7.28127 71.2921Z" fill="#E9E9E9"/>
<path d="M35.6139 83.0286C35.5904 83.0404 35.5787 83.0404 35.5552 83.0521C35.52 83.0756 35.473 83.0991 35.4261 83.1108C31.5763 84.4371 29.2641 78.7329 32.9965 77.0662C34.6632 76.315 36.5881 77.1131 37.304 78.7798C38.02 80.4465 37.2571 82.2892 35.6139 83.0286ZM33.5364 78.5216C32.6914 78.8972 32.4214 79.8596 32.7735 80.6812C33.1726 81.6319 34.0059 81.9019 34.9214 81.6202C36.9284 80.5991 35.6843 77.5592 33.5364 78.5216Z" fill="#E9E9E9"/>
<path d="M45.0973 86.7845C46.764 86.0333 48.6888 86.8314 49.4048 88.4981C50.1208 90.1647 49.3579 92.0192 47.7147 92.7469C47.6912 92.7586 47.6795 92.7586 47.656 92.7704C47.609 92.7938 47.5738 92.8173 47.5269 92.8291C43.6771 94.1553 41.3649 88.4394 45.0973 86.7845ZM44.8626 90.4112C45.2616 91.3619 46.0949 91.6319 47.0104 91.3502C49.0175 90.3291 47.7733 87.2891 45.6255 88.2516C44.7804 88.6272 44.5222 89.5896 44.8626 90.4112Z" fill="#E9E9E9"/>
<path d="M46.7865 62.3473C45.7536 62.4177 44.6738 62.2064 43.9813 61.3966C43.9226 61.3379 43.9578 61.244 44.0517 61.2322C45.4837 61.1266 47.0447 62.0656 48.2419 60.974C48.2536 60.9623 48.2888 60.9623 48.3006 60.9858C48.4531 61.8191 47.479 62.312 46.7865 62.3473Z" fill="#E9E9E9"/>
<path d="M29.0896 61.6212C29.0661 61.5039 29.1835 61.3982 29.3009 61.4569C29.7352 61.7151 30.0873 62.0672 30.5098 62.3372C30.9323 62.6071 31.4253 62.7362 31.8478 62.9945C31.8713 63.0179 31.883 63.0531 31.8478 63.0766C30.8619 63.6283 29.3361 62.6071 29.0896 61.6212Z" fill="#E9E9E9"/>
<path d="M9.56884 61.3733C9.90922 62.0188 10.4374 62.5587 11.1181 62.8287C11.2472 62.8756 11.2472 63.0399 11.1181 63.0869C9.51015 63.7676 8.12518 61.2207 8.2895 59.8827C8.30124 59.8005 8.3834 59.7301 8.46556 59.777C9.05241 60.1644 9.25194 60.7747 9.56884 61.3733Z" fill="#E9E9E9"/>
<path d="M16.4593 69.3786C16.518 69.226 16.7058 69.1438 16.8466 69.273C16.9523 69.3669 16.964 69.496 17.0579 69.5899C17.1401 69.6838 17.2574 69.719 17.3396 69.8129C17.3865 69.8598 17.3983 69.9537 17.3396 70.0124C16.964 70.3176 16.2715 69.8363 16.4593 69.3786Z" fill="#E9E9E9"/>
<path d="M8.76044 70.9168C8.81913 71.0694 8.90129 71.1867 8.98345 71.3276C9.01866 71.3863 8.98345 71.4684 8.92476 71.4802C8.54918 71.5858 8.2088 71.2219 8.37312 70.8581C8.45528 70.6703 8.70176 70.7642 8.76044 70.9168Z" fill="#E9E9E9"/>
<path d="M12.8549 80.4694C12.1741 80.0938 11.646 79.5304 11.5755 78.7441C11.5638 78.615 11.7164 78.5563 11.822 78.6032C12.3267 78.8614 12.6671 79.2253 13.0896 79.6009C13.5943 80.0469 14.2164 80.1408 14.768 80.4694C14.8032 80.4929 14.815 80.5398 14.7798 80.5751C14.2399 81.0328 13.4065 80.7746 12.8549 80.4694Z" fill="#E9E9E9"/>
<path d="M21.4233 84.3897C21.8341 85.223 22.0688 85.9859 22.8787 86.5611C23.0312 86.6784 24.2284 87.3709 23.489 87.5822C22.773 87.7817 21.9514 86.9366 21.5758 86.4202C21.1768 85.8686 20.7895 84.9531 21.3294 84.3779C21.3528 84.3427 21.4115 84.3545 21.4233 84.3897Z" fill="#E9E9E9"/>
<path d="M25.6608 93.9324C25.9777 94.1202 26.0364 94.578 26.365 94.7775C26.4472 94.8244 26.4237 94.9418 26.3415 94.9653C25.8603 95.1531 25.2148 94.5545 25.2969 94.0733C25.3322 93.9324 25.5317 93.862 25.6608 93.9324Z" fill="#E9E9E9"/>
<path d="M10.9304 90.0353C11.0008 89.9883 11.0947 90.0236 11.1417 90.094C11.2708 90.3052 11.3295 90.5282 11.3647 90.7747C11.4351 91.1503 11.6346 91.4555 11.8811 91.7489C12.3506 92.3005 12.9844 92.5353 13.5595 92.9344C13.63 92.9813 13.6065 93.0635 13.5361 93.0869C12.7379 93.4156 11.7403 92.7348 11.2121 92.1832C10.7544 91.7137 10.1206 90.493 10.9304 90.0353Z" fill="#E9E9E9"/>
<path d="M34.3686 89.8588C34.709 90.5865 34.8967 91.2437 35.5775 91.7484C36.1761 92.1944 36.8803 92.2883 37.5141 92.6404C37.5493 92.6639 37.5493 92.7109 37.5141 92.7343C36.7982 93.1803 35.7183 92.6287 35.1315 92.2062C34.439 91.7015 33.6878 90.7508 34.1338 89.8588C34.1691 89.7649 34.3334 89.7649 34.3686 89.8588Z" fill="#E9E9E9"/>
<path d="M33.7011 80.7519C33.3959 80.4937 33.2316 80.1064 33.3959 79.7308C33.4311 79.6604 33.525 79.6369 33.5955 79.6838C33.8537 79.8482 33.9476 80.0829 34.1002 80.3529C34.2293 80.5993 34.4875 80.6932 34.6401 80.9162C34.6635 80.9515 34.6401 80.9867 34.6166 80.9984C34.3114 81.1979 33.9241 80.9397 33.7011 80.7519Z" fill="#E9E9E9"/>
<path d="M24.792 73.8501C24.393 73.5684 24.0761 73.1811 23.8296 72.7703C23.5596 72.3243 23.6066 72.0308 23.7826 71.5966C23.8179 71.5144 23.9117 71.4909 23.9704 71.5731C24.123 71.7961 24.3108 71.9487 24.4399 72.2186C24.6394 72.6294 24.9329 72.9346 25.2498 73.2515C25.5784 73.5801 25.9657 73.7914 26.3765 73.9792C26.6465 74.0966 26.9986 74.1553 27.2216 74.3548C27.2333 74.3665 27.2333 74.39 27.2216 74.4017C26.623 74.9886 25.3085 74.2022 24.792 73.8501Z" fill="#E9E9E9"/>
<path d="M42.1636 80.5523C42.5274 80.9044 42.7387 81.3504 43.126 81.7025C43.3373 81.902 43.5838 82.0546 43.8302 82.2189C43.9828 82.3128 44.1823 82.3598 44.2645 82.5241C44.2762 82.5476 44.2762 82.571 44.2528 82.5828C44.1119 82.7588 43.8302 82.6767 43.6424 82.6415C43.2669 82.571 42.9734 82.3598 42.68 82.1368C42.2223 81.7729 41.6823 81.1391 42.0345 80.564C42.0579 80.5288 42.1284 80.5171 42.1636 80.5523Z" fill="#E9E9E9"/>
<path d="M45.7199 89.3551C46.0133 89.4842 46.1072 89.672 46.2833 89.9184C46.4593 90.1532 46.5884 90.3644 46.6706 90.6344C46.6823 90.6579 46.6588 90.6814 46.6354 90.6814C46.3302 90.6579 46.1542 90.5288 45.9429 90.3058C45.6847 90.0475 45.4969 89.7776 45.579 89.402C45.5908 89.3551 45.6612 89.3433 45.7199 89.3551Z" fill="#E9E9E9"/>
<path d="M47.7152 72.3598C47.5743 72.2424 47.4335 72.1133 47.3396 71.9607C47.1988 71.7377 47.234 71.6321 47.2457 71.3856C47.2457 71.3034 47.3396 71.233 47.4218 71.28C47.5157 71.3386 47.633 71.3504 47.7035 71.4325C47.8091 71.5382 47.8795 71.6908 47.9499 71.8199C48.0908 72.0546 48.3607 72.2307 48.4781 72.4771C48.4898 72.5124 48.4898 72.571 48.4429 72.5945C48.2081 72.7002 47.9147 72.5241 47.7152 72.3598Z" fill="#E9E9E9"/>
<path d="M36.6586 71.1156C36.3417 70.5522 36.0013 69.3668 36.7995 69.0499C36.8816 69.0147 36.952 69.0851 36.9872 69.1555C37.0811 69.3785 37.0694 69.5781 37.0459 69.8128C37.0225 70.2001 37.1633 70.5757 37.3511 70.9161C37.5389 71.2565 37.7502 71.5499 38.0318 71.8198C38.1962 71.9842 38.384 72.1015 38.4309 72.3363C38.4309 72.3598 38.4309 72.3832 38.4074 72.395C37.7736 72.7001 36.9168 71.5734 36.6586 71.1156Z" fill="#E9E9E9"/>
</svg>
