<svg width="45" height="86" viewBox="0 0 45 86" fill="none" xmlns="http://www.w3.org/2000/svg">
<g clip-path="url(#clip0_145_34280)">
<path d="M43.5677 61.9035C43.0925 57.2769 42.4103 52.6737 42.0118 48.0393C41.7588 45.1078 41.2759 41.8809 41.7128 38.965C41.8891 37.7753 42.7782 36.9588 43.0848 35.8469C43.5141 34.3073 42.9239 32.8299 43.1921 31.2747C43.1998 31.2514 43.1921 31.2359 43.1998 31.2125C43.4604 31.0648 43.7057 30.8937 43.928 30.7071C45.4073 29.4708 45.1237 28.1256 44.4338 26.4771C44.0813 25.6451 43.4604 25.1241 42.625 24.8986C42.2647 24.8053 41.9504 24.7975 41.5902 24.8053C40.7164 24.8131 41.2146 24.8209 40.954 23.9811C40.0802 21.1663 38.4936 18.6314 36.4548 16.5474C32.768 12.7762 27.441 11.1977 22.3132 11.291C22.2979 10.8867 22.2826 10.4901 22.2596 10.0858C22.1906 8.51508 22.114 6.94437 22.0373 5.36589C21.976 4.09844 22.1216 2.61327 21.6771 1.40802C21.2632 0.280536 19.7839 -0.162682 18.7185 0.0628149C17.6301 0.280536 16.442 1.00368 16.3577 2.25558C16.1508 5.35811 16.4957 8.59283 16.603 11.7031C16.6106 11.8664 16.6183 12.0219 16.6183 12.1852C8.57027 14.6579 2.81401 21.2907 2.59173 30.0151C2.58407 30.1706 2.40011 31.6324 2.91365 31.4458C2.61473 31.5469 2.32347 31.6558 2.02454 31.7646C1.511 31.9512 1.06644 32.2623 0.690864 32.6588C-0.159928 33.5608 -0.267235 36.2279 0.606552 37.1455C1.16608 37.7364 1.9249 38.0863 2.76802 38.2729C3.45019 39.4626 3.58816 40.8467 4.15535 42.0908C4.54626 42.9462 5.51968 43.5294 6.17119 44.1592C7.31325 45.2634 7.6505 47.0829 8.09505 48.5525C8.54728 50.0532 8.96884 51.5617 9.36741 53.078C10.5631 57.588 11.4446 62.1679 12.4946 66.7089C13.0772 69.205 13.7287 71.6854 14.4338 74.1426C15.1467 76.6386 15.7752 79.3368 17.0015 81.6384C17.5994 82.7581 18.7721 83.8078 19.6306 84.7254C20.2897 85.433 21.4011 85.6663 22.2979 85.814C25.2949 86.2961 28.4834 85.7596 31.4267 85.1919C34.5079 84.601 37.6198 83.7456 40.4558 82.3693C42.7016 81.2729 43.2688 79.6167 44.0889 77.2684C44.7864 75.2623 44.2882 72.5408 44.1962 70.4802C44.0813 67.6109 43.859 64.7494 43.5677 61.9035ZM40.2642 25.2563C39.3444 26.7026 35.7343 27.348 34.3776 27.7601C30.6755 28.8798 26.8891 29.7196 23.1027 30.4505C22.8345 24.4087 22.6198 18.3592 22.3592 12.3174C30.7369 12.193 37.8498 16.9596 40.2642 25.2563ZM18.3735 31.2903C18.1589 26.4615 17.9673 21.6328 17.7987 16.7963C17.7527 15.4511 17.7067 14.1059 17.6607 12.7606C18.8718 12.4652 20.0905 12.263 21.3245 12.1619C21.3475 12.7762 21.3781 13.3905 21.4011 14.0048C21.6311 19.51 21.8304 25.0153 22.0756 30.5205C22.0756 30.5594 22.0833 30.5983 22.091 30.6371C20.8569 30.8782 19.6152 31.0959 18.3735 31.2903ZM17.5534 1.85902C18.0133 0.918149 19.4773 0.910374 20.2514 1.29139C21.2862 1.78904 20.9566 4.40169 21.0102 5.36589C21.1175 7.42647 21.2095 9.48705 21.3015 11.5554C20.0675 11.6565 18.8488 11.8509 17.6377 12.1386C17.6071 11.2755 17.5764 10.4201 17.5534 9.55703C17.5151 8.38289 17.4844 7.20875 17.4461 6.03461C17.4154 4.82936 17.0169 2.96318 17.5534 1.85902ZM16.6566 13.2583C16.8559 19.2923 17.0859 25.3185 17.3541 31.3525C17.3541 31.3836 17.3618 31.4147 17.3695 31.4458C15.0624 31.7957 12.7476 32.0757 10.4252 32.2467C9.19878 32.34 4.61524 33.0476 3.67247 31.718C3.18192 22.8847 8.50129 15.871 16.6566 13.2583ZM2.30047 32.7677C2.53041 32.6822 2.76802 32.6044 2.99797 32.5189C4.232 33.8019 7.38989 33.4286 8.80788 33.382C13.1998 33.2265 17.5841 32.5111 21.8994 31.7335C26.2989 30.9326 30.6832 29.9606 34.9678 28.6699C36.5238 28.2033 40.0726 27.4957 41.115 25.8473C41.7895 25.8473 42.3797 25.8784 42.8779 26.2205C42.395 27.8534 37.5968 29.1597 36.6387 29.4785C32.2315 30.9404 27.6633 31.9124 23.1104 32.7521C18.4349 33.6153 13.698 34.284 8.94585 34.5561C7.26726 34.6494 5.57334 34.6883 3.89475 34.5406C3.22025 34.4784 1.80992 34.4162 1.37303 33.7397C1.60297 33.2653 1.9249 32.8999 2.30047 32.7677ZM1.12776 34.4162C2.15484 35.3337 4.76853 35.2326 5.68064 35.2482C9.87329 35.3337 14.0966 34.7816 18.2356 34.1829C23.0874 33.4753 27.9162 32.5344 32.6607 31.2903C35.8569 30.4505 39.4747 29.5874 42.2494 27.6668C42.6403 27.3946 43.0618 27.0447 43.3071 26.6171C43.3914 26.7259 43.4757 26.8503 43.5601 26.9981C44.8094 29.2453 42.9009 30.2872 41.2146 30.9559C39.812 31.508 38.325 31.889 36.8687 32.27C32.5687 33.3898 28.1921 34.2373 23.8232 35.0304C19.2243 35.8625 14.5948 36.5856 9.94227 37.0677C8.29434 37.2388 6.64641 37.3632 4.99081 37.3632C3.94074 37.3632 2.82934 37.3087 1.85591 36.8733C1.03578 36.4923 0.882484 35.3881 1.12776 34.4162ZM43.1921 76.6541C42.7169 79.7644 40.954 81.1485 38.2713 82.1983C34.9755 83.489 31.4267 84.2744 27.9239 84.7098C25.7088 84.982 21.5928 85.6585 20.0215 83.559C18.7874 81.9183 17.7067 80.9619 17.0015 78.9324C15.9745 75.9932 15.1543 72.9606 14.3649 69.9514C13.1768 65.4259 12.2954 60.8227 11.23 56.2661C10.4481 52.938 9.5437 49.6333 8.50895 46.3831C8.10272 45.1001 7.46654 43.9804 6.50078 43.0473C5.59633 42.1764 4.99848 41.6787 4.59224 40.3802C4.38529 39.7037 4.23966 39.0738 3.98673 38.4518C5.51968 38.5606 7.17528 38.3429 8.42464 38.2418C16.1124 37.6353 23.7926 36.2124 31.3347 34.6183C34.4313 33.9652 37.5509 33.2731 40.5708 32.2856C41.0767 32.1223 41.6209 31.9435 42.1421 31.7257C42.0961 32.6355 42.2417 33.5142 42.2954 34.455C42.372 35.7225 41.2913 36.9277 40.8927 38.0941C40.0496 40.5124 40.6781 43.6693 40.8467 46.1653C41.1686 50.8697 41.8278 55.5351 42.3643 60.2084C42.6479 62.6655 42.8626 65.1227 43.0312 67.5876C43.2228 70.5191 43.6444 73.7227 43.1921 76.6541Z" fill="#E9E9E9"/>
<path d="M24.2628 70.6046C24.2628 70.6201 24.2628 70.6357 24.2628 70.6434C24.9526 74.5002 30.7089 73.536 30.134 69.6404C29.8657 67.8286 28.7697 66.981 26.9838 67.0044C25.2362 67.0277 24.1478 68.9094 24.2398 70.5035C24.2551 70.5423 24.2551 70.5735 24.2628 70.6046ZM26.9914 68.0463C28.1412 67.8986 28.8617 68.4818 29.1069 69.5782C29.7201 72.3152 25.8187 73.0928 25.2745 70.4413C25.2285 69.3449 25.8111 68.1941 26.9914 68.0463Z" fill="#E9E9E9"/>
<path d="M35.9057 75.0835C34.1581 75.1068 33.0697 76.9885 33.1617 78.5826C33.1617 78.6137 33.1693 78.6448 33.177 78.6759C33.177 78.6914 33.177 78.707 33.177 78.7148C33.8668 82.5715 39.6231 81.6073 39.0482 77.7117C38.7876 75.9077 37.6915 75.0601 35.9057 75.0835ZM34.1811 78.5204C34.1427 77.424 34.7253 76.2732 35.9057 76.1177C37.0554 75.9699 37.7759 76.5531 38.0211 77.6573C38.6343 80.3943 34.7329 81.1719 34.1811 78.5204Z" fill="#E9E9E9"/>
<path d="M25.5012 64.1736C25.2329 62.3618 24.1369 61.5143 22.351 61.5376C20.6034 61.5609 19.515 63.4426 19.607 65.0367C19.607 65.0678 19.6146 65.0989 19.6223 65.13C19.6223 65.1455 19.6223 65.1533 19.6223 65.1689C20.3198 69.0334 26.0761 68.0692 25.5012 64.1736ZM20.6341 64.9745C20.5957 63.8781 21.1783 62.7273 22.3586 62.5718C23.5083 62.424 24.2288 63.015 24.4741 64.1114C25.0796 66.8484 21.1859 67.626 20.6341 64.9745Z" fill="#E9E9E9"/>
<path d="M34.5128 66.5616C34.5128 66.5771 34.5128 66.5849 34.5128 66.6005C35.2026 70.4572 40.9589 69.493 40.384 65.5974C40.1157 63.7856 39.0197 62.9381 37.2338 62.9614C35.4862 62.9847 34.3978 64.8665 34.4898 66.4605C34.4974 66.5072 34.5051 66.5383 34.5128 66.5616ZM37.2414 64.0034C38.3912 63.8556 39.1117 64.4388 39.3569 65.543C39.9701 68.28 36.0764 69.0576 35.5169 66.4061C35.4785 65.3097 36.0611 64.1589 37.2414 64.0034Z" fill="#E9E9E9"/>
<path d="M23.3432 76.7085C21.5956 76.7318 20.5072 78.6135 20.5992 80.2076C20.5992 80.2387 20.6068 80.2698 20.6145 80.3009C20.6145 80.3164 20.6145 80.3242 20.6145 80.3398C21.3043 84.1965 27.0606 83.2323 26.4857 79.3367C26.2251 77.5327 25.1214 76.6851 23.3432 76.7085ZM21.6186 80.1454C21.5803 79.049 22.1628 77.8982 23.3432 77.7427C24.4929 77.5949 25.2134 78.1781 25.4586 79.2823C26.0642 82.0193 22.1704 82.7969 21.6186 80.1454Z" fill="#E9E9E9"/>
<path d="M31.3774 75.6739C31.3774 75.6584 31.3774 75.6428 31.3774 75.6351C31.1475 74.3598 30.0591 73.4889 28.7637 73.6756C27.4147 73.87 26.5639 75.0907 26.7632 76.4515C26.9702 77.8511 27.8516 78.5276 29.2313 78.5043C30.6033 78.481 31.4771 77.0347 31.4004 75.7672C31.3928 75.7361 31.3851 75.705 31.3774 75.6739ZM29.2236 77.4701C28.4188 77.5712 27.9513 77.1902 27.7826 76.4282C27.3687 74.5698 29.9824 74.0566 30.3733 75.845C30.3887 76.5681 30.0208 77.369 29.2236 77.4701Z" fill="#E9E9E9"/>
<path d="M29.784 80.845C29.715 80.534 29.4237 80.3319 29.1095 80.3941C28.7876 80.4563 28.5959 80.7673 28.6496 81.0939C28.7032 81.4049 28.9332 81.5682 29.2398 81.5682C29.5694 81.576 29.7993 81.2338 29.7916 80.9306C29.7916 80.915 29.784 80.8995 29.784 80.8839C29.784 80.8684 29.7916 80.8606 29.784 80.845Z" fill="#E9E9E9"/>
<path d="M31.1876 67.8986C30.8657 67.9608 30.6741 68.2719 30.7277 68.5985C30.7814 68.9095 31.0113 69.0728 31.3179 69.0728C31.6475 69.0806 31.8774 68.7384 31.8698 68.4352C31.8698 68.4196 31.8621 68.4041 31.8621 68.3885C31.8621 68.373 31.8621 68.3652 31.8621 68.3496C31.7855 68.0464 31.5019 67.8364 31.1876 67.8986Z" fill="#E9E9E9"/>
<path d="M31.9168 57.8685C31.8478 57.5575 31.5565 57.3553 31.2423 57.4175C30.9204 57.4797 30.7287 57.7907 30.7824 58.1173C30.8361 58.4283 31.066 58.5916 31.3726 58.5916C31.7022 58.5994 31.9321 58.2573 31.9245 57.954C31.9245 57.9385 31.9168 57.9229 31.9168 57.9074C31.9168 57.8996 31.9168 57.884 31.9168 57.8685Z" fill="#E9E9E9"/>
<path d="M18.7215 50.0999C18.6525 49.7889 18.3612 49.5867 18.047 49.6489C17.7251 49.7111 17.5334 50.0222 17.5871 50.3488C17.6407 50.6598 17.8707 50.8231 18.1773 50.8231C18.5069 50.8309 18.7368 50.4887 18.7291 50.1855C18.7291 50.1699 18.7215 50.1544 18.7215 50.1388C18.7215 50.1233 18.7291 50.1155 18.7215 50.0999Z" fill="#E9E9E9"/>
<path d="M29.1432 51.6864C29.1432 51.6709 29.1355 51.6553 29.1355 51.6398C29.1355 51.6242 29.1355 51.6165 29.1355 51.6009C29.0666 51.2899 28.7753 51.0877 28.461 51.1499C28.1391 51.2121 27.9475 51.5232 28.0011 51.8497C28.0548 52.1608 28.2847 52.3241 28.5913 52.3241C28.9209 52.3241 29.1509 51.9897 29.1432 51.6864Z" fill="#E9E9E9"/>
<path d="M21.2604 45.0536C21.2604 45.0381 21.2527 45.0225 21.2527 45.007C21.2527 44.9914 21.2527 44.9836 21.2527 44.9681C21.1837 44.6571 20.8925 44.4549 20.5782 44.5171C20.2563 44.5793 20.0647 44.8903 20.1183 45.2169C20.172 45.528 20.4019 45.6912 20.7085 45.6912C21.0381 45.699 21.2681 45.3647 21.2604 45.0536Z" fill="#E9E9E9"/>
<path d="M26.8023 46.951C27.1319 46.9588 27.3618 46.6244 27.3541 46.3134C27.3541 46.2978 27.3465 46.2823 27.3465 46.2667C27.3465 46.2512 27.3465 46.2434 27.3465 46.2279C27.2775 45.9168 26.9862 45.7147 26.672 45.7769C26.3501 45.8391 26.1584 46.1501 26.2121 46.4767C26.2657 46.7877 26.4957 46.951 26.8023 46.951Z" fill="#E9E9E9"/>
<path d="M34.0809 49.4464C34.0809 49.4309 34.0809 49.4231 34.0809 49.4076C34.0119 49.0965 33.7206 48.8944 33.4063 48.9566C33.0844 49.0188 32.8928 49.3298 32.9465 49.6564C33.0001 49.9674 33.2301 50.1307 33.5366 50.1307C33.8662 50.1385 34.0962 49.7963 34.0885 49.4931C34.0885 49.4775 34.0809 49.462 34.0809 49.4464Z" fill="#E9E9E9"/>
<path d="M36.4376 43.4524C36.1157 43.5146 35.9241 43.8256 35.9777 44.1522C36.0314 44.4632 36.2613 44.6265 36.5679 44.6265C36.8975 44.6343 37.1274 44.2921 37.1198 43.9889C37.1198 43.9733 37.1121 43.9578 37.1121 43.9422C37.1121 43.9267 37.1121 43.9189 37.1121 43.9033C37.0431 43.6001 36.7519 43.3901 36.4376 43.4524Z" fill="#E9E9E9"/>
<path d="M17.276 56.3212C17.276 56.3057 17.2683 56.2901 17.2683 56.2746C17.2683 56.259 17.2683 56.2512 17.2683 56.2357C17.1994 55.9246 16.9081 55.7225 16.5938 55.7847C16.2719 55.8469 16.0803 56.1579 16.134 56.4845C16.1876 56.7955 16.4176 56.9588 16.7241 56.9588C17.0537 56.9666 17.2837 56.6322 17.276 56.3212Z" fill="#E9E9E9"/>
<path d="M16.9038 65.1541C17.2334 65.1541 17.4634 64.8276 17.4557 64.5165C17.4557 64.501 17.448 64.4854 17.448 64.4699C17.448 64.4543 17.448 64.4465 17.448 64.431C17.3791 64.12 17.0878 63.9178 16.7735 63.98C16.4516 64.0422 16.26 64.3532 16.3136 64.6798C16.375 64.9908 16.6049 65.1464 16.9038 65.1541Z" fill="#E9E9E9"/>
<path d="M41.003 75.9857C40.934 75.6746 40.6427 75.4725 40.3285 75.5347C39.9989 75.5969 39.8149 75.9079 39.8686 76.2345C39.9223 76.5455 40.1522 76.7088 40.4588 76.7088C40.7884 76.7166 41.0183 76.3745 41.0107 76.0712C41.0107 76.0557 41.003 76.0401 41.003 76.0246C41.003 76.0168 41.0107 76.0012 41.003 75.9857Z" fill="#E9E9E9"/>
<path d="M22.172 68.5913C21.8501 68.6535 21.6584 68.9646 21.7121 69.2911C21.7657 69.6022 21.9957 69.7655 22.3023 69.7655C22.6319 69.7655 22.8618 69.4389 22.8541 69.1279C22.8541 69.1123 22.8465 69.0968 22.8465 69.0812C22.8465 69.0656 22.8465 69.0579 22.8465 69.0423C22.7698 68.7313 22.4862 68.5291 22.172 68.5913Z" fill="#E9E9E9"/>
<path d="M22.8882 59.2752C23.2178 59.283 23.4477 58.9486 23.4401 58.6376C23.4401 58.6221 23.4324 58.6065 23.4324 58.591C23.4324 58.5754 23.4324 58.5676 23.4324 58.5521C23.3634 58.2411 23.0722 58.0389 22.7579 58.1011C22.436 58.1633 22.2444 58.4743 22.298 58.8009C22.3593 59.1119 22.5893 59.2675 22.8882 59.2752Z" fill="#E9E9E9"/>
<path d="M41.7056 71.8556C41.7056 71.8401 41.7056 71.8245 41.7056 71.8167C41.4756 70.5415 40.3872 69.6706 39.0919 69.865C37.7429 70.0594 36.8921 71.2802 37.0914 72.641C37.2983 74.0406 38.1798 74.7171 39.5594 74.6938C40.9314 74.6704 41.8052 73.2164 41.7286 71.9567C41.7132 71.9178 41.7132 71.8867 41.7056 71.8556ZM39.5518 73.6518C38.747 73.7529 38.2794 73.3719 38.1108 72.6099C37.6969 70.7515 40.3106 70.2383 40.7015 72.0267C40.7168 72.7498 40.3412 73.543 39.5518 73.6518Z" fill="#E9E9E9"/>
<path d="M33.9787 64.1735C33.9787 64.1424 33.971 64.1113 33.9634 64.0802C33.9634 64.0647 33.9634 64.0569 33.9634 64.0413C33.7334 62.7661 32.645 61.8952 31.3497 62.0896C30.0007 62.284 29.1499 63.5048 29.3492 64.8656C29.5561 66.2652 30.4376 66.9417 31.8172 66.9184C33.1816 66.8873 34.0554 65.441 33.9787 64.1735ZM31.8096 65.8764C31.0048 65.9775 30.5372 65.5965 30.3686 64.8345C29.9547 62.9761 32.5684 62.4629 32.9593 64.2513C32.9746 64.9744 32.6067 65.7676 31.8096 65.8764Z" fill="#E9E9E9"/>
<path d="M38.0294 57.4246C36.6804 57.619 35.8296 58.8398 36.0289 60.2005C36.2358 61.6002 37.1173 62.2767 38.4969 62.2533C39.8689 62.23 40.7427 60.7837 40.6661 59.5163C40.6661 59.4852 40.6584 59.4541 40.6507 59.423C40.6507 59.4074 40.6507 59.3919 40.6507 59.3841C40.4208 58.1089 39.3247 57.238 38.0294 57.4246ZM39.639 59.5862C39.6543 60.3172 39.2864 61.1103 38.4893 61.2192C37.6845 61.3202 37.2169 60.9392 37.0483 60.1772C36.6344 58.311 39.2481 57.7978 39.639 59.5862Z" fill="#E9E9E9"/>
<path d="M20.2521 68.7225C20.2521 68.6914 20.2445 68.6603 20.2368 68.6292C20.2368 68.6137 20.2368 68.6059 20.2368 68.5903C20.0069 67.3151 18.9185 66.452 17.6231 66.6386C16.2741 66.833 15.4233 68.0538 15.6226 69.4068C15.8296 70.8064 16.711 71.4829 18.0907 71.4596C19.455 71.4363 20.3288 69.9822 20.2521 68.7225ZM18.083 70.4177C17.2782 70.5187 16.8106 70.1377 16.642 69.3757C16.2281 67.5173 18.8418 67.0041 19.2327 68.7925C19.2481 69.5157 18.8801 70.3166 18.083 70.4177Z" fill="#E9E9E9"/>
<path d="M24.6428 73.3961C24.6428 73.365 24.6351 73.3339 24.6274 73.3028C24.6274 73.2873 24.6274 73.2795 24.6274 73.264C24.3975 71.9887 23.3091 71.1178 22.0137 71.3045C20.6647 71.4989 19.8139 72.7197 20.0132 74.0804C20.2202 75.4801 21.1016 76.1565 22.4813 76.1332C23.838 76.1099 24.7117 74.6558 24.6428 73.3961ZM21.025 74.0493C20.6111 72.1909 23.2248 71.6777 23.6157 73.4661C23.631 74.197 23.2631 74.9902 22.466 75.099C21.6688 75.2001 21.1936 74.8113 21.025 74.0493Z" fill="#E9E9E9"/>
<path d="M33.9424 74.3286C35.3144 74.3052 36.1882 72.8512 36.1115 71.5915C36.1115 71.5604 36.1038 71.5293 36.0962 71.4982C36.0962 71.4826 36.0962 71.4749 36.0962 71.4593C35.8662 70.1841 34.7778 69.3132 33.4825 69.5076C32.1335 69.702 31.2827 70.9228 31.482 72.2835C31.6813 73.6676 32.5704 74.3441 33.9424 74.3286ZM35.0921 71.6615C35.1074 72.3924 34.7395 73.1855 33.9424 73.2944C33.1376 73.3955 32.67 73.0145 32.5014 72.2524C32.0875 70.3863 34.7012 69.8731 35.0921 71.6615Z" fill="#E9E9E9"/>
<path d="M25.3331 60.6515C25.54 62.0511 26.4215 62.7276 27.8012 62.7043C29.1732 62.681 30.0469 61.2347 29.9703 59.9672C29.9703 59.9361 29.9626 59.905 29.955 59.8739C29.955 59.8584 29.955 59.8506 29.955 59.835C29.725 58.5598 28.6366 57.6889 27.3413 57.8833C25.9923 58.0777 25.1338 59.2985 25.3331 60.6515ZM28.9509 60.045C28.9662 60.7759 28.5983 61.569 27.8012 61.6779C26.9964 61.779 26.5288 61.398 26.3602 60.6359C25.9386 58.7698 28.5523 58.2566 28.9509 60.045Z" fill="#E9E9E9"/>
<path d="M33.6401 38.475C35.7479 37.8452 37.9477 37.0987 39.7949 35.8624C39.8103 35.8546 39.8179 35.8391 39.8179 35.8313V35.8235C39.8179 35.8157 39.8179 35.808 39.8103 35.7924C39.8103 35.7924 39.8103 35.7924 39.8026 35.7846C39.7949 35.7769 39.7873 35.7691 39.7796 35.7691H39.7719C39.7643 35.7691 39.7566 35.7613 39.7489 35.7691C34.7745 37.4564 29.6774 38.7861 24.5343 39.8203C19.192 40.8933 13.8496 41.4532 8.43061 41.842C8.39995 41.842 8.37695 41.8653 8.37695 41.8964C8.36929 41.9275 8.38462 41.9508 8.41528 41.9586C10.6227 42.5184 13.0448 42.2774 15.2829 42.0752C18.3642 41.8031 21.4301 41.2899 24.473 40.6989C27.5619 40.0924 30.6278 39.3693 33.6401 38.475Z" fill="#E9E9E9"/>
<path d="M30.8625 61.3359C30.8549 61.3436 30.8626 61.3514 30.8702 61.3514C31.2688 61.3281 31.6444 61.2114 32.0506 61.2192C32.5105 61.227 32.955 61.5225 33.4073 61.4292C33.4456 61.4214 33.4686 61.367 33.4456 61.3281C32.978 60.706 31.3148 60.6283 30.8625 61.3359Z" fill="#E9E9E9"/>
<path d="M31.9461 60.2786C31.5705 60.2164 31.2486 60.4263 31.0186 60.6985C31.011 60.7062 31.0186 60.7296 31.034 60.7218C31.3176 60.6129 31.6548 60.6207 31.9461 60.543C31.9921 60.5274 32.0304 60.4885 32.038 60.4496C32.0457 60.4263 32.0457 60.403 32.038 60.3797C32.038 60.333 31.9921 60.2864 31.9461 60.2786Z" fill="#E9E9E9"/>
<path d="M19.8189 76.0706C19.5659 75.9229 19.3513 75.7129 19.1597 75.4874C18.9757 75.2697 18.8378 75.0053 18.7075 74.7487C18.6078 74.5621 18.5542 74.3755 18.3856 74.2433C18.3779 74.2355 18.3549 74.2433 18.3549 74.2588C18.2706 74.7098 18.6845 75.3163 18.9298 75.6585C19.1827 76.0162 19.7346 76.5838 20.2098 76.4905C20.2481 76.4827 20.2711 76.4283 20.2481 76.3972C20.1408 76.2339 19.9952 76.1717 19.8189 76.0706Z" fill="#E9E9E9"/>
<path d="M19.7236 76.6847C19.532 76.6536 19.348 76.5836 19.1717 76.5214C19.1257 76.5059 18.7425 76.3504 18.7348 76.4825C18.7195 76.6614 19.1104 76.8247 19.2407 76.8713C19.4706 76.9569 19.8539 77.1357 20.0455 76.9024C20.0608 76.8791 20.0608 76.8558 20.0455 76.8325C19.9535 76.7314 19.8539 76.708 19.7236 76.6847Z" fill="#E9E9E9"/>
<path d="M32.6051 79.6009C32.5132 79.3521 32.5285 78.9944 32.3675 78.7845C32.3445 78.7534 32.2985 78.7378 32.2756 78.7689C32.0763 79.01 32.1912 79.4221 32.2602 79.6942C32.3599 80.0752 32.5591 80.4251 32.8044 80.7284C32.973 80.9306 33.272 80.6351 33.0957 80.4329C32.8734 80.1919 32.7201 79.9119 32.6051 79.6009Z" fill="#E9E9E9"/>
<path d="M31.8142 79.4688C31.7836 79.43 31.7299 79.4533 31.7146 79.5C31.6533 79.6788 31.7069 79.8887 31.7682 80.0598C31.8296 80.2386 31.8909 80.4486 32.0748 80.5264C32.1515 80.5575 32.2128 80.4797 32.2205 80.4175C32.2281 80.2464 32.0902 80.0754 32.0365 79.9198C31.9675 79.7643 31.9215 79.5933 31.8142 79.4688Z" fill="#E9E9E9"/>
<path d="M38.507 55.9235C38.254 55.9469 38.0778 56.0402 37.8555 56.1413C37.8325 56.149 37.8478 56.1801 37.8631 56.1801C38.0548 56.1957 38.2311 56.2268 38.4227 56.2268C38.6756 56.2268 38.9362 56.2968 39.1815 56.2812C39.3271 56.2657 39.3808 56.0868 39.2581 56.0013C39.0588 55.8536 38.7446 55.8924 38.507 55.9235Z" fill="#E9E9E9"/>
<path d="M38.7712 56.5465C38.7406 56.5699 38.7252 56.6243 38.7712 56.6476C38.8862 56.702 39.0165 56.7176 39.1315 56.7643C39.2771 56.8187 39.3691 56.8576 39.5147 56.7954C39.5377 56.7876 39.5454 56.7565 39.5377 56.7331C39.4534 56.4765 38.9858 56.391 38.7712 56.5465Z" fill="#E9E9E9"/>
<path d="M19.5593 61.849C19.3754 62.1056 19.0764 62.5877 19.1761 62.9143C19.1837 62.9454 19.2297 62.961 19.2527 62.9376C19.3677 62.821 19.4367 62.6499 19.521 62.5178C19.6283 62.3545 19.7663 62.2067 19.8736 62.0434C20.0192 61.8413 19.6973 61.6624 19.5593 61.849Z" fill="#E9E9E9"/>
<path d="M18.8074 62.6115C18.907 62.526 19.2289 62.0361 18.9607 61.9584C18.6924 61.8806 18.7001 62.456 18.7384 62.5882C18.746 62.6271 18.7844 62.6349 18.8074 62.6115Z" fill="#E9E9E9"/>
<path d="M5.1677 30.1011C5.1677 30.1089 5.1677 30.1167 5.1677 30.1245C5.17536 30.1633 5.20602 30.1789 5.22901 30.1789C5.22901 30.1789 5.22901 30.1789 5.23668 30.1789C5.24434 30.1789 5.25201 30.1789 5.25967 30.1711C5.26734 30.1711 5.275 30.1711 5.28267 30.1633C5.298 30.1556 5.31333 30.14 5.31333 30.1167C5.85753 28.5071 6.12579 26.8353 6.79263 25.2568C7.36749 23.8727 8.14164 22.582 9.01542 21.3767C10.6787 19.0984 12.9398 17.6288 14.8867 15.6615C14.8943 15.6537 14.8943 15.646 14.902 15.6304C14.902 15.6226 14.9096 15.6149 14.9096 15.6071C14.9096 15.5915 14.9096 15.5838 14.9096 15.576C14.9096 15.5682 14.9096 15.5604 14.902 15.5527C14.8867 15.5138 14.8483 15.4827 14.7947 15.4982C12.0813 15.9959 9.83555 18.6319 8.2796 20.7624C6.49371 23.2351 4.64649 26.9364 5.1677 30.1011Z" fill="#E9E9E9"/>
<path d="M32.8907 17.2939C33.9408 18.5691 35.0905 19.6655 36.0103 21.0574C36.8458 22.3248 37.3976 23.88 38.394 25.0152C38.4017 25.023 38.4094 25.023 38.417 25.0308C38.4324 25.0386 38.44 25.0386 38.4554 25.0308C38.463 25.0308 38.463 25.0308 38.4707 25.023C38.4784 25.023 38.4784 25.0152 38.486 25.0152C38.5014 25.0075 38.509 24.9997 38.509 24.9841V24.9764C38.509 24.9686 38.5167 24.9608 38.5167 24.953C38.4017 23.3357 37.2213 21.6561 36.3399 20.3653C35.5121 19.1523 34.3547 17.6671 32.9061 17.2317C32.8984 17.2317 32.8907 17.2395 32.8907 17.2395C32.8907 17.2395 32.8831 17.2395 32.8831 17.2472C32.8831 17.2706 32.8831 17.2861 32.8907 17.2939Z" fill="#E9E9E9"/>
<path d="M37.7111 38.5756C37.7034 38.5522 37.6804 38.5289 37.6421 38.5367C36.1551 38.8477 34.7601 39.3998 33.3115 39.843C31.6482 40.3484 29.8547 40.6128 28.2527 41.2893C28.2374 41.2971 28.2297 41.3049 28.2374 41.3204C28.2374 41.336 28.245 41.3437 28.2604 41.3437C29.893 41.5226 31.6405 41.0405 33.2118 40.6128C34.7984 40.1851 36.3544 39.6253 37.6957 38.6455C37.7264 38.6378 37.7264 38.5989 37.7111 38.5756Z" fill="#E9E9E9"/>
</g>
<defs>
<clipPath id="clip0_145_34280">
<rect width="45" height="86" fill="white" transform="matrix(-1 0 0 1 45 0)"/>
</clipPath>
</defs>
</svg>
