<svg width="59" height="101" viewBox="0 0 59 101" fill="none" xmlns="http://www.w3.org/2000/svg">
<path d="M26.4192 40.6057C26.5659 33.7393 26.7232 26.8624 26.87 19.996C26.8909 19.0944 25.4967 19.0944 25.4757 19.996C25.3185 26.8624 25.1717 33.7393 25.0249 40.6057C24.9935 41.5072 26.3982 41.5072 26.4192 40.6057Z" fill="#E9E9E9"/>
<path d="M34.678 40.5125C34.8352 33.6147 34.982 26.7063 35.1392 19.8085C35.1602 18.9069 33.7659 18.9069 33.745 19.8085C33.5877 26.7063 33.441 33.6147 33.2837 40.5125C33.2523 41.4141 34.657 41.4141 34.678 40.5125Z" fill="#E9E9E9"/>
<path d="M32.969 4.40886C33.0424 4.35645 33.0319 4.25162 32.948 4.23065C32.1303 3.96858 31.2498 4.08389 30.4111 4.04196C29.6039 4.00002 28.7862 3.80085 27.9895 3.97906C27.9476 3.98954 27.9266 4.05244 27.9581 4.08389C29.0693 5.07978 31.7425 5.25799 32.969 4.40886Z" fill="#E9E9E9"/>
<path d="M56.7144 47.85C59.4609 45.0405 59.9327 39.1805 56.9555 36.3606C56.966 36.3186 56.966 36.2767 56.966 36.2348C57.1442 24.001 46.8184 14.388 35.2975 12.26C35.3604 9.51341 35.4233 6.77733 35.5176 4.03076C35.6015 1.63014 32.6243 0.959221 30.7793 0.88584C28.8923 0.801975 26.1982 1.52531 25.8941 3.71627C25.5168 6.46283 25.5272 9.34568 25.5587 12.1971C25.5272 12.1971 25.4958 12.1971 25.4748 12.2076C13.8805 14.1679 3.40796 23.7494 3.4394 35.9832C3.40796 36.0041 3.38699 36.0146 3.35554 36.0356C-0.407884 38.9918 0.52511 45.0196 3.65955 48.1121C4.67641 56.5195 5.06428 65.0422 5.72471 73.4811C6.11259 78.4606 6.50046 83.4296 6.9093 88.409C7.08751 90.6209 7.28669 92.6966 8.53418 94.594C9.75021 96.439 12.0041 97.3616 14.0168 98.043C19.1745 99.8146 24.9716 100.056 30.3704 100.045C35.7063 100.035 41.2728 99.5945 46.3886 97.9696C51.2632 96.4181 52.93 93.2836 53.3388 88.3985C53.7477 83.4296 54.1355 78.4501 54.5234 73.4706C55.1839 64.9898 55.5717 56.4252 56.5991 47.9758V47.9653C56.641 47.9339 56.6829 47.8919 56.7144 47.85ZM36.482 13.9477C36.199 14.5558 35.7692 15.0799 35.2346 15.5097C35.245 14.9017 35.266 14.2937 35.2765 13.6857C35.6749 13.7591 36.0837 13.8429 36.482 13.9477ZM27.2884 3.73724C27.4666 2.42685 29.8463 2.30105 30.7793 2.28009C31.8485 2.25912 33.0436 2.5212 33.8508 3.2655C34.4378 3.81062 34.0814 5.60322 34.0605 6.29511C33.9661 9.63921 33.8927 12.9833 33.8193 16.3379C31.6913 17.2604 28.9028 17.2709 26.9634 16.254C27.0368 13.0777 27.1102 9.90128 27.194 6.72491C27.2045 5.74999 27.1521 4.71216 27.2884 3.73724ZM25.5587 13.6018C25.5587 14.1364 25.5587 14.6606 25.5587 15.1848C25.2127 14.7759 24.9402 14.3042 24.7829 13.7486C25.045 13.6962 25.3071 13.6437 25.5587 13.6018ZM23.4306 14.0735C24.9087 19.9965 35.6644 19.6401 37.8448 14.3147C47.4893 17.2394 55.6241 25.5315 55.5717 36.0461C53.8525 37.65 51.2946 38.5515 49.1351 39.2958C42.5098 41.6021 35.2555 42.0005 28.2948 41.9271C22.3928 41.8642 16.5223 40.9836 10.9034 39.1595C8.90109 38.5096 6.57384 37.6919 4.82317 36.3815C4.83365 36.3291 4.83365 36.2767 4.83365 36.2243C4.67641 25.3219 13.3564 16.7677 23.4306 14.0735ZM3.89018 37.4298C5.66182 38.7507 7.88423 39.5789 9.92843 40.3127C15.7989 42.4198 22.0888 43.206 28.2948 43.3423C35.6015 43.4995 43.1598 42.8601 50.11 40.4594C52.1333 39.7571 54.3767 38.845 56.0854 37.4613C58.4022 39.8934 57.9304 44.768 55.6137 47.0114C52.3325 49.7579 47.4893 50.5861 43.4009 51.257C40.4656 51.7392 37.4989 52.0118 34.5217 52.1481C34.5112 50.9215 34.5112 49.7055 34.5427 48.5104C34.5636 47.6089 33.1694 47.6089 33.1484 48.5104C33.117 49.737 33.0855 50.9635 33.0541 52.19C30.8212 52.2529 28.5778 52.2319 26.3554 52.1481C26.3973 50.9635 26.4393 49.7789 26.4707 48.5943C26.4917 47.6928 25.0974 47.6928 25.0765 48.5943C25.045 49.7474 24.9716 50.9111 24.8983 52.0852C19.7406 51.8336 14.52 51.1941 9.59297 49.6321C7.7165 49.0451 5.84003 48.2484 4.34095 47.0009C1.85646 44.9147 1.65728 39.799 3.89018 37.4298ZM48.873 71.5732C49.1771 72.8312 48.9674 74.0996 48.2755 75.2318C47.2901 76.8252 45.7281 77.7477 44.0089 77.7477C43.1493 77.7477 42.3002 77.5276 41.4615 77.0978C41.3672 77.0558 41.2833 77.0139 41.2099 76.9615C41.1261 76.9091 41.0527 76.8567 40.9793 76.7833C38.8407 75.1584 38.2013 72.4852 39.4383 70.2628C40.3818 68.5541 42.1534 67.4533 43.9355 67.4533C44.7427 67.4533 45.5185 67.6735 46.2313 68.1033C47.5627 68.9 48.5271 70.1685 48.873 71.5732ZM48.0868 66.426C48.2231 66.2163 48.5166 66.0906 48.7368 66.2583C48.9464 66.405 49.0617 66.6776 48.915 66.9187C48.7787 67.1389 48.5376 67.2122 48.3174 67.1284C48.2965 67.1179 48.265 67.1179 48.2441 67.0969C48.2021 67.076 48.1707 67.0445 48.1497 67.0131C48.0134 66.8453 47.961 66.6252 48.0868 66.426ZM44.6484 88.5034C43.7888 88.5034 42.9396 88.2832 42.101 87.8534C42.0066 87.8115 41.9228 87.7695 41.8494 87.7171C41.7655 87.6647 41.6921 87.6123 41.6188 87.5389C39.4802 85.914 38.8407 83.2409 40.0777 81.008C41.0212 79.2992 42.7929 78.1985 44.575 78.1985C45.3822 78.1985 46.1579 78.4186 46.8708 78.8485C48.2126 79.6556 49.1771 80.9241 49.523 82.3288C49.827 83.5868 49.6173 84.8553 48.9255 85.9874C47.9296 87.5809 46.3676 88.5034 44.6484 88.5034ZM47.9715 89.9081C47.8352 90.1282 47.5941 90.2016 47.374 90.1178C47.353 90.1073 47.3215 90.1073 47.3006 90.0863C47.2586 90.0653 47.2272 90.0339 47.2062 90.0024C47.07 89.8452 47.0071 89.6251 47.1329 89.4259C47.2691 89.2162 47.5627 89.0904 47.7828 89.2581C48.0029 89.3944 48.1183 89.667 47.9715 89.9081ZM45.6233 91.3443C45.4346 91.6692 45.0782 91.7741 44.7427 91.6483C44.7113 91.6378 44.6693 91.6273 44.6379 91.6064C44.575 91.5749 44.533 91.533 44.5016 91.4806C44.2919 91.2499 44.2081 90.925 44.3968 90.6419C44.5959 90.3379 45.0153 90.1597 45.3507 90.3903C45.6757 90.6105 45.833 90.9983 45.6233 91.3443ZM39.7318 77.9259C39.8681 77.7163 40.1616 77.5905 40.3818 77.7582C40.5914 77.905 40.7067 78.1775 40.56 78.4186C40.4237 78.6388 40.1826 78.7122 39.9624 78.6283C39.9415 78.6178 39.91 78.6178 39.889 78.5969C39.8471 78.5759 39.8157 78.5444 39.7947 78.513C39.6584 78.3453 39.5955 78.1146 39.7318 77.9259ZM49.6173 77.9574C49.4286 78.2824 49.0722 78.3872 48.7368 78.2614C48.7053 78.2509 48.6634 78.2404 48.6319 78.2195C48.569 78.188 48.5271 78.1461 48.4957 78.0937C48.286 77.863 48.2021 77.5381 48.3908 77.255C48.59 76.951 49.0093 76.7728 49.3448 77.0034C49.6593 77.2131 49.827 77.601 49.6173 77.9574ZM41.1575 60.0942C40.9688 60.4192 40.6124 60.524 40.2769 60.3982C40.2455 60.3878 40.2035 60.3773 40.1721 60.3563C40.1092 60.3249 40.0673 60.2829 40.0358 60.2305C39.8261 59.9999 39.7423 59.6749 39.931 59.3919C40.1302 59.0879 40.5495 58.9096 40.8849 59.1403C41.2099 59.3604 41.3672 59.7483 41.1575 60.0942ZM40.0253 65.6083C39.8366 65.9333 39.4802 66.0381 39.1447 65.9123C39.1133 65.9019 39.0714 65.8914 39.0399 65.8704C38.977 65.839 38.9351 65.797 38.9036 65.7446C38.694 65.514 38.6101 65.189 38.7988 64.906C38.998 64.602 39.4173 64.4237 39.7528 64.6544C40.0673 64.864 40.235 65.2519 40.0253 65.6083ZM40.1197 88.0316C41.1156 88.6292 41.8284 89.5726 42.0905 90.6314C42.3211 91.5959 42.1639 92.5498 41.6397 93.399C40.9059 94.594 39.7213 95.2754 38.4214 95.2754C37.8239 95.2754 37.2368 95.1391 36.6707 94.8666C36.545 94.8247 36.4296 94.7722 36.3248 94.6989C36.22 94.636 36.1151 94.5521 36.0313 94.4682C34.5217 93.2417 34.0919 91.2604 34.9935 89.6355C35.6958 88.3671 37.0272 87.5389 38.3795 87.5389C38.9875 87.5389 39.5746 87.6962 40.1197 88.0316ZM37.9392 83.136C36.9538 84.7295 35.3918 85.652 33.6726 85.652C32.813 85.652 31.9638 85.4318 31.1252 85.002C31.0309 84.9601 30.947 84.9182 30.8736 84.8657C30.7897 84.8133 30.7164 84.7609 30.643 84.6875C28.5044 83.0626 27.865 80.3895 29.102 78.1566C30.0454 76.4478 31.8171 75.3471 33.5992 75.3471C34.4064 75.3471 35.1821 75.5672 35.895 75.9971C37.2368 76.8043 38.2013 78.0727 38.5472 79.4774C38.8512 80.7459 38.6416 82.0039 37.9392 83.136ZM33.5992 88.0211C33.5782 88.0107 33.5468 88.0107 33.5258 87.9897C33.4839 87.9687 33.4524 87.9373 33.4315 87.9058C33.2952 87.7486 33.2323 87.5284 33.3581 87.3293C33.4944 87.1196 33.7879 86.9938 34.008 87.1615C34.2177 87.3083 34.333 87.5809 34.1863 87.822C34.0709 88.0316 33.8193 88.105 33.5992 88.0211ZM33.6097 95.3278C33.4734 95.548 33.2323 95.6214 33.0122 95.5375C32.9912 95.527 32.9597 95.527 32.9388 95.5061C32.8968 95.4851 32.8654 95.4536 32.8444 95.4222C32.7081 95.2649 32.6452 95.0343 32.771 94.8456C32.9073 94.636 33.2008 94.5102 33.421 94.6779C33.6411 94.8247 33.7565 95.0867 33.6097 95.3278ZM19.4261 86.1761C19.3003 86.1342 19.185 86.0818 19.0801 86.0084C18.9753 85.9455 18.8705 85.8616 18.7866 85.7778C17.2771 84.5512 16.8473 82.5699 17.7488 80.9451C18.4512 79.6766 19.7825 78.8485 21.1348 78.8485C21.7533 78.8485 22.3509 79.0162 22.896 79.3412C23.8919 79.9387 24.6047 80.8822 24.8668 81.941C25.0974 82.9054 24.9402 83.8594 24.416 84.7085C23.6822 85.9036 22.4976 86.585 21.1977 86.585C20.5897 86.585 19.9922 86.4487 19.4261 86.1761ZM20.9357 94.29C20.747 94.615 20.3905 94.7198 20.0551 94.594C20.0236 94.5835 19.9817 94.5731 19.9502 94.5521C19.8873 94.5206 19.8454 94.4787 19.814 94.4263C19.6043 94.1957 19.5204 93.8707 19.7091 93.5877C19.9083 93.2836 20.3276 93.1054 20.6631 93.3361C20.9776 93.5562 21.1348 93.9441 20.9357 94.29ZM18.0109 68.9419C19.3527 69.7491 20.3172 71.0176 20.6631 72.4223C20.9671 73.6803 20.7574 74.9488 20.0656 76.0809C19.0801 77.6744 17.5182 78.5969 15.7989 78.5969C14.9393 78.5969 14.0902 78.3767 13.262 77.9469C13.1677 77.905 13.0838 77.863 13.0104 77.8106C12.9266 77.7582 12.8532 77.7058 12.7798 77.6324C10.6413 76.0075 10.0018 73.3344 11.2388 71.1015C12.1823 69.3927 13.9539 68.292 15.736 68.292C16.5223 68.292 17.298 68.5121 18.0109 68.9419ZM17.9794 65.1995C18.1157 64.9898 18.4092 64.864 18.6294 65.0318C18.839 65.1785 18.9544 65.4511 18.8076 65.6922C18.6713 65.9123 18.4302 65.9857 18.2101 65.9019C18.1891 65.8914 18.1576 65.8914 18.1367 65.8704C18.0947 65.8494 18.0633 65.818 18.0423 65.7865C17.906 65.6188 17.8431 65.3882 17.9794 65.1995ZM25.1184 69.7911C25.7369 69.7911 26.3344 69.9588 26.8796 70.2838C27.8754 70.8813 28.5883 71.8353 28.8504 72.8836C29.081 73.848 28.9238 74.802 28.3996 75.6511C27.6658 76.8462 26.4812 77.5276 25.1813 77.5276C24.5838 77.5276 23.9967 77.3913 23.4306 77.1187C23.3048 77.0768 23.1895 77.0244 23.0847 76.951C22.9799 76.8881 22.875 76.8043 22.7912 76.7204C21.2816 75.4939 20.8518 73.5126 21.7533 71.8877C22.4347 70.6192 23.7661 69.7911 25.1184 69.7911ZM26.628 79.7605C26.4393 80.0855 26.0828 80.1903 25.7474 80.0645C25.7159 80.054 25.674 80.0435 25.6426 80.0226C25.5797 79.9911 25.5377 79.9492 25.5063 79.8968C25.2966 79.6661 25.2127 79.3412 25.4014 79.0581C25.6006 78.7541 26.0199 78.5759 26.3554 78.8065C26.6804 79.0162 26.8376 79.4041 26.628 79.7605ZM21.7848 69.2145C21.5961 69.5395 21.2397 69.6443 20.9042 69.5185C20.8728 69.508 20.8308 69.4976 20.7994 69.4766C20.7365 69.4451 20.6945 69.4032 20.6631 69.3508C20.4534 69.1202 20.3696 68.7952 20.5583 68.5121C20.7574 68.2081 21.1768 68.0299 21.5122 68.2605C21.8372 68.4807 21.9944 68.8686 21.7848 69.2145ZM21.2816 61.8868C21.1453 62.107 20.9042 62.1804 20.6841 62.0965C20.6631 62.086 20.6316 62.086 20.6107 62.0651C20.5687 62.0441 20.5373 62.0126 20.5163 61.9812C20.38 61.8239 20.3171 61.6038 20.4429 61.4046C20.5792 61.195 20.8728 61.0692 21.0929 61.2369C21.313 61.3732 21.4284 61.6457 21.2816 61.8868ZM15.7989 83.0836C15.6103 83.4086 15.2538 83.5134 14.9184 83.3876C14.8869 83.3771 14.845 83.3667 14.8135 83.3457C14.7506 83.3142 14.7087 83.2723 14.6773 83.2199C14.4676 82.9893 14.3837 82.6643 14.5724 82.3812C14.7716 82.0772 15.1909 81.899 15.5264 82.1297C15.8514 82.3393 16.0086 82.7377 15.7989 83.0836ZM13.1467 80.7669C13.0105 80.987 12.7693 81.0604 12.5492 80.9765C12.5282 80.966 12.4968 80.966 12.4758 80.9451C12.4339 80.9241 12.4024 80.8927 12.3815 80.8612C12.2452 80.704 12.1823 80.4733 12.3081 80.2846C12.4444 80.075 12.7379 79.9492 12.958 80.1169C13.1782 80.2637 13.283 80.5257 13.1467 80.7669ZM11.8049 83.7126C11.9412 83.5029 12.2347 83.3771 12.4548 83.5449C12.6645 83.6916 12.7798 83.9642 12.6331 84.2053C12.4968 84.4254 12.2557 84.4988 12.0355 84.415C12.0146 84.4045 11.9831 84.4045 11.9621 84.3835C11.9202 84.3625 11.8888 84.3311 11.8678 84.2996C11.7315 84.1424 11.6686 83.9118 11.8049 83.7126ZM12.2033 87.5075C12.9056 86.239 14.237 85.4109 15.5893 85.4109C16.2078 85.4109 16.8053 85.5786 17.3504 85.9036C18.3463 86.5011 19.0592 87.4551 19.3213 88.5034C19.5519 89.4678 19.3946 90.4218 18.8705 91.2709C18.1367 92.466 16.9521 93.1474 15.6522 93.1474C15.0546 93.1474 14.4676 93.0111 13.9015 92.7385C13.7757 92.6966 13.6604 92.6442 13.5556 92.5708C13.4507 92.5079 13.3459 92.424 13.262 92.3402C11.7315 91.1136 11.3017 89.1323 12.2033 87.5075ZM22.7597 87.78C23.7032 86.0713 25.4748 84.9706 27.2569 84.9706C28.0641 84.9706 28.8399 85.1907 29.5527 85.6205C30.8946 86.4277 31.859 87.6962 32.205 89.1009C32.509 90.3589 32.2993 91.6273 31.6074 92.7595C30.622 94.3529 29.06 95.2754 27.3408 95.2754C26.4812 95.2754 25.6321 95.0553 24.8039 94.6255C24.7096 94.5835 24.6257 94.5416 24.5523 94.4892C24.4684 94.4368 24.3951 94.3844 24.3217 94.311C22.1622 92.6861 21.5332 90.0024 22.7597 87.78ZM37.74 74.3407C37.5513 74.6657 37.1949 74.7705 36.8594 74.6447C36.828 74.6343 36.7861 74.6238 36.7546 74.6028C36.6917 74.5714 36.6498 74.5294 36.6183 74.477C36.4087 74.2464 36.3248 73.9214 36.5135 73.6384C36.7127 73.3344 37.132 73.1561 37.4675 73.3868C37.7924 73.6069 37.9497 73.9948 37.74 74.3407ZM36.8909 71.6885C36.1571 72.8836 34.9725 73.565 33.6726 73.565C33.0751 73.565 32.488 73.4287 31.9219 73.1561C31.7961 73.1142 31.6808 73.0618 31.576 72.9884C31.4711 72.9255 31.3663 72.8416 31.2824 72.7473C29.7729 71.5208 29.3431 69.5395 30.2446 67.9146C30.947 66.6462 32.2783 65.818 33.6307 65.818C34.2492 65.818 34.8467 65.9857 35.3918 66.3107C36.3877 66.9082 37.1006 67.8622 37.3626 68.9105C37.5723 69.8749 37.415 70.8394 36.8909 71.6885ZM32.8759 58.4065C32.8444 59.4233 32.8235 60.4402 32.792 61.4465C32.7501 62.736 30.6744 62.9666 29.7624 63.04C28.6931 63.1238 27.5924 62.9247 26.6489 62.411C25.6111 61.8554 25.9675 60.3668 26.0095 59.4128C26.1038 57.463 26.1982 55.5026 26.2715 53.5528C28.5044 53.6471 30.7478 53.6471 32.9912 53.5842C32.9493 55.1882 32.9178 56.8025 32.8759 58.4065ZM53.1292 73.4811C52.7413 78.4606 52.3534 83.4296 51.9446 88.409C51.6615 91.816 50.9592 94.4053 47.657 95.9988C45.3612 97.11 42.688 97.5503 40.1931 97.9486C34.0919 98.9131 27.7392 98.8816 21.6171 98.1897C18.9858 97.8962 16.3755 97.372 13.8701 96.5229C10.0962 95.223 8.65997 92.7176 8.34548 88.8598C7.47539 78.492 6.71012 68.1138 5.89244 57.7355C5.6723 54.9156 5.49409 52.0852 5.19008 49.2757C9.89698 52.0747 16.0296 52.7246 21.3445 53.2278C22.4767 53.3327 23.6193 53.4165 24.762 53.4794C24.72 54.056 24.6781 54.6221 24.6362 55.1986C21.6066 55.5236 18.3568 56.0687 15.5054 56.813C8.91157 58.5323 7.44394 61.9602 7.61167 64.0254C7.75843 65.9752 7.91568 67.9146 8.06244 69.8645C8.50273 75.5777 8.96398 81.4797 9.43572 87.2873L9.44621 87.4551C9.70828 90.6209 9.92843 93.3465 12.7169 94.6989C14.5305 95.5794 16.669 96.1979 19.4471 96.6382C22.8331 97.1833 26.3659 97.4559 29.9196 97.4559C32.6033 97.4559 35.3184 97.2987 37.9916 96.9842C41.1051 96.6173 43.663 96.1979 46.0426 95.3174C49.0827 94.1957 50.3721 92.466 50.6447 89.1533C51.0221 84.6456 51.3785 80.1379 51.7244 75.6197L51.8293 74.2569C52.0389 71.6046 52.2171 68.9 52.3954 66.2793C52.4687 65.1995 52.5421 64.0988 52.6155 63.0085C52.8042 60.2934 52.0494 57.3686 47.332 56.3623C43.8097 55.6075 39.0714 55.1357 34.4903 54.947C34.4903 54.4648 34.4903 53.9931 34.4903 53.5109C36.9852 53.3851 39.4592 53.1649 41.9228 52.8295C46.2523 52.2424 51.2422 51.4772 55.0581 49.066C54.146 57.1799 53.7582 65.3672 53.1292 73.4811Z" fill="#E9E9E9"/>
<path d="M16.8781 45.7434C21.9519 46.8127 27.183 47.0852 32.3511 46.9385C37.079 46.8022 41.8593 46.278 46.4614 45.1459C48.9773 44.5274 52.9294 43.6258 54.3027 41.1204V41.1099C54.3027 41.0994 54.3132 41.0889 54.3027 41.0784C54.3027 41.068 54.3027 41.068 54.2922 41.068C54.2922 41.068 54.2922 41.0575 54.2817 41.0575C54.2817 41.0575 54.2713 41.0575 54.2713 41.047C54.2608 41.0365 54.2608 41.0365 54.2503 41.0365H54.2398C54.2293 41.0365 54.2188 41.0365 54.2084 41.0365H54.1979C47.0694 44.3492 39.27 45.3555 31.4706 45.5023C26.7532 45.5862 21.9939 45.3136 17.3394 44.4854C13.3558 43.7726 9.77061 42.4412 6.11202 40.7535C6.07009 40.7325 6.03864 40.743 6.01767 40.7744C5.99671 40.7954 5.98622 40.8373 6.02816 40.8688C8.57554 43.825 13.2195 44.9781 16.8781 45.7434Z" fill="#E9E9E9"/>
<path d="M46.4401 79.5515C44.3435 78.2935 41.8905 79.4362 40.7898 81.4175C39.689 83.4093 40.4124 85.6212 42.1421 86.9106C42.184 86.9526 42.2259 86.984 42.2888 87.0155C42.3413 87.0574 42.3937 87.0784 42.4461 87.0993C44.5951 88.242 46.9014 87.6759 48.2118 85.5583C49.5851 83.3359 48.5158 80.799 46.4401 79.5515ZM42.9912 85.8099C40.1922 83.8705 42.5404 79.237 45.7378 80.7571C49.2915 82.4553 46.5135 87.8331 42.9912 85.8099Z" fill="#E9E9E9"/>
<path d="M24.8254 93.6711C24.8673 93.7131 24.9092 93.7445 24.9721 93.776C25.0246 93.8179 25.077 93.8389 25.1294 93.8598C27.2784 95.0025 29.5847 94.4364 30.8951 92.3188C32.2684 90.0964 31.1991 87.5595 29.1234 86.312C27.0268 85.054 24.5738 86.1967 23.4731 88.178C22.3723 90.1698 23.1062 92.3817 24.8254 93.6711ZM28.4211 87.528C31.9853 89.2263 29.2073 94.6146 25.6745 92.5809C22.886 90.631 25.2237 85.9975 28.4211 87.528Z" fill="#E9E9E9"/>
<path d="M45.8008 68.7957C43.7042 67.5377 41.2511 68.6803 40.1504 70.6616C39.0497 72.6534 39.773 74.8653 41.5027 76.1548C41.5447 76.1967 41.5866 76.2281 41.6495 76.2596C41.7019 76.3015 41.7543 76.3225 41.8067 76.3435C43.9558 77.4861 46.262 76.92 47.5724 74.8025C48.9457 72.58 47.8764 70.0431 45.8008 68.7957ZM42.3519 75.054C39.5529 73.1147 41.9011 68.4812 45.0984 70.0012C48.6522 71.6995 45.8742 77.0773 42.3519 75.054Z" fill="#E9E9E9"/>
<path d="M23.7037 84.2786C24.6682 82.7271 23.9239 80.9135 22.4667 80.0434C20.9886 79.1524 19.2379 79.9386 18.4622 81.3433C17.6864 82.7376 18.1791 84.2891 19.3742 85.2116C19.4161 85.2535 19.4581 85.285 19.521 85.3164C19.5944 85.3688 19.6677 85.4003 19.7306 85.4108C21.2088 86.1446 22.8022 85.7357 23.7037 84.2786ZM21.7539 81.249C23.7876 82.2134 22.2256 85.264 20.2233 84.1109C18.6614 83.0206 19.9717 80.3998 21.7539 81.249Z" fill="#E9E9E9"/>
<path d="M23.356 76.1552C23.3979 76.1971 23.4398 76.2286 23.5027 76.26C23.5761 76.3124 23.6495 76.3439 23.7124 76.3544C25.201 77.0882 26.7944 76.6689 27.6855 75.2222C28.6499 73.6707 27.9056 71.8571 26.4485 70.987C24.9704 70.096 23.2197 70.8822 22.4439 72.2869C21.6682 73.6917 22.1609 75.2327 23.356 76.1552ZM25.7461 72.2031C27.7798 73.1675 26.2178 76.2181 24.2156 75.0649C22.6431 73.9747 23.9535 71.3539 25.7461 72.2031Z" fill="#E9E9E9"/>
<path d="M35.6962 90.0233C34.9204 91.4176 35.4132 92.9691 36.6082 93.8916C36.6502 93.9335 36.6921 93.965 36.755 93.9964C36.8284 94.0488 36.9017 94.0803 36.9646 94.0908C38.4532 94.8246 40.0467 94.4053 40.9377 92.9586C41.9022 91.4071 41.1579 89.5935 39.7007 88.7234C38.2226 87.8429 36.4719 88.6291 35.6962 90.0233ZM38.9984 89.9395C41.0321 90.9039 39.4701 93.9545 37.4678 92.8014C35.8954 91.7111 37.2058 89.0903 38.9984 89.9395Z" fill="#E9E9E9"/>
<path d="M34.952 67.0233C33.4739 66.1427 31.7232 66.9185 30.9475 68.3232C30.1717 69.7175 30.6644 71.269 31.8595 72.1915C31.9014 72.2334 31.9434 72.2648 32.0063 72.2963C32.0797 72.3487 32.153 72.3802 32.2159 72.3906C33.7045 73.1245 35.2875 72.7051 36.189 71.2585C37.1535 69.707 36.4092 67.8934 34.952 67.0233ZM32.7086 71.0907C31.1467 70.011 32.457 67.3797 34.2392 68.2289C36.2729 69.1933 34.7214 72.2439 32.7086 71.0907Z" fill="#E9E9E9"/>
<path d="M13.8379 91.7746C13.8798 91.8165 13.9217 91.8479 13.9846 91.8794C14.058 91.9318 14.1314 91.9633 14.1943 91.9737C15.6829 92.7076 17.2658 92.2882 18.1674 90.8416C19.1318 89.2901 18.3875 87.4765 16.9304 86.6064C15.4523 85.7153 13.7016 86.5016 12.9259 87.9063C12.1501 89.3006 12.6323 90.8521 13.8379 91.7746ZM16.2175 87.812C18.2513 88.7764 16.6893 91.827 14.687 90.6738C13.125 89.5941 14.4354 86.9628 16.2175 87.812Z" fill="#E9E9E9"/>
<path d="M35.4655 76.6992C33.3689 75.4412 30.9159 76.5839 29.8151 78.5652C28.7144 80.557 29.4378 82.7689 31.1675 84.0583C31.2094 84.1003 31.2513 84.1317 31.3142 84.1632C31.3666 84.2051 31.4191 84.2261 31.4715 84.247C33.6205 85.3897 35.9268 84.8236 37.2372 82.706C38.6104 80.4941 37.5412 77.9467 35.4655 76.6992ZM32.0166 82.9576C29.2176 81.0182 31.5658 76.3847 34.7632 77.9048C38.3274 79.603 35.5494 84.9913 32.0166 82.9576Z" fill="#E9E9E9"/>
<path d="M11.9401 71.5109C10.8394 73.5027 11.5628 75.7146 13.2925 77.004C13.3344 77.0459 13.3763 77.0774 13.4392 77.1088C13.4916 77.1508 13.5441 77.1717 13.5965 77.1927C15.7455 78.3354 18.0518 77.7693 19.3622 75.6517C20.7354 73.4293 19.6662 70.8924 17.5905 69.6449C15.4939 68.3869 13.0304 69.5296 11.9401 71.5109ZM16.8777 70.8504C20.4419 72.5487 17.6639 77.9265 14.1311 75.9033C11.3426 73.9639 13.6803 69.3304 16.8777 70.8504Z" fill="#E9E9E9"/>
<path d="M43.2954 73.5442C43.0857 73.4918 42.8865 73.3975 42.6978 73.2822C42.4567 73.1354 42.4043 72.8524 42.2156 72.6637C42.1946 72.6427 42.1422 72.6427 42.1317 72.6741C41.8906 73.1249 42.2785 73.7644 42.6349 74.0369C43.0752 74.3829 43.9977 74.6974 44.5009 74.3514C44.6267 74.2571 44.6477 74.1103 44.5428 73.9845C44.2388 73.6491 43.7147 73.6596 43.2954 73.5442Z" fill="#E9E9E9"/>
<path d="M32.4781 81.1752C32.3942 81.1332 31.5661 80.63 31.5137 80.9131C31.4088 81.4163 32.3733 81.8775 32.7297 82.0453C33.3587 82.3388 34.0401 82.3912 34.4594 81.7622C34.4804 81.7308 34.4594 81.6679 34.4175 81.6679C33.7361 81.5106 33.1071 81.5211 32.4781 81.1752Z" fill="#E9E9E9"/>
<path d="M34.1863 69.9484C33.9976 69.8331 33.8194 69.8855 33.6097 69.896C33.4001 69.9064 33.1904 69.9169 32.9912 69.9589C32.8759 69.9798 32.8235 70.1371 32.8864 70.2314C33.159 70.6403 33.9976 70.7975 34.2911 70.3467C34.3645 70.2105 34.3121 70.0322 34.1863 69.9484Z" fill="#E9E9E9"/>
<path d="M24.7198 74.687C25.0553 74.8023 25.6738 74.8652 25.8939 74.4983C26.0721 74.1838 25.7052 74.0266 25.4536 74.058C25.0029 74.0999 24.6884 73.9322 24.2586 73.8274C24.1852 73.8064 24.1013 73.8588 24.1013 73.9427C24.1328 74.2886 24.4053 74.5717 24.7198 74.687Z" fill="#E9E9E9"/>
<path d="M13.7031 74.1097C13.8394 74.6758 14.2587 75.0427 14.8143 75.1999C15.1079 75.2838 15.4223 75.2838 15.7159 75.2523C16.1247 75.2104 16.2715 75.1056 16.565 74.8435C16.6384 74.7806 16.586 74.6758 16.5126 74.6548C16.2505 74.5709 16.1562 74.4871 15.8626 74.5185C15.632 74.55 15.4014 74.55 15.1603 74.5395C14.6676 74.529 14.2378 74.246 13.808 74.0363C13.7555 73.9944 13.6926 74.0468 13.7031 74.1097Z" fill="#E9E9E9"/>
<path d="M21.1457 83.744C21.4917 83.7335 21.89 83.4924 22.0053 83.1674C22.0787 82.9473 21.8481 82.7167 21.6175 82.7796C21.3659 82.8529 21.1562 83.0836 20.9256 83.2199C20.8312 83.2723 20.4958 83.3037 20.5272 83.4714C20.5796 83.7126 20.9465 83.7545 21.1457 83.744Z" fill="#E9E9E9"/>
<path d="M16.0915 90.0869C16.3431 89.9296 16.7624 89.5522 16.5108 89.2377C16.3116 88.9861 15.9132 89.4474 15.7875 89.5732C15.6826 89.6675 15.148 89.9611 15.2318 90.1393C15.3681 90.4013 15.9028 90.2126 16.0915 90.0869Z" fill="#E9E9E9"/>
<path d="M28.2848 91.6481C28.6936 91.428 28.9557 90.9667 28.9347 90.516C28.9242 90.3482 28.767 90.2748 28.6307 90.3377C28.5154 90.3902 28.3162 90.4845 28.2219 90.5893C28.1065 90.7256 28.0017 90.8724 27.8654 90.9982C27.6348 91.2183 27.3727 91.3336 27.1316 91.5328C27.0792 91.5747 27.1002 91.6586 27.1526 91.6901C27.488 91.9417 27.9493 91.8263 28.2848 91.6481Z" fill="#E9E9E9"/>
<path d="M38.3583 92.3614C38.6518 92.4452 38.9244 92.309 39.134 92.1098C39.3961 91.8582 39.5219 91.5437 39.3542 91.2187C39.3227 91.1558 39.2284 91.1139 39.155 91.1348C38.9139 91.2187 38.8091 91.3235 38.6728 91.5437C38.547 91.7429 38.3897 91.9316 38.2639 92.1307C38.2115 92.2146 38.2639 92.3404 38.3583 92.3614Z" fill="#E9E9E9"/>
<path d="M45.7915 83.0415C45.498 83.3665 45.3827 83.8068 45.0997 84.1422C44.8585 84.4148 44.6174 84.6349 44.261 84.7293C44.2296 84.7398 44.2296 84.7607 44.2296 84.7817C44.3239 85.3792 45.1835 85.1381 45.5085 84.918C45.9697 84.593 46.5882 83.8068 46.4205 83.1988C46.3367 82.9472 45.9802 82.8214 45.7915 83.0415Z" fill="#E9E9E9"/>
</svg>
