<svg width="99" height="104" viewBox="0 0 99 104" fill="none" xmlns="http://www.w3.org/2000/svg">
<path d="M52.622 2.20796C55.5551 3.22136 58.3946 5.61402 60.3416 8.56796C62.1164 8.65395 63.987 9.25727 65.8485 10.4853C72.4862 14.8063 77.8766 24.6591 75.0013 32.4855C74.971 32.556 74.9406 32.6266 74.899 32.7119C76.2201 34.1607 77.3659 35.6868 78.0272 36.9615C79.7123 40.1374 78.416 42.7311 76.2171 45.3171C75.3995 46.2394 74.6191 47.1433 73.8057 47.9987C73.857 48.0845 73.8822 48.1739 73.9109 48.2893C74.8127 51.8522 76.8445 55.7362 76.4369 59.5201C76.088 62.951 74.6642 65.6817 72.705 68.4733C66.8127 76.8367 59.185 84.4188 52.0979 91.7803C47.9191 96.1127 43.4887 98.1718 37.7239 96.0116C31.6518 93.7347 26.8607 88.0571 22.5807 83.4231C18.6758 79.2146 12.3014 75.3745 11.4924 69.2386C10.5542 62.139 18.482 55.5101 22.3765 50.5405C27.4354 44.07 33.5127 37.0871 39.7101 31.6927C44.7323 27.3231 52.0123 29.5124 57.5063 31.6305C60.4839 28.3266 64.3682 25.8522 68.6089 27.7193C69.9483 28.3166 71.4878 29.4168 72.9363 30.7285C74.3306 24.5131 68.5063 12.4123 61.6112 10.8198C63.1462 14.1623 63.4519 17.9271 61.6007 21.1282C60.4133 23.1497 58.0142 26.1215 55.2655 25.6928C52.22 25.2255 50.1168 22.2932 50.2881 19.2185C50.5939 13.8834 53.5468 9.99923 57.5197 8.87895C55.8511 6.81503 53.696 5.17661 51.696 4.49834C50.1848 4.00445 51.122 1.69925 52.622 2.20796ZM38.653 36.2695C33.9717 41.6001 28.8552 46.5531 24.3397 52.0331C20.4736 56.7202 14.8731 61.8198 13.9578 68.0484C13.1765 73.3963 21.2978 78.4007 24.5512 81.9034C28.0878 85.7383 31.7103 89.5216 36.1097 92.3749C43.7962 97.3997 49.266 91.5223 54.2525 85.6985C59.0776 80.0562 64.5472 75.0676 69.085 69.16C71.6807 65.7763 74.0631 62.5813 73.9938 58.1073C73.9466 55.3812 72.7149 52.6201 71.8798 49.95C68.5591 52.9698 64.9129 54.5489 59.8931 51.7152C54.5885 48.7351 50.212 42.7879 53.717 36.8906C54.3237 35.8781 55.0467 34.7433 55.8807 33.6463C49.4415 31.3008 43.7246 30.487 38.653 36.2695ZM67.9425 49.9511C65.4697 49.4046 63.4871 47.5698 61.5635 45.78C59.0356 43.437 57.1436 40.9928 55.9403 37.9492C52.9631 42.9377 57.2517 47.438 61.5692 49.8781C64.0166 51.224 66.0913 50.9767 67.9425 49.9511ZM66.9242 29.6903C63.1497 28.0372 59.1537 33.1402 56.9493 36.3769C58.0018 39.6802 59.938 42.1581 62.4764 44.5791C64.4843 46.5032 66.7822 48.8117 69.8038 48.6057C71.4204 47.2146 72.8848 45.3803 74.2651 43.8097C76.6365 41.0274 76.7279 39.0383 74.3159 36.1752C72.2938 33.749 69.8696 30.9938 66.9242 29.6903ZM56.3278 11.8561C53.612 13.6514 52.2174 18.1821 53.1204 21.1612C54.7742 26.6761 59.0932 20.7192 59.8462 19.116C61.0834 16.4774 60.4112 13.4399 58.8515 10.8038C58.0107 10.9599 57.1683 11.302 56.3278 11.8561Z" fill="#E9E9E9"/>
<path d="M48.193 57.3009C52.1582 60.9704 57.6925 64.8737 59.702 70.0741C61.101 73.6875 58.0208 76.8199 55.8601 79.2945C52.8626 82.7471 49.4702 87.2094 45.4418 89.5976C45.3256 89.7198 45.1799 89.8195 44.9639 89.8892C44.7774 89.9814 44.5986 90.0326 44.4277 90.043C40.217 91.1697 36.083 88.1205 32.9172 85.6669C27.7255 81.6498 23.6316 76.5257 19.4026 71.5795C15.8023 67.3687 19.7419 62.3398 22.4624 58.7C25.4083 54.7638 30.2681 48.9841 35.5397 48.4534C39.8967 48.0228 45.3958 54.7299 48.193 57.3009ZM22.0054 70.8213C25.1167 74.4498 28.1168 78.0406 31.6322 81.3213C34.4328 83.9184 39.7815 89.1076 44.0102 87.6203C47.0368 85.9677 49.5058 82.628 51.808 80.1206C53.7503 77.9947 56.9939 75.2907 57.5211 72.2994C58.2236 68.342 51.0414 63.4198 48.7314 61.2192C45.5703 58.2078 42.3606 55.2296 38.8544 52.6109C34.1968 49.1168 30.1598 53.8143 26.8985 57.2769C23.7421 60.6321 18.2766 66.4426 22.0054 70.8213Z" fill="#E9E9E9"/>
<path d="M29.7309 70.9857C29.8584 70.8487 30.0667 70.8199 30.1952 70.9878C30.4376 71.3124 30.3252 71.8586 30.1588 72.2C30.1172 72.2853 30.0131 72.2997 29.9506 72.2288C29.6596 71.9374 29.4344 71.3451 29.7309 70.9857Z" fill="#E9E9E9"/>
<path d="M29.1181 72.2512C29.0878 72.3217 29.0132 72.3586 28.9168 72.3321C28.5279 72.2002 27.957 71.2048 28.5496 70.9768C29.1126 70.7265 29.2246 71.9579 29.1181 72.2512Z" fill="#E9E9E9"/>
<path d="M28.6952 64.7484C28.8772 64.3252 29.4531 63.8741 29.9251 63.8353C30.0553 63.8173 30.2064 63.9556 30.1197 64.1002C29.9195 64.4861 29.4443 64.8967 29.0635 65.1219C28.8544 65.2437 28.6043 64.9599 28.6952 64.7484Z" fill="#E9E9E9"/>
<path d="M26.9421 66.3174C26.6807 66.0485 27.0639 65.5444 27.3817 65.7392C27.696 65.908 27.9652 66.136 28.0548 66.5083C28.0835 66.6237 27.9708 66.7719 27.852 66.7751C27.4693 66.7883 27.1888 66.5751 26.9421 66.3174Z" fill="#E9E9E9"/>
<path d="M27.2262 64.1692C27.3912 64.4117 27.5788 64.6245 27.6953 64.9002C27.7353 65.0008 27.6712 65.1158 27.5558 65.145C27.1428 65.2287 26.8293 64.967 26.639 64.6352C26.3827 64.2064 26.9586 63.7553 27.2262 64.1692Z" fill="#E9E9E9"/>
<path d="M28.1623 63.9464C28.0085 63.6892 27.9181 63.4098 27.8797 63.1233C27.8308 62.7587 28.3783 62.59 28.5052 62.9439C28.6322 63.2977 28.622 63.6175 28.4001 63.9401C28.3438 64.0142 28.1988 64.021 28.1623 63.9464Z" fill="#E9E9E9"/>
<path d="M28.6531 66.5183C28.3579 66.2938 28.6335 65.7781 28.9738 65.9433C29.1995 66.0447 29.3619 66.1681 29.52 66.3585C29.6815 66.5749 29.6434 66.6863 29.6115 66.9427C29.6037 66.9836 29.5777 66.9872 29.5369 66.9796C29.4258 66.9419 29.3104 66.9712 29.2071 66.8926C29.03 66.7579 28.8303 66.6529 28.6531 66.5183Z" fill="#E9E9E9"/>
<path d="M27.374 68.2344C27.6227 67.8153 28.0953 67.2856 28.6326 67.4367C28.6881 67.4556 28.7099 67.5189 28.6908 67.5746C28.5757 68.0017 28.1906 68.2938 27.9497 68.6721C27.6827 69.0539 27.133 68.6126 27.374 68.2344Z" fill="#E9E9E9"/>
<path d="M28.9547 68.4535C28.9268 68.2451 29.1705 67.9859 29.3997 68.1133C29.6141 68.2295 30.0519 68.7261 29.7822 68.9889C29.4639 69.285 28.9931 68.74 28.9547 68.4535Z" fill="#E9E9E9"/>
<path d="M31.0179 67.9419C30.8513 67.8854 30.8408 67.8073 30.7114 67.7323C30.6376 67.6762 30.6645 67.5796 30.7391 67.5428C30.7764 67.5244 30.844 67.4354 30.8926 67.4022C31.0045 67.3469 31.1459 67.314 31.2613 67.2848C31.3966 67.1069 31.6231 67.1153 31.855 67.3618C32.0426 67.5746 31.8719 67.9829 31.5821 67.9965C31.3964 67.9957 31.1994 68.0097 31.0179 67.9419Z" fill="#E9E9E9"/>
<path d="M30.6477 65.765C30.7612 65.5237 30.9 65.3719 31.1203 65.2353C31.6841 64.8919 32.0736 65.8196 31.4185 65.9766C31.225 66.0167 31.0723 66.0643 30.8753 66.0783C30.7156 66.0739 30.5758 65.9208 30.6477 65.765Z" fill="#E9E9E9"/>
<path d="M30.6896 69.5396C30.889 69.2467 31.6163 69.3317 31.7848 69.6002C31.9021 69.783 31.871 69.9465 31.7175 70.0871C31.4513 70.376 30.4486 69.9178 30.6896 69.5396Z" fill="#E9E9E9"/>
<path d="M29.0193 69.8373C29.1113 69.9307 29.0577 70.1238 28.931 70.1679C28.6777 70.256 28.4251 70.2512 28.1718 70.3393C27.9185 70.4274 27.6686 70.5416 27.4134 70.4177C27.3135 70.3652 27.2736 70.2646 27.3004 70.1681C27.4657 69.5217 28.6145 69.3892 29.0193 69.8373Z" fill="#E9E9E9"/>
<path d="M25.5869 67.8583C25.3073 67.5521 25.8121 67.1639 26.0917 67.4701C26.2941 67.6941 26.493 67.8921 26.5756 68.2123C26.5974 68.2756 26.5523 68.3349 26.4855 68.3309C26.1253 68.3144 25.8336 68.116 25.5869 67.8583Z" fill="#E9E9E9"/>
<path d="M25.7399 66.245C25.7442 66.1781 25.8075 66.1561 25.8631 66.1749C26.3075 66.3256 26.8285 66.6515 26.861 67.1908C26.868 67.2429 26.8454 67.2726 26.7933 67.2798C26.5105 67.3455 26.2926 67.2032 26.0711 67.0349C25.7646 66.8252 25.7185 66.5796 25.7399 66.245Z" fill="#E9E9E9"/>
<path d="M25.467 69.9442C25.4895 69.9145 25.512 69.8849 25.5458 69.8404C25.8078 69.6184 26.1279 69.5343 26.4768 69.5656C26.5436 69.5697 26.5654 69.633 26.5203 69.6923C26.3252 69.9183 26.1266 70.1182 25.902 70.3217C25.7485 70.4623 25.5784 70.3798 25.4941 70.2455C25.4941 70.2455 25.4828 70.2604 25.4976 70.2716C25.4203 70.1894 25.4176 70.0704 25.4704 69.9702C25.4557 69.959 25.4557 69.959 25.467 69.9442Z" fill="#E9E9E9"/>
<path d="M26.4063 71.897C26.6499 71.6378 26.9239 71.308 27.2666 71.1942C27.3933 71.1502 27.4966 71.2287 27.488 71.3626C27.4771 71.7753 27.1806 72.1347 26.8518 72.3527C26.5751 72.5634 26.1548 72.1971 26.4063 71.897Z" fill="#E9E9E9"/>
<path d="M28.0743 72.3953C28.2681 72.7532 28.2711 73.2701 28.2193 73.6753C28.1676 74.0804 27.633 74.0482 27.5433 73.676C27.4319 73.2404 27.5373 72.6421 27.8669 72.3312C27.9267 72.2831 28.0266 72.3356 28.0743 72.3953Z" fill="#E9E9E9"/>
<path d="M30.5847 74.3031C30.0408 74.4977 29.2445 73.7988 29.3161 73.245C29.3238 73.2041 29.3464 73.1745 29.3837 73.1561C29.637 73.0679 29.7959 73.1653 30.0251 73.2928C30.2543 73.4202 30.5608 73.6299 30.7224 73.8463C30.8214 73.9917 30.7747 74.237 30.5847 74.3031Z" fill="#E9E9E9"/>
<path d="M32.4068 72.645C32.0335 72.4313 31.6323 72.0093 31.4948 71.5773C31.4661 71.4619 31.5302 71.3469 31.6639 71.3549C32.1317 71.3831 32.6405 71.8167 32.7892 72.2339C32.9135 72.4687 32.6508 72.7836 32.4068 72.645Z" fill="#E9E9E9"/>
<path d="M33.6512 70.5756C33.8501 70.7736 33.6542 71.0925 33.4199 71.1249C33.1483 71.1758 32.9304 71.0335 32.7463 70.8467C32.669 70.7646 32.7036 70.6272 32.786 70.5494C33.0627 70.3387 33.3933 70.3327 33.6512 70.5756Z" fill="#E9E9E9"/>
<path d="M31.4568 72.7895C31.7564 72.947 32.1184 73.1754 32.2792 73.4848C32.3669 73.6451 32.2274 73.8899 32.0417 73.8891C31.5436 73.9315 31.1319 73.4314 31.1732 72.9481C31.1705 72.8291 31.3422 72.7257 31.4568 72.7895Z" fill="#E9E9E9"/>
<path d="M32.6941 69.2623C32.613 68.7562 33.0439 68.3118 33.3552 67.9636C33.6891 67.5858 34.2795 68.0347 33.9752 68.435C33.6822 68.8204 33.292 69.2724 32.7679 69.3184C32.7418 69.322 32.7123 69.2996 32.6941 69.2623Z" fill="#E9E9E9"/>
<path d="M33.5567 66.41C33.7199 66.4404 33.878 66.6308 33.7948 66.8015C33.6137 67.1317 33.2076 67.2674 32.8526 67.0911C32.6824 67.0085 32.6727 66.8374 32.8002 66.7004C32.9875 66.5153 33.2712 66.3566 33.5567 66.41Z" fill="#E9E9E9"/>
<path d="M31.2781 64.3249C31.2475 63.9975 31.2942 63.7522 31.497 63.4854C31.719 63.1628 32.2104 63.4663 32.0848 63.8153C31.9445 64.1531 31.7276 64.3157 31.3519 64.381C31.3259 64.3846 31.2816 64.3509 31.2781 64.3249Z" fill="#E9E9E9"/>
<path d="M30.087 62.1813C30.2105 62.5091 30.2228 62.7992 30.1493 63.141C30.1303 63.1967 30.0704 63.2448 30.0114 63.1999C29.7274 62.9606 29.5736 62.7033 29.4987 62.3423C29.4126 61.996 29.9523 61.8683 30.087 62.1813Z" fill="#E9E9E9"/>
<path d="M26.7299 62.2482C27.0442 62.4169 27.2536 62.6931 27.1575 63.0645C27.1186 63.2689 26.8766 63.3422 26.7367 63.1891C26.6264 63.0584 26.5196 62.9538 26.398 62.838C26.1401 62.5951 26.3749 62.0718 26.7299 62.2482Z" fill="#E9E9E9"/>
<path d="M25.5583 64.4927C25.8916 64.6058 26.2268 64.9308 26.1568 65.2986C26.149 65.3395 26.1039 65.3988 26.0631 65.3912C25.7733 65.4048 25.4816 65.2064 25.2601 65.038C24.9649 64.8136 25.2362 64.3648 25.5583 64.4927Z" fill="#E9E9E9"/>
<path d="M25.4719 68.9884C25.5526 69.0966 25.5033 69.2228 25.3914 69.2781C25.119 69.4219 24.7503 69.5393 24.443 69.4226C24.2207 69.3472 24.1936 69.0459 24.3731 68.9017C24.6871 68.6725 25.2295 68.6637 25.4719 68.9884Z" fill="#E9E9E9"/>
<path d="M25.9338 71.1398C26.0414 71.1515 26.0961 71.2633 26.0693 71.3598C25.9818 71.5975 25.7503 71.7489 25.5117 71.8483C25.1091 72.0101 24.8474 71.3433 25.2569 71.2335C25.4765 71.1899 25.7185 71.1166 25.9338 71.1398Z" fill="#E9E9E9"/>
<path d="M33.5351 65.0601C33.5944 65.5029 33.1468 65.724 32.7909 65.6406C32.7354 65.6218 32.6763 65.5769 32.6954 65.5212C32.7646 65.2463 32.7756 64.8336 33.1956 64.802C33.3517 64.7804 33.5106 64.8778 33.5351 65.0601Z" fill="#E9E9E9"/>
<path d="M34.4149 70.0323C34.3411 69.9762 34.268 69.8272 34.3322 69.7122C34.509 69.4489 34.8692 69.4654 35.1322 69.5484C35.436 69.639 35.3547 70.0216 35.1309 70.1322C34.8733 70.2873 34.651 70.2119 34.4149 70.0323Z" fill="#E9E9E9"/>
<path d="M38.093 62.7709C38.3354 63.0955 38.223 63.6417 38.0566 63.983C38.015 64.0684 37.9109 64.0828 37.8483 64.0119C37.5834 63.7169 37.3435 63.1134 37.6435 62.78C37.7675 62.617 37.9792 62.6142 38.093 62.7709Z" fill="#E9E9E9"/>
<path d="M36.4603 62.7451C37.0121 62.5095 37.1501 63.7373 37.0289 64.0194C36.9985 64.0899 36.9239 64.1268 36.8276 64.1003C36.4387 63.9684 35.8826 62.9842 36.4603 62.7451Z" fill="#E9E9E9"/>
<path d="M38.0298 55.8685C37.8296 56.2544 37.3544 56.665 36.9736 56.8902C36.7532 57.0268 36.4996 56.717 36.6053 56.5167C36.7872 56.0936 37.3631 55.6424 37.8352 55.6036C37.9541 55.6004 38.1052 55.7387 38.0298 55.8685Z" fill="#E9E9E9"/>
<path d="M35.2958 57.5075C35.61 57.6763 35.8792 57.9043 35.9689 58.2766C35.9976 58.392 35.8849 58.5403 35.766 58.5434C35.3981 58.5678 35.1029 58.3434 34.8449 58.1005C34.5835 57.8316 34.9667 57.3276 35.2958 57.5075Z" fill="#E9E9E9"/>
<path d="M35.1363 55.9375C35.3014 56.18 35.489 56.3928 35.6055 56.6685C35.6455 56.7691 35.5814 56.8841 35.466 56.9133C35.0529 56.997 34.7395 56.7353 34.5492 56.4035C34.2928 55.9747 34.8687 55.5236 35.1363 55.9375Z" fill="#E9E9E9"/>
<path d="M35.7937 54.8916C35.7449 54.527 36.2923 54.3583 36.4193 54.7122C36.5463 55.066 36.5361 55.3858 36.3142 55.7084C36.2578 55.7825 36.1277 55.8005 36.0764 55.7147C35.9226 55.4575 35.8209 55.193 35.7937 54.8916Z" fill="#E9E9E9"/>
<path d="M37.5373 58.6964C37.5295 58.7373 37.5035 58.7409 37.4627 58.7333C37.3516 58.6956 37.2362 58.7248 37.1329 58.6463C36.9445 58.5264 36.7561 58.4066 36.5642 58.2607C36.2689 58.0363 36.5445 57.5206 36.8848 57.6857C37.1105 57.7871 37.2729 57.9106 37.431 58.1009C37.6073 58.3286 37.5692 58.44 37.5373 58.6964Z" fill="#E9E9E9"/>
<path d="M36.5427 59.205C36.5983 59.2239 36.62 59.2872 36.601 59.3429C36.4859 59.77 36.1008 60.0621 35.8598 60.4404C35.6076 60.8334 35.0579 60.3922 35.2841 60.0027C35.5329 59.5836 36.0167 59.0391 36.5427 59.205Z" fill="#E9E9E9"/>
<path d="M36.8805 60.233C36.8526 60.0246 37.0963 59.7654 37.3255 59.8929C37.5399 60.0091 37.9776 60.5056 37.708 60.7685C37.3749 61.0533 36.9042 60.5083 36.8805 60.233Z" fill="#E9E9E9"/>
<path d="M39.7683 59.1303C39.9559 59.3431 39.7853 59.7514 39.4954 59.765C39.2984 59.779 39.1015 59.793 38.92 59.7253C38.7534 59.6687 38.7429 59.5906 38.6135 59.5156C38.5397 59.4595 38.5666 59.363 38.6412 59.3261C38.6785 59.3077 38.7461 59.2187 38.7947 59.1855C38.9066 59.1302 39.048 59.0973 39.1634 59.0681C39.336 58.8718 39.5512 58.8951 39.7683 59.1303Z" fill="#E9E9E9"/>
<path d="M38.7966 57.8318C38.6405 57.8534 38.4859 57.6891 38.5578 57.5333C38.6713 57.292 38.81 57.1402 39.0303 57.0036C39.5942 56.6602 39.9836 57.5879 39.3286 57.7449C39.1351 57.785 38.9936 57.8178 38.7966 57.8318Z" fill="#E9E9E9"/>
<path d="M39.6441 61.8666C39.3744 62.1294 38.3604 61.6861 38.6014 61.3079C38.8008 61.015 39.5281 61.1 39.6966 61.3685C39.8139 61.5513 39.7976 61.726 39.6441 61.8666Z" fill="#E9E9E9"/>
<path d="M36.8544 61.9213C36.601 62.0094 36.3485 62.0046 36.0951 62.0927C35.8418 62.1808 35.592 62.295 35.3367 62.1711C35.2369 62.1186 35.1969 62.018 35.2237 61.9215C35.3925 61.3012 36.5414 61.1687 36.9574 61.6019C37.0234 61.6989 36.9698 61.892 36.8544 61.9213Z" fill="#E9E9E9"/>
<path d="M33.4971 59.6266C33.2174 59.3204 33.7222 58.9322 34.0019 59.2384C34.2042 59.4624 34.4031 59.6604 34.4858 59.9806C34.5075 60.0439 34.4625 60.1032 34.3956 60.0992C34.0355 60.0827 33.7437 59.8843 33.4971 59.6266Z" fill="#E9E9E9"/>
<path d="M34.7594 58.9479C34.7664 59 34.7438 59.0297 34.6918 59.0369C34.4089 59.1026 34.191 58.9603 33.9696 58.7919C33.6891 58.5787 33.6169 58.3367 33.6383 58.0021C33.6426 57.9352 33.706 57.9131 33.7615 57.932C34.206 58.0827 34.7417 58.4198 34.7594 58.9479Z" fill="#E9E9E9"/>
<path d="M34.3792 61.3486C34.446 61.3526 34.4677 61.4159 34.4226 61.4752C34.2275 61.7012 34.029 61.9011 33.8044 62.1047C33.6509 62.2453 33.4807 62.1627 33.3964 62.0285C33.3964 62.0285 33.3852 62.0433 33.3999 62.0545C33.3226 61.9724 33.3199 61.8534 33.3728 61.7532C33.3841 61.7384 33.3841 61.7384 33.3806 61.7123C33.4031 61.6827 33.4256 61.653 33.4595 61.6085C33.7101 61.4014 34.0303 61.3173 34.3792 61.3486Z" fill="#E9E9E9"/>
<path d="M34.3164 63.6653C34.5601 63.4061 34.8341 63.0763 35.1768 62.9626C35.3035 62.9185 35.4068 62.997 35.3982 63.1309C35.3872 63.5436 35.0907 63.903 34.762 64.121C34.4853 64.3317 34.065 63.9654 34.3164 63.6653Z" fill="#E9E9E9"/>
<path d="M35.9884 64.1634C36.1822 64.5213 36.1852 65.0382 36.1334 65.4433C36.0816 65.8484 35.547 65.8163 35.4574 65.444C35.346 65.0084 35.4514 64.4102 35.7809 64.0993C35.8555 64.0624 35.9406 64.1037 35.9884 64.1634Z" fill="#E9E9E9"/>
<path d="M37.2157 65.0021C37.2235 64.9612 37.246 64.9316 37.2833 64.9131C37.5254 64.8398 37.6955 64.9224 37.9247 65.0499C38.1539 65.1773 38.4604 65.3869 38.622 65.6033C38.7358 65.76 38.6891 66.0053 38.4991 66.0714C37.9439 66.2809 37.1588 65.5671 37.2157 65.0021Z" fill="#E9E9E9"/>
<path d="M40.3319 64.4246C39.9586 64.2109 39.5573 63.7889 39.4199 63.3569C39.3912 63.2415 39.4553 63.1265 39.589 63.1346C40.0567 63.1627 40.5656 63.5963 40.7143 64.0135C40.8238 64.2371 40.5611 64.552 40.3319 64.4246Z" fill="#E9E9E9"/>
<path d="M40.6722 62.6262C40.5949 62.544 40.6296 62.4066 40.7119 62.3288C40.9851 62.0921 41.3158 62.0861 41.5624 62.3438C41.7613 62.5418 41.5654 62.8607 41.3311 62.8931C41.0743 62.9552 40.8416 62.8017 40.6722 62.6262Z" fill="#E9E9E9"/>
<path d="M39.0838 64.7166C39.0924 64.5828 39.2641 64.4794 39.3787 64.5431C39.6782 64.7007 40.0403 64.9291 40.2011 65.2385C40.2888 65.3988 40.1493 65.6436 39.9636 65.6428C39.4542 65.7 39.0573 65.2111 39.0838 64.7166Z" fill="#E9E9E9"/>
<path d="M40.6039 61.0306C40.5228 60.5245 40.9538 60.0801 41.2651 59.732C41.5989 59.3541 42.1894 59.803 41.8851 60.2033C41.592 60.5887 41.2018 61.0407 40.6777 61.0867C40.6517 61.0903 40.6222 61.0679 40.6039 61.0306Z" fill="#E9E9E9"/>
<path d="M40.767 58.8594C40.5968 58.7768 40.5871 58.6057 40.7146 58.4687C40.9019 58.2836 41.1968 58.1101 41.4711 58.1783C41.6343 58.2088 41.7924 58.3991 41.7092 58.5698C41.5168 58.9148 41.096 59.0394 40.767 58.8594Z" fill="#E9E9E9"/>
<path d="M39.1885 56.0932C39.1579 55.7658 39.2045 55.5206 39.4074 55.2537C39.6293 54.9312 40.1207 55.2346 39.9952 55.5836C39.8548 55.9214 39.638 56.084 39.2623 56.1493C39.2363 56.1529 39.192 56.1192 39.1885 56.0932Z" fill="#E9E9E9"/>
<path d="M37.9255 54.9681C37.6416 54.7288 37.4878 54.4716 37.4129 54.1105C37.3267 53.7643 37.8777 53.6217 38.0011 53.9495C38.1246 54.2773 38.137 54.5674 38.0635 54.9092C38.0444 54.9649 37.9733 55.0278 37.9255 54.9681Z" fill="#E9E9E9"/>
<path d="M34.6604 54.9426C34.5501 54.8119 34.4433 54.7073 34.3217 54.5915C34.0638 54.3486 34.2986 53.8253 34.6424 54.0165C34.9567 54.1852 35.166 54.4614 35.07 54.8328C35.0311 55.0372 34.815 55.1069 34.6604 54.9426Z" fill="#E9E9E9"/>
<path d="M33.484 56.2722C33.8174 56.3853 34.1526 56.7103 34.0826 57.0782C34.0748 57.119 34.0297 57.1783 33.9889 57.1707C33.6991 57.1843 33.4073 56.9859 33.1859 56.8176C32.8907 56.5931 33.1359 56.148 33.484 56.2722Z" fill="#E9E9E9"/>
<path d="M32.3558 61.1909C32.1336 61.1155 32.1065 60.8142 32.286 60.6699C32.5965 60.4147 33.1276 60.4208 33.3699 60.7454C33.4507 60.8536 33.4014 60.9798 33.2895 61.0351C33.0206 61.205 32.6631 61.3075 32.3558 61.1909Z" fill="#E9E9E9"/>
<path d="M33.9852 63.1543C33.8978 63.3919 33.6662 63.5433 33.4276 63.6427C33.0251 63.8045 32.7633 63.1377 33.1729 63.0279C33.3889 62.9583 33.6197 62.8998 33.8497 62.9343C33.9573 62.9459 34.0233 63.0429 33.9852 63.1543Z" fill="#E9E9E9"/>
<path d="M40.7044 57.4088C40.6488 57.3899 40.5898 57.345 40.6088 57.2893C40.678 57.0145 40.689 56.6017 41.109 56.5701C41.28 56.5597 41.4388 56.6571 41.4485 56.8282C41.5079 57.271 41.0455 57.4809 40.7044 57.4088Z" fill="#E9E9E9"/>
<path d="M43.0591 61.9117C42.7867 62.0555 42.5793 61.9913 42.3431 61.8118C42.2693 61.7557 42.1963 61.6066 42.2604 61.4916C42.4373 61.2284 42.7974 61.2448 43.0717 61.313C43.3607 61.3924 43.2829 61.8011 43.0591 61.9117Z" fill="#E9E9E9"/>
<path d="M47.8326 72.1148C47.5677 71.8198 47.3277 71.2163 47.6277 70.883C47.7552 70.7459 47.9635 70.7171 48.092 70.885C48.3344 71.2096 48.2367 71.767 48.0556 72.0972C47.9993 72.1713 47.8951 72.1857 47.8326 72.1148Z" fill="#E9E9E9"/>
<path d="M46.4408 70.8481C46.9926 70.6125 47.1306 71.8403 47.0093 72.1224C46.979 72.193 46.9044 72.2298 46.808 72.2034C46.4192 72.0715 45.863 71.0872 46.4408 70.8481Z" fill="#E9E9E9"/>
<path d="M46.6051 64.6309C46.7871 64.2078 47.363 63.7567 47.835 63.7179C47.9652 63.6999 48.1163 63.8381 48.0296 63.9828C47.8294 64.3686 47.3542 64.7793 46.9734 65.0045C46.7531 65.1411 46.5029 64.8573 46.6051 64.6309Z" fill="#E9E9E9"/>
<path d="M45.9503 66.3796C45.979 66.495 45.8663 66.6433 45.7474 66.6465C45.3795 66.6709 45.0842 66.4464 44.8263 66.2036C44.5649 65.9346 44.9481 65.4306 45.2659 65.6254C45.5801 65.7941 45.8754 66.0186 45.9503 66.3796Z" fill="#E9E9E9"/>
<path d="M45.1327 64.0516C45.2978 64.2941 45.4854 64.5069 45.6019 64.7826C45.6419 64.8832 45.5778 64.9982 45.4624 65.0274C45.0494 65.1111 44.7359 64.8494 44.5456 64.5176C44.278 64.1036 44.8651 63.6376 45.1327 64.0516Z" fill="#E9E9E9"/>
<path d="M46.0451 63.8327C45.8914 63.5754 45.8009 63.2961 45.7625 63.0096C45.7136 62.6449 46.2611 62.4763 46.3881 62.8301C46.515 63.184 46.5048 63.5037 46.2829 63.8263C46.2266 63.9004 46.0964 63.9184 46.0451 63.8327Z" fill="#E9E9E9"/>
<path d="M47.5058 66.8141C47.4981 66.855 47.472 66.8586 47.4312 66.8509C47.3201 66.8133 47.2047 66.8425 47.1014 66.7639C46.913 66.6441 46.7246 66.5243 46.5327 66.3784C46.2375 66.1539 46.513 65.6383 46.8534 65.8034C47.0791 65.9048 47.2414 66.0282 47.3995 66.2186C47.6019 66.4426 47.5638 66.554 47.5058 66.8141Z" fill="#E9E9E9"/>
<path d="M46.5232 67.3081C46.5788 67.3269 46.6005 67.3902 46.5815 67.4459C46.4664 67.8731 46.0813 68.1651 45.8403 68.5434C45.5881 68.9365 45.0384 68.4952 45.2646 68.1057C45.5281 67.6978 45.9859 67.1569 46.5232 67.3081Z" fill="#E9E9E9"/>
<path d="M46.861 68.336C46.8331 68.1277 47.0767 67.8684 47.3059 67.9959C47.5204 68.1121 47.9581 68.6087 47.6884 68.8715C47.3554 69.1564 46.8994 68.6226 46.861 68.336Z" fill="#E9E9E9"/>
<path d="M48.9281 67.8245C48.7614 67.768 48.751 67.6898 48.6216 67.6149C48.5478 67.5588 48.5746 67.4622 48.6492 67.4254C48.6865 67.4069 48.7542 67.318 48.8027 67.2847C48.9146 67.2294 49.0561 67.1966 49.1715 67.1674C49.3067 66.9895 49.5332 66.9979 49.7651 67.2444C49.9527 67.4572 49.7821 67.8655 49.4922 67.8791C49.3065 67.8782 49.0948 67.881 48.9281 67.8245Z" fill="#E9E9E9"/>
<path d="M48.7693 65.9495C48.6131 65.9711 48.4585 65.8068 48.5304 65.6509C48.6439 65.4097 48.7827 65.2579 49.003 65.1213C49.5668 64.7779 49.9563 65.7056 49.3012 65.8626C49.119 65.8878 48.9663 65.9355 48.7693 65.9495Z" fill="#E9E9E9"/>
<path d="M49.6913 69.4829C49.8086 69.6657 49.7775 69.8292 49.624 69.9698C49.3543 70.2326 48.3404 69.7893 48.5814 69.4111C48.7842 69.1442 49.5228 69.2144 49.6913 69.4829Z" fill="#E9E9E9"/>
<path d="M46.8348 70.0243C46.5815 70.1124 46.3289 70.1076 46.0756 70.1957C45.8223 70.2838 45.5724 70.398 45.3172 70.2742C45.2174 70.2216 45.1774 70.1211 45.2042 70.0245C45.373 69.4042 46.5218 69.2717 46.9379 69.7049C47.0039 69.8019 46.9502 69.9951 46.8348 70.0243Z" fill="#E9E9E9"/>
<path d="M43.4776 67.7297C43.1979 67.4235 43.7027 67.0352 43.9823 67.3414C44.1847 67.5655 44.3836 67.7634 44.4663 68.0836C44.488 68.1469 44.4429 68.2062 44.3761 68.2022C44.0047 68.2006 43.7277 68.0134 43.4776 67.7297Z" fill="#E9E9E9"/>
<path d="M43.7576 66.0462C44.2021 66.197 44.723 66.5228 44.7555 67.0622C44.7625 67.1143 44.7399 67.1439 44.6879 67.1511C44.405 67.2168 44.1871 67.0745 43.9657 66.9062C43.6852 66.693 43.613 66.4509 43.6344 66.1163C43.6275 66.0642 43.7021 66.0274 43.7576 66.0462Z" fill="#E9E9E9"/>
<path d="M44.3594 69.4516C44.4262 69.4556 44.4479 69.519 44.4029 69.5783C44.2078 69.8042 44.0092 70.0042 43.7846 70.2077C43.6311 70.3483 43.4609 70.2658 43.3766 70.1315C43.3766 70.1315 43.3654 70.1463 43.3801 70.1576C43.3028 70.0754 43.3149 69.9676 43.353 69.8562C43.3643 69.8414 43.3643 69.8414 43.3608 69.8153C43.3833 69.7857 43.4059 69.756 43.4397 69.7116C43.7051 69.5156 44.0105 69.4203 44.3594 69.4516Z" fill="#E9E9E9"/>
<path d="M44.3125 71.7796C44.5562 71.5203 44.8302 71.1906 45.1729 71.0768C45.2995 71.0328 45.4029 71.1113 45.3943 71.2451C45.3833 71.6579 45.0868 72.0173 44.7581 72.2352C44.4666 72.4348 44.0463 72.0684 44.3125 71.7796Z" fill="#E9E9E9"/>
<path d="M45.4404 73.5731C45.3289 73.1375 45.4344 72.5393 45.7639 72.2284C45.835 72.1655 45.9349 72.218 45.9566 72.2813C46.1504 72.6391 46.1534 73.1561 46.1016 73.5612C46.0646 73.9775 45.5153 73.9342 45.4404 73.5731Z" fill="#E9E9E9"/>
<path d="M47.8933 73.1675C48.1225 73.295 48.429 73.5046 48.5906 73.721C48.7044 73.8777 48.6577 74.1229 48.4677 74.189C47.9237 74.3837 47.1274 73.6848 47.199 73.131C47.2068 73.0901 47.2293 73.0605 47.2666 73.042C47.52 72.9539 47.6901 73.0365 47.8933 73.1675Z" fill="#E9E9E9"/>
<path d="M50.71 72.1277C50.7935 72.3549 50.5568 72.6662 50.3128 72.5275C49.9395 72.3139 49.5383 71.8919 49.4008 71.4599C49.3721 71.3445 49.4362 71.2295 49.5699 71.2375C50.0377 71.2657 50.5352 71.7141 50.71 72.1277Z" fill="#E9E9E9"/>
<path d="M51.319 71.0221C51.0474 71.073 50.8295 70.9307 50.6454 70.7439C50.5681 70.6618 50.6027 70.5243 50.6851 70.4466C50.9583 70.2098 51.2889 70.2039 51.5356 70.4616C51.7344 70.6595 51.5386 70.9785 51.319 71.0221Z" fill="#E9E9E9"/>
<path d="M49.9507 73.7717C49.4526 73.8141 49.0409 73.3139 49.0821 72.8307C49.0907 72.6968 49.2625 72.5935 49.3771 72.6572C49.6766 72.8147 50.0386 73.0432 50.1994 73.3525C50.2759 73.5277 50.1216 73.7613 49.9507 73.7717Z" fill="#E9E9E9"/>
<path d="M50.6039 69.1449C50.5228 68.6387 50.9538 68.1944 51.2651 67.8462C51.5989 67.4684 52.1894 67.9173 51.8851 68.3175C51.592 68.703 51.2018 69.155 50.6777 69.201C50.6369 69.1933 50.6074 69.1709 50.6039 69.1449Z" fill="#E9E9E9"/>
<path d="M51.6794 66.6878C51.4983 67.018 51.0922 67.1538 50.7372 66.9774C50.567 66.8948 50.5573 66.7237 50.6848 66.5867C50.8721 66.4016 51.1671 66.2281 51.4413 66.2963C51.6045 66.3267 51.7886 66.5135 51.6794 66.6878Z" fill="#E9E9E9"/>
<path d="M49.1844 64.2074C49.1537 63.8801 49.2004 63.6348 49.4033 63.368C49.6252 63.0454 50.1166 63.3488 49.9911 63.6978C49.8507 64.0356 49.6339 64.1983 49.2582 64.2636C49.2061 64.2708 49.1766 64.2483 49.1844 64.2074Z" fill="#E9E9E9"/>
<path d="M47.9075 63.0972C47.6235 62.8579 47.4697 62.6006 47.3948 62.2396C47.3086 61.8933 47.8596 61.7507 47.9831 62.0785C48.1066 62.4063 48.1189 62.6965 48.0454 63.0383C48.0264 63.094 47.9518 63.1308 47.9075 63.0972Z" fill="#E9E9E9"/>
<path d="M44.2921 62.7092C44.0342 62.4663 44.269 61.943 44.6128 62.1342C44.927 62.3029 45.1364 62.5791 45.0403 62.9505C45.0014 63.1549 44.7594 63.2282 44.6195 63.0751C44.5353 62.9408 44.4249 62.8102 44.2921 62.7092Z" fill="#E9E9E9"/>
<path d="M44.0668 65.1811C44.059 65.222 44.014 65.2813 43.9732 65.2737C43.6833 65.2873 43.3916 65.0889 43.1702 64.9205C42.875 64.6961 43.1462 64.2473 43.4796 64.3604C43.8016 64.4882 44.1368 64.8133 44.0668 65.1811Z" fill="#E9E9E9"/>
<path d="M42.3519 69.3051C42.1297 69.2298 42.1025 68.9284 42.2821 68.7842C42.5926 68.529 43.1237 68.5351 43.366 68.8597C43.4468 68.9679 43.3975 69.0941 43.2855 69.1494C43.0019 69.308 42.6444 69.4106 42.3519 69.3051Z" fill="#E9E9E9"/>
<path d="M43.9639 71.2573C43.8764 71.4949 43.6448 71.6464 43.4062 71.7457C43.0037 71.9075 42.742 71.2407 43.1515 71.131C43.3675 71.0613 43.5983 71.0028 43.8283 71.0373C43.9359 71.0489 43.9907 71.1607 43.9639 71.2573Z" fill="#E9E9E9"/>
<path d="M50.675 65.5268C50.6194 65.5079 50.5604 65.463 50.5794 65.4073C50.6486 65.1325 50.6596 64.7197 51.0796 64.6881C51.2506 64.6777 51.4095 64.7751 51.4191 64.9462C51.5045 65.3854 51.0421 65.5953 50.675 65.5268Z" fill="#E9E9E9"/>
<path d="M53.0388 70.0147C52.7664 70.1585 52.559 70.0944 52.3228 69.9148C52.249 69.8587 52.176 69.7096 52.2401 69.5946C52.4169 69.3314 52.7771 69.3479 53.0401 69.4309C53.3292 69.5102 53.2626 69.9041 53.0388 70.0147Z" fill="#E9E9E9"/>
<path d="M39.2778 79.8119C39.4053 79.6749 39.6135 79.646 39.7421 79.814C39.9845 80.1386 39.8721 80.6847 39.7057 81.0261C39.6641 81.1115 39.56 81.1259 39.4974 81.055C39.2065 80.7636 38.9665 80.1601 39.2778 79.8119Z" fill="#E9E9E9"/>
<path d="M38.6519 81.0661C38.6216 81.1366 38.547 81.1735 38.4507 81.147C38.0618 81.0152 37.4909 80.0197 38.0834 79.7918C38.6612 79.5526 38.7845 80.7692 38.6519 81.0661Z" fill="#E9E9E9"/>
<path d="M38.2419 73.5748C38.4238 73.1517 38.9997 72.7005 39.4717 72.6617C39.6019 72.6437 39.753 72.782 39.6663 72.9266C39.4662 73.3125 38.9909 73.7232 38.6101 73.9483C38.401 74.0701 38.1509 73.7864 38.2419 73.5748Z" fill="#E9E9E9"/>
<path d="M36.4929 75.1436C36.2315 74.8747 36.6147 74.3706 36.9325 74.5654C37.2468 74.7341 37.5159 74.9622 37.6056 75.3345C37.6343 75.4499 37.5216 75.5981 37.4027 75.6013C37.0313 75.5997 36.7508 75.3864 36.4929 75.1436Z" fill="#E9E9E9"/>
<path d="M36.7839 72.9807C36.9489 73.2231 37.1366 73.4359 37.253 73.7117C37.293 73.8122 37.2289 73.9272 37.1135 73.9565C36.7005 74.0402 36.387 73.7785 36.1967 73.4466C35.9291 73.0327 36.505 72.5815 36.7839 72.9807Z" fill="#E9E9E9"/>
<path d="M37.6959 72.7616C37.5421 72.5043 37.4516 72.225 37.4132 71.9385C37.3643 71.5738 37.9118 71.4052 38.0388 71.7591C38.1657 72.1129 38.1556 72.4327 37.9336 72.7552C37.8921 72.8406 37.7471 72.8474 37.6959 72.7616Z" fill="#E9E9E9"/>
<path d="M38.2 75.3186C37.9048 75.0941 38.1804 74.5784 38.5207 74.7436C38.7464 74.845 38.9088 74.9684 39.0668 75.1588C39.2284 75.3752 39.1903 75.4866 39.1584 75.743C39.1506 75.7839 39.1246 75.7875 39.0838 75.7799C38.9727 75.7422 38.8573 75.7715 38.754 75.6929C38.5803 75.5843 38.3919 75.4644 38.2 75.3186Z" fill="#E9E9E9"/>
<path d="M36.9326 77.0459C37.1813 76.6268 37.6539 76.0971 38.1912 76.2483C38.2467 76.2671 38.2685 76.3304 38.2494 76.3861C38.1343 76.8133 37.7492 77.1053 37.5083 77.4836C37.2413 77.8654 36.6803 77.439 36.9326 77.0459Z" fill="#E9E9E9"/>
<path d="M38.5014 77.2796C38.4734 77.0713 38.7171 76.812 38.9463 76.9395C39.1607 77.0557 39.5985 77.5523 39.3288 77.8151C39.0218 78.0964 38.5398 77.5662 38.5014 77.2796Z" fill="#E9E9E9"/>
<path d="M40.5687 76.7683C40.4021 76.7118 40.3916 76.6337 40.2622 76.5587C40.1884 76.5026 40.2153 76.4061 40.2899 76.3692C40.3272 76.3508 40.3948 76.2618 40.4434 76.2286C40.5553 76.1733 40.6967 76.1404 40.8121 76.1112C40.9473 75.9333 41.1738 75.9418 41.4057 76.1882C41.5933 76.401 41.4227 76.8093 41.1328 76.8229C40.9584 76.8073 40.7614 76.8213 40.5687 76.7683Z" fill="#E9E9E9"/>
<path d="M40.1828 74.5799C40.2963 74.3387 40.435 74.1868 40.6553 74.0502C41.2192 73.7069 41.6086 74.6346 40.9536 74.7916C40.7601 74.8316 40.6074 74.8793 40.4104 74.8933C40.2655 74.9001 40.1109 74.7358 40.1828 74.5799Z" fill="#E9E9E9"/>
<path d="M40.2363 78.366C40.4357 78.0731 41.163 78.1581 41.3315 78.4266C41.4488 78.6094 41.4177 78.7729 41.2642 78.9135C41.0093 79.1876 39.9953 78.7442 40.2363 78.366Z" fill="#E9E9E9"/>
<path d="M38.5797 78.6485C38.6717 78.7419 38.618 78.9351 38.4914 78.9791C38.238 79.0673 37.9855 79.0624 37.7322 79.1505C37.4788 79.2387 37.229 79.3528 36.9738 79.229C36.8739 79.1765 36.8339 79.0759 36.8608 78.9793C37.0148 78.3478 38.1636 78.2153 38.5797 78.6485Z" fill="#E9E9E9"/>
<path d="M35.1182 76.6735C34.8385 76.3673 35.3433 75.9791 35.623 76.2853C35.8253 76.5093 36.0242 76.7073 36.1069 77.0275C36.1286 77.0908 36.0836 77.1501 36.0167 77.1461C35.6566 77.1296 35.3796 76.9424 35.1182 76.6735Z" fill="#E9E9E9"/>
<path d="M35.2907 75.0714C35.295 75.0045 35.3583 74.9825 35.4139 75.0013C35.8583 75.152 36.3792 75.4779 36.4118 76.0173C36.4187 76.0694 36.3962 76.099 36.3441 76.1062C36.0613 76.1719 35.8433 76.0296 35.6219 75.8613C35.3267 75.6368 35.2692 75.406 35.2907 75.0714Z" fill="#E9E9E9"/>
<path d="M35.0927 78.6666C35.3546 78.4446 35.6748 78.3605 36.0237 78.3918C36.0905 78.3958 36.1123 78.4591 36.0672 78.5184C35.8721 78.7444 35.6735 78.9444 35.4489 79.1479C35.2954 79.2885 35.1252 79.206 35.041 79.0717C35.041 79.0717 35.0297 79.0865 35.0444 79.0977C34.9671 79.0156 34.9645 78.8966 35.0173 78.7964C35.0286 78.7816 35.0286 78.7816 35.0251 78.7555C35.0216 78.7295 35.0554 78.685 35.0927 78.6666Z" fill="#E9E9E9"/>
<path d="M35.9534 80.7232C36.1971 80.4639 36.4711 80.1342 36.8138 80.0204C36.9404 79.9764 37.0438 80.0549 37.0352 80.1887C37.0242 80.6015 36.7277 80.9609 36.399 81.1788C36.1188 81.3635 35.6872 81.012 35.9534 80.7232Z" fill="#E9E9E9"/>
<path d="M37.6261 81.2215C37.8199 81.5793 37.8229 82.0962 37.7711 82.5014C37.7194 82.9065 37.1848 82.8744 37.0951 82.5021C36.9837 82.0665 37.0891 81.4682 37.4187 81.1573C37.4898 81.0944 37.5896 81.1469 37.6261 81.2215Z" fill="#E9E9E9"/>
<path d="M39.5575 82.1077C39.7867 82.2352 40.0932 82.4448 40.2548 82.6612C40.3686 82.8179 40.3219 83.0631 40.1319 83.1292C39.588 83.3239 38.7916 82.625 38.8633 82.0712C38.871 82.0303 38.8936 82.0006 38.9309 81.9822C39.1695 81.8829 39.3283 81.9803 39.5575 82.1077Z" fill="#E9E9E9"/>
<path d="M41.9518 81.4712C41.5784 81.2576 41.1772 80.8355 41.0397 80.4036C41.011 80.2881 41.0752 80.1731 41.2088 80.1812C41.6766 80.2093 42.1854 80.6429 42.3342 81.0601C42.4437 81.2837 42.1957 81.6099 41.9518 81.4712Z" fill="#E9E9E9"/>
<path d="M43.1991 79.4016C43.398 79.5996 43.2021 79.9186 42.9678 79.951C42.6962 80.0019 42.4783 79.8596 42.2942 79.6728C42.2169 79.5907 42.2515 79.4532 42.3339 79.3755C42.6218 79.1499 42.9377 79.1327 43.1991 79.4016Z" fill="#E9E9E9"/>
<path d="M41.0154 81.601C41.3149 81.7585 41.677 81.987 41.8378 82.2963C41.9255 82.4566 41.786 82.7015 41.6003 82.7006C41.1022 82.743 40.6905 82.2429 40.7318 81.7596C40.7291 81.6406 40.8896 81.5521 41.0154 81.601Z" fill="#E9E9E9"/>
<path d="M42.2523 78.0736C42.1713 77.5674 42.6022 77.1231 42.9135 76.7749C43.2473 76.3971 43.8378 76.846 43.5335 77.2463C43.2405 77.6317 42.8503 78.0837 42.3262 78.1297C42.2741 78.1369 42.2446 78.1144 42.2523 78.0736Z" fill="#E9E9E9"/>
<path d="M43.0919 75.2251C43.255 75.2556 43.4131 75.446 43.3299 75.6167C43.1488 75.9468 42.7428 76.0826 42.3877 75.9063C42.2176 75.8237 42.2079 75.6526 42.3354 75.5156C42.5374 75.3417 42.8324 75.1682 43.0919 75.2251Z" fill="#E9E9E9"/>
<path d="M40.8249 73.151C40.7943 72.8237 40.841 72.5784 41.0438 72.3116C41.2657 71.989 41.7572 72.2924 41.6316 72.6414C41.4913 72.9792 41.2744 73.1419 40.8987 73.2072C40.8579 73.1995 40.8284 73.1771 40.8249 73.151Z" fill="#E9E9E9"/>
<path d="M39.5598 72.0261C39.2759 71.7868 39.1221 71.5296 39.0472 71.1685C38.961 70.8223 39.512 70.6797 39.6354 71.0075C39.7589 71.3353 39.7713 71.6254 39.6978 71.9672C39.6787 72.0229 39.6041 72.0598 39.5598 72.0261Z" fill="#E9E9E9"/>
<path d="M36.2949 72.0004C36.1846 71.8698 36.0777 71.7652 35.9562 71.6494C35.6982 71.4065 35.933 70.8832 36.2768 71.0744C36.5911 71.2431 36.8004 71.5192 36.7044 71.8907C36.6655 72.095 36.4347 72.1535 36.2949 72.0004Z" fill="#E9E9E9"/>
<path d="M34.8075 73.8644C34.5122 73.64 34.7835 73.1912 35.1169 73.3042C35.4502 73.4173 35.7854 73.7423 35.7154 74.1102C35.7076 74.151 35.6625 74.2103 35.6217 74.2027C35.3206 74.2311 35.0289 74.0327 34.8075 73.8644Z" fill="#E9E9E9"/>
<path d="M33.9227 77.728C34.2332 77.4728 34.7643 77.4789 35.0067 77.8035C35.0875 77.9117 35.0381 78.0379 34.9262 78.0932C34.6538 78.2371 34.285 78.3544 33.9778 78.2378C33.7816 78.1588 33.7692 77.8687 33.9227 77.728Z" fill="#E9E9E9"/>
<path d="M35.4808 79.9662C35.5884 79.9779 35.6431 80.0897 35.6163 80.1863C35.5288 80.4239 35.2973 80.5753 35.0587 80.6747C34.6561 80.8365 34.3944 80.1697 34.8039 80.0599C35.02 79.9902 35.2508 79.9318 35.4808 79.9662Z" fill="#E9E9E9"/>
<path d="M42.3273 74.4555C42.2718 74.4366 42.2127 74.3917 42.2318 74.336C42.301 74.0612 42.312 73.6484 42.732 73.6168C42.9029 73.6064 43.0618 73.7038 43.0715 73.8749C43.1568 74.3141 42.6945 74.524 42.3273 74.4555Z" fill="#E9E9E9"/>
<path d="M43.9735 78.8436C43.8996 78.7875 43.8266 78.6384 43.8908 78.5234C44.0676 78.2602 44.4278 78.2767 44.6908 78.3596C44.9946 78.4502 44.9133 78.8329 44.6895 78.9435C44.4318 79.0985 44.2096 79.0232 43.9735 78.8436Z" fill="#E9E9E9"/>
<path d="M31.3533 62.3245C31.3506 62.2055 31.4703 62.1093 31.5744 62.0949C31.7827 62.0661 31.9571 62.0818 32.1117 62.2461C32.1447 62.2946 32.1257 62.3503 32.1031 62.3799C31.8898 62.5686 31.3345 62.7781 31.3533 62.3245Z" fill="#E9E9E9"/>
<path d="M31.3411 61.1454C31.1146 61.137 30.9088 60.8869 30.7915 60.7042C30.5829 60.3351 31.0469 59.9392 31.3336 60.2975C31.4256 60.3909 31.6865 61.1507 31.3411 61.1454Z" fill="#E9E9E9"/>
<path d="M29.4104 60.1924C29.7255 60.2681 30.018 60.3736 30.1267 60.6902C30.145 60.7274 30.1224 60.7571 30.0851 60.7755C29.8353 60.8897 29.594 60.87 29.3345 60.8131C28.9378 60.7221 29.0137 60.1014 29.4104 60.1924Z" fill="#E9E9E9"/>
<path d="M32.5409 58.3135C32.6348 58.6188 32.6767 58.9314 32.4183 59.1794C32.3957 59.209 32.3289 59.205 32.3107 59.1678C32.1786 58.9738 32.0951 58.7466 32.0152 58.5454C31.9717 58.4188 32.0063 58.2813 32.1034 58.2148C32.152 58.1816 32.1893 58.1631 32.2414 58.1559C32.3568 58.1267 32.4861 58.2017 32.5409 58.3135Z" fill="#E9E9E9"/>
<path d="M30.6324 58.5242C30.6828 58.7029 30.7741 58.8893 30.7612 59.0901C30.7534 59.1309 30.7274 59.1345 30.6901 59.153C30.3925 59.2074 30.1936 59.0094 30.0658 58.7485C29.9016 58.4131 30.5314 58.1668 30.6324 58.5242Z" fill="#E9E9E9"/>
<path d="M31.3643 57.6536C31.207 57.3703 31.2502 57.099 31.3827 56.8021C31.5985 56.3345 32.3043 56.7541 31.9853 57.1432C31.8275 57.3508 31.6775 57.5174 31.4571 57.6541C31.4346 57.6837 31.3825 57.6909 31.3643 57.6536Z" fill="#E9E9E9"/>
<path d="M33.4299 55.1526C33.2383 55.4046 33.0033 55.53 32.6761 55.562C32.3117 55.6125 32.142 55.039 32.5107 54.9217C32.7528 54.8484 32.9871 54.8159 33.2396 54.8208C33.3993 54.8252 33.5426 55.0043 33.4299 55.1526Z" fill="#E9E9E9"/>
<path d="M29.7546 56.8283C29.7826 57.0367 29.7922 57.2078 29.6718 57.3969C29.6492 57.4266 29.6232 57.4302 29.5824 57.4226C29.3489 57.362 29.2724 57.1869 29.1551 57.0042C29.0856 56.8811 29.1575 56.7253 29.2512 56.6327C29.3223 56.5698 29.3743 56.5626 29.482 56.5742C29.6269 56.5674 29.7224 56.6869 29.7546 56.8283Z" fill="#E9E9E9"/>
<path d="M31.0767 55.9158C30.7064 56.2191 30.2834 55.7338 30.3647 55.3511C30.4191 55.065 30.8547 54.9517 30.9634 55.2682C31.0104 55.4209 31.245 55.7864 31.0767 55.9158Z" fill="#E9E9E9"/>
<path d="M32.7104 54.0449C32.595 54.0742 32.4986 54.0477 32.4439 53.9359C32.4404 53.9099 32.4109 53.8874 32.4074 53.8614C32.3674 53.7608 32.3907 53.6382 32.4471 53.564C32.6049 53.3565 32.8034 53.1566 33.0812 53.2508C33.096 53.262 33.1255 53.2844 33.129 53.3105C33.1526 53.5858 32.9932 53.9793 32.7104 54.0449Z" fill="#E9E9E9"/>
<path d="M35.0499 53.0177C34.8432 52.8606 34.9645 52.5785 35.1805 52.5089C35.5007 52.4247 35.9937 52.5422 36.1319 52.8812C36.1684 52.9558 36.1416 53.0523 36.067 53.0892C35.7791 53.3148 35.3156 53.2197 35.0499 53.0177Z" fill="#E9E9E9"/>
<path d="M28.6703 58.4374C28.9438 58.5985 29.2694 58.7525 29.4041 59.0654C29.4441 59.166 29.3877 59.2402 29.2984 59.2658C29.0043 59.3463 28.7047 59.1888 28.427 59.0946C27.9903 58.903 28.297 58.2238 28.6703 58.4374Z" fill="#E9E9E9"/>
<path d="M26.2779 59.7769C26.3514 59.4351 26.4622 59.0748 26.831 58.9575C26.8943 58.9355 26.9646 58.9655 26.9864 59.0288C27.1324 59.327 27.0146 59.6351 26.9376 59.9509C26.8563 60.3336 26.1966 60.1596 26.2779 59.7769Z" fill="#E9E9E9"/>
<path d="M27.3513 61.5516C26.9313 61.5832 26.851 60.9841 27.2641 60.9005C27.599 60.8276 28.1223 60.8745 28.2415 61.2692C28.2632 61.3326 28.2294 61.377 28.1921 61.3955C27.9458 61.5357 27.6264 61.5268 27.3513 61.5516Z" fill="#E9E9E9"/>
<path d="M25.646 61.8676C25.6175 62.1501 25.682 62.433 25.5867 62.7115C25.5599 62.8081 25.4332 62.8521 25.3481 62.8108C24.9072 62.6862 24.8261 62.18 24.8779 61.7749C24.9192 61.2917 25.6985 61.3695 25.646 61.8676Z" fill="#E9E9E9"/>
<path d="M24.6149 63.4957C24.6592 63.5294 24.6957 63.6039 24.6914 63.6708C24.6801 63.6857 24.6949 63.6969 24.6836 63.7117C24.6265 63.8788 24.3028 63.9369 24.1536 64.0106C23.7806 64.1949 23.5258 63.5801 23.9024 63.4219C24.1782 63.3041 24.3935 63.3274 24.6149 63.4957Z" fill="#E9E9E9"/>
<path d="M23.4194 64.8552C23.7951 64.79 24.1553 64.8064 24.4202 65.1014C24.4497 65.1238 24.4307 65.1795 24.4046 65.1831C24.1653 65.3755 23.8859 65.4672 23.6213 65.5701C23.1181 65.7724 22.8875 64.9421 23.4194 64.8552Z" fill="#E9E9E9"/>
<path d="M23.8486 66.6793C24.0549 66.4385 24.5259 66.0947 24.8281 66.3713C24.8429 66.3825 24.8576 66.3937 24.8463 66.4085C24.7919 66.6946 24.4779 66.9238 24.2611 67.0865C24.0104 67.2936 23.6309 66.9349 23.8486 66.6793Z" fill="#E9E9E9"/>
<path d="M23.8694 67.9102C23.925 67.929 23.9467 67.9923 23.9129 68.0368C23.6875 68.3333 23.3708 68.4434 23.0099 68.5199C22.5969 68.6036 22.5096 67.9525 22.9261 67.8948C23.235 67.8255 23.5621 67.7935 23.8694 67.9102Z" fill="#E9E9E9"/>
<path d="M22.2606 65.9843C22.5384 66.0785 22.7349 66.5553 22.5954 66.8002C22.565 66.8707 22.5052 66.9188 22.4236 66.9035C22.0747 66.8722 21.8184 66.4434 21.9102 66.1389C21.956 65.9866 22.1348 65.9354 22.2606 65.9843Z" fill="#E9E9E9"/>
<path d="M23.573 69.8613C23.6321 69.9062 23.62 70.014 23.5567 70.036C23.24 70.1462 22.9859 70.3273 22.656 70.2403C22.5597 70.2138 22.4867 70.0647 22.5396 69.9646C22.777 69.5603 23.237 69.6292 23.573 69.8613Z" fill="#E9E9E9"/>
<path d="M24.5705 71.1562C24.431 71.401 24.2359 71.627 24.0816 71.8606C24.0252 71.9347 23.8881 71.9007 23.8889 71.8077C23.8661 71.4394 23.7869 71.1453 23.9237 70.7815C24.1064 70.2654 24.8609 70.6518 24.5705 71.1562Z" fill="#E9E9E9"/>
<path d="M25.6705 72.9534C25.7929 72.9763 25.8997 73.0809 25.9137 73.1851C25.9373 73.4604 25.9349 73.7393 25.725 73.954C25.7025 73.9837 25.6504 73.9909 25.6322 73.9536C25.4593 73.752 25.4019 73.5212 25.3522 73.2495C25.3348 73.1193 25.4102 72.9895 25.5256 72.9602C25.5776 72.953 25.6184 72.9606 25.6705 72.9534Z" fill="#E9E9E9"/>
<path d="M27.3137 74.9279C27.5985 75.0742 27.8234 75.2686 27.9919 75.5371C28.0284 75.6117 28.0129 75.6934 27.9235 75.719C27.6224 75.7475 27.3446 75.6532 27.0746 75.5182C26.6935 75.3454 26.9439 74.7404 27.3137 74.9279Z" fill="#E9E9E9"/>
<path d="M29.1645 74.7653C29.4744 75.0009 29.5225 75.4586 29.5714 75.8232C29.6307 76.266 29.0025 76.3264 28.8946 75.9169C28.7936 75.5594 28.7195 75.1054 28.9562 74.7941C29.0273 74.7312 29.1054 74.7204 29.1645 74.7653Z" fill="#E9E9E9"/>
<path d="M30.3735 77.277C30.0968 77.4878 29.8139 77.5535 29.4755 77.6003C29.4235 77.6075 29.3792 77.5738 29.387 77.533C29.3727 77.0309 29.7135 76.7051 30.2186 76.7148C30.5119 76.7273 30.5903 77.1144 30.3735 77.277Z" fill="#E9E9E9"/>
<path d="M31.6054 75.5683C31.9597 75.8376 31.5426 76.3861 31.1884 76.1168C31.0555 76.0158 30.347 75.4771 30.6462 75.2367C30.9229 75.026 31.3727 75.4148 31.6054 75.5683Z" fill="#E9E9E9"/>
<path d="M32.9998 75.0165C33.0468 75.1692 33.0009 75.3215 32.9811 75.4701C32.9145 75.864 32.373 75.7798 32.3874 75.3931C32.3968 75.1663 32.5243 75.0293 32.7221 74.9223C32.7854 74.9003 32.9746 74.9271 32.9998 75.0165Z" fill="#E9E9E9"/>
<path d="M33.3701 75.7881C33.5703 75.4022 34.0772 75.6239 33.9734 76.0362C33.9423 76.1997 33.8326 76.8648 33.5435 76.7855C33.1469 76.6945 33.2193 76.0477 33.3701 75.7881Z" fill="#E9E9E9"/>
<path d="M34.6494 74.9606C34.3215 75.0856 34.041 74.8723 33.7788 74.6964C33.4576 74.4756 33.8408 73.9715 34.1508 74.2072C34.3722 74.3755 34.6196 74.5402 34.7101 74.8195C34.7171 74.8716 34.698 74.9273 34.6494 74.9606Z" fill="#E9E9E9"/>
<path d="M33.9311 72.1684C34.139 71.7417 34.7563 72.094 34.4893 72.4758C34.3575 72.6798 34.1963 72.8613 33.9872 72.9831C33.9759 72.9979 33.9351 72.9903 33.9204 72.9791C33.7553 72.7366 33.8098 72.4505 33.9311 72.1684Z" fill="#E9E9E9"/>
<path d="M35.0347 71.6042C35.0685 71.5597 35.1579 71.5341 35.2135 71.5529C35.4982 71.6992 35.5261 71.9076 35.4752 72.2198C35.4596 72.3015 35.3617 72.461 35.2618 72.4085C34.925 72.2694 34.8726 71.8787 35.0347 71.6042Z" fill="#E9E9E9"/>
<path d="M36.1568 69.8837C36.2738 69.6685 36.416 69.5427 36.6798 69.5327C36.7579 69.5219 36.817 69.5668 36.8422 69.6562C36.9101 69.9651 36.7376 70.1615 36.4582 70.2532C36.2014 70.3153 36.025 70.0876 36.1568 69.8837Z" fill="#E9E9E9"/>
<path d="M37.6867 70.5079C37.6576 69.9946 37.5358 69.4808 37.7185 68.9647C37.8059 68.7271 38.1401 68.7472 38.2348 68.9596C38.46 69.5519 38.0959 70.0002 37.8611 70.5235C37.8308 70.5941 37.6859 70.6009 37.6867 70.5079Z" fill="#E9E9E9"/>
<path d="M36.2055 68.471C35.9168 68.7895 35.6339 68.8552 35.2182 68.8199C35.1366 68.8046 35.1114 68.7153 35.1565 68.656C35.3143 68.4484 35.4573 68.2297 35.6299 68.0333C35.9411 67.6851 36.5168 68.1228 36.2055 68.471Z" fill="#E9E9E9"/>
<path d="M34.6386 66.5523C34.6429 66.4854 34.7027 66.4373 34.7548 66.4301C35.0897 66.3572 35.3919 66.6338 35.5344 66.9059C35.644 67.1295 35.3968 67.3627 35.1598 67.2761C34.8786 67.1558 34.6432 66.8833 34.6386 66.5523Z" fill="#E9E9E9"/>
<path d="M36.9173 67.7488C36.5848 67.5428 36.684 66.7995 36.8869 66.5326C36.932 66.4733 37.0101 66.4625 37.0691 66.5074C37.3643 66.7318 37.5697 67.4728 37.2367 67.7577C37.1282 67.839 37.0206 67.8273 36.9173 67.7488Z" fill="#E9E9E9"/>
<path d="M38.2148 67.6095C38.2623 67.2713 38.7239 67.1543 39.0024 67.1556C39.4893 67.128 39.5765 67.7792 39.1002 67.8849C38.9214 67.9361 38.1448 67.9773 38.2148 67.6095Z" fill="#E9E9E9"/>
<path d="M39.7975 69.0483C40.3364 69.0136 40.3257 69.8242 39.8024 69.7773C39.5872 69.754 39.4023 69.6602 39.1835 69.6109C39.128 69.592 39.1097 69.5548 39.1435 69.5103C39.2944 69.2506 39.4964 69.0768 39.7975 69.0483Z" fill="#E9E9E9"/>
<path d="M40.9766 71.3259C40.92 71.0021 40.9068 70.805 40.9951 70.4744C41.137 69.9507 42.0538 70.4605 41.556 70.9008C41.4025 71.0414 41.1822 71.1781 41.0582 71.3411C41.0357 71.3708 40.9949 71.3632 40.9766 71.3259Z" fill="#E9E9E9"/>
<path d="M41.1764 68.5525C41.2156 68.746 41.3294 68.9027 41.3573 69.1111C41.3608 69.1371 41.3496 69.1519 41.3235 69.1555C40.9913 69.3474 40.6934 69.004 40.5882 68.7135C40.4655 68.2927 41.065 68.1169 41.1764 68.5525Z" fill="#E9E9E9"/>
<path d="M41.7058 67.4578C41.9044 67.2579 42.2254 67.0808 42.5187 67.0933C42.5855 67.0973 42.6481 67.1682 42.6325 67.25C42.559 67.5918 42.226 67.8766 41.8876 67.9235C41.6238 67.9334 41.5298 67.6281 41.7058 67.4578Z" fill="#E9E9E9"/>
<path d="M41.248 66.1281C41.6023 66.3974 40.8246 67.4203 40.5034 67.1995C40.0788 66.9001 40.8052 65.7914 41.248 66.1281Z" fill="#E9E9E9"/>
<path d="M42.1649 65.2582C42.4601 65.4826 42.5358 65.7507 42.3955 66.0885C42.3765 66.1442 42.3019 66.1811 42.2541 66.1214C42.0995 65.957 41.9223 65.8224 41.7678 65.6581C41.5506 65.4228 41.914 65.0674 42.1649 65.2582Z" fill="#E9E9E9"/>
<path d="M42.3225 63.95C42.2261 63.9236 42.1784 63.8639 42.1792 63.7709C42.1816 63.492 42.3914 63.2772 42.6447 63.1891C42.9241 63.0974 43.2185 63.4148 43.0157 63.6816C42.8431 63.878 42.582 64.007 42.3225 63.95Z" fill="#E9E9E9"/>
<path d="M45.5684 61.7628C45.5388 61.7403 45.5058 61.6919 45.5136 61.651C45.556 61.4727 45.6609 61.3653 45.8066 61.2655C45.9974 61.1065 46.2629 60.9106 46.5232 60.8745C46.6646 60.8417 46.827 60.9651 46.8332 61.1102C46.8622 61.6235 46.026 62.1107 45.5684 61.7628Z" fill="#E9E9E9"/>
<path d="M44.307 60.8499C44.3171 60.5301 44.4011 60.2665 44.5224 59.9844C44.7381 59.5168 45.3962 59.8767 45.1249 60.3255C44.9516 60.6148 44.7565 60.8407 44.4285 60.9657C44.3504 60.9765 44.3027 60.9168 44.307 60.8499Z" fill="#E9E9E9"/>
<path d="M43.2554 60.0271C43.2069 60.0603 43.1365 60.0303 43.1296 59.9782C43.1258 59.5542 43.049 58.9812 43.4488 58.7003C43.4974 58.6671 43.5642 58.6711 43.6085 58.7048C44.1659 59.1051 43.6292 59.7498 43.2554 60.0271Z" fill="#E9E9E9"/>
<path d="M42.7508 57.9348C42.7065 57.9011 42.7108 57.8342 42.7299 57.7785C42.8469 57.5633 42.9821 57.3854 43.1912 57.2636C43.4228 57.1122 43.6885 57.3142 43.6045 57.5778C43.4711 57.9677 43.0721 58.1556 42.7508 57.9348Z" fill="#E9E9E9"/>
<path d="M41.4827 55.709C41.5017 55.6533 41.5208 55.5976 41.5728 55.5904C42.0162 55.4362 42.3976 56.0068 42.2382 56.4003C42.2156 56.43 42.1931 56.4596 42.1523 56.452C41.8112 56.3798 41.4239 56.062 41.4827 55.709Z" fill="#E9E9E9"/>
<path d="M38.9727 54.5711C38.9024 54.5411 38.8251 54.4589 38.8519 54.3623C38.9176 54.0614 39.2942 53.9032 39.5719 53.9974C39.5867 54.0086 39.6015 54.0198 39.6049 54.0459C39.6208 54.362 39.2687 54.7026 38.9727 54.5711Z" fill="#E9E9E9"/>
<path d="M37.2839 52.9607C37.1258 52.7704 37.3625 52.4591 37.5882 52.5605C37.7028 52.6242 38.3193 53.0695 38.0096 53.2317C37.7372 53.3755 37.442 53.1511 37.2839 52.9607Z" fill="#E9E9E9"/>
<path d="M31.8832 77.347C32.0281 77.3402 32.1167 77.4075 32.1489 77.549C32.2168 77.858 31.8562 78.3324 31.7054 78.592C31.5208 78.8961 31.0138 78.6745 31.076 78.3475C31.1383 78.0205 31.504 77.3862 31.8832 77.347Z" fill="#E9E9E9"/>
<path d="M33.2118 78.2639C33.2397 78.4723 33.2607 78.6286 33.181 78.8253C33.1619 78.881 33.0986 78.903 33.0543 78.8694C32.9475 78.7648 32.8407 78.6602 32.7339 78.5556C32.284 78.1668 33.1385 77.7169 33.2118 78.2639Z" fill="#E9E9E9"/>
<path d="M30.4035 78.5862C30.4964 78.5866 30.5997 78.6652 30.6397 78.7658C30.698 78.9036 30.705 78.9557 30.7111 79.1008C30.7146 79.1268 30.6921 79.1565 30.6548 79.1749C30.5021 79.2226 30.4205 79.2073 30.2686 79.162C30.1575 79.1244 30.0584 78.9789 30.0818 78.8563C30.0896 78.8154 30.0973 78.7745 30.1051 78.7337C30.1207 78.6519 30.1918 78.589 30.2734 78.6042C30.322 78.571 30.3628 78.5786 30.4035 78.5862Z" fill="#E9E9E9"/>
<path d="M32.8376 79.921C32.803 80.0585 32.7314 80.6122 32.5092 80.5369C32.2349 80.4687 32.167 80.1598 32.1616 79.9217C32.1439 79.3936 32.9345 79.4566 32.8376 79.921Z" fill="#E9E9E9"/>
<path d="M33.9675 79.7513C34.1023 80.0642 34.0583 80.4285 34.0776 80.7707C34.0892 81.1538 33.546 81.2555 33.4789 80.8536C33.4153 80.4777 33.4635 80.0465 33.6707 79.7128C33.7201 79.5865 33.9128 79.6395 33.9675 79.7513Z" fill="#E9E9E9"/>
<path d="M35.7603 82.2359C35.8193 82.2808 35.8073 82.3886 35.7439 82.4106C35.3709 82.5949 34.8747 82.8493 34.4547 82.8809C34.1796 82.9057 33.9858 82.5478 34.24 82.3668C34.6251 82.0747 35.3435 81.8957 35.7603 82.2359Z" fill="#E9E9E9"/>
<path d="M36.8658 83.4754C36.8191 83.7207 36.7282 83.9322 36.6259 84.1586C36.5921 84.2031 36.5401 84.2103 36.5071 84.1618C36.3975 83.9382 36.3028 83.7258 36.2826 83.4766C36.2381 83.045 36.9289 83.0555 36.8658 83.4754Z" fill="#E9E9E9"/>
<path d="M38.2425 83.8422C38.5254 83.7765 38.7892 83.7665 39.0254 83.9461C39.0992 84.0022 39.1201 84.1585 39.0343 84.2102C38.8252 84.332 38.6135 84.3347 38.3974 84.4044C37.9879 84.5142 37.8295 83.9259 38.2425 83.8422Z" fill="#E9E9E9"/>
<path d="M37.9505 84.5326C38.0573 84.6372 38.5031 85.4908 38.0206 85.4515C37.7533 85.4354 37.6003 85.0852 37.457 84.906C37.2033 84.5963 37.7003 84.2489 37.9505 84.5326Z" fill="#E9E9E9"/>
<path d="M40.4694 85.0458C40.584 85.1095 40.6014 85.2398 40.493 85.3211C40.2684 85.5246 39.93 85.5715 39.6324 85.6259C39.2602 85.7173 39.1799 85.1182 39.5521 85.0269C39.8497 84.9724 40.1994 84.9107 40.4694 85.0458Z" fill="#E9E9E9"/>
<path d="M41.2731 86.4738C41.2914 86.511 41.2723 86.5667 41.235 86.5852C40.9852 86.6993 40.625 86.6828 40.4409 86.4961C40.3931 86.4364 40.3566 86.3618 40.413 86.2877C40.6497 85.9764 41.1461 86.1199 41.2731 86.4738Z" fill="#E9E9E9"/>
<path d="M43.681 86.1535C43.7331 86.1463 43.7514 86.1836 43.7436 86.2245C43.6518 86.529 43.442 86.7438 43.1731 86.9136C42.8556 87.1167 42.5628 86.6134 42.9133 86.4588C43.1666 86.3707 43.3947 86.1932 43.681 86.1535Z" fill="#E9E9E9"/>
<path d="M41.7835 85.063C41.7991 84.9812 41.8737 84.9444 41.944 84.9745C42.3737 85.114 42.6517 85.6061 42.633 86.0597C42.6252 86.1006 42.5879 86.119 42.5471 86.1114C42.0914 85.9755 41.7535 85.5314 41.7835 85.063Z" fill="#E9E9E9"/>
<path d="M40.7975 84.125C40.9612 83.6646 41.6823 83.6046 42.0945 83.6139C42.4139 83.6227 42.4732 84.0655 42.2712 84.2394C41.9008 84.5427 41.2248 84.5434 40.8262 84.2404C40.808 84.2032 40.7897 84.1659 40.7975 84.125Z" fill="#E9E9E9"/>
<path d="M44.0053 85.1136C44.0578 84.6155 45.0087 85.4788 45.1008 85.5722C45.1303 85.5946 45.1113 85.6503 45.0852 85.6539C44.6939 85.8009 43.9414 85.6265 44.0053 85.1136Z" fill="#E9E9E9"/>
<path d="M43.5755 83.0777C43.9663 83.4216 43.921 84.3697 43.4578 84.6725C43.4205 84.691 43.3684 84.6982 43.3502 84.6609C43.1008 84.2842 43.056 83.4547 43.3672 83.1065C43.4384 83.0436 43.5277 83.018 43.5755 83.0777Z" fill="#E9E9E9"/>
<path d="M42.6379 82.6235C42.5971 82.6159 42.5789 82.5786 42.5866 82.5377C42.6575 82.0769 43.1614 81.7816 43.564 81.6198C43.9665 81.458 44.3219 82.0322 43.9446 82.2834C43.582 82.5459 43.0789 82.7482 42.6379 82.6235Z" fill="#E9E9E9"/>
<path d="M46.3008 83.9339C46.3338 83.9824 46.3295 84.0493 46.2809 84.0826C45.9479 84.3675 45.3126 84.3758 44.9844 84.1029C44.7743 83.9197 44.9033 83.5967 45.1819 83.598C45.542 83.6145 46.0654 83.6614 46.3008 83.9339Z" fill="#E9E9E9"/>
<path d="M45.5013 81.3383C45.5464 81.279 45.6245 81.2682 45.7095 81.3095C46.1671 81.6574 45.9431 82.6568 45.3922 82.7993C45.3288 82.8214 45.2733 82.8025 45.2515 82.7392C45.0985 82.389 45.2351 81.6272 45.5013 81.3383Z" fill="#E9E9E9"/>
<path d="M44.7781 80.2047C44.8675 80.179 44.9335 80.276 44.9327 80.369C44.9148 80.7296 44.6443 81.0854 44.2398 81.0353C44.0914 81.016 43.699 80.8581 43.8421 80.6393C44.038 80.3204 44.4692 80.2739 44.7781 80.2047Z" fill="#E9E9E9"/>
<path d="M47.1881 82.5506C47.3956 82.6148 47.6699 82.6829 47.7906 82.8917C47.8089 82.929 47.8159 82.9811 47.7933 83.0107C47.587 83.2515 47.2571 83.1645 46.9828 83.0964C46.6235 82.9869 46.8435 82.4524 47.1881 82.5506Z" fill="#E9E9E9"/>
<path d="M47.5073 80.265C47.9727 80.572 47.7832 81.4339 47.4277 81.7484C47.3678 81.7965 47.2975 81.7665 47.2758 81.7031C47.082 81.3453 46.9955 80.6011 47.299 80.2938C47.3441 80.2345 47.4335 80.2089 47.5073 80.265Z" fill="#E9E9E9"/>
<path d="M46.6191 79.008C46.6825 78.986 46.7675 79.0273 46.7633 79.0942C46.8234 79.444 46.697 79.886 46.3943 80.1003C46.2972 80.1668 45.8826 80.4365 45.773 80.2128C45.5505 79.7396 46.2279 79.155 46.6191 79.008Z" fill="#E9E9E9"/>
<path d="M45.3705 76.4884C45.4043 76.4439 45.4711 76.4479 45.5154 76.4816C45.8541 76.8327 46.1045 77.5143 46.0112 78.0048C45.9766 78.1422 45.8161 78.2308 45.7093 78.1262C45.2517 77.7783 45.0393 76.9852 45.3705 76.4884Z" fill="#E9E9E9"/>
<path d="M44.6101 76.4738C44.849 76.7724 44.8302 77.226 44.6083 77.5486C44.5407 77.6375 44.245 77.904 44.1502 77.6916C43.9972 77.3413 44.199 76.7695 44.4279 76.4991C44.4695 76.4137 44.5476 76.4029 44.6101 76.4738Z" fill="#E9E9E9"/>
<path d="M44.3746 75.4986C44.3451 75.4762 44.3381 75.4241 44.3607 75.3944C44.5523 75.1424 44.8585 74.9541 45.1308 74.8103C45.2167 74.7586 45.3651 74.7779 45.4277 74.8488C45.8219 75.2187 45.1843 75.5059 44.9422 75.5792C44.7522 75.6453 44.5483 75.6072 44.3746 75.4986Z" fill="#E9E9E9"/>
<path d="M43.9809 72.8602C44.4755 72.7917 44.616 73.7406 44.361 74.0147C44.2674 74.1072 44.1259 74.1401 44.0304 74.0207C43.8723 73.8303 43.5384 72.9214 43.9809 72.8602Z" fill="#E9E9E9"/>
<path d="M43.0749 72.8265C43.0282 73.0717 42.8495 73.123 42.6152 73.1554C42.4851 73.1734 42.3705 73.1097 42.327 72.983C42.3235 72.957 42.3052 72.9197 42.3017 72.8937C42.28 72.8304 42.2956 72.7486 42.3441 72.7154C42.5575 72.5267 42.7945 72.6132 43.0349 72.7259C43.0532 72.7631 43.0827 72.7856 43.0749 72.8265Z" fill="#E9E9E9"/>
<path d="M47.0265 75.8078C47.1123 75.7561 47.1939 75.7714 47.3528 75.8688C47.5707 76.011 47.4817 76.4346 47.1918 76.4482C46.8612 76.4541 46.5644 76.4156 46.3403 76.1283C46.3107 76.1058 46.3298 76.0501 46.3558 76.0465C46.5431 75.8614 46.7887 75.8142 47.0265 75.8078Z" fill="#E9E9E9"/>
<path d="M46.8811 75.1117C46.7907 74.8324 46.7445 74.5868 46.9508 74.346C46.9734 74.3163 47.0254 74.3091 47.055 74.3316C47.2356 74.4923 47.3234 74.6526 47.4216 74.891C47.5859 75.2264 46.9933 75.4544 46.8811 75.1117Z" fill="#E9E9E9"/>
<path d="M46.9889 78.2806C46.9298 78.2357 46.9193 78.1576 46.9644 78.0983C47.1187 77.8647 47.3573 77.7653 47.6106 77.6772C48.1208 77.527 48.3114 78.2567 47.7977 78.3809C47.5149 78.4466 47.225 78.4602 46.9889 78.2806Z" fill="#E9E9E9"/>
<path d="M48.7645 81.0591C48.4883 80.7789 48.4021 80.4327 48.3125 80.0604C48.2228 79.6882 48.8328 79.5905 48.9112 79.9776C48.9713 80.3274 49.0723 80.6848 48.9172 81.0114C48.8721 81.0707 48.8087 81.0927 48.7645 81.0591Z" fill="#E9E9E9"/>
<path d="M50.4732 79.3635C50.5252 79.3563 50.5773 79.3491 50.6103 79.3976C50.8561 79.7483 50.6447 80.149 50.4045 80.4342C50.3482 80.5084 50.0455 80.7227 49.9577 80.5624C49.7379 80.2082 50.0784 79.4845 50.4732 79.3635Z" fill="#E9E9E9"/>
<path d="M50.0547 78.7182C49.9108 79.0299 49.661 79.1441 49.3381 79.1092C49.2045 79.1011 48.957 78.9364 49.0402 78.7657C49.1537 78.5245 49.5155 78.355 49.7645 78.3338C49.9615 78.3198 50.1604 78.5178 50.0547 78.7182Z" fill="#E9E9E9"/>
<path d="M51.4387 77.5715C51.4543 77.4898 51.5072 77.3896 51.5965 77.364C51.6226 77.3604 51.6338 77.3455 51.6599 77.3419C51.738 77.3311 51.8491 77.3688 51.8968 77.4285C52.1201 77.8088 52.223 78.3783 51.8709 78.7188C51.8371 78.7633 51.7668 78.7332 51.7485 78.696C51.5131 78.4235 51.4095 77.947 51.4387 77.5715Z" fill="#E9E9E9"/>
<path d="M49.0943 77.591C48.9724 77.0773 49.3068 76.2085 49.8065 75.9802C49.855 75.9469 49.8993 75.9806 49.9323 76.0291C50.2174 76.5733 49.8042 77.5458 49.1794 77.6323C49.1273 77.6395 49.0978 77.617 49.0943 77.591Z" fill="#E9E9E9"/>
<path d="M48.409 76.8106C48.3492 76.8586 48.2641 76.8173 48.2311 76.7689C48.0486 76.3962 48.1924 76.0844 48.4586 75.7955C48.5297 75.7326 48.6 75.7627 48.6365 75.8372C48.7114 76.1983 48.7047 76.5441 48.409 76.8106Z" fill="#E9E9E9"/>
<path d="M49.7315 75.0091C49.3611 75.3124 49.0166 75.2142 48.6242 75.0563C48.5131 75.0186 48.5477 74.8812 48.6518 74.8667C48.9607 74.7975 49.2296 74.6276 49.5385 74.5583C49.8179 74.4666 49.9483 74.8465 49.7315 75.0091Z" fill="#E9E9E9"/>
<path d="M51.3046 75.7599C51.4347 75.7419 51.5416 75.8465 51.5182 75.9691C51.4898 76.2516 51.3755 76.5858 51.2655 76.853C51.178 77.0907 51.0948 77.2614 50.871 77.3719C50.8224 77.4052 50.7781 77.3715 50.7451 77.323C50.5226 76.8497 50.6208 75.8015 51.3046 75.7599Z" fill="#E9E9E9"/>
<path d="M52.5909 75.7804C52.6099 75.7247 52.6733 75.7027 52.7028 75.7251C53.2132 75.9728 53.3048 76.5571 53.2818 77.0776C53.281 77.1706 53.1621 77.1738 53.1143 77.1141C52.7756 76.763 52.3561 76.3037 52.5909 75.7804Z" fill="#E9E9E9"/>
<path d="M50.9608 74.6798C50.9839 74.1593 52.5176 73.3368 52.5563 74.0212C52.588 74.6536 50.9448 75.2524 50.9608 74.6798Z" fill="#E9E9E9"/>
<path d="M54.0632 75.8689C54.045 75.8317 54.0267 75.7944 54.0345 75.7535C53.8753 75.2582 54.0301 74.5337 54.5481 74.3427C54.5854 74.3242 54.6409 74.3431 54.6592 74.3803C54.9155 74.8091 54.8015 75.5412 54.4529 75.9079C54.348 76.0152 54.1918 76.0369 54.0963 75.9174C54.0667 75.895 54.0667 75.895 54.0632 75.8689Z" fill="#E9E9E9"/>
<path d="M53.6228 73.6878C53.8939 74.1278 53.6956 74.7256 53.2367 74.9616C53.1994 74.98 53.1551 74.9464 53.1516 74.9203C52.9474 74.4843 53.1414 73.9534 53.4857 73.6537C53.523 73.6353 53.5898 73.6393 53.6228 73.6878Z" fill="#E9E9E9"/>
<path d="M51.5198 72.931C51.5786 72.5779 52.7757 72.0143 52.849 72.5613C52.9658 73.2349 51.4187 73.4623 51.5198 72.931Z" fill="#E9E9E9"/>
<path d="M52.977 72.2381C52.7451 71.9917 52.5886 71.6154 52.558 71.288C52.5483 71.1169 52.7391 70.9578 52.8902 71.0961C53.1299 71.3017 53.2646 71.6146 53.4332 71.8832C53.6495 72.2114 53.2384 72.507 52.977 72.2381Z" fill="#E9E9E9"/>
<path d="M54.3577 73.5198C54.3542 73.4938 54.3507 73.4677 54.3732 73.4381C54.5761 73.1712 55.1045 73.0583 55.4064 72.9369C55.7231 72.8268 55.9802 73.1626 55.7921 73.4407C55.5321 73.8746 54.6392 74.038 54.3577 73.5198Z" fill="#E9E9E9"/>
<path d="M54.5749 72.2824C54.2284 71.9722 54.3432 71.1471 54.9073 71.2017C55.4602 71.2711 54.8846 72.1201 54.653 72.2716C54.6565 72.2976 54.6044 72.3048 54.5749 72.2824Z" fill="#E9E9E9"/>
<path d="M56.1365 71.7615C56.0957 71.7539 56.0662 71.7314 56.0627 71.7054C55.994 71.4894 56.2185 69.9991 56.6318 70.3133C57.0043 70.6199 56.7189 71.8533 56.1365 71.7615Z" fill="#E9E9E9"/>
<path d="M53.9215 70.5691C54.0443 70.101 54.2931 69.6819 54.6304 69.3301C54.7579 69.1931 54.9879 69.2276 55.0158 69.436C55.1143 70.0723 54.62 70.5387 54.043 70.6849C53.9649 70.6957 53.9024 70.6248 53.9215 70.5691Z" fill="#E9E9E9"/>
<path d="M54.1233 69.0154C54.0044 69.0186 53.6372 68.95 53.6761 68.7457C53.7496 68.4039 54.3934 68.2617 54.6693 68.1439C54.9825 68.0077 55.2171 68.3732 55.0403 68.6365C54.8444 68.9554 54.4686 69.0207 54.1233 69.0154Z" fill="#E9E9E9"/>
<path d="M52.9615 67.6641C53.0098 67.2329 52.992 66.7048 53.4396 66.4836C53.4882 66.4504 53.5585 66.4804 53.5768 66.5177C53.9442 66.9842 53.5124 67.5215 53.0796 67.7539C53.0162 67.7759 52.9424 67.7198 52.9615 67.6641Z" fill="#E9E9E9"/>
<path d="M52.3884 66.3375C52.1713 66.1022 52.2949 65.5412 52.5378 65.375C52.5751 65.3566 52.6124 65.3381 52.668 65.357C53.208 65.6271 52.6498 66.6064 52.3884 66.3375Z" fill="#E9E9E9"/>
<path d="M45.9459 60.318C45.8425 60.2394 45.8251 60.1092 45.904 60.0054C46.0583 59.7718 46.3776 59.7807 46.5956 59.9229C46.6841 59.9903 46.7016 60.1205 46.634 60.2095C46.4614 60.4058 46.156 60.5011 45.9459 60.318Z" fill="#E9E9E9"/>
<path d="M45.034 58.7595C44.8005 58.699 44.6424 58.5086 44.4618 58.3479C44.1856 58.0678 44.6904 57.6795 44.9553 57.9745C45.1689 58.1837 45.2672 58.4221 45.1867 58.7119C45.1641 58.7415 45.0748 58.7671 45.034 58.7595Z" fill="#E9E9E9"/>
<path d="M63.8938 68.3262C65.6537 63.6521 70.3403 60.7351 69.76 55.2175C69.7259 54.8641 70.1875 54.7471 70.3483 55.0565C72.8147 59.8089 67.4898 65.6796 64.1595 68.5282C64.032 68.6652 63.8219 68.4821 63.8938 68.3262Z" fill="#E9E9E9"/>
<path d="M42.4678 38.4212C40.355 40.0667 38.7356 42.2275 36.6193 43.8469C36.4996 43.9431 36.3225 43.8084 36.3831 43.6674C37.4591 41.2103 39.8268 39.2908 41.8728 37.6413C43.5709 36.2655 46.0202 34.3612 48.3245 34.6392C48.4174 34.6396 48.4643 34.7923 48.3785 34.844C46.4103 36.0847 44.3412 36.968 42.4678 38.4212Z" fill="#E9E9E9"/>
<path d="M35.5028 44.8237C35.1993 45.131 34.8697 45.4419 34.5845 45.7865C34.5281 45.8606 34.4049 45.9307 34.3086 45.9042C34.1714 45.8702 34.1307 45.8625 34.0724 45.7247C34.0324 45.6241 34.0558 45.5015 34.1121 45.4274C34.4459 45.0495 34.9263 44.479 35.474 44.7082C35.5148 44.7159 35.5366 44.7792 35.5028 44.8237Z" fill="#E9E9E9"/>
</svg>
