<svg width="25" height="31" viewBox="0 0 25 31" fill="none" xmlns="http://www.w3.org/2000/svg">
<path d="M1.24175 9.25274C3.86499 8.20916 7.16383 9.29352 10.0096 8.36407C13.7719 7.13531 16.5702 3.79271 19.0276 0.801641C19.3696 0.369688 19.8498 0.372995 20.1666 0.616459C20.581 0.747997 20.8486 1.08763 20.7127 1.66578C19.6839 5.55139 18.8468 9.4544 19.8658 13.4185C20.6424 16.3674 23.5303 18.2533 24.2608 21.0572C24.2915 21.1539 24.2422 21.2501 24.1611 21.3299C24.1918 21.4267 24.0942 21.5386 23.9978 21.5701C21.3745 22.6137 18.0592 21.5614 15.2299 22.4588C11.4194 23.7033 8.63753 27.0138 6.1801 30.0049C5.82169 30.4689 5.35796 30.4335 5.00931 30.1738C4.62669 30.0585 4.32736 29.7026 4.49501 29.1408C5.52386 25.2551 6.39266 21.3684 5.34187 17.3881C4.56529 14.4391 1.67743 12.5533 0.946918 9.74936C0.916208 9.65264 0.965531 9.55647 1.04664 9.4766C1.04773 9.39618 1.14528 9.28425 1.24175 9.25274ZM7.98914 15.7495C8.85551 17.9753 9.12664 20.4221 8.854 22.8331C10.4412 21.4606 12.2806 20.3795 14.324 19.6054C15.5627 19.1474 17.4088 18.758 19.2012 18.7864C18.3053 17.5578 17.6518 16.1699 17.2339 15.1054C16.3358 12.8633 16.0964 10.4328 16.3691 8.02181C14.7819 9.39424 12.9425 10.4754 10.8991 11.2495C9.66039 11.7075 7.81432 12.0969 6.0219 12.0685C6.88594 13.2808 7.57131 14.685 7.98914 15.7495Z" fill="#E9E9E9"/>
</svg>
