<svg width="306" height="412" viewBox="0 0 306 412" fill="none" xmlns="http://www.w3.org/2000/svg">
<path d="M103.266 344.952C110.454 350.075 117.642 356.224 124.83 361.86C139.72 373.644 154.096 384.916 171.04 393.113C189.01 401.823 208.007 404.385 227.518 407.459C247.029 410.533 266.026 413.607 286.05 411.046C286.563 411.046 287.077 410.533 286.563 410.021C278.862 389.014 267.053 369.545 253.19 351.612C238.3 333.168 221.357 316.772 200.306 305.5C180.282 294.741 156.663 289.105 133.559 290.642C122.776 291.667 112.508 293.716 102.239 297.815C93.5104 300.889 84.2685 305.5 78.6206 313.186C78.6206 313.186 78.6206 313.186 78.6206 313.698C71.9459 317.797 64.2443 321.383 58.0831 326.507H57.5696C58.5965 325.482 59.6234 323.945 60.6503 322.921C68.8653 313.186 75.54 302.939 81.1878 292.179C89.9163 275.784 100.185 256.827 116.615 246.067C120.723 245.555 124.317 244.53 128.424 243.505C135.612 241.968 143.827 245.555 151.016 247.604C163.851 251.191 176.174 254.265 189.523 254.777C210.574 256.314 233.166 252.728 252.163 244.018C269.106 235.82 283.996 221.986 292.211 205.079C297.859 193.294 302.48 181.51 303.507 168.701C304.02 162.041 304.534 154.868 305.047 147.695C305.561 143.596 306.587 138.985 305.561 134.886C305.047 133.861 303.507 133.861 303.507 135.398C283.996 142.059 262.432 141.034 241.894 142.059C222.897 143.596 204.413 148.207 189.01 158.967C172.58 170.238 162.825 189.196 152.042 205.079C145.881 214.301 139.72 223.011 131.505 230.184C127.911 233.258 124.317 235.308 120.723 237.869C118.669 239.406 116.615 240.944 115.075 242.481C99.6716 250.678 90.4297 265.537 82.2147 280.395C82.2147 276.808 83.2416 273.222 83.2416 269.635C83.755 269.635 83.755 269.123 83.755 269.123C87.3491 254.777 92.4835 240.944 100.699 228.135C107.887 217.888 115.588 207.64 120.723 196.369C132.018 173.313 130.991 146.67 123.29 123.102C116.102 100.558 102.239 81.6009 85.2953 64.6931C75.54 54.9584 64.2443 45.736 53.4621 36.5135C45.7605 27.8035 36.0052 20.6305 28.3036 11.9205C28.8171 11.4081 28.8171 10.8958 28.3036 10.8958C24.1961 7.30926 23.1692 2.1857 18.0348 0.13628C17.008 -0.376076 15.9811 0.648636 15.9811 1.67335C17.5214 13.4575 18.0348 25.7541 14.4408 37.0259C12.9005 42.6618 9.30638 46.2483 5.19887 50.8595C1.6048 54.9584 0.577919 60.0819 0.0644801 65.7178C-0.448959 75.965 2.11824 87.2368 7.25262 96.4592C9.81982 101.07 12.387 105.169 15.9811 109.268C18.5483 112.342 20.0886 114.904 20.602 118.49C21.1155 122.077 20.602 126.176 20.602 129.762C21.1155 135.911 23.1692 142.059 24.7095 147.695C26.2499 153.843 28.3036 160.504 30.8708 166.652C34.9783 178.949 40.6262 190.733 46.7874 202.517C52.4353 213.276 59.11 223.523 66.8115 233.258C73.9997 242.481 80.6744 252.728 81.7013 264.512C81.1878 272.197 79.6475 279.883 78.1072 287.568C71.9459 298.327 65.2712 309.599 57.5696 319.334C53.4621 324.458 48.8412 328.556 43.7068 333.168C39.0858 337.266 34.4649 341.365 29.8439 344.952C29.3305 345.464 29.3305 345.977 29.8439 346.489C30.8708 347.001 31.8977 348.538 32.9246 350.588C33.438 351.1 33.9514 351.612 34.4649 351.1C41.1396 343.927 48.3277 336.242 55.0024 328.556C55.0024 328.556 55.0024 329.069 55.5159 329.069C56.0293 329.069 56.5428 329.069 57.0562 328.556C61.1637 329.581 65.2712 328.556 69.8922 329.069C75.0266 329.069 80.1609 331.631 85.2953 333.168C90.4297 337.266 97.1044 340.853 103.266 344.952ZM201.846 226.085C205.44 226.598 209.034 227.11 213.142 227.622C205.44 228.135 198.252 228.647 190.55 228.647C184.389 228.647 178.741 228.135 172.58 227.622C167.959 227.11 163.851 227.622 159.231 227.622C159.744 227.622 159.744 227.622 160.257 227.11C163.338 226.085 166.932 225.061 170.013 224.036C170.013 224.036 170.013 224.548 170.526 224.548C180.795 222.499 191.064 224.036 201.846 226.085ZM170.526 228.647C177.201 229.159 183.362 230.184 190.037 230.184C202.873 230.184 215.709 228.647 228.545 227.622C229.058 227.622 229.058 226.085 228.545 226.598C217.763 227.11 207.494 226.598 196.712 224.548C188.497 223.011 179.768 222.499 171.553 224.036C183.362 220.449 195.171 216.35 206.98 212.764C208.007 212.252 209.034 212.252 210.061 211.739C210.061 211.739 210.574 212.252 210.574 211.739C220.33 210.202 230.085 209.178 240.354 207.128C249.596 205.079 258.838 202.005 268.08 199.955C268.593 199.955 268.593 198.93 268.08 198.93C260.891 198.93 253.703 198.93 246.515 199.955C243.435 199.955 240.354 200.467 237.787 200.98C245.488 197.393 252.163 193.294 259.865 189.196C265.512 186.121 271.674 182.535 276.808 178.436C281.942 173.825 286.05 167.677 290.157 162.553C290.671 162.041 289.644 161.528 289.131 162.041C287.59 163.065 285.536 164.09 283.996 164.603H283.483C283.483 164.603 283.483 164.603 282.969 164.603H282.456C282.456 164.603 282.456 164.603 282.456 165.115C270.647 173.313 260.378 184.072 248.569 191.757C241.381 196.369 233.166 200.467 224.951 204.054C224.951 204.054 224.951 204.054 224.437 204.054C220.33 206.103 215.709 207.64 211.601 209.177C214.169 206.103 218.789 205.079 220.843 202.005C223.924 197.393 223.924 192.27 225.464 187.146C229.058 176.899 236.76 168.189 238.814 157.43C238.814 156.405 237.787 156.405 237.273 156.917C231.112 167.164 224.951 177.411 218.789 187.659C214.168 194.832 212.115 205.079 204.927 210.715L204.413 211.227H203.9C189.523 215.838 174.634 220.449 160.257 225.061C159.744 225.061 158.717 225.573 158.204 225.573C161.284 223.523 164.878 221.986 167.446 219.425C171.04 216.35 173.607 212.252 176.174 208.153C178.741 203.542 180.282 198.418 182.335 193.807C184.902 188.171 186.956 182.023 189.01 175.874C189.01 175.362 188.497 174.85 187.983 174.85C180.282 176.899 175.147 187.659 171.04 193.807C167.446 198.418 164.878 203.542 162.825 209.177C160.771 215.326 158.204 221.474 153.583 226.085C153.069 226.598 153.069 227.11 153.583 227.11C148.448 228.647 143.827 230.184 138.693 232.234C133.559 234.283 128.424 236.845 122.776 238.894C121.749 239.406 120.209 239.919 119.182 240.431C120.209 239.406 121.749 238.382 123.29 237.357C126.37 235.308 128.938 233.258 132.018 231.209C140.233 224.548 145.881 216.863 151.529 208.665C162.825 191.757 172.58 171.776 189.523 159.479C206.467 146.67 228.545 142.571 249.596 141.547C268.08 140.522 287.077 141.034 304.534 134.886C305.561 138.985 304.02 144.108 304.02 148.207C303.507 154.355 303.507 161.016 302.993 167.164C301.967 179.973 297.346 192.782 291.184 204.566C281.942 221.986 267.053 235.308 249.082 242.993C229.572 251.703 206.467 253.752 185.416 251.703C172.066 250.678 159.744 246.579 146.908 242.993C142.287 241.456 137.153 239.919 132.018 240.431C128.424 240.944 125.344 241.456 122.263 242.481C123.29 241.968 123.803 241.456 124.83 240.944C124.83 240.944 125.344 240.944 125.344 240.431C129.451 238.894 133.559 236.845 137.666 235.308C143.827 232.746 150.502 230.696 157.177 228.647C160.257 229.159 165.392 228.135 170.526 228.647ZM207.494 210.715C212.628 205.591 214.682 197.906 217.763 191.757C222.897 182.023 229.058 172.288 235.219 162.553C232.652 171.263 226.491 178.436 223.41 187.146C221.357 192.27 222.384 199.443 217.249 203.029C214.168 205.079 211.088 206.103 209.548 209.69C209.548 209.69 209.548 209.69 209.548 210.202C209.034 210.202 208.521 210.202 207.494 210.715ZM215.709 209.177C218.789 208.153 221.357 207.128 224.437 205.591C224.437 205.591 224.437 205.591 224.951 205.591C226.491 205.079 228.031 204.566 229.058 204.054C233.679 203.029 238.3 200.98 243.435 200.467C250.109 199.955 256.784 199.443 262.945 199.443C255.244 201.492 248.055 203.542 240.354 205.079C232.139 207.128 223.924 207.64 215.709 209.177ZM236.246 199.443C240.354 197.393 244.461 194.832 248.569 192.27C261.405 184.072 271.16 172.8 283.996 164.603C285.023 164.09 286.05 163.578 287.59 163.065C283.996 167.164 280.916 171.776 277.321 175.362C272.187 180.486 265.512 183.56 259.351 187.146C251.136 191.757 243.948 196.369 236.246 199.443ZM156.15 225.573C161.798 218.4 163.338 208.665 167.959 200.98C170.526 196.369 174.12 192.27 176.687 187.659C178.741 184.072 181.822 179.461 185.929 177.411C184.389 182.535 182.335 187.146 180.795 191.757C178.741 196.881 176.687 202.517 174.12 207.64C171.553 212.252 168.472 216.35 164.365 219.425C162.311 221.986 159.231 223.523 156.15 225.573ZM82.2147 255.29C80.1609 250.166 77.5938 245.042 74.5131 240.431C67.325 229.672 59.11 219.937 52.9487 208.665C38.5724 184.584 29.3305 157.942 23.1692 131.299C22.1424 126.176 24.1961 120.028 22.1424 114.904C20.0886 109.268 15.4676 105.682 12.387 100.558C5.19887 89.7986 2.11824 76.4773 2.63167 63.6684C3.14511 56.4954 6.73918 52.9089 10.8467 47.7854C14.4408 43.6865 16.4945 38.0506 18.0348 32.9271C20.602 23.7047 20.0886 12.9452 18.5483 3.21042C22.1424 5.77219 23.6827 9.87104 26.7633 12.4328C33.9514 20.6305 43.7068 27.8035 51.9218 34.9765C62.1906 44.1989 72.9728 52.9089 82.7281 62.6437C100.185 80.0638 114.561 99.021 122.263 122.589C130.991 147.695 129.965 175.362 117.129 199.443C111.481 210.202 103.266 219.937 96.591 230.696C90.9432 239.406 87.3491 248.629 84.2685 258.364C82.7281 246.579 81.7013 234.795 81.1878 222.499C83.755 216.863 87.8625 211.739 91.4566 206.103C92.4835 204.054 93.5104 202.005 95.0507 199.955C95.0507 199.955 95.5641 199.955 95.5641 199.443C95.0507 198.93 94.5372 198.93 94.0238 198.418C94.0238 198.418 94.0238 198.418 94.0238 198.93C89.9163 202.005 84.7819 204.054 81.1878 207.64C80.6744 193.294 80.1609 179.461 79.6475 165.115C85.2953 160.504 90.9432 154.868 95.5641 149.744C93.5104 154.355 91.4566 159.479 89.9163 164.603C87.8625 169.214 85.8088 174.337 84.2685 178.949C83.755 180.998 82.7281 185.097 81.1878 186.121C80.1609 186.634 81.7013 188.171 82.2147 187.146C83.2416 186.121 83.755 183.56 84.7819 182.023C86.8356 177.411 88.376 173.313 90.4297 168.701C93.5104 161.016 96.591 151.794 100.699 144.621C101.212 143.596 100.185 143.084 99.1582 143.596C92.9969 150.769 86.3222 156.917 79.6475 163.578C79.1341 155.38 78.6206 147.182 77.0803 138.985C79.1341 130.275 83.2416 121.565 83.755 112.855C84.7819 102.607 82.2147 92.8727 82.7281 82.6256C82.7281 81.6009 80.6744 81.0885 80.6744 82.6256C80.1609 90.3109 79.6475 97.9963 78.1072 105.682C77.0803 110.805 76.5669 116.441 74.5131 121.565C72.9728 115.929 72.4594 109.78 70.4056 104.657C69.8922 102.095 69.3787 100.046 68.3519 97.9963C72.4594 87.7491 72.4594 74.9402 66.8115 65.2055C66.2981 64.6931 65.2712 64.6931 65.2712 65.7178C64.7578 70.8414 65.7847 75.4526 66.8115 80.5762C67.325 83.6503 67.8384 86.7244 67.325 89.2862C67.325 89.2862 66.8115 91.3356 66.2981 92.3603C64.7578 87.2368 62.704 82.1132 60.6503 76.9897C53.4621 60.0819 42.6799 44.1989 30.8708 29.8529C30.8708 29.3406 30.3574 29.8529 30.8708 30.3653C42.6799 44.7112 52.4352 60.5943 60.1368 77.502C62.704 83.1379 64.2443 88.2615 66.2981 93.8974H65.7847C64.2443 92.8727 62.704 91.848 61.1637 91.3356C52.4352 86.2121 40.6262 82.6256 30.3574 84.675C29.8439 84.675 29.3305 85.6997 29.8439 86.2121C39.5993 92.8727 52.9487 92.3603 63.2175 98.5086C66.2981 100.046 67.8384 102.607 68.8653 105.682C70.919 112.855 71.9459 120.028 73.4862 127.713C63.7309 122.077 52.9487 120.028 42.1665 117.466C41.1396 116.441 40.1127 117.466 41.1396 117.978C52.9487 124.126 66.8115 129.25 75.0266 140.009L75.54 140.522C78.6206 163.578 78.6206 187.146 79.6475 210.715C77.5938 207.64 74.5131 205.079 71.4325 203.029C66.2981 199.443 62.1906 194.832 56.5428 192.27C56.0293 191.757 55.0024 192.782 55.5159 193.294C60.6503 198.418 65.7847 204.054 69.8922 210.202C71.9459 213.276 75.0266 216.35 76.5669 219.937C77.0803 221.474 77.5938 223.523 79.1341 224.036H79.6475C80.1609 235.82 81.1878 248.117 82.7281 259.901C82.7281 257.339 82.2147 255.29 82.2147 255.29ZM79.6475 212.252C80.1609 215.838 80.1609 218.912 80.1609 221.986C79.1341 220.449 78.6206 218.912 78.1072 217.375C76.0534 214.301 73.4862 211.739 71.4325 208.665C68.3519 204.054 64.2443 199.443 60.1368 195.344C63.2175 197.393 66.2981 199.955 68.8653 202.005C72.4594 205.591 77.0803 207.64 79.6475 212.252ZM81.1878 208.665C84.7819 206.103 88.8894 204.054 92.4835 201.492C92.4835 202.005 91.97 202.517 91.97 202.517C88.8894 207.64 84.7819 212.764 81.7013 218.4C81.1878 215.838 81.1878 212.252 81.1878 208.665ZM73.9997 129.25C74.5131 131.812 75.0266 134.374 75.0266 136.935C75.0266 137.448 75.0266 137.448 75.0266 137.96C68.3519 129.762 58.0831 125.151 48.3277 120.028C57.0562 122.077 65.7847 124.126 73.9997 129.25ZM74.5131 124.126C78.1072 118.49 78.6206 111.83 80.1609 105.682C80.6744 103.12 81.1878 100.558 81.7013 97.4839C82.2147 101.07 82.2147 104.657 82.2147 108.756C82.2147 117.466 78.6206 125.663 76.5669 133.861C75.54 130.787 75.0266 127.713 74.5131 124.126ZM66.2981 95.9468C66.2981 96.9715 66.8115 97.4839 66.8115 98.5086V99.021C66.2981 98.5086 66.2981 98.5086 65.7847 97.9963C61.6772 94.4098 55.5159 92.8727 50.3815 91.3356C44.7337 89.7986 37.5455 88.2615 32.4111 85.6997C43.7068 84.675 56.0293 89.7986 64.7578 95.9468C65.7847 96.4592 66.2981 95.9468 66.2981 95.9468ZM67.8384 95.9468C67.8384 95.4345 67.325 94.9221 67.325 94.4098C71.9459 85.6997 66.8115 76.9897 66.8115 68.2796C70.9191 76.4773 69.8922 86.7244 67.8384 95.9468ZM33.9514 348.538C32.9246 347.001 31.8977 344.952 31.8977 344.952C33.9514 343.415 36.0052 341.365 38.059 339.316C42.6799 335.217 47.3009 331.631 51.9218 327.532C60.6503 318.822 67.325 308.062 73.4862 297.815C76.0534 293.716 78.6206 289.105 81.1878 285.006C81.7013 285.519 82.2147 285.006 82.2147 284.494C82.2147 283.981 82.2147 283.981 82.2147 283.469C90.4297 269.123 98.6447 254.777 113.021 245.042V245.555C99.1582 255.29 89.4028 271.685 82.2147 286.031C76.5669 296.79 70.9191 307.55 62.704 317.285C53.4621 327.532 43.7068 337.779 33.9514 348.538ZM81.1878 329.581C78.6206 328.556 75.54 328.044 72.9728 327.532C68.8653 326.507 63.7309 327.532 59.6234 327.532H59.11C65.2712 327.532 70.9191 325.995 77.0803 325.482C86.8357 324.458 96.591 323.945 106.86 324.458C114.561 324.97 121.749 325.995 128.938 327.532C130.478 328.556 132.018 330.093 133.045 331.631C137.666 336.242 141.26 342.39 144.854 348.026C147.935 353.149 151.529 358.273 154.61 363.397C155.123 364.421 156.15 365.446 156.663 366.471C158.204 370.57 160.257 374.668 162.825 378.767C163.338 379.28 163.851 379.28 163.851 378.255C163.338 373.644 160.771 370.057 158.204 365.958L157.69 365.446C156.15 361.86 154.61 358.273 153.069 354.687C148.962 345.976 142.8 338.291 138.18 330.093C146.908 332.655 155.636 335.729 164.365 339.828C171.04 342.902 177.201 345.977 183.876 349.051C183.876 349.051 183.876 349.051 183.876 349.563C187.983 355.199 190.037 361.347 193.117 367.495C195.685 372.619 198.765 376.718 202.873 380.304C208.007 384.916 217.763 393.626 225.464 391.576C225.978 391.576 225.978 391.064 225.978 390.551C219.816 384.403 210.574 381.329 204.413 374.668C200.306 370.57 198.765 365.958 197.738 360.322C197.225 358.785 196.712 357.761 196.198 356.224C195.685 355.199 195.171 354.174 194.144 353.149C202.359 357.248 211.088 360.835 219.816 364.934C220.843 365.446 221.87 365.958 222.897 366.471C222.897 366.983 223.41 366.983 223.41 367.495V368.008L223.924 368.52C227.518 372.619 228.545 377.743 232.139 381.841C236.246 387.477 241.381 391.064 247.542 394.138C248.055 394.65 249.082 393.626 248.569 393.113C241.381 386.965 233.679 380.817 233.166 371.082C246.515 378.767 258.838 387.99 270.647 398.237C271.16 398.749 271.674 397.724 271.16 397.724C259.351 387.477 247.029 377.743 233.166 370.057C240.867 370.057 248.055 370.057 255.244 371.082C255.757 371.082 255.757 370.057 255.244 370.057C246.002 367.495 235.219 362.884 225.978 365.958C224.951 365.446 223.41 364.934 222.384 363.909C213.655 359.81 204.413 356.224 195.171 351.612C194.658 351.1 193.631 351.1 193.117 350.588C197.738 350.588 202.359 348.538 206.467 347.514C210.061 346.489 213.142 345.464 216.736 344.439C218.276 343.927 219.816 343.415 221.357 343.415C222.384 343.415 223.41 342.902 224.437 342.902C225.978 343.415 227.004 343.415 227.004 342.902C227.518 342.902 228.031 342.902 228.545 342.902C229.058 342.902 229.058 341.878 228.545 341.878C228.031 341.878 227.518 341.878 227.004 341.878C213.655 340.341 199.792 345.977 186.443 347.514C180.282 344.439 174.12 341.365 167.446 338.291C158.717 334.192 149.475 330.606 140.233 328.044C147.935 323.433 157.177 321.896 165.905 319.846C173.093 317.797 181.308 318.822 187.983 314.723C188.497 314.723 188.497 313.698 187.983 313.698C179.255 311.136 169.499 313.186 160.257 314.723C155.123 315.748 150.502 316.772 145.368 318.309C139.72 320.359 134.072 322.408 127.911 323.945C127.911 323.945 127.397 323.945 127.397 324.458C127.397 324.458 127.397 323.945 126.884 323.945C126.37 323.945 126.37 323.945 125.857 323.945V324.458C121.236 323.433 116.102 322.921 111.481 322.408C102.752 321.383 93.5104 321.383 84.7819 322.408C77.0803 322.921 68.8653 324.97 61.1637 324.97C62.1906 324.458 63.2175 323.945 63.2175 323.433C65.2712 321.896 67.8384 320.359 69.8922 319.334C73.4862 317.285 77.5938 314.723 80.6744 312.161C86.8357 304.988 96.0775 300.889 104.806 297.303C115.075 293.204 126.37 291.667 137.666 290.642C160.771 289.105 184.389 296.79 204.413 308.062C223.924 319.334 239.84 335.217 253.703 352.637C267.053 369.545 278.348 387.99 285.536 407.972C267.053 410.533 249.082 407.972 230.599 404.897C220.843 403.36 210.574 401.823 200.819 400.286C190.55 398.237 180.795 394.65 171.553 390.039C155.636 382.354 141.774 371.594 127.911 360.322C121.236 355.199 114.561 349.563 107.887 344.439C102.239 339.828 95.5641 336.754 89.9163 332.143C86.3222 332.143 83.755 331.118 81.1878 329.581ZM130.991 328.044C133.045 328.556 135.099 329.069 136.639 329.581C140.747 337.779 146.395 345.464 151.016 353.662C152.042 355.711 153.069 357.761 154.096 359.81C151.529 355.711 148.962 351.612 146.395 347.001C142.8 341.878 139.72 336.242 135.099 331.631C133.559 330.606 132.532 329.069 130.991 328.044ZM190.037 350.075C189.523 350.075 189.523 350.075 189.523 350.075C188.497 349.563 186.956 349.051 185.929 348.026C196.712 347.514 206.98 343.927 217.763 342.902C214.682 343.415 212.115 344.952 209.034 345.464C203.386 347.001 197.225 349.051 191.064 349.563C191.064 350.075 190.55 350.075 190.037 350.075ZM183.876 349.051C185.929 350.075 188.497 351.612 190.55 352.637C191.064 353.15 191.064 353.662 191.577 353.662C193.117 355.711 194.144 358.273 195.171 360.835C196.712 365.446 197.738 369.033 200.306 373.131C202.873 377.23 207.494 379.792 211.601 382.354C213.655 383.891 216.222 384.916 218.276 386.453C219.816 387.477 221.357 389.014 222.897 390.039C224.437 391.064 221.87 390.551 221.357 390.551C213.655 390.039 204.927 381.841 199.792 376.718C192.091 369.033 190.037 357.761 183.876 349.051ZM225.464 366.983C233.166 365.446 240.354 367.495 247.542 369.545C246.515 369.545 245.488 369.545 244.461 369.545C239.327 369.033 234.706 369.545 229.572 369.545C228.031 368.52 227.004 368.008 225.464 366.983ZM230.085 371.082C230.085 379.28 235.219 384.916 240.867 390.039C237.273 387.477 233.679 384.403 231.112 380.304C228.545 376.205 227.004 371.594 223.41 367.495C223.41 366.983 223.41 366.983 222.897 366.471C225.464 368.52 228.031 370.057 230.085 371.082ZM138.18 328.044C134.585 327.019 131.505 326.507 127.911 325.482C137.153 323.433 145.881 319.334 155.123 317.285C159.744 316.26 164.365 315.235 168.986 314.21C172.067 313.698 175.147 313.698 178.228 313.698C179.255 313.698 184.902 314.723 185.416 314.723C181.822 316.772 176.687 317.285 172.58 317.797C168.472 318.309 164.878 319.334 160.771 319.846C153.069 322.408 144.854 323.433 138.18 328.044Z" fill="#E9E9E9"/>
</svg>
