<svg width="65" height="145" viewBox="0 0 65 145" fill="none" xmlns="http://www.w3.org/2000/svg">
<g clip-path="url(#clip0_145_34253)">
<path d="M60.5469 59.4025C56.0629 52.0057 51.5609 44.6041 47.0769 37.2073C46.4863 36.2372 48.007 35.3592 48.5976 36.3293C53.093 43.7195 57.5836 51.1277 62.0676 58.5245C62.6696 59.4881 61.1375 60.3726 60.5469 59.4025Z" fill="#E9E9E9"/>
<path d="M51.4735 64.5015C46.9583 57.077 42.4479 49.6345 37.9327 42.21C37.3421 41.2399 38.8628 40.3619 39.4534 41.332C43.9686 48.7565 48.479 56.199 52.9942 63.6235C53.5962 64.5871 52.0641 65.4716 51.4735 64.5015Z" fill="#E9E9E9"/>
<path d="M30.6081 24.0463C30.495 24.0354 30.4405 23.9144 30.5187 23.8388C31.2455 23.038 32.2786 22.6093 33.1669 22.0354C34.0209 21.4814 34.7873 20.7492 35.7685 20.4419C35.8209 20.4269 35.8834 20.4823 35.8689 20.5364C35.284 22.3224 32.4806 24.2001 30.6081 24.0463Z" fill="#E9E9E9"/>
<path d="M32.0609 86.3812C27.2961 85.0464 23.0914 78.9519 24.5628 74.0014C24.525 73.9623 24.4986 73.9165 24.4722 73.8708C16.574 60.6396 21.783 43.6523 33.0088 34.0763C31.2106 31.1202 29.419 28.1756 27.5866 25.2393C25.9834 22.6738 28.8081 20.0672 30.7743 18.8253C32.7796 17.5456 36.1736 16.638 37.8849 18.8362C40.0261 21.5943 41.83 24.7452 43.5913 27.875C43.6256 27.8552 43.6599 27.8354 43.6894 27.8337C57.5697 22.6707 75.0259 26.5265 82.6954 39.8897C82.7429 39.8928 82.7724 39.891 82.8199 39.8941C88.7863 40.7485 91.5644 47.9106 90.0931 53.2574C94.2783 63.0677 99.2222 72.6078 103.816 82.228C106.529 87.9033 109.235 93.5673 111.924 99.2559C113.123 101.781 114.213 104.17 114.047 107.025C113.882 109.803 112.005 112.229 110.239 114.239C105.729 119.42 99.5578 123.333 93.6627 126.721C87.8362 130.07 81.4876 133.095 74.8846 134.544C68.5908 135.922 64.799 133.553 61.2768 128.482C57.7018 123.32 54.1431 118.133 50.5844 112.946C44.5236 104.112 38.7072 95.0145 32.2659 86.4457L32.2593 86.4343C32.1938 86.4264 32.1217 86.4071 32.0609 86.3812ZM32.7796 36.6631C33.4712 37.1481 34.27 37.4491 35.1238 37.5812C34.7295 36.9247 34.3237 36.2747 33.9294 35.6181C33.5411 35.949 33.148 36.2979 32.7796 36.6631ZM36.3774 19.7371C35.3578 18.4201 32.6831 19.7814 31.6523 20.346C30.4728 20.9965 29.3344 22.0349 28.9227 23.355C28.6256 24.3193 30.1432 26.05 30.6018 26.7915C32.8105 30.3795 34.9964 33.9807 37.1889 37.5933C40.0909 37.2594 43.1389 35.5149 44.6139 33.1845C42.5336 29.7663 40.4534 26.348 38.3617 22.9363C37.7363 21.8796 37.1399 20.7146 36.3774 19.7371ZM44.4759 29.4072C44.8125 29.9903 45.1426 30.562 45.4727 31.1337C45.5925 30.4699 45.5928 29.7838 45.4144 29.0788C45.0955 29.1866 44.7767 29.2945 44.4759 29.4072ZM47.094 28.5816C49.2116 35.9726 37.256 42.3569 31.5242 37.9215C22.8468 47.1848 19.1957 61.3518 25.8741 72.787C28.7593 73.4538 32.1169 72.8263 34.9409 72.2783C43.6195 70.6216 51.7826 66.488 59.3286 62.0246C65.7262 58.2394 71.5747 53.5822 76.5547 48.0544C78.3293 46.0846 80.3527 43.7272 81.437 41.1956C81.3926 41.145 81.3595 41.0878 81.3265 41.0307C74.6326 29.0404 59.7786 25.1762 47.094 28.5816ZM83.1148 41.7514C82.0142 44.3078 80.1117 46.6105 78.3442 48.6982C73.2681 54.6932 66.9028 59.5115 60.2197 63.5682C52.3493 68.3409 43.7028 72.403 34.6103 74.1614C31.9613 74.6693 28.9401 75.0873 26.205 74.654C25.2096 78.7656 28.7938 83.7853 32.7334 84.7733C38.0418 85.7027 43.8458 83.5562 48.7275 81.7134C52.2327 80.391 55.6401 78.8201 58.9731 77.0939C58.2122 75.7496 57.4465 74.4232 56.6596 73.1396C56.069 72.1694 57.5897 71.2915 58.1803 72.2616C58.987 73.5795 59.7936 74.8975 60.6003 76.2155C63.0753 74.878 65.509 73.4424 67.8802 71.9514C67.0885 70.6858 66.2968 69.4202 65.5165 68.148C64.926 67.1778 66.4467 66.2999 67.0373 67.27C67.7977 68.5079 68.6105 69.7309 69.4299 70.9653C74.897 67.443 80.1884 63.458 84.5787 58.6517C86.2557 56.8297 87.8007 54.7791 88.6502 52.4745C90.0463 48.6346 87.0421 42.9294 83.1148 41.7514ZM55.5525 107.318C56.013 108.882 57.0405 110.133 58.5081 110.932C60.5863 112.05 62.8708 112.072 64.746 110.99C65.6836 110.449 66.4711 109.674 67.1152 108.677C67.1917 108.572 67.2567 108.473 67.3038 108.37C67.3622 108.26 67.4093 108.156 67.4431 108.03C68.7524 104.911 67.7665 101.593 65.0178 99.9478C62.9127 98.6782 60.2873 98.5933 58.3435 99.7155C57.4631 100.224 56.7556 100.952 56.2488 101.87C55.2983 103.577 55.0452 105.568 55.5525 107.318ZM53.1687 101.209C52.888 101.066 52.4887 101.114 52.3542 101.435C52.2179 101.728 52.2638 102.097 52.5757 102.268C52.863 102.422 53.1722 102.351 53.3595 102.12C53.3757 102.096 53.41 102.076 53.4197 102.04C53.4522 101.991 53.4667 101.937 53.4698 101.889C53.5128 101.62 53.4314 101.347 53.1687 101.209ZM70.8216 123.124C71.7592 122.582 72.5467 121.808 73.1907 120.811C73.2672 120.706 73.3323 120.607 73.3793 120.504C73.4378 120.394 73.4848 120.29 73.5186 120.164C74.828 117.045 73.8421 113.727 71.0868 112.07C68.9817 110.801 66.3562 110.716 64.4124 111.838C63.532 112.346 62.8246 113.075 62.3177 113.993C61.3625 115.718 61.1093 117.709 61.6166 119.459C62.0772 121.022 63.1046 122.274 64.5722 123.073C66.6618 124.184 68.9464 124.206 70.8216 123.124ZM68.0816 126.749C68.3689 126.903 68.6781 126.831 68.8654 126.601C68.8816 126.576 68.9159 126.556 68.9256 126.52C68.9581 126.471 68.9726 126.417 68.9757 126.37C69.0253 126.112 68.9553 125.832 68.6926 125.694C68.412 125.552 68.0126 125.599 67.8781 125.921C67.7238 126.208 67.7697 126.578 68.0816 126.749ZM71.5472 126.836C71.9576 127.072 72.4124 126.962 72.6991 126.613C72.7268 126.582 72.7659 126.544 72.787 126.502C72.8358 126.428 72.8551 126.356 72.8564 126.279C72.9399 125.895 72.8267 125.488 72.4427 125.298C72.034 125.092 71.4644 125.161 71.2437 125.624C71.0279 126.069 71.1007 126.591 71.5472 126.836ZM69.5233 108.491C69.2426 108.348 68.8433 108.396 68.7088 108.717C68.5725 109.009 68.6184 109.379 68.9303 109.55C69.2175 109.704 69.5267 109.632 69.714 109.402C69.7303 109.378 69.7646 109.358 69.7743 109.322C69.8068 109.272 69.8213 109.218 69.8244 109.171C69.8674 108.902 69.7907 108.611 69.5233 108.491ZM58.7609 114.75C59.1713 114.986 59.6261 114.876 59.9128 114.527C59.9405 114.496 59.9796 114.458 60.0007 114.416C60.0495 114.342 60.0688 114.27 60.0701 114.193C60.1536 113.809 60.0404 113.402 59.6564 113.212C59.2477 113.006 58.6781 113.075 58.4574 113.538C58.2465 113.965 58.3078 114.494 58.7609 114.75ZM56.7393 89.9395C57.1498 90.1752 57.6045 90.065 57.8912 89.7166C57.9189 89.6854 57.958 89.6475 57.9791 89.6048C58.0279 89.5309 58.0473 89.4588 58.0486 89.3818C58.132 88.9982 58.0188 88.591 57.6348 88.4011C57.2261 88.1949 56.6565 88.2646 56.4359 88.7274C56.22 89.1722 56.2928 89.6942 56.7393 89.9395ZM61.4465 95.2408C61.857 95.4765 62.3117 95.3663 62.5984 95.0179C62.6261 94.9867 62.6652 94.9488 62.6863 94.9061C62.7351 94.8322 62.7545 94.7601 62.7558 94.6831C62.8392 94.2995 62.726 93.8923 62.342 93.7024C61.9333 93.4962 61.3637 93.5659 61.1431 94.0287C60.9321 94.4554 60.9934 94.9841 61.4465 95.2408ZM75.464 119.757C74.754 121.036 74.5706 122.514 74.9515 123.834C75.3073 125.031 76.0795 125.973 77.186 126.569C78.7389 127.41 80.46 127.407 81.8778 126.589C82.5296 126.213 83.084 125.694 83.5298 125.04C83.6406 124.916 83.7334 124.786 83.8015 124.64C83.8763 124.505 83.9378 124.348 83.9764 124.203C84.8506 121.915 84.0717 119.483 82.0652 118.279C80.5003 117.338 78.5267 117.273 77.0517 118.124C76.3886 118.507 75.8473 119.048 75.464 119.757ZM74.7594 113.045C76.8376 114.162 79.1221 114.185 80.9973 113.102C81.9349 112.561 82.7224 111.786 83.3665 110.789C83.443 110.684 83.508 110.585 83.5551 110.482C83.6135 110.372 83.6606 110.269 83.6944 110.142C85.0037 107.023 84.0178 103.705 81.2625 102.049C79.1574 100.779 76.532 100.694 74.5882 101.816C73.7078 102.325 73.0003 103.053 72.4934 103.971C71.5382 105.696 71.2851 107.687 71.7923 109.437C72.2595 111.012 73.2804 112.252 74.7594 113.045ZM82.5693 115.64C82.5855 115.615 82.6198 115.595 82.6295 115.559C82.662 115.51 82.6765 115.456 82.6796 115.409C82.7292 115.151 82.6592 114.871 82.3966 114.733C82.1159 114.591 81.7165 114.638 81.582 114.96C81.4458 115.252 81.4916 115.622 81.8035 115.792C82.0613 115.948 82.382 115.87 82.5693 115.64ZM87.159 123.616C87.4463 123.77 87.7555 123.698 87.9428 123.468C87.959 123.444 87.9933 123.424 88.003 123.388C88.0355 123.339 88.05 123.284 88.0531 123.237C88.1027 122.98 88.0261 122.688 87.77 122.562C87.4894 122.419 87.09 122.467 86.9555 122.788C86.8078 123.087 86.8471 123.445 87.159 123.616ZM96.8661 104.702C96.9769 104.578 97.0697 104.448 97.1378 104.302C97.2125 104.167 97.2741 104.01 97.3127 103.865C98.1868 101.577 97.408 99.1453 95.4014 97.9407C93.8366 96.9995 91.863 96.9346 90.388 97.7862C89.7134 98.1757 89.1673 98.7349 88.7774 99.4326C88.0674 100.711 87.884 102.189 88.2649 103.509C88.6207 104.706 89.3929 105.648 90.4994 106.244C92.0523 107.085 93.7734 107.083 95.1912 106.264C95.8544 105.881 96.4203 105.356 96.8661 104.702ZM100.329 114.503C100.74 114.739 101.194 114.628 101.481 114.28C101.509 114.249 101.548 114.211 101.569 114.168C101.618 114.094 101.637 114.022 101.638 113.945C101.722 113.562 101.609 113.154 101.225 112.965C100.816 112.758 100.246 112.828 100.026 113.291C99.8213 113.729 99.894 114.251 100.329 114.503ZM87.557 85.0139C86.6018 86.7393 86.3486 88.7301 86.8559 90.4801C87.3165 92.0436 88.3439 93.2951 89.8115 94.0943C91.8897 95.2117 94.1743 95.2343 96.0494 94.1517C96.987 93.6104 97.7745 92.8355 98.4072 91.8452C98.4837 91.7401 98.5487 91.6415 98.5958 91.5382C98.6542 91.4282 98.7013 91.3248 98.7351 91.1986C100.044 88.0796 99.0585 84.7613 96.3032 83.1048C94.1981 81.8352 91.5727 81.7503 89.6289 82.8725C88.7713 83.3676 88.0639 84.0962 87.557 85.0139ZM85.2346 80.9122C84.9539 80.7693 84.5546 80.817 84.4201 81.1385C84.2838 81.4306 84.3297 81.8005 84.6416 81.9711C84.9289 82.1254 85.2381 82.0536 85.4254 81.8235C85.4416 81.7989 85.4759 81.7791 85.4856 81.743C85.5181 81.6937 85.5326 81.6396 85.5357 81.5921C85.5787 81.3233 85.5021 81.0322 85.2346 80.9122ZM80.3395 90.4158C79.6649 90.8053 79.1188 91.3645 78.7289 92.0622C78.0189 93.3411 77.8421 94.8305 78.2164 96.1389C78.5722 97.3361 79.3445 98.2775 80.4509 98.8736C82.0038 99.715 83.7249 99.7122 85.1427 98.8936C85.7945 98.5174 86.3489 97.999 86.7947 97.3453C86.9055 97.2203 86.9983 97.0906 87.0664 96.9445C87.1412 96.8099 87.2027 96.6524 87.2414 96.5081C88.1155 94.2197 87.3366 91.7881 85.3301 90.5835C83.7881 89.6291 81.8145 89.5642 80.3395 90.4158ZM84.9709 102.24C85.3814 102.476 85.8362 102.366 86.1228 102.017C86.1505 101.986 86.1897 101.948 86.2108 101.905C86.2596 101.831 86.2789 101.759 86.2802 101.682C86.3636 101.299 86.2505 100.892 85.8664 100.702C85.4577 100.495 84.8882 100.565 84.6675 101.028C84.4451 101.461 84.5178 101.983 84.9709 102.24ZM83.6124 87.6877C84.0229 87.9233 84.4776 87.8132 84.7643 87.4648C84.792 87.4335 84.8312 87.3957 84.8523 87.353C84.9011 87.2791 84.9204 87.207 84.9217 87.13C85.0051 86.7464 84.892 86.3391 84.5079 86.1493C84.0992 85.9431 83.5296 86.0128 83.309 86.4756C83.0932 86.9203 83.1659 87.4424 83.6124 87.6877ZM79.5469 79.3785C79.8342 79.5328 80.1433 79.461 80.3307 79.2309C80.3469 79.2063 80.3812 79.1865 80.3909 79.1504C80.4234 79.1011 80.4379 79.047 80.441 78.9995C80.4906 78.7422 80.4206 78.4625 80.1579 78.3244C79.8773 78.1816 79.4779 78.2292 79.3434 78.5508C79.1891 78.838 79.235 79.2079 79.5469 79.3785ZM98.8748 99.0454C99.2853 99.281 99.7401 99.1709 100.027 98.8225C100.054 98.7912 100.094 98.7534 100.115 98.7107C100.163 98.6368 100.183 98.5647 100.184 98.4877C100.268 98.1041 100.154 97.6968 99.7703 97.507C99.3616 97.3008 98.792 97.3705 98.5714 97.8333C98.349 98.2666 98.4283 98.8001 98.8748 99.0454ZM100.309 94.8483C100.596 95.0026 100.905 94.9308 101.092 94.7007C101.109 94.6761 101.143 94.6563 101.153 94.6202C101.185 94.571 101.2 94.5168 101.203 94.4693C101.252 94.212 101.176 93.9209 100.92 93.7943C100.639 93.6514 100.24 93.699 100.105 94.0206C99.9575 94.3193 100.008 94.6712 100.309 94.8483ZM103.627 97.2163C103.347 97.0734 102.947 97.1211 102.813 97.4426C102.676 97.7347 102.722 98.1046 103.034 98.2752C103.321 98.4295 103.631 98.3577 103.818 98.1276C103.834 98.103 103.869 98.0832 103.878 98.0471C103.911 97.9978 103.925 97.9437 103.928 97.8962C103.978 97.6389 103.901 97.3477 103.627 97.2163ZM105.582 101.606C104.018 100.665 102.044 100.6 100.569 101.452C99.8944 101.841 99.3483 102.4 98.9584 103.098C98.2484 104.377 98.0717 105.866 98.4459 107.175C98.8017 108.372 99.574 109.313 100.68 109.909C102.233 110.751 103.954 110.748 105.372 109.93C106.024 109.553 106.578 109.035 107.024 108.381C107.135 108.256 107.228 108.126 107.296 107.98C107.371 107.846 107.432 107.688 107.471 107.544C108.368 105.242 107.589 102.811 105.582 101.606ZM94.2401 108.551C92.135 107.281 89.5096 107.197 87.5658 108.319C86.6854 108.827 85.9779 109.556 85.4711 110.473C84.5158 112.199 84.2627 114.19 84.7699 115.94C85.2305 117.503 86.258 118.755 87.7255 119.554C89.8037 120.671 92.0883 120.694 93.9635 119.611C94.9011 119.07 95.6886 118.295 96.3212 117.305C96.3977 117.2 96.4628 117.101 96.5098 116.998C96.5683 116.888 96.6153 116.784 96.6491 116.658C97.9813 113.526 96.9774 110.203 94.2401 108.551ZM69.4381 103.326C69.8485 103.562 70.3033 103.452 70.5899 103.103C70.6176 103.072 70.6568 103.034 70.6779 102.992C70.7267 102.918 70.746 102.845 70.7473 102.768C70.8308 102.385 70.7176 101.978 70.3335 101.788C69.9248 101.582 69.3553 101.651 69.1346 102.114C68.9188 102.559 68.9915 103.081 69.4381 103.326ZM68.6941 99.8987C70.247 100.74 71.9681 100.737 73.3859 99.9187C74.0377 99.5425 74.5921 99.0241 75.0379 98.3704C75.1487 98.2454 75.2415 98.1156 75.3096 97.9696C75.3844 97.835 75.4459 97.6775 75.4779 97.5218C76.3521 95.2334 75.5732 92.8017 73.5667 91.5972C72.0018 90.656 70.0282 90.5911 68.5532 91.4427C67.8786 91.8321 67.3325 92.3914 66.9426 93.0891C66.2327 94.368 66.0559 95.8573 66.4302 97.1658C66.8088 98.3497 67.5876 99.3026 68.6941 99.8987ZM64.7093 82.8836C65.3839 83.9729 66.0471 85.0687 66.7152 86.1466C67.5729 87.5266 69.982 86.471 71.023 85.9768C72.2421 85.3949 73.3172 84.4845 74.0228 83.3301C74.8049 82.0706 73.4787 80.6714 72.8323 79.6573C71.5015 77.59 70.1641 75.5113 68.8562 73.4308C66.4802 74.9398 64.0334 76.3525 61.5469 77.6966C62.6026 79.4196 63.6536 81.1606 64.7093 82.8836ZM52.1117 112.079C55.6704 117.266 59.2226 122.442 62.8041 127.615C65.2583 131.153 67.6549 133.535 72.26 133.194C75.4638 132.96 78.6567 131.757 81.6288 130.62C88.8907 127.83 95.7999 123.795 102.042 119.185C104.727 117.208 107.244 114.993 109.442 112.489C112.739 108.695 112.728 105.058 110.642 100.652C105.062 88.7958 99.3613 76.9943 93.7178 65.1598C92.1821 61.9455 90.5941 58.7461 89.1565 55.4904C85.7852 61.5072 79.5057 66.078 74.0255 69.9737C72.8567 70.801 71.6632 71.612 70.4565 72.4001C70.8653 73.0026 71.2675 73.5936 71.6763 74.1961C75.1854 72.6427 79.0732 71.1909 82.6519 70.2071C90.9265 67.93 94.6859 70.7447 95.8034 73.1028C96.8712 75.322 97.9209 77.5362 98.9887 79.7554C102.106 86.2641 105.32 92.9919 108.462 99.6234L108.557 99.8129C110.264 103.431 111.741 106.542 109.551 109.773C108.127 111.876 106.184 113.897 103.431 116.127C100.082 118.854 96.3999 121.375 92.5238 123.613C89.5967 125.303 86.5363 126.842 83.4226 128.182C79.7957 129.742 76.7418 130.896 73.5918 131.434C69.5696 132.125 67.074 131.05 64.6906 127.609C61.4404 122.93 58.2131 118.238 54.9906 113.527L54.018 112.107C52.1192 109.346 50.2217 106.508 48.377 103.762C47.617 102.631 46.8438 101.476 46.0772 100.333C44.1616 97.4909 43.1431 93.8255 47.6546 89.7573C51.0211 86.7159 55.8922 83.2176 60.77 80.127C60.4664 79.601 60.1693 79.0865 59.8656 78.5605C57.0651 79.9945 54.2281 81.3123 51.3299 82.4977C46.238 84.5838 40.3135 86.8914 34.6333 86.6645C40.7375 94.94 46.3162 103.626 52.1117 112.079Z" fill="#E9E9E9"/>
<path d="M74.182 58.9984C69.3213 63.3597 63.7874 66.9511 58.0581 70.0455C52.8156 72.8741 47.2716 75.3126 41.5392 76.9758C38.4055 77.8855 33.5272 79.3909 30.4517 77.523L30.4451 77.5115C30.4385 77.5001 30.4204 77.4953 30.4253 77.4772C30.4187 77.4658 30.4187 77.4658 30.4301 77.4592C30.4301 77.4592 30.4235 77.4478 30.4349 77.4412C30.4349 77.4412 30.4464 77.4346 30.4398 77.4231C30.4446 77.4051 30.4446 77.4051 30.456 77.3985L30.4675 77.3919C30.4789 77.3853 30.4903 77.3787 30.5018 77.3721L30.5132 77.3655C40.3743 76.4897 49.5149 72.6759 58.1141 67.9245C63.3122 65.0454 68.3316 61.7511 72.8867 57.9168C76.7827 54.6307 79.8548 50.921 82.7824 46.7762C82.8149 46.7269 82.8558 46.7186 82.8985 46.7397C82.9346 46.7493 82.9724 46.7885 82.9465 46.8492C82.0296 51.6777 77.6905 55.8598 74.182 58.9984Z" fill="#E9E9E9"/>
<path d="M63.231 114.488C64.7256 111.795 68.1207 111.497 70.5689 112.965C73.0237 114.444 73.6277 117.312 72.553 119.808C72.5337 119.88 72.5078 119.941 72.459 120.015C72.4282 120.093 72.3842 120.149 72.3403 120.205C70.7159 122.805 67.8439 123.639 65.0812 122.155C62.1839 120.596 61.7526 117.155 63.231 114.488ZM70.9337 119.142C72.7653 115.264 67.2863 111.689 64.7562 115.36C61.9495 119.45 68.366 123.567 70.9337 119.142Z" fill="#E9E9E9"/>
<path d="M57.1528 102.354C58.6474 99.6618 62.0425 99.3634 64.4908 100.831C66.9456 102.311 67.5495 105.179 66.4749 107.674C66.4556 107.746 66.4296 107.807 66.3808 107.881C66.3501 107.96 66.3061 108.016 66.2621 108.071C64.6377 110.671 61.7658 111.506 59.0031 110.021C56.1057 108.462 55.6745 105.022 57.1528 102.354ZM64.8556 107.008C66.6872 103.131 61.2082 99.5554 58.6781 103.227C55.8714 107.317 62.2879 111.433 64.8556 107.008Z" fill="#E9E9E9"/>
<path d="M67.8735 93.5894C68.9312 91.6981 71.3292 91.4418 73.0599 92.4855C74.7839 93.5177 75.2236 95.5202 74.501 97.2789C74.4817 97.3511 74.4557 97.4118 74.4069 97.4857C74.3599 97.5891 74.2997 97.6696 74.2377 97.7206C73.0762 99.4584 71.0856 99.9978 69.1913 98.9877C67.1624 97.9028 66.8321 95.456 67.8735 93.5894ZM72.8817 96.6131C73.9054 94.4518 70.8192 92.407 69.4102 94.4554C67.7993 96.788 71.4126 99.1383 72.8817 96.6131Z" fill="#E9E9E9"/>
<path d="M62.877 105.956C63.0726 105.767 63.2305 105.539 63.3637 105.294C63.5342 104.982 63.4132 104.641 63.5001 104.316C63.5098 104.28 63.567 104.247 63.5982 104.275C64.1451 104.615 64.1247 105.556 63.9076 106.078C63.6452 106.733 62.837 107.657 62.0704 107.596C61.8738 107.572 61.7585 107.425 61.7936 107.222C61.9139 106.665 62.4922 106.346 62.877 105.956Z" fill="#E9E9E9"/>
</g>
<defs>
<clipPath id="clip0_145_34253">
<rect width="73.1565" height="124.911" fill="white" transform="matrix(-0.866025 0.5 0.5 0.866025 63.3594 0)"/>
</clipPath>
</defs>
</svg>
