<svg width="52" height="124" viewBox="0 0 52 124" fill="none" xmlns="http://www.w3.org/2000/svg">
<g clip-path="url(#clip0_145_34185)">
<path d="M26.6832 77.3927C27.7106 75.8344 28.7447 74.2664 29.6464 72.6217C30.812 70.4891 30.2026 67.9348 29.84 65.6639C29.7962 65.2922 29.7429 64.9138 29.6991 64.5421C31.8128 64.0145 33.0544 61.5639 34.1561 59.8145C35.0911 58.3494 35.951 56.6618 35.2098 55.1703C36.9878 54.4265 38.2306 53.073 38.5717 51.0006C38.7916 49.6851 38.8406 48.4943 38.5165 47.2038C37.992 45.1065 36.4579 44.2096 37.2407 41.7429C38.0163 39.3282 37.6515 37.6823 35.9459 35.7706C35.1124 34.828 34.0028 34.0802 33.037 33.2888C30.6223 31.3315 30.0276 29.129 29.9808 26.1495C29.9734 25.9736 29.9298 25.8298 29.8403 25.7113C29.6823 25.3608 29.3207 25.1409 28.914 25.36C28.8095 25.3878 28.7176 25.4387 28.6288 25.5058C25.1582 27.4081 21.9219 24.1177 18.3782 23.7628C14.9971 23.42 12.099 25.5873 8.80092 25.6005C6.66526 25.6003 4.61854 24.5792 2.47704 25.0022C-0.0464545 25.5046 -0.985437 28.6756 -1.56223 30.8424C-2.33287 31.0108 -3.05258 31.499 -3.67238 32.2979C-5.34633 34.4658 -7.87624 36.6155 -7.56712 39.4619C-10.5536 40.0165 -13.3708 40.8013 -15.4322 42.9737C-21.2577 39.2862 -27.4384 34.9135 -33.7456 39.9508C-37.597 43.0297 -40.3255 48.2466 -43.089 52.2292C-44.9525 54.9219 -46.7997 57.6116 -48.6341 60.3243C-50.0234 62.3887 -51.4031 64.2319 -51.7797 66.7498C-52.7177 72.9258 -47.4307 79.3047 -42.8825 82.8411C-44.7248 86.8298 -46.0122 91.8973 -42.7969 95.5293C-39.9276 98.7528 -36.1506 101.318 -32.6856 103.84C-28.0021 107.242 -23.176 110.456 -18.2201 113.461C-15.4144 115.16 -11.9082 117.767 -8.56877 118.295C-2.82866 119.205 0.846674 114.495 3.80476 110.333C7.82539 104.665 11.843 98.9811 15.8152 93.28C19.4885 88.0142 23.152 82.7418 26.6832 77.3927ZM22.2296 26.5929C24.1312 27.5144 25.9177 28.0436 27.7569 27.5839C27.2489 28.3029 26.4482 28.7639 25.6686 29.1113C24.1323 29.7933 22.4747 29.5947 20.8835 29.2993C20.8219 29.2854 20.7814 29.3858 20.8395 29.4256C22.295 30.354 24.3883 30.3535 25.9784 29.7797C26.7049 29.5097 27.8495 28.9004 28.5116 28.1021C28.6126 29.2821 28.841 30.4214 29.4014 31.5751C30.4876 33.7876 33.0338 35.1803 34.7532 36.8025C36.1865 38.157 36.0192 39.6653 35.7341 41.2208C35.59 40.8086 35.4133 40.4025 35.2711 40.0912C34.6453 38.7218 33.5032 37.0261 32.066 36.4236C32.0466 36.4103 32.0104 36.4424 32.0231 36.4653C32.6747 37.6105 33.6158 38.5415 34.2475 39.7157C34.5936 40.3521 34.8315 41.0423 34.9975 41.7543C34.0968 40.7229 33.0972 39.7943 32.1223 38.954C30.4266 37.5046 28.5122 36.3323 26.5072 35.354C24.8547 34.5467 22.8098 33.6265 20.9305 33.6885C20.9045 33.6848 20.8749 33.7072 20.8713 33.7332C20.8677 33.7592 20.8804 33.7822 20.8997 33.7955C24.5994 35.3538 27.7673 37.2303 30.7615 39.8989C33.0674 41.9524 35.3065 44.3728 36.7164 47.1921C37.6135 49.6591 37.2651 52.9653 34.1821 53.9092C34.1495 53.9153 34.1199 53.9377 34.0969 53.9504C29.2595 49.9021 23.4638 46.6481 18.2483 43.109C18.1419 43.0359 18.0451 42.9695 17.9387 42.8964C19.8608 43.7465 21.8234 44.4963 23.8203 45.1131C25.2628 45.5627 26.9575 46.1428 28.5395 46.1613C28.7674 46.1612 29.0019 46.1514 29.2268 46.135C29.2757 46.1259 29.2733 46.0672 29.2376 46.057C27.4153 45.2896 25.4282 44.9073 23.5726 44.1883C21.3156 43.3075 19.1093 42.2907 16.9429 41.2158C14.702 40.1041 12.4884 38.9113 10.308 37.6702C10.1562 37.5802 10.0141 37.4968 9.86234 37.4068C8.53987 36.5129 7.22706 35.6255 5.90459 34.7316C6.31363 34.3433 6.71604 33.9646 7.24421 33.6724C8.13317 33.1866 9.31495 33.1866 10.3021 33.1383C12.156 33.0304 14.0054 33.4889 15.843 33.384C15.8689 33.3876 15.8822 33.3682 15.8955 33.3489C15.9088 33.3295 15.8961 33.3065 15.8768 33.2933C15.725 33.2033 15.5309 33.1127 15.3205 33.0251C14.861 32.8235 14.3779 32.6768 13.8779 32.5755C10.7632 31.8034 5.63638 31.5146 4.81432 33.997C3.5886 33.1695 2.35321 32.3353 1.12748 31.5078C0.759824 31.2553 0.391001 31.0875 0.0312679 30.9685C0.654575 28.734 1.44493 26.899 3.47405 26.5981C3.87482 26.5744 4.26229 26.5699 4.6528 26.5818C4.79909 26.5969 4.94539 26.6119 5.10136 26.6336C6.20888 26.8247 7.22875 26.9982 8.24371 27.0545C8.94803 27.2108 9.66807 27.4062 10.4008 27.6247C13.0598 28.3971 16.1727 29.2962 18.94 29.0609C18.94 29.0609 18.9497 29.0675 18.9563 29.0578C18.966 29.0645 18.9726 29.0548 18.9726 29.0548C18.9793 29.0451 18.9859 29.0355 18.9926 29.0258L18.9992 29.0161L19.0058 29.0064C19.0028 28.9901 19.0028 28.9901 18.9998 28.9738C18.9901 28.9672 18.9968 28.9575 18.9804 28.9605L18.9708 28.9539C16.8986 27.8868 14.5027 27.1668 12.1237 26.6294C15.8256 25.427 18.5848 24.8302 22.2296 26.5929ZM-37.8053 74.6809C-40.5164 72.2637 -42.7853 68.2281 -40.8297 64.7585C-39.5047 62.3937 -37.7425 60.2009 -36.2142 57.9756C-34.7959 55.9311 -33.3807 53.8703 -31.914 51.859C-30.9185 50.4923 -29.831 49.3028 -28.3159 48.5065C-25.9385 47.263 -23.0806 49.4251 -21.067 50.7225C-22.2225 52.3637 -23.3684 54.0115 -24.5143 55.6593C-28.0746 60.7606 -31.6252 65.8685 -35.1631 70.9994C-36.01 72.2119 -36.9125 73.4431 -37.8053 74.6809ZM-49.9945 65.7261C-49.5113 63.7371 -47.7031 61.7468 -46.5699 60.076C-45.1311 57.9602 -43.6892 55.8606 -42.2311 53.7581C-39.9689 50.4848 -37.7291 47.182 -35.3478 44.0048C-33.5803 41.6591 -31.4432 39.6668 -28.4791 39.0826C-24.3496 38.2735 -19.6979 42.0945 -16.4127 44.1941C-17.6867 45.9248 -18.9413 47.6687 -20.1766 49.426C-23.5949 47.2921 -26.7627 45.4155 -30.4833 47.972C-33.2376 49.8679 -35.2087 53.7539 -37.0752 56.4304C-38.354 58.2717 -39.6231 60.1196 -40.8825 61.9743C-41.7632 63.2774 -42.8857 64.6423 -43.074 66.2642C-43.4941 70.0479 -41.5102 73.5034 -38.7374 75.9345C-39.9956 77.7045 -41.1958 79.5143 -42.1953 81.4051C-46.6395 77.8831 -51.4544 71.7288 -49.9945 65.7261ZM14.0669 93.0475C10.4801 98.1875 6.85752 103.317 3.23195 108.431C0.310118 112.561 -3.62202 118.66 -9.56413 116.344C-13.9131 114.653 -17.9634 111.843 -21.8648 109.335C-26.686 106.238 -31.4069 102.953 -35.9424 99.4393C-39.7564 96.4925 -43.725 93.8952 -43.0876 88.5095C-42.4749 83.2634 -38.6199 78.7489 -35.7199 74.5469C-30.6241 67.1683 -25.5253 59.806 -20.3715 52.4673C-18.5418 49.8653 -16.7121 47.2632 -14.8341 44.6944C-12.8799 42.0355 -9.62866 41.4063 -6.48921 40.8571C-6.09754 40.7844 -5.74654 40.3562 -5.86463 39.9476C-6.62826 37.2447 -3.76705 35.1517 -2.35958 33.1852C-0.938825 31.1993 2.26344 34.1247 3.60526 35.0319C7.72748 37.8202 11.8594 40.6151 15.975 43.413C20.1389 46.2441 24.2932 49.0686 28.4572 51.8998C29.8764 52.8602 31.2793 53.8236 32.6919 54.7937C35.101 56.4482 31.4375 63.1303 28.8793 63.082C28.3619 63.0684 27.9849 63.4929 28.0559 64.0116C28.1414 64.6541 28.2203 65.3063 28.2962 65.9422C28.6886 68.4186 29.0662 70.5432 27.7828 72.723C26.7361 74.4959 25.586 76.212 24.4523 77.9251C21.0613 83.0288 17.5608 88.043 14.0669 93.0475Z" fill="#E9E9E9"/>
<path d="M26.0184 62.4828C26.1024 62.5262 26.1616 62.4815 26.1918 62.4168C26.222 62.3521 26.2232 62.2674 26.1458 62.2143C24.2801 60.5771 22.1396 59.2779 20.0781 57.9049C17.3068 56.0729 14.5259 54.2342 11.7612 52.3926C8.82541 50.4476 5.90955 48.4736 2.97377 46.5286C0.538059 44.9128 -1.85545 43.0697 -4.50075 41.7799C-4.51043 41.7732 -4.51043 41.7732 -4.5201 41.7666C-4.54913 41.7467 -4.57874 41.769 -4.60834 41.7914C-4.61499 41.8011 -4.61499 41.8011 -4.62163 41.8108C-4.62828 41.8204 -4.63492 41.8301 -4.63189 41.8464C-4.62886 41.8628 -4.62583 41.8791 -4.60648 41.8924C-2.86156 43.7884 -0.625424 45.2386 1.44391 46.7452C4.35137 48.8558 7.31863 50.8793 10.2925 52.8932C13.2634 54.8908 16.2542 56.8593 19.2849 58.7697C21.4636 60.1378 23.6247 61.5935 26.0184 62.4828Z" fill="#E9E9E9"/>
<path d="M-4.09964 38.6078C-4.11957 38.6368 -4.11351 38.6694 -4.09113 38.699C-4.08145 38.7057 -4.08146 38.7057 -4.07178 38.7123C-1.8093 40.8499 1.08278 42.4231 3.73367 44.0158C6.88523 45.8954 10.1068 47.6522 13.3587 49.3444C16.4714 50.9695 19.6246 52.4942 22.8279 53.9252C24.3649 54.6106 25.9054 55.2699 27.4696 55.8742C28.7229 56.3505 30.1462 57.0147 31.4997 57.0757C31.5777 57.0865 31.6436 57.0321 31.6574 56.9704C31.6876 56.9057 31.6658 56.8338 31.5981 56.7873C30.5604 56.0177 29.2478 55.5862 28.07 55.062C26.6788 54.4341 25.2646 53.8188 23.8799 53.1812C20.6155 51.694 17.3916 50.1064 14.2009 48.4704C11.0265 46.8315 7.89857 45.1248 4.78094 43.3824C1.88944 41.7668 -0.945981 39.8623 -4.00837 38.5993C-4.04404 38.589 -4.067 38.6017 -4.08029 38.6211C-4.08332 38.6047 -4.093 38.5981 -4.09964 38.6078Z" fill="#E9E9E9"/>
<path d="M24.6224 56.3267C24.7264 56.3412 24.7414 56.1949 24.6574 56.1514C22.5327 55.1194 20.4346 54.0487 18.2966 53.0361C18.2772 53.0228 18.2506 53.0615 18.27 53.0748C19.854 54.8318 22.2883 56.0765 24.6224 56.3267Z" fill="#E9E9E9"/>
<path d="M14.3376 35.5283C15.4404 37.2397 18.6177 38.6671 20.5951 38.8148C20.6731 38.8257 20.7105 38.709 20.6524 38.6691C19.7944 38.0941 18.8325 37.7325 17.9074 37.2965C16.7332 36.7464 15.6488 35.8166 14.3937 35.4673C14.3417 35.46 14.3152 35.4987 14.3376 35.5283Z" fill="#E9E9E9"/>
<path d="M20.2074 39.301C20.2752 39.3475 20.2873 39.4128 20.3713 39.4562C20.5134 39.5396 20.6591 39.5969 20.8248 39.6253C21.2371 39.7091 21.5272 39.6805 21.9134 39.5328C22.0802 39.4765 21.9985 39.2638 21.8589 39.2391C21.6932 39.2108 21.5251 39.1238 21.3625 39.1118C21.1999 39.0998 21.0276 39.0811 20.865 39.0691C20.7284 39.0607 20.5785 39.0717 20.4413 39.1056C20.3367 39.1335 20.2968 39.1915 20.2116 39.2327C20.1887 39.2454 20.1947 39.278 20.2074 39.301Z" fill="#E9E9E9"/>
<path d="M35.1037 51.8967C35.166 51.8682 35.1708 51.7576 35.0994 51.7371C34.305 51.5048 33.4997 51.3504 32.7524 51.0081C32.0148 50.6723 31.3224 50.1256 30.5207 49.9453C30.4754 49.9284 30.4421 49.9768 30.4742 50.013C31.306 51.3104 33.579 52.6863 35.1037 51.8967Z" fill="#E9E9E9"/>
<path d="M29.948 49.648C29.9939 49.6226 30.0012 49.5706 29.9691 49.5343C29.7489 49.2122 29.1914 48.8009 28.7767 48.8863C28.7441 48.8924 28.7242 48.9214 28.7302 48.954C28.8211 49.4436 29.496 49.8501 29.948 49.648Z" fill="#E9E9E9"/>
<path d="M5.05533 27.6975C4.00307 26.804 1.36882 28.2555 1.51278 29.6216C1.52187 29.6705 1.56722 29.6874 1.6065 29.6717C2.18912 29.4453 2.64281 28.8884 3.19395 28.5834C3.7747 28.2561 4.45838 28.2558 5.03248 27.9381C5.13098 27.8776 5.13576 27.767 5.05533 27.6975Z" fill="#E9E9E9"/>
<path d="M29.7888 41.3278C29.9708 41.581 30.1003 41.8693 30.3416 42.0777C30.5315 42.2366 30.7792 41.9796 30.6909 41.7765C30.4573 41.2459 29.8856 40.4404 29.2274 40.4867C29.1851 40.4861 29.1712 40.5477 29.1936 40.5774C29.4016 40.8342 29.6133 41.065 29.7888 41.3278Z" fill="#E9E9E9"/>
<path d="M29.1865 41.1533C29.1442 41.1527 29.1146 41.1751 29.114 41.2174C29.0869 41.5263 29.3682 41.9046 29.6337 42.0157C29.7697 42.0664 29.9473 41.9321 29.9037 41.7883C29.8166 41.5006 29.496 41.138 29.1865 41.1533Z" fill="#E9E9E9"/>
<path d="M26.8522 32.4028C27.1291 32.3935 27.7608 32.386 27.8694 32.0619C27.9883 31.7022 27.454 31.7339 27.2581 31.7703C27.0556 31.8163 26.8465 31.872 26.6374 31.9277C26.4349 31.9738 26.2233 31.9709 26.0209 32.0169C26.0045 32.0199 25.9912 32.0393 26.004 32.0623C26.1528 32.3638 26.5494 32.4083 26.8522 32.4028Z" fill="#E9E9E9"/>
<path d="M26.4983 32.8247C26.4427 32.8435 26.4058 32.9179 26.4735 32.9644C26.7577 33.1311 27.0776 33.308 27.3676 33.0516C27.4039 33.0195 27.4111 32.9675 27.3791 32.9313C27.1323 32.6479 26.8119 32.7412 26.4983 32.8247Z" fill="#E9E9E9"/>
<path d="M10.3687 29.7242C9.94252 29.702 9.43895 29.6267 9.06429 29.882C9.04133 29.8947 9.04739 29.9274 9.06009 29.9503C9.3655 30.2313 9.79226 30.2111 10.1792 30.249C10.6084 30.2875 11.1368 30.451 11.5277 30.1927C11.5737 30.1673 11.5743 30.125 11.5488 30.079C11.2966 29.7207 10.7852 29.7397 10.3687 29.7242Z" fill="#E9E9E9"/>
<path d="M10.8881 30.6493C10.5846 30.4693 10.1517 30.4568 9.875 30.6939C9.84539 30.7163 9.84481 30.7586 9.87384 30.7786C10.1315 30.984 10.4718 31.0896 10.7976 31.0713C11.0062 31.0579 11.0659 30.7429 10.8881 30.6493Z" fill="#E9E9E9"/>
<path d="M-4.40679 104.565C-8.72577 98.8083 -17.5598 104.83 -13.7448 110.782C-13.7164 110.844 -13.6783 110.913 -13.6335 110.972C-13.5888 111.031 -13.5374 111.081 -13.4956 111.124C-11.5178 113.365 -8.30573 114.161 -5.75635 112.252C-3.34173 110.437 -2.50801 107.108 -4.40679 104.565ZM-6.42988 110.807C-8.36762 112.509 -10.9328 111.787 -12.4444 109.966C-15.2622 105.838 -9.26177 101.558 -5.94796 105.13C-4.32462 106.871 -4.76223 109.333 -6.42988 110.807Z" fill="#E9E9E9"/>
<path d="M13.9995 81.183C9.68048 75.4262 0.846477 81.4478 4.66141 87.3995C4.68985 87.4617 4.72797 87.5306 4.77273 87.5898C4.81749 87.649 4.8689 87.6986 4.91063 87.7415C6.88845 89.9825 10.1005 90.7788 12.6499 88.8704C15.0742 87.0611 15.9079 83.7324 13.9995 81.183ZM11.9764 87.4254C10.0386 89.1274 7.4734 88.4051 5.96186 86.5839C3.14405 82.4561 9.14448 78.1763 12.4583 81.7478C14.0913 83.4957 13.6603 85.9478 11.9764 87.4254Z" fill="#E9E9E9"/>
<path d="M-6.8697 100.338C-6.85699 100.361 -6.84732 100.367 -6.83461 100.39C-6.8092 100.436 -6.79346 100.475 -6.7614 100.512C-3.01221 105.564 4.82419 100.352 1.53848 94.9776C0.0610919 92.5677 -3.06984 92.0264 -5.40485 93.4983C-7.77611 95.0023 -8.27994 98.0165 -6.8697 100.338ZM0.361474 96.0488C1.35487 97.6707 0.602638 99.5747 -0.908105 100.531C-2.60618 101.614 -4.36976 101.072 -5.52087 99.5554C-7.77763 95.585 -2.09963 92.0235 0.361474 96.0488Z" fill="#E9E9E9"/>
<path d="M0.67968 104.886C0.155706 103.928 -1.288 104.745 -0.790026 105.699C-0.786995 105.716 -0.767647 105.729 -0.757972 105.736C-0.745266 105.759 -0.742238 105.775 -0.729532 105.798C-0.0859573 106.582 1.15889 105.785 0.67968 104.886Z" fill="#E9E9E9"/>
<path d="M3.25401 67.5957C3.25704 67.612 3.27639 67.6253 3.28607 67.6319C3.29877 67.6549 3.30181 67.6712 3.31451 67.6942C3.94841 68.4712 5.1999 67.6648 4.71405 66.7758C4.19975 65.8246 2.73971 66.6444 3.25401 67.5957Z" fill="#E9E9E9"/>
<path d="M4.92554 74.5112C4.92857 74.5275 4.94792 74.5408 4.95759 74.5474C4.9703 74.5704 4.97333 74.5867 4.99571 74.6163C5.63626 75.3837 6.8811 74.587 6.39525 73.698C5.87127 72.7402 4.41124 73.56 4.92554 74.5112Z" fill="#E9E9E9"/>
<path d="M16.9802 68.778C16.9833 68.7943 17.0026 68.8076 17.0123 68.8143C17.025 68.8372 17.028 68.8536 17.0407 68.8765C17.6746 69.6536 18.9261 68.8472 18.4403 67.9582C17.926 67.007 16.4726 67.8171 16.9802 68.778Z" fill="#E9E9E9"/>
<path d="M1.83578 56.9534C1.84848 56.9764 1.85152 56.9927 1.8739 57.0223C2.51444 57.7897 3.75929 56.9929 3.27343 56.104C2.74946 55.1461 1.30574 55.9629 1.80372 56.9172C1.82307 56.9304 1.83275 56.9371 1.83578 56.9534Z" fill="#E9E9E9"/>
<path d="M16.7497 78.832C16.7527 78.8483 16.7721 78.8616 16.7818 78.8682C16.7945 78.8912 16.7975 78.9075 16.8102 78.9305C17.4508 79.6978 18.689 78.9108 18.2097 78.0121C17.6954 77.0609 16.2451 77.8874 16.7497 78.832Z" fill="#E9E9E9"/>
<path d="M9.23057 63.8437C9.2336 63.86 9.25295 63.8733 9.26263 63.88C9.27533 63.9029 9.27836 63.9192 9.29107 63.9422C9.92497 64.7193 11.1765 63.9128 10.6906 63.0239C10.1763 62.0727 8.71627 62.8925 9.23057 63.8437Z" fill="#E9E9E9"/>
<path d="M-2.86645 70.8682C-4.34383 68.4582 -7.47476 67.917 -9.80977 69.3889C-12.181 70.8929 -12.6945 73.9004 -11.2746 76.2282C-11.2619 76.2512 -11.2522 76.2578 -11.2395 76.2808C-11.2141 76.3267 -11.1984 76.366 -11.1663 76.4023C-7.41714 81.4545 0.419264 76.2429 -2.86645 70.8682ZM-4.03681 71.9297C-3.04341 73.5516 -3.79564 75.4555 -5.30639 76.4114C-7.00446 77.4949 -8.76803 76.953 -9.91915 75.4363C-12.1826 71.4756 -6.50456 67.9141 -4.03681 71.9297Z" fill="#E9E9E9"/>
<path d="M-2.91312 89.9714C-2.90041 89.9944 -2.89074 90.0011 -2.87803 90.024C-2.8623 90.0633 -2.83688 90.1092 -2.80483 90.1455C-0.382184 93.4182 4.75306 90.025 2.61986 86.5382C1.67123 84.9754 -0.36733 84.5436 -1.90104 85.5122C-3.43475 86.4808 -3.84904 88.4317 -2.91312 89.9714ZM1.35088 87.4322C1.83488 88.2203 1.51256 89.1664 0.757186 89.6444C-0.109976 90.2021 -0.949742 89.9529 -1.54494 89.2024C-2.62133 87.2245 0.125168 85.4229 1.35088 87.4322Z" fill="#E9E9E9"/>
<path d="M8.58675 92.334C7.63811 90.7713 5.59956 90.3395 4.07552 91.3147C2.54182 92.2833 2.12088 94.2438 3.06345 95.7739C3.07615 95.7969 3.08583 95.8035 3.09853 95.8265C3.11427 95.8658 3.13968 95.9117 3.17174 95.948C5.5847 99.214 10.7199 95.8208 8.58675 92.334ZM6.7271 95.4565C5.85994 96.0143 5.02018 95.7651 4.42498 95.0146C3.34859 93.0367 6.09508 91.2351 7.3208 93.2444C7.80479 94.0324 7.48247 94.9786 6.7271 95.4565Z" fill="#E9E9E9"/>
<path d="M10.4604 85.9852C9.81436 86.3247 9.07333 86.4707 8.35934 86.3079C8.22634 86.2735 8.13331 86.409 8.21316 86.5207C9.15329 87.9922 11.7368 86.6767 12.3588 85.4807C12.3957 85.4064 12.3678 85.3018 12.2735 85.294C11.5705 85.2811 11.0605 85.6712 10.4604 85.9852Z" fill="#E9E9E9"/>
<path d="M0.24856 88.6833C0.286562 88.5243 0.178273 88.3503 -0.010919 88.377C-0.151152 88.3946 -0.233919 88.4944 -0.364477 88.5186C-0.48536 88.5495 -0.602046 88.5121 -0.722929 88.543C-0.788208 88.5551 -0.85104 88.6259 -0.835886 88.7075C-0.699036 89.1717 0.144228 89.167 0.24856 88.6833Z" fill="#E9E9E9"/>
<path d="M5.72026 94.3099C5.58551 94.4025 5.45133 94.4527 5.30387 94.5223C5.24162 94.5507 5.22413 94.6384 5.26587 94.6813C5.51567 94.981 6.00224 94.8738 6.07276 94.4808C6.11135 94.2795 5.85501 94.2174 5.72026 94.3099Z" fill="#E9E9E9"/>
</g>
<defs>
<clipPath id="clip0_145_34185">
<rect width="71.9836" height="100" fill="white" transform="translate(-7.39062) rotate(34.4795)"/>
</clipPath>
</defs>
</svg>
