<svg width="99" height="104" viewBox="0 0 99 104" fill="none" xmlns="http://www.w3.org/2000/svg">
<g clip-path="url(#clip0_145_34324)">
<path d="M46.3819 2.2082C43.4488 3.2216 40.6093 5.61426 38.6623 8.5682C36.8875 8.65419 35.0169 9.25752 33.1554 10.4856C26.5177 14.8066 21.1273 24.6593 24.0026 32.4858C24.033 32.5563 24.0633 32.6268 24.1049 32.7122C22.7838 34.1609 21.638 35.687 20.9767 36.9618C19.2916 40.1377 20.5879 42.7314 22.7868 45.3173C23.6044 46.2396 24.3848 47.1436 25.1982 47.999C25.1469 48.0847 25.1217 48.1741 25.093 48.2895C24.1912 51.8524 22.1594 55.7364 22.567 59.5204C22.9159 62.9513 24.3397 65.682 26.2989 68.4735C32.1912 76.8369 39.8189 84.4191 46.906 91.7805C51.0848 96.113 55.5152 98.1721 61.28 96.0118C67.3521 93.735 72.1432 88.0574 76.4232 83.4233C80.3281 79.2149 86.7025 75.3747 87.5115 69.2389C88.4497 62.1392 80.5219 55.5104 76.6274 50.5408C71.5685 44.0703 65.4912 37.0874 59.2938 31.6929C54.2716 27.3233 46.9916 29.5126 41.4976 31.6307C38.52 28.3268 34.6357 25.8525 30.395 27.7196C29.0556 28.3168 27.5161 29.417 26.0676 30.7287C24.6733 24.5134 30.4976 12.4126 37.3927 10.82C35.8577 14.1626 35.552 17.9274 37.4032 21.1285C38.5906 23.1499 40.9897 26.1217 43.7384 25.693C46.7839 25.2258 48.8871 22.2934 48.7158 19.2188C48.41 13.8836 45.4571 9.99948 41.4842 8.87919C43.1528 6.81527 45.3079 5.17686 47.3079 4.49858C48.8191 4.0047 47.8819 1.69949 46.3819 2.2082ZM60.3509 36.2698C65.0323 41.6003 70.1487 46.5533 74.6642 52.0333C78.5303 56.7204 84.1308 61.82 85.0461 68.0486C85.8274 73.3965 77.7062 78.4009 74.4527 81.9036C70.9161 85.7386 67.2936 89.5218 62.8942 92.3751C55.2077 97.3999 49.7379 91.5225 44.7515 85.6987C39.9263 80.0565 34.4567 75.0678 29.9189 69.1603C27.3232 65.7765 24.9408 62.5815 25.0101 58.1075C25.0573 55.3814 26.289 52.6203 27.1241 49.9502C30.4448 52.97 34.091 54.5491 39.1108 51.7154C44.4154 48.7354 48.7919 42.7882 45.2869 36.8909C44.6802 35.8783 43.9572 34.7436 43.1232 33.6465C49.5624 31.3011 55.2794 30.4873 60.3509 36.2698ZM31.0614 49.9513C33.5342 49.4048 35.5168 47.5701 37.4404 45.7802C39.9684 43.4373 41.8603 40.9931 43.0636 37.9494C46.0408 42.938 41.7522 47.4382 37.4347 49.8783C34.9873 51.2243 32.9126 50.9769 31.0614 49.9513ZM32.0797 29.6905C35.8542 28.0374 39.8502 33.1405 42.0546 36.3772C41.0021 39.6804 39.0659 42.1583 36.5275 44.5794C34.5196 46.5035 32.2217 48.8119 29.2001 48.6059C27.5835 47.2149 26.1192 45.3806 24.7388 43.8099C22.3674 41.0277 22.276 39.0385 24.6881 36.1755C26.7101 33.7493 29.1343 30.994 32.0797 29.6905ZM42.6761 11.8564C45.3919 13.6516 46.7865 18.1824 45.8835 21.1614C44.2297 26.6763 39.9107 20.7194 39.1577 19.1162C37.9205 16.4777 38.5927 13.4401 40.1524 10.804C40.9932 10.9602 41.8356 11.3023 42.6761 11.8564Z" fill="#E9E9E9"/>
<path d="M50.8148 57.3009C46.8496 60.9704 41.3152 64.8737 39.3058 70.0741C37.9068 73.6875 40.987 76.8199 43.1477 79.2945C46.1452 82.7471 49.5376 87.2094 53.566 89.5976C53.6822 89.7198 53.8279 89.8195 54.0439 89.8892C54.2304 89.9814 54.4092 90.0326 54.5801 90.043C58.7908 91.1697 62.9247 88.1205 66.0906 85.6669C71.2823 81.6498 75.3761 76.5257 79.6052 71.5795C83.2055 67.3687 79.2659 62.3398 76.5454 58.7C73.5995 54.7638 68.7397 48.9841 63.4681 48.4534C59.1111 48.0228 53.6119 54.7299 50.8148 57.3009ZM77.0023 70.8213C73.8911 74.4498 70.891 78.0406 67.3756 81.3213C64.575 83.9184 59.2262 89.1076 54.9976 87.6203C51.971 85.9677 49.502 82.628 47.1998 80.1206C45.2575 77.9947 42.0139 75.2907 41.4867 72.2994C40.7841 68.342 47.9664 63.4198 50.2764 61.2192C53.4375 58.2078 56.6472 55.2296 60.1534 52.6109C64.811 49.1168 68.848 53.8143 72.1093 57.2769C75.2656 60.6321 80.7312 66.4426 77.0023 70.8213Z" fill="#E9E9E9"/>
<path d="M69.2691 70.9855C69.1416 70.8485 68.9333 70.8196 68.8048 70.9875C68.5624 71.3122 68.6748 71.8583 68.8412 72.1997C68.8828 72.2851 68.9869 72.2995 69.0494 72.2285C69.3404 71.9372 69.5656 71.3449 69.2691 70.9855Z" fill="#E9E9E9"/>
<path d="M69.8858 72.2514C69.9161 72.322 69.9907 72.3588 70.0871 72.3323C70.476 72.2005 71.0469 71.205 70.4543 70.9771C69.8913 70.7267 69.7793 71.9581 69.8858 72.2514Z" fill="#E9E9E9"/>
<path d="M70.3128 64.7489C70.1309 64.3257 69.555 63.8746 69.0829 63.8358C68.9528 63.8178 68.8017 63.956 68.8883 64.1007C69.0885 64.4866 69.5638 64.8972 69.9446 65.1224C70.1536 65.2442 70.4038 64.9604 70.3128 64.7489Z" fill="#E9E9E9"/>
<path d="M72.0657 66.3181C72.3271 66.0492 71.9439 65.5452 71.6261 65.74C71.3118 65.9087 71.0426 66.1367 70.953 66.509C70.9243 66.6244 71.037 66.7727 71.1559 66.7759C71.5386 66.789 71.819 66.5758 72.0657 66.3181Z" fill="#E9E9E9"/>
<path d="M71.7777 64.1695C71.6127 64.4119 71.4251 64.6247 71.3086 64.9004C71.2686 65.001 71.3327 65.116 71.4481 65.1453C71.8611 65.229 72.1746 64.9673 72.3649 64.6354C72.6212 64.2066 72.0453 63.7555 71.7777 64.1695Z" fill="#E9E9E9"/>
<path d="M70.8416 63.9467C70.9954 63.6894 71.0858 63.4101 71.1242 63.1236C71.1731 62.7589 70.6256 62.5903 70.4987 62.9441C70.3717 63.298 70.3819 63.6177 70.6038 63.9403C70.6601 64.0144 70.8051 64.0212 70.8416 63.9467Z" fill="#E9E9E9"/>
<path d="M70.3469 66.5185C70.6421 66.2941 70.3665 65.7784 70.0262 65.9435C69.8005 66.0449 69.6381 66.1684 69.48 66.3587C69.3185 66.5751 69.3566 66.6865 69.3885 66.943C69.3963 66.9839 69.4223 66.9875 69.4631 66.9798C69.5742 66.9422 69.6896 66.9714 69.7929 66.8929C69.97 66.7582 70.1697 66.6532 70.3469 66.5185Z" fill="#E9E9E9"/>
<path d="M71.6299 68.2346C71.3812 67.8155 70.9086 67.2858 70.3713 67.437C70.3158 67.4558 70.294 67.5191 70.3131 67.5748C70.4282 68.002 70.8133 68.2941 71.0542 68.6723C71.3212 69.0541 71.8709 68.6129 71.6299 68.2346Z" fill="#E9E9E9"/>
<path d="M70.0531 68.4542C70.081 68.2458 69.8373 67.9866 69.6081 68.114C69.3937 68.2303 68.9559 68.7268 69.2256 68.9897C69.5439 69.2858 70.0147 68.7407 70.0531 68.4542Z" fill="#E9E9E9"/>
<path d="M67.986 67.9422C68.1526 67.8857 68.1631 67.8075 68.2925 67.7326C68.3663 67.6765 68.3394 67.5799 68.2648 67.543C68.2275 67.5246 68.1599 67.4357 68.1113 67.4024C67.9994 67.3471 67.858 67.3143 67.7426 67.285C67.6074 67.1071 67.3808 67.1156 67.149 67.362C66.9613 67.5749 67.132 67.9832 67.4218 67.9968C67.6076 67.9959 67.8045 68.0099 67.986 67.9422Z" fill="#E9E9E9"/>
<path d="M68.3524 65.7647C68.2389 65.5235 68.1001 65.3716 67.8798 65.235C67.316 64.8917 66.9265 65.8194 67.5816 65.9764C67.7751 66.0164 67.9278 66.0641 68.1248 66.0781C68.2845 66.0737 68.4243 65.9206 68.3524 65.7647Z" fill="#E9E9E9"/>
<path d="M68.3145 69.5403C68.1151 69.2474 67.3878 69.3325 67.2192 69.601C67.102 69.7837 67.1331 69.9472 67.2866 70.0878C67.5528 70.3767 68.5554 69.9185 68.3145 69.5403Z" fill="#E9E9E9"/>
<path d="M69.9847 69.8378C69.8927 69.9312 69.9463 70.1243 70.073 70.1684C70.3263 70.2565 70.5789 70.2516 70.8322 70.3398C71.0855 70.4279 71.3354 70.5421 71.5906 70.4182C71.6905 70.3657 71.7304 70.2651 71.7036 70.1685C71.5383 69.5222 70.3895 69.3897 69.9847 69.8378Z" fill="#E9E9E9"/>
<path d="M73.417 67.8581C73.6966 67.5519 73.1919 67.1637 72.9122 67.4699C72.7098 67.6939 72.5109 67.8919 72.4283 68.212C72.4065 68.2754 72.4516 68.3347 72.5184 68.3306C72.8786 68.3142 73.1703 68.1158 73.417 67.8581Z" fill="#E9E9E9"/>
<path d="M73.264 66.2457C73.2597 66.1788 73.1964 66.1568 73.1408 66.1756C72.6964 66.3264 72.1754 66.6522 72.1429 67.1916C72.136 67.2437 72.1585 67.2733 72.2106 67.2805C72.4934 67.3462 72.7113 67.2039 72.9328 67.0356C73.2393 66.826 73.2854 66.5803 73.264 66.2457Z" fill="#E9E9E9"/>
<path d="M73.537 69.9449C73.5144 69.9153 73.4919 69.8856 73.4581 69.8411C73.1961 69.6192 72.876 69.5351 72.5271 69.5664C72.4603 69.5704 72.4385 69.6337 72.4836 69.693C72.6787 69.919 72.8773 70.1189 73.1019 70.3224C73.2554 70.4631 73.4255 70.3805 73.5098 70.2463C73.5098 70.2463 73.5211 70.2611 73.5063 70.2723C73.5836 70.1901 73.5863 70.0711 73.5335 69.971C73.5482 69.9597 73.5482 69.9597 73.537 69.9449Z" fill="#E9E9E9"/>
<path d="M72.5937 71.8972C72.3501 71.638 72.0761 71.3082 71.7334 71.1945C71.6067 71.1504 71.5034 71.229 71.512 71.3628C71.5229 71.7756 71.8194 72.135 72.1482 72.3529C72.4249 72.5636 72.8452 72.1973 72.5937 71.8972Z" fill="#E9E9E9"/>
<path d="M70.9257 72.3953C70.7319 72.7532 70.7289 73.2701 70.7807 73.6753C70.8324 74.0804 71.367 74.0482 71.4567 73.676C71.5681 73.2404 71.4627 72.6421 71.1331 72.3312C71.0733 72.2831 70.9734 72.3356 70.9257 72.3953Z" fill="#E9E9E9"/>
<path d="M68.4153 74.3031C68.9592 74.4977 69.7555 73.7988 69.6839 73.245C69.6762 73.2041 69.6536 73.1745 69.6163 73.1561C69.363 73.0679 69.2041 73.1653 68.9749 73.2928C68.7457 73.4202 68.4392 73.6299 68.2776 73.8463C68.1786 73.9917 68.2253 74.237 68.4153 74.3031Z" fill="#E9E9E9"/>
<path d="M66.5971 72.6452C66.9704 72.4316 67.3716 72.0096 67.5091 71.5776C67.5378 71.4622 67.4737 71.3472 67.34 71.3552C66.8723 71.3833 66.3634 71.8169 66.2147 72.2341C66.0904 72.469 66.3531 72.7839 66.5971 72.6452Z" fill="#E9E9E9"/>
<path d="M65.3488 70.5758C65.1499 70.7738 65.3458 71.0928 65.5801 71.1252C65.8517 71.176 66.0696 71.0337 66.2537 70.847C66.331 70.7648 66.2964 70.6274 66.214 70.5497C65.9373 70.3389 65.6067 70.333 65.3488 70.5758Z" fill="#E9E9E9"/>
<path d="M67.5432 72.7895C67.2436 72.947 66.8816 73.1754 66.7208 73.4848C66.6331 73.6451 66.7726 73.8899 66.9583 73.8891C67.4564 73.9315 67.8681 73.4314 67.8268 72.9481C67.8295 72.8291 67.6578 72.7257 67.5432 72.7895Z" fill="#E9E9E9"/>
<path d="M66.3141 69.2623C66.3951 68.7562 65.9642 68.3118 65.6529 67.9636C65.3191 67.5858 64.7286 68.0347 65.0329 68.435C65.326 68.8204 65.7161 69.2724 66.2403 69.3184C66.2663 69.322 66.2958 69.2996 66.3141 69.2623Z" fill="#E9E9E9"/>
<path d="M65.4433 66.41C65.2801 66.4404 65.122 66.6308 65.2052 66.8015C65.3863 67.1317 65.7924 67.2674 66.1474 67.0911C66.3176 67.0085 66.3273 66.8374 66.1998 66.7004C66.0125 66.5153 65.7288 66.3566 65.4433 66.41Z" fill="#E9E9E9"/>
<path d="M67.7297 64.3254C67.7603 63.998 67.7136 63.7527 67.5108 63.4859C67.2888 63.1633 66.7974 63.4667 66.923 63.8158C67.0633 64.1535 67.2802 64.3162 67.6559 64.3815C67.6819 64.3851 67.7262 64.3514 67.7297 64.3254Z" fill="#E9E9E9"/>
<path d="M68.9208 62.1817C68.7973 62.5095 68.785 62.7997 68.8585 63.1415C68.8775 63.1972 68.9374 63.2452 68.9964 63.2004C69.2804 62.9611 69.4342 62.7038 69.5091 62.3428C69.5952 61.9965 69.0556 61.8688 68.9208 62.1817Z" fill="#E9E9E9"/>
<path d="M72.274 62.2484C71.9597 62.4172 71.7503 62.6933 71.8464 63.0648C71.8853 63.2691 72.1274 63.3424 72.2672 63.1893C72.3775 63.0587 72.4843 62.9541 72.6059 62.8383C72.8638 62.5954 72.629 62.0721 72.274 62.2484Z" fill="#E9E9E9"/>
<path d="M73.4496 64.4927C73.1162 64.6058 72.781 64.9308 72.851 65.2986C72.8588 65.3395 72.9039 65.3988 72.9447 65.3912C73.2345 65.4048 73.5263 65.2064 73.7477 65.038C74.0429 64.8136 73.7716 64.3648 73.4496 64.4927Z" fill="#E9E9E9"/>
<path d="M73.5358 68.9886C73.455 69.0968 73.5044 69.223 73.6163 69.2783C73.8886 69.4221 74.2574 69.5395 74.5647 69.4228C74.7869 69.3475 74.814 69.0461 74.6345 68.9019C74.3205 68.6727 73.7781 68.664 73.5358 68.9886Z" fill="#E9E9E9"/>
<path d="M73.0701 71.1401C72.9625 71.1517 72.9078 71.2635 72.9346 71.3601C73.0221 71.5977 73.2537 71.7491 73.4922 71.8485C73.8948 72.0103 74.1565 71.3435 73.747 71.2338C73.5274 71.1901 73.2854 71.1168 73.0701 71.1401Z" fill="#E9E9E9"/>
<path d="M65.4649 65.0606C65.4056 65.5034 65.8532 65.7245 66.2091 65.6411C66.2646 65.6223 66.3237 65.5774 66.3046 65.5217C66.2354 65.2468 66.2244 64.8341 65.8044 64.8025C65.6483 64.7809 65.4894 64.8783 65.4649 65.0606Z" fill="#E9E9E9"/>
<path d="M64.5851 70.0323C64.6589 69.9762 64.732 69.8272 64.6678 69.7122C64.491 69.4489 64.1308 69.4654 63.8678 69.5484C63.564 69.639 63.6453 70.0216 63.8691 70.1322C64.1267 70.2873 64.349 70.2119 64.5851 70.0323Z" fill="#E9E9E9"/>
<path d="M60.9148 62.7716C60.6724 63.0962 60.7849 63.6424 60.9512 63.9838C60.9928 64.0691 61.0969 64.0835 61.1595 64.0126C61.4244 63.7176 61.6643 63.1141 61.3643 62.7808C61.2404 62.6177 61.0286 62.6149 60.9148 62.7716Z" fill="#E9E9E9"/>
<path d="M62.5436 62.7453C61.9918 62.5097 61.8538 63.7376 61.9751 64.0196C62.0054 64.0902 62.08 64.127 62.1763 64.1006C62.5652 63.9687 63.1213 62.9844 62.5436 62.7453Z" fill="#E9E9E9"/>
<path d="M60.9741 55.8688C61.1743 56.2546 61.6495 56.6653 62.0304 56.8904C62.2507 57.0271 62.5043 56.7173 62.3986 56.5169C62.2167 56.0938 61.6408 55.6427 61.1687 55.6039C61.0498 55.6007 60.8987 55.7389 60.9741 55.8688Z" fill="#E9E9E9"/>
<path d="M63.7121 57.5075C63.3978 57.6763 63.1286 57.9043 63.0389 58.2766C63.0102 58.392 63.1229 58.5403 63.2418 58.5434C63.6097 58.5678 63.905 58.3434 64.1629 58.1005C64.4243 57.8316 64.0411 57.3276 63.7121 57.5075Z" fill="#E9E9E9"/>
<path d="M63.8637 55.9383C63.6986 56.1807 63.511 56.3935 63.3945 56.6692C63.3545 56.7698 63.4186 56.8848 63.534 56.9141C63.9471 56.9978 64.2605 56.736 64.4508 56.4042C64.7072 55.9754 64.1313 55.5243 63.8637 55.9383Z" fill="#E9E9E9"/>
<path d="M63.2102 54.8919C63.259 54.5272 62.7116 54.3586 62.5846 54.7124C62.4576 55.0663 62.4678 55.3861 62.6897 55.7086C62.7461 55.7827 62.8762 55.8007 62.9275 55.715C63.0813 55.4577 63.183 55.1932 63.2102 54.8919Z" fill="#E9E9E9"/>
<path d="M61.4666 58.6967C61.4744 58.7375 61.5004 58.7411 61.5412 58.7335C61.6523 58.6958 61.7677 58.7251 61.871 58.6465C62.0594 58.5267 62.2479 58.4068 62.4398 58.2609C62.735 58.0365 62.4594 57.5208 62.1191 57.686C61.8934 57.7874 61.731 57.9108 61.5729 58.1012C61.3966 58.3288 61.4347 58.4402 61.4666 58.6967Z" fill="#E9E9E9"/>
<path d="M62.4651 59.2053C62.4095 59.2241 62.3878 59.2874 62.4068 59.3431C62.5219 59.7703 62.907 60.0624 63.148 60.4406C63.4002 60.8337 63.9499 60.3924 63.7237 60.0029C63.4749 59.5838 62.9911 59.0393 62.4651 59.2053Z" fill="#E9E9E9"/>
<path d="M62.1234 60.2332C62.1513 60.0249 61.9076 59.7656 61.6784 59.8931C61.464 60.0093 61.0263 60.5059 61.296 60.7687C61.629 61.0536 62.0997 60.5085 62.1234 60.2332Z" fill="#E9E9E9"/>
<path d="M59.2356 59.1305C59.048 59.3434 59.2186 59.7517 59.5085 59.7652C59.7055 59.7792 59.9024 59.7932 60.0839 59.7255C60.2505 59.669 60.261 59.5908 60.3904 59.5159C60.4642 59.4598 60.4373 59.3632 60.3627 59.3263C60.3254 59.3079 60.2578 59.219 60.2092 59.1857C60.0973 59.1304 59.9559 59.0976 59.8405 59.0684C59.668 58.872 59.4527 58.8953 59.2356 59.1305Z" fill="#E9E9E9"/>
<path d="M60.2073 57.8321C60.3635 57.8537 60.518 57.6894 60.4461 57.5335C60.3326 57.2923 60.1939 57.1404 59.9736 57.0038C59.4097 56.6605 59.0203 57.5882 59.6754 57.7452C59.8688 57.7852 60.0103 57.8181 60.2073 57.8321Z" fill="#E9E9E9"/>
<path d="M59.3559 61.8669C59.6256 62.1297 60.6396 61.6864 60.3986 61.3081C60.1992 61.0152 59.4719 61.1003 59.3034 61.3688C59.1861 61.5515 59.2024 61.7262 59.3559 61.8669Z" fill="#E9E9E9"/>
<path d="M62.1496 61.9215C62.4029 62.0096 62.6554 62.0048 62.9088 62.0929C63.1621 62.1811 63.4119 62.2952 63.6672 62.1714C63.767 62.1189 63.807 62.0183 63.7802 61.9217C63.6114 61.3014 62.4625 61.1689 62.0465 61.6022C61.9805 61.6991 62.0342 61.8923 62.1496 61.9215Z" fill="#E9E9E9"/>
<path d="M65.5107 59.6266C65.7904 59.3204 65.2856 58.9322 65.0059 59.2384C64.8036 59.4624 64.6047 59.6604 64.522 59.9806C64.5003 60.0439 64.5454 60.1032 64.6122 60.0992C64.9723 60.0827 65.2641 59.8843 65.5107 59.6266Z" fill="#E9E9E9"/>
<path d="M64.2445 58.9482C64.2375 59.0003 64.2601 59.0299 64.3121 59.0371C64.595 59.1028 64.8129 58.9605 65.0343 58.7922C65.3148 58.579 65.387 58.3369 65.3656 58.0023C65.3613 57.9354 65.2979 57.9134 65.2424 57.9322C64.7979 58.0829 64.2623 58.42 64.2445 58.9482Z" fill="#E9E9E9"/>
<path d="M64.6287 61.3486C64.5618 61.3526 64.5401 61.4159 64.5852 61.4752C64.7803 61.7012 64.9788 61.9011 65.2035 62.1047C65.357 62.2453 65.5271 62.1627 65.6114 62.0285C65.6114 62.0285 65.6227 62.0433 65.6079 62.0545C65.6852 61.9724 65.6879 61.8534 65.635 61.7532C65.6238 61.7384 65.6238 61.7384 65.6272 61.7123C65.6047 61.6827 65.5822 61.653 65.5484 61.6085C65.2977 61.4014 64.9775 61.3173 64.6287 61.3486Z" fill="#E9E9E9"/>
<path d="M64.6875 63.6655C64.4438 63.4063 64.1698 63.0766 63.8271 62.9628C63.7005 62.9187 63.5971 62.9973 63.6057 63.1311C63.6167 63.5439 63.9132 63.9033 64.2419 64.1212C64.5186 64.332 64.9389 63.9657 64.6875 63.6655Z" fill="#E9E9E9"/>
<path d="M63.0116 64.1639C62.8178 64.5218 62.8148 65.0387 62.8666 65.4438C62.9184 65.8489 63.453 65.8168 63.5426 65.4445C63.654 65.0089 63.5486 64.4107 63.2191 64.0998C63.1445 64.0629 63.0594 64.1042 63.0116 64.1639Z" fill="#E9E9E9"/>
<path d="M61.7921 65.0026C61.7843 64.9617 61.7618 64.932 61.7245 64.9136C61.4824 64.8403 61.3123 64.9229 61.0831 65.0503C60.8539 65.1778 60.5474 65.3874 60.3858 65.6038C60.272 65.7605 60.3187 66.0058 60.5087 66.0719C61.0639 66.2814 61.849 65.5676 61.7921 65.0026Z" fill="#E9E9E9"/>
<path d="M58.672 64.4248C59.0453 64.2112 59.4466 63.7892 59.584 63.3572C59.6127 63.2418 59.5486 63.1268 59.415 63.1348C58.9472 63.1629 58.4383 63.5966 58.2896 64.0137C58.1801 64.2373 58.4428 64.5523 58.672 64.4248Z" fill="#E9E9E9"/>
<path d="M58.3278 62.6267C58.4051 62.5445 58.3704 62.4071 58.2881 62.3293C58.0149 62.0925 57.6842 62.0866 57.4376 62.3443C57.2387 62.5423 57.4346 62.8612 57.6689 62.8936C57.9257 62.9557 58.1584 62.8022 58.3278 62.6267Z" fill="#E9E9E9"/>
<path d="M59.924 64.7168C59.9154 64.583 59.7437 64.4796 59.6291 64.5434C59.3296 64.7009 58.9675 64.9294 58.8068 65.2387C58.719 65.399 58.8585 65.6438 59.0442 65.643C59.5536 65.7003 59.9506 65.2113 59.924 64.7168Z" fill="#E9E9E9"/>
<path d="M58.4 61.0308C58.4811 60.5247 58.0501 60.0804 57.7388 59.7322C57.405 59.3544 56.8145 59.8033 57.1189 60.2035C57.4119 60.589 57.8021 61.0409 58.3262 61.087C58.3522 61.0906 58.3817 61.0681 58.4 61.0308Z" fill="#E9E9E9"/>
<path d="M58.233 58.8599C58.4032 58.7773 58.4129 58.6062 58.2854 58.4692C58.0981 58.2841 57.8032 58.1106 57.5289 58.1788C57.3657 58.2093 57.2076 58.3996 57.2908 58.5703C57.4832 58.9153 57.904 59.0399 58.233 58.8599Z" fill="#E9E9E9"/>
<path d="M59.8156 56.0929C59.8463 55.7655 59.7996 55.5203 59.5967 55.2535C59.3748 54.9309 58.8834 55.2343 59.0089 55.5833C59.1493 55.9211 59.3661 56.0838 59.7418 56.149C59.7679 56.1526 59.8121 56.119 59.8156 56.0929Z" fill="#E9E9E9"/>
<path d="M61.0784 54.9683C61.3623 54.7291 61.5161 54.4718 61.591 54.1107C61.6772 53.7645 61.1263 53.6219 61.0028 53.9497C60.8793 54.2775 60.8669 54.5677 60.9404 54.9095C60.9595 54.9652 61.0306 55.0281 61.0784 54.9683Z" fill="#E9E9E9"/>
<path d="M64.3435 54.9428C64.4538 54.8122 64.5606 54.7076 64.6822 54.5917C64.9401 54.3489 64.7053 53.8256 64.3615 54.0167C64.0472 54.1855 63.8379 54.4616 63.9339 54.8331C63.9728 55.0374 64.1889 55.1071 64.3435 54.9428Z" fill="#E9E9E9"/>
<path d="M65.5199 56.273C65.1865 56.386 64.8513 56.7111 64.9213 57.0789C64.9291 57.1198 64.9742 57.1791 65.015 57.1715C65.3048 57.185 65.5966 56.9866 65.818 56.8183C66.1132 56.5939 65.868 56.1487 65.5199 56.273Z" fill="#E9E9E9"/>
<path d="M66.6442 61.1916C66.8664 61.1162 66.8935 60.8149 66.714 60.6707C66.4035 60.4155 65.8724 60.4215 65.6301 60.7462C65.5493 60.8544 65.5986 60.9806 65.7105 61.0359C65.9794 61.2057 66.3369 61.3083 66.6442 61.1916Z" fill="#E9E9E9"/>
<path d="M65.0148 63.1548C65.1022 63.3924 65.3338 63.5438 65.5724 63.6432C65.9749 63.805 66.2367 63.1382 65.8271 63.0284C65.6111 62.9587 65.3803 62.9003 65.1503 62.9348C65.0427 62.9464 64.9767 63.0434 65.0148 63.1548Z" fill="#E9E9E9"/>
<path d="M58.2995 57.409C58.3551 57.3902 58.4141 57.3453 58.3951 57.2896C58.3259 57.0147 58.3149 56.602 57.8949 56.5704C57.7239 56.56 57.5651 56.6574 57.5554 56.8285C57.496 57.2713 57.9584 57.4812 58.2995 57.409Z" fill="#E9E9E9"/>
<path d="M55.9409 61.9122C56.2133 62.056 56.4207 61.9918 56.6569 61.8123C56.7307 61.7562 56.8037 61.6071 56.7396 61.4921C56.5627 61.2289 56.2026 61.2453 55.9283 61.3135C55.6393 61.3929 55.7171 61.8016 55.9409 61.9122Z" fill="#E9E9E9"/>
<path d="M51.1713 72.1155C51.4362 71.8206 51.6762 71.2171 51.3762 70.8837C51.2487 70.7467 51.0404 70.7178 50.9119 70.8858C50.6695 71.2104 50.7672 71.7678 50.9483 72.0979C51.0046 72.1721 51.1088 72.1865 51.1713 72.1155Z" fill="#E9E9E9"/>
<path d="M52.567 70.8488C52.0152 70.6133 51.8772 71.8411 51.9985 72.1232C52.0288 72.1937 52.1034 72.2305 52.1998 72.2041C52.5886 72.0722 53.1448 71.088 52.567 70.8488Z" fill="#E9E9E9"/>
<path d="M52.3988 64.6317C52.2168 64.2085 51.6409 63.7574 51.1689 63.7186C51.0387 63.7006 50.8876 63.8389 50.9743 63.9835C51.1745 64.3694 51.6497 64.78 52.0305 65.0052C52.2508 65.1418 52.501 64.8581 52.3988 64.6317Z" fill="#E9E9E9"/>
<path d="M53.0536 66.3794C53.0249 66.4948 53.1376 66.643 53.2565 66.6462C53.6244 66.6706 53.9197 66.4462 54.1776 66.2033C54.439 65.9344 54.0558 65.4303 53.738 65.6251C53.4238 65.7939 53.1285 66.0183 53.0536 66.3794Z" fill="#E9E9E9"/>
<path d="M53.8712 64.0519C53.7061 64.2943 53.5185 64.5071 53.402 64.7828C53.362 64.8834 53.4261 64.9984 53.5415 65.0277C53.9546 65.1113 54.268 64.8496 54.4583 64.5178C54.7259 64.1038 54.1388 63.6379 53.8712 64.0519Z" fill="#E9E9E9"/>
<path d="M52.9588 63.8329C53.1126 63.5756 53.203 63.2963 53.2414 63.0098C53.2903 62.6451 52.7428 62.4765 52.6158 62.8304C52.4889 63.1842 52.4991 63.504 52.721 63.8265C52.7773 63.9007 52.9075 63.9187 52.9588 63.8329Z" fill="#E9E9E9"/>
<path d="M51.4979 66.8141C51.5056 66.855 51.5317 66.8586 51.5725 66.8509C51.6836 66.8133 51.799 66.8425 51.9023 66.7639C52.0907 66.6441 52.2791 66.5243 52.471 66.3784C52.7662 66.1539 52.4906 65.6383 52.1503 65.8034C51.9246 65.9048 51.7623 66.0282 51.6042 66.2186C51.4018 66.4426 51.4399 66.554 51.4979 66.8141Z" fill="#E9E9E9"/>
<path d="M52.4807 67.3088C52.4251 67.3276 52.4034 67.391 52.4224 67.4467C52.5376 67.8738 52.9226 68.1659 53.1636 68.5441C53.4159 68.9372 53.9655 68.4959 53.7393 68.1065C53.4758 67.6986 53.018 67.1577 52.4807 67.3088Z" fill="#E9E9E9"/>
<path d="M52.1468 68.336C52.1747 68.1277 51.9311 67.8684 51.7019 67.9959C51.4874 68.1121 51.0497 68.6087 51.3194 68.8715C51.6524 69.1564 52.1084 68.6226 52.1468 68.336Z" fill="#E9E9E9"/>
<path d="M50.0797 67.825C50.2464 67.7685 50.2568 67.6903 50.3862 67.6154C50.46 67.5593 50.4332 67.4627 50.3586 67.4258C50.3213 67.4074 50.2537 67.3185 50.2051 67.2852C50.0932 67.2299 49.9517 67.1971 49.8363 67.1678C49.7011 66.9899 49.4746 66.9984 49.2427 67.2449C49.0551 67.4577 49.2257 67.866 49.5156 67.8796C49.7013 67.8787 49.913 67.8815 50.0797 67.825Z" fill="#E9E9E9"/>
<path d="M50.2385 65.95C50.3947 65.9716 50.5493 65.8073 50.4774 65.6514C50.3639 65.4102 50.2251 65.2584 50.0048 65.1217C49.441 64.7784 49.0515 65.7061 49.7066 65.8631C49.8888 65.8883 50.0415 65.936 50.2385 65.95Z" fill="#E9E9E9"/>
<path d="M49.3126 69.4832C49.1953 69.6659 49.2264 69.8294 49.3799 69.9701C49.6496 70.2329 50.6635 69.7896 50.4225 69.4113C50.2197 69.1445 49.4811 69.2147 49.3126 69.4832Z" fill="#E9E9E9"/>
<path d="M52.1652 70.0241C52.4185 70.1122 52.6711 70.1073 52.9244 70.1955C53.1777 70.2836 53.4276 70.3978 53.6828 70.2739C53.7826 70.2214 53.8226 70.1208 53.7958 70.0242C53.627 69.404 52.4782 69.2715 52.0621 69.7047C51.9961 69.8017 52.0498 69.9948 52.1652 70.0241Z" fill="#E9E9E9"/>
<path d="M55.5263 67.7299C55.806 67.4237 55.3012 67.0355 55.0216 67.3417C54.8192 67.5657 54.6203 67.7637 54.5376 68.0839C54.5159 68.1472 54.561 68.2065 54.6278 68.2025C54.9992 68.2008 55.2762 68.0137 55.5263 67.7299Z" fill="#E9E9E9"/>
<path d="M55.2424 66.0467C54.7979 66.1974 54.277 66.5233 54.2445 67.0627C54.2375 67.1148 54.2601 67.1444 54.3121 67.1516C54.595 67.2173 54.8129 67.075 55.0343 66.9067C55.3148 66.6935 55.387 66.4514 55.3656 66.1168C55.3725 66.0647 55.2979 66.0279 55.2424 66.0467Z" fill="#E9E9E9"/>
<path d="M54.6443 69.4521C54.5775 69.4561 54.5557 69.5194 54.6008 69.5787C54.7959 69.8047 54.9945 70.0047 55.2191 70.2082C55.3726 70.3488 55.5427 70.2662 55.627 70.132C55.627 70.132 55.6383 70.1468 55.6235 70.158C55.7008 70.0759 55.6888 69.9681 55.6507 69.8567C55.6394 69.8419 55.6394 69.8419 55.6429 69.8158C55.6203 69.7862 55.5978 69.7565 55.564 69.7121C55.2986 69.5161 54.9932 69.4208 54.6443 69.4521Z" fill="#E9E9E9"/>
<path d="M54.6953 71.78C54.4516 71.5208 54.1776 71.1911 53.8349 71.0773C53.7083 71.0332 53.6049 71.1118 53.6135 71.2456C53.6245 71.6584 53.921 72.0178 54.2498 72.2357C54.5412 72.4352 54.9615 72.0689 54.6953 71.78Z" fill="#E9E9E9"/>
<path d="M53.5636 73.5729C53.675 73.1373 53.5695 72.539 53.24 72.2281C53.1689 72.1652 53.069 72.2177 53.0473 72.281C52.8535 72.6389 52.8505 73.1558 52.9023 73.5609C52.9393 73.9773 53.4887 73.9339 53.5636 73.5729Z" fill="#E9E9E9"/>
<path d="M51.1065 73.1685C50.8773 73.296 50.5708 73.5056 50.4093 73.722C50.2955 73.8787 50.3421 74.1239 50.5321 74.19C51.0761 74.3847 51.8724 73.6857 51.8008 73.132C51.793 73.0911 51.7705 73.0614 51.7332 73.043C51.4798 72.9549 51.3097 73.0375 51.1065 73.1685Z" fill="#E9E9E9"/>
<path d="M48.2939 72.1279C48.2104 72.3551 48.4471 72.6665 48.6911 72.5278C49.0644 72.3142 49.4657 71.8922 49.6031 71.4602C49.6318 71.3448 49.5677 71.2298 49.434 71.2378C48.9663 71.2659 48.4687 71.7144 48.2939 72.1279Z" fill="#E9E9E9"/>
<path d="M47.6888 71.0224C47.9604 71.0732 48.1783 70.9309 48.3624 70.7442C48.4397 70.662 48.4051 70.5246 48.3227 70.4469C48.0495 70.2101 47.7189 70.2041 47.4722 70.4618C47.2734 70.6598 47.4693 70.9787 47.6888 71.0224Z" fill="#E9E9E9"/>
<path d="M49.0572 73.7719C49.5552 73.8143 49.967 73.3142 49.9257 72.8309C49.9171 72.6971 49.7453 72.5937 49.6307 72.6574C49.3312 72.815 48.9692 73.0434 48.8084 73.3528C48.7319 73.5279 48.8862 73.7615 49.0572 73.7719Z" fill="#E9E9E9"/>
<path d="M48.4 69.1451C48.4811 68.639 48.0501 68.1946 47.7388 67.8465C47.405 67.4686 46.8145 67.9175 47.1189 68.3178C47.4119 68.7032 47.8021 69.1552 48.3262 69.2012C48.367 69.1936 48.3965 69.1711 48.4 69.1451Z" fill="#E9E9E9"/>
<path d="M47.3245 66.688C47.5056 67.0182 47.9117 67.154 48.2667 66.9776C48.4369 66.8951 48.4466 66.724 48.3191 66.5869C48.1318 66.4018 47.8369 66.2284 47.5626 66.2965C47.3994 66.327 47.2153 66.5137 47.3245 66.688Z" fill="#E9E9E9"/>
<path d="M49.8235 64.2082C49.8541 63.8808 49.8074 63.6355 49.6045 63.3687C49.3826 63.0461 48.8912 63.3496 49.0168 63.6986C49.1571 64.0364 49.3739 64.199 49.7496 64.2643C49.8017 64.2715 49.8312 64.249 49.8235 64.2082Z" fill="#E9E9E9"/>
<path d="M51.0925 63.0972C51.3765 62.8579 51.5303 62.6006 51.6052 62.2396C51.6914 61.8933 51.1404 61.7507 51.0169 62.0785C50.8934 62.4063 50.8811 62.6965 50.9546 63.0383C50.9736 63.094 51.0482 63.1308 51.0925 63.0972Z" fill="#E9E9E9"/>
<path d="M54.7118 62.7094C54.9697 62.4665 54.7349 61.9432 54.3912 62.1344C54.0769 62.3032 53.8675 62.5793 53.9636 62.9507C54.0025 63.1551 54.2445 63.2284 54.3844 63.0753C54.4687 62.9411 54.579 62.8104 54.7118 62.7094Z" fill="#E9E9E9"/>
<path d="M54.9332 65.1818C54.941 65.2227 54.986 65.282 55.0268 65.2744C55.3167 65.288 55.6084 65.0896 55.8298 64.9213C56.125 64.6968 55.8538 64.2481 55.5204 64.3611C55.1984 64.489 54.8632 64.814 54.9332 65.1818Z" fill="#E9E9E9"/>
<path d="M56.652 69.3049C56.8742 69.2295 56.9014 68.9282 56.7218 68.784C56.4113 68.5287 55.8802 68.5348 55.6379 68.8594C55.5571 68.9676 55.6065 69.0939 55.7184 69.1491C56.002 69.3078 56.3595 69.4103 56.652 69.3049Z" fill="#E9E9E9"/>
<path d="M55.0361 71.2575C55.1236 71.4952 55.3552 71.6466 55.5938 71.746C55.9963 71.9078 56.258 71.241 55.8485 71.1312C55.6325 71.0615 55.4017 71.003 55.1717 71.0375C55.0641 71.0492 55.0093 71.161 55.0361 71.2575Z" fill="#E9E9E9"/>
<path d="M48.3328 65.5268C48.3884 65.5079 48.4474 65.463 48.4284 65.4073C48.3592 65.1325 48.3482 64.7197 47.9282 64.6881C47.7572 64.6777 47.5984 64.7751 47.5887 64.9462C47.5033 65.3854 47.9657 65.5953 48.3328 65.5268Z" fill="#E9E9E9"/>
<path d="M45.9692 70.0152C46.2416 70.159 46.449 70.0949 46.6852 69.9153C46.759 69.8592 46.832 69.7101 46.7679 69.5951C46.5911 69.3319 46.2309 69.3484 45.9679 69.4313C45.6788 69.5107 45.7454 69.9046 45.9692 70.0152Z" fill="#E9E9E9"/>
<path d="M59.73 79.8126C59.6025 79.6756 59.3943 79.6468 59.2657 79.8147C59.0234 80.1393 59.1358 80.6855 59.3021 81.0269C59.3437 81.1122 59.4478 81.1266 59.5104 81.0557C59.8013 80.7643 60.0413 80.1608 59.73 79.8126Z" fill="#E9E9E9"/>
<path d="M60.3559 81.0664C60.3862 81.1369 60.4608 81.1737 60.5571 81.1473C60.946 81.0154 61.5169 80.0199 60.9244 79.792C60.3466 79.5529 60.2233 80.7694 60.3559 81.0664Z" fill="#E9E9E9"/>
<path d="M60.7581 73.575C60.5762 73.1519 60.0003 72.7008 59.5283 72.662C59.3981 72.6439 59.247 72.7822 59.3337 72.9269C59.5338 73.3127 60.0091 73.7234 60.3899 73.9486C60.599 74.0703 60.8491 73.7866 60.7581 73.575Z" fill="#E9E9E9"/>
<path d="M62.511 75.1433C62.7724 74.8744 62.3892 74.3704 62.0714 74.5652C61.7572 74.7339 61.488 74.9619 61.3983 75.3342C61.3696 75.4496 61.4823 75.5979 61.6012 75.6011C61.9726 75.5994 62.2531 75.3862 62.511 75.1433Z" fill="#E9E9E9"/>
<path d="M62.22 72.9809C62.055 73.2234 61.8674 73.4362 61.7509 73.7119C61.7109 73.8125 61.775 73.9275 61.8904 73.9567C62.3034 74.0404 62.6169 73.7787 62.8072 73.4469C63.0748 73.0329 62.4989 72.5818 62.22 72.9809Z" fill="#E9E9E9"/>
<path d="M61.3041 72.7616C61.4579 72.5043 61.5484 72.225 61.5868 71.9385C61.6357 71.5738 61.0882 71.4052 60.9612 71.7591C60.8343 72.1129 60.8444 72.4327 61.0664 72.7552C61.1079 72.8406 61.2529 72.8474 61.3041 72.7616Z" fill="#E9E9E9"/>
<path d="M60.8078 75.3183C61.103 75.0939 60.8274 74.5782 60.4871 74.7433C60.2614 74.8447 60.0991 74.9682 59.941 75.1585C59.7794 75.375 59.8175 75.4863 59.8494 75.7428C59.8572 75.7837 59.8832 75.7873 59.924 75.7797C60.0351 75.742 60.1505 75.7712 60.2539 75.6927C60.4275 75.584 60.6159 75.4642 60.8078 75.3183Z" fill="#E9E9E9"/>
<path d="M62.0752 77.0459C61.8265 76.6268 61.3539 76.0971 60.8166 76.2483C60.7611 76.2671 60.7393 76.3304 60.7584 76.3861C60.8735 76.8133 61.2586 77.1053 61.4996 77.4836C61.7666 77.8654 62.3275 77.439 62.0752 77.0459Z" fill="#E9E9E9"/>
<path d="M60.5062 77.2804C60.5341 77.072 60.2905 76.8128 60.0613 76.9402C59.8468 77.0565 59.4091 77.553 59.6788 77.8158C59.9858 78.0971 60.4678 77.5669 60.5062 77.2804Z" fill="#E9E9E9"/>
<path d="M58.4391 76.7683C58.6057 76.7118 58.6162 76.6337 58.7456 76.5587C58.8194 76.5026 58.7926 76.4061 58.718 76.3692C58.6807 76.3508 58.613 76.2618 58.5645 76.2286C58.4525 76.1733 58.3111 76.1404 58.1957 76.1112C58.0605 75.9333 57.834 75.9418 57.6021 76.1882C57.4145 76.401 57.5851 76.8093 57.875 76.8229C58.0494 76.8073 58.2464 76.8213 58.4391 76.7683Z" fill="#E9E9E9"/>
<path d="M58.8211 74.5801C58.7076 74.3389 58.5689 74.1871 58.3486 74.0505C57.7847 73.7071 57.3953 74.6348 58.0504 74.7918C58.2438 74.8319 58.3965 74.8795 58.5935 74.8935C58.7384 74.9003 58.893 74.736 58.8211 74.5801Z" fill="#E9E9E9"/>
<path d="M58.7676 78.3662C58.5682 78.0733 57.8409 78.1584 57.6724 78.4269C57.5551 78.6096 57.5862 78.7731 57.7397 78.9137C57.9946 79.1878 59.0086 78.7445 58.7676 78.3662Z" fill="#E9E9E9"/>
<path d="M60.4282 78.6488C60.3361 78.7422 60.3898 78.9353 60.5164 78.9794C60.7698 79.0675 61.0223 79.0627 61.2756 79.1508C61.529 79.2389 61.7788 79.3531 62.0341 79.2292C62.1339 79.1767 62.1739 79.0761 62.1471 78.9796C61.9931 78.348 60.8442 78.2156 60.4282 78.6488Z" fill="#E9E9E9"/>
<path d="M63.8857 76.6738C64.1654 76.3676 63.6606 75.9793 63.3809 76.2855C63.1786 76.5096 62.9797 76.7075 62.897 77.0277C62.8753 77.091 62.9204 77.1503 62.9872 77.1463C63.3473 77.1298 63.6243 76.9427 63.8857 76.6738Z" fill="#E9E9E9"/>
<path d="M63.7171 75.0719C63.7128 75.005 63.6495 74.983 63.5939 75.0018C63.1495 75.1525 62.6286 75.4784 62.5961 76.0177C62.5891 76.0698 62.6116 76.0995 62.6637 76.1067C62.9465 76.1724 63.1645 76.0301 63.3859 75.8618C63.6811 75.6373 63.7386 75.4065 63.7171 75.0719Z" fill="#E9E9E9"/>
<path d="M63.9112 78.6663C63.6493 78.4444 63.3291 78.3603 62.9802 78.3916C62.9134 78.3956 62.8917 78.4589 62.9367 78.5182C63.1318 78.7442 63.3304 78.9441 63.555 79.1476C63.7085 79.2883 63.8787 79.2057 63.963 79.0715C63.963 79.0715 63.9742 79.0863 63.9595 79.0975C64.0368 79.0153 64.0394 78.8963 63.9866 78.7962C63.9753 78.7813 63.9753 78.7813 63.9788 78.7553C63.9823 78.7292 63.9485 78.6848 63.9112 78.6663Z" fill="#E9E9E9"/>
<path d="M63.0468 80.7234C62.8032 80.4642 62.5292 80.1344 62.1865 80.0207C62.0598 79.9766 61.9565 80.0552 61.9651 80.189C61.9761 80.6017 62.2726 80.9611 62.6013 81.1791C62.8815 81.3638 63.3131 81.0123 63.0468 80.7234Z" fill="#E9E9E9"/>
<path d="M61.3778 81.2217C61.184 81.5796 61.181 82.0965 61.2328 82.5016C61.2845 82.9067 61.8191 82.8746 61.9088 82.5023C62.0202 82.0667 61.9148 81.4685 61.5853 81.1576C61.5141 81.0946 61.4143 81.1472 61.3778 81.2217Z" fill="#E9E9E9"/>
<path d="M59.4425 82.108C59.2133 82.2354 58.9068 82.445 58.7452 82.6615C58.6314 82.8181 58.6781 83.0634 58.8681 83.1295C59.412 83.3241 60.2084 82.6252 60.1367 82.0714C60.129 82.0305 60.1064 82.0009 60.0691 81.9825C59.8305 81.8831 59.6717 81.9805 59.4425 82.108Z" fill="#E9E9E9"/>
<path d="M57.0522 81.4709C57.4255 81.2573 57.8267 80.8353 57.9642 80.4033C57.9929 80.2879 57.9287 80.1729 57.7951 80.1809C57.3273 80.209 56.8185 80.6427 56.6698 81.0599C56.5602 81.2835 56.8082 81.6096 57.0522 81.4709Z" fill="#E9E9E9"/>
<path d="M55.8048 79.4019C55.6059 79.5999 55.8018 79.9188 56.0361 79.9512C56.3077 80.0021 56.5256 79.8598 56.7097 79.6731C56.787 79.5909 56.7524 79.4535 56.67 79.3757C56.3821 79.1502 56.0662 79.133 55.8048 79.4019Z" fill="#E9E9E9"/>
<path d="M57.9885 81.6012C57.689 81.7588 57.3269 81.9872 57.1661 82.2966C57.0784 82.4569 57.2179 82.7017 57.4036 82.7009C57.9017 82.7433 58.3134 82.2431 58.2721 81.7599C58.2748 81.6409 58.1143 81.5523 57.9885 81.6012Z" fill="#E9E9E9"/>
<path d="M56.7516 78.0738C56.8326 77.5677 56.4017 77.1234 56.0904 76.7752C55.7566 76.3973 55.1661 76.8462 55.4704 77.2465C55.7635 77.6319 56.1536 78.0839 56.6778 78.1299C56.7298 78.1371 56.7593 78.1147 56.7516 78.0738Z" fill="#E9E9E9"/>
<path d="M55.912 75.2254C55.7489 75.2559 55.5908 75.4462 55.674 75.6169C55.8551 75.9471 56.2611 76.0829 56.6162 75.9065C56.7863 75.8239 56.796 75.6528 56.6686 75.5158C56.4665 75.3419 56.1716 75.1685 55.912 75.2254Z" fill="#E9E9E9"/>
<path d="M58.1828 73.1515C58.2134 72.8241 58.1668 72.5789 57.9639 72.3121C57.742 71.9895 57.2506 72.2929 57.3761 72.6419C57.5165 72.9797 57.7333 73.1424 58.109 73.2076C58.1498 73.2 58.1793 73.1776 58.1828 73.1515Z" fill="#E9E9E9"/>
<path d="M59.4441 72.0268C59.728 71.7876 59.8818 71.5303 59.9567 71.1692C60.0429 70.823 59.492 70.6804 59.3685 71.0082C59.245 71.336 59.2326 71.6262 59.3061 71.968C59.3252 72.0237 59.3998 72.0605 59.4441 72.0268Z" fill="#E9E9E9"/>
<path d="M62.709 72.0007C62.8194 71.87 62.9262 71.7654 63.0478 71.6496C63.3057 71.4067 63.0709 70.8834 62.7271 71.0746C62.4128 71.2434 62.2035 71.5195 62.2995 71.8909C62.3384 72.0953 62.5692 72.1538 62.709 72.0007Z" fill="#E9E9E9"/>
<path d="M64.1964 73.8646C64.4917 73.6402 64.2204 73.1914 63.8871 73.3045C63.5537 73.4175 63.2185 73.7425 63.2885 74.1104C63.2963 74.1513 63.3414 74.2106 63.3822 74.2029C63.6833 74.2314 63.975 74.033 64.1964 73.8646Z" fill="#E9E9E9"/>
<path d="M65.0812 77.7283C64.7707 77.4731 64.2396 77.4792 63.9972 77.8038C63.9165 77.912 63.9658 78.0382 64.0777 78.0935C64.3501 78.2373 64.7189 78.3547 65.0262 78.238C65.2223 78.159 65.2347 77.8689 65.0812 77.7283Z" fill="#E9E9E9"/>
<path d="M63.5231 79.9665C63.4155 79.9781 63.3608 80.0899 63.3876 80.1865C63.4751 80.4241 63.7067 80.5756 63.9452 80.6749C64.3478 80.8367 64.6095 80.1699 64.2 80.0602C63.9839 79.9905 63.7531 79.932 63.5231 79.9665Z" fill="#E9E9E9"/>
<path d="M56.6766 74.4557C56.7321 74.4369 56.7912 74.392 56.7721 74.3363C56.7029 74.0614 56.6919 73.6487 56.2719 73.6171C56.101 73.6067 55.9421 73.7041 55.9324 73.8752C55.8471 74.3144 56.3095 74.5243 56.6766 74.4557Z" fill="#E9E9E9"/>
<path d="M55.0305 78.8439C55.1043 78.7878 55.1773 78.6387 55.1131 78.5237C54.9363 78.2604 54.5761 78.2769 54.3131 78.3599C54.0093 78.4505 54.0906 78.8332 54.3144 78.9437C54.5721 79.0988 54.7943 79.0234 55.0305 78.8439Z" fill="#E9E9E9"/>
<path d="M67.6506 62.3243C67.6532 62.2053 67.5336 62.1091 67.4294 62.0947C67.2212 62.0659 67.0467 62.0815 66.8921 62.2458C66.8591 62.2943 66.8782 62.35 66.9007 62.3797C67.1141 62.5684 67.6693 62.7779 67.6506 62.3243Z" fill="#E9E9E9"/>
<path d="M67.6628 61.1457C67.8893 61.1372 68.0951 60.8872 68.2124 60.7044C68.421 60.3353 67.957 59.9395 67.6703 60.2978C67.5783 60.3912 67.3174 61.1509 67.6628 61.1457Z" fill="#E9E9E9"/>
<path d="M69.5933 60.1921C69.2782 60.2679 68.9857 60.3733 68.877 60.6899C68.8587 60.7272 68.8813 60.7568 68.9186 60.7753C69.1684 60.8894 69.4097 60.8698 69.6692 60.8128C70.0659 60.7218 69.99 60.1011 69.5933 60.1921Z" fill="#E9E9E9"/>
<path d="M66.4669 58.3135C66.373 58.6188 66.3311 58.9314 66.5895 59.1794C66.6121 59.209 66.6789 59.205 66.6971 59.1678C66.8292 58.9738 66.9127 58.7466 66.9927 58.5454C67.0361 58.4188 67.0015 58.2813 66.9044 58.2148C66.8558 58.1816 66.8185 58.1631 66.7665 58.1559C66.6511 58.1267 66.5217 58.2017 66.4669 58.3135Z" fill="#E9E9E9"/>
<path d="M68.3755 58.5242C68.325 58.7029 68.2337 58.8893 68.2466 59.0901C68.2544 59.1309 68.2804 59.1345 68.3177 59.153C68.6153 59.2074 68.8142 59.0094 68.942 58.7485C69.1062 58.4131 68.4764 58.1668 68.3755 58.5242Z" fill="#E9E9E9"/>
<path d="M67.6357 57.6539C67.793 57.3706 67.7498 57.0993 67.6173 56.8024C67.4015 56.3347 66.6957 56.7544 67.0147 57.1434C67.1725 57.351 67.3225 57.5177 67.5429 57.6543C67.5654 57.6839 67.6175 57.6911 67.6357 57.6539Z" fill="#E9E9E9"/>
<path d="M65.5701 55.1528C65.7617 55.4049 65.9967 55.5303 66.3239 55.5623C66.6883 55.6127 66.858 55.0393 66.4893 54.9219C66.2472 54.8486 66.0129 54.8162 65.7604 54.821C65.6007 54.8254 65.4574 55.0046 65.5701 55.1528Z" fill="#E9E9E9"/>
<path d="M69.2454 56.8281C69.2174 57.0365 69.2078 57.2076 69.3282 57.3967C69.3508 57.4263 69.3768 57.4299 69.4176 57.4223C69.6511 57.3618 69.7276 57.1867 69.8449 57.0039C69.9144 56.8809 69.8425 56.725 69.7488 56.6325C69.6777 56.5696 69.6257 56.5624 69.518 56.574C69.3731 56.5672 69.2776 56.6866 69.2454 56.8281Z" fill="#E9E9E9"/>
<path d="M67.9311 55.9156C68.3014 56.2189 68.7244 55.7335 68.6431 55.3509C68.5887 55.0648 68.1531 54.9514 68.0444 55.268C67.9974 55.4207 67.7628 55.7862 67.9311 55.9156Z" fill="#E9E9E9"/>
<path d="M66.2974 54.0452C66.4128 54.0744 66.5092 54.048 66.5639 53.9361C66.5674 53.9101 66.5969 53.8877 66.6004 53.8616C66.6404 53.761 66.6171 53.6384 66.5607 53.5643C66.4029 53.3567 66.2044 53.1568 65.9266 53.251C65.9118 53.2622 65.8823 53.2847 65.8788 53.3107C65.8552 53.586 66.0146 53.9795 66.2974 54.0452Z" fill="#E9E9E9"/>
<path d="M63.954 53.018C64.1607 52.8609 64.0394 52.5788 63.8234 52.5091C63.5032 52.425 63.0102 52.5425 62.872 52.8815C62.8355 52.956 62.8623 53.0526 62.9369 53.0895C63.2248 53.315 63.6883 53.22 63.954 53.018Z" fill="#E9E9E9"/>
<path d="M70.3336 58.4377C70.0601 58.5988 69.7345 58.7527 69.5998 59.0657C69.5598 59.1663 69.6162 59.2404 69.7055 59.266C69.9997 59.3465 70.2992 59.189 70.5769 59.0948C71.0136 58.9032 70.7069 58.224 70.3336 58.4377Z" fill="#E9E9E9"/>
<path d="M72.726 59.7771C72.6525 59.4353 72.5417 59.0751 72.1729 58.9577C72.1096 58.9357 72.0393 58.9658 72.0175 59.0291C71.8715 59.3272 71.9893 59.6354 72.0663 59.9511C72.1476 60.3338 72.8073 60.1598 72.726 59.7771Z" fill="#E9E9E9"/>
<path d="M71.6487 61.5516C72.0687 61.5832 72.149 60.9841 71.7359 60.9005C71.401 60.8276 70.8777 60.8745 70.7585 61.2692C70.7368 61.3326 70.7706 61.377 70.8079 61.3955C71.0542 61.5357 71.3736 61.5268 71.6487 61.5516Z" fill="#E9E9E9"/>
<path d="M73.3619 61.8681C73.3903 62.1506 73.3258 62.4335 73.4211 62.712C73.4479 62.8086 73.5746 62.8526 73.6597 62.8113C74.1006 62.6866 74.1817 62.1805 74.1299 61.7754C74.0886 61.2922 73.3093 61.37 73.3619 61.8681Z" fill="#E9E9E9"/>
<path d="M74.389 63.496C74.3447 63.5296 74.3082 63.6042 74.3125 63.6711C74.3238 63.6859 74.309 63.6971 74.3203 63.712C74.3774 63.8791 74.7011 63.9371 74.8503 64.0108C75.2233 64.1951 75.4781 63.5804 75.1015 63.4221C74.8257 63.3044 74.6104 63.3276 74.389 63.496Z" fill="#E9E9E9"/>
<path d="M75.5845 64.8555C75.2088 64.7902 74.8486 64.8067 74.5837 65.1016C74.5542 65.1241 74.5732 65.1798 74.5993 65.1834C74.8386 65.3757 75.118 65.4674 75.3826 65.5704C75.8858 65.7727 76.1164 64.9424 75.5845 64.8555Z" fill="#E9E9E9"/>
<path d="M75.1593 66.6795C74.9529 66.4387 74.4819 66.095 74.1797 66.3715C74.165 66.3827 74.1502 66.394 74.1615 66.4088C74.2159 66.6949 74.5299 66.9241 74.7467 67.0867C74.9974 67.2939 75.3769 66.9352 75.1593 66.6795Z" fill="#E9E9E9"/>
<path d="M75.1306 67.9102C75.075 67.929 75.0533 67.9923 75.0871 68.0368C75.3125 68.3333 75.6292 68.4434 75.9901 68.5199C76.4031 68.6036 76.4904 67.9525 76.0739 67.8948C75.765 67.8255 75.4379 67.7935 75.1306 67.9102Z" fill="#E9E9E9"/>
<path d="M76.7472 65.9847C76.4694 66.079 76.2729 66.5558 76.4125 66.8007C76.4428 66.8712 76.5026 66.9192 76.5842 66.904C76.9331 66.8727 77.1894 66.4439 77.0977 66.1394C77.0518 65.9871 76.873 65.9358 76.7472 65.9847Z" fill="#E9E9E9"/>
<path d="M75.4348 69.8616C75.3757 69.9064 75.3878 70.0142 75.4511 70.0363C75.7678 70.1464 76.0219 70.3275 76.3518 70.2405C76.4481 70.2141 76.5211 70.065 76.4683 69.9648C76.2308 69.5605 75.7708 69.6295 75.4348 69.8616Z" fill="#E9E9E9"/>
<path d="M74.4334 71.1565C74.5729 71.4013 74.768 71.6273 74.9223 71.8609C74.9787 71.935 75.1158 71.9009 75.115 71.8079C75.1378 71.4397 75.217 71.1455 75.0802 70.7817C74.8975 70.2656 74.143 70.652 74.4334 71.1565Z" fill="#E9E9E9"/>
<path d="M73.3373 72.9532C73.2149 72.976 73.1081 73.0806 73.0942 73.1848C73.0705 73.4601 73.0729 73.739 73.2828 73.9538C73.3053 73.9834 73.3574 73.9906 73.3756 73.9534C73.5485 73.7518 73.6059 73.521 73.6556 73.2493C73.673 73.119 73.5976 72.9892 73.4822 72.96C73.4302 72.9528 73.3894 72.9604 73.3373 72.9532Z" fill="#E9E9E9"/>
<path d="M71.6902 74.9282C71.4054 75.0745 71.1805 75.2689 71.012 75.5374C70.9755 75.6119 70.991 75.6937 71.0804 75.7193C71.3815 75.7477 71.6593 75.6535 71.9293 75.5184C72.3104 75.3457 72.06 74.7406 71.6902 74.9282Z" fill="#E9E9E9"/>
<path d="M69.8355 74.765C69.5256 75.0007 69.4775 75.4583 69.4286 75.823C69.3693 76.2658 69.9975 76.3262 70.1054 75.9166C70.2064 75.5592 70.2805 75.1052 70.0438 74.7938C69.9727 74.7309 69.8946 74.7201 69.8355 74.765Z" fill="#E9E9E9"/>
<path d="M68.6304 77.2778C68.9071 77.4885 69.19 77.5542 69.5284 77.601C69.5804 77.6082 69.6247 77.5746 69.617 77.5337C69.6312 77.0316 69.2904 76.7059 68.7853 76.7156C68.492 76.728 68.4136 77.1151 68.6304 77.2778Z" fill="#E9E9E9"/>
<path d="M67.3985 75.5685C67.0442 75.8378 67.4613 76.3864 67.8155 76.117C67.9484 76.016 68.6569 75.4774 68.3577 75.237C68.081 75.0263 67.6312 75.415 67.3985 75.5685Z" fill="#E9E9E9"/>
<path d="M66.008 75.017C65.961 75.1697 66.0069 75.3219 66.0267 75.4706C66.0933 75.8645 66.6348 75.7803 66.6204 75.3936C66.611 75.1668 66.4835 75.0298 66.2858 74.9228C66.2224 74.9008 66.0332 74.9276 66.008 75.017Z" fill="#E9E9E9"/>
<path d="M65.6338 75.7883C65.4336 75.4024 64.9267 75.6241 65.0305 76.0364C65.0616 76.1999 65.1713 76.8651 65.4604 76.7857C65.857 76.6947 65.7846 76.0479 65.6338 75.7883Z" fill="#E9E9E9"/>
<path d="M64.3584 74.9608C64.6863 75.0858 64.9668 74.8726 65.229 74.6966C65.5502 74.4758 65.167 73.9717 64.8571 74.2074C64.6356 74.3757 64.3882 74.5405 64.2977 74.8198C64.2907 74.8719 64.3098 74.9276 64.3584 74.9608Z" fill="#E9E9E9"/>
<path d="M65.0767 72.1687C64.8688 71.7419 64.2515 72.0942 64.5185 72.4761C64.6503 72.68 64.8115 72.8615 65.0206 72.9833C65.0319 72.9982 65.0727 72.9905 65.0874 72.9793C65.2525 72.7369 65.198 72.4508 65.0767 72.1687Z" fill="#E9E9E9"/>
<path d="M63.9692 71.6045C63.9354 71.56 63.846 71.5343 63.7905 71.5532C63.5057 71.6995 63.4778 71.9079 63.5287 72.22C63.5443 72.3018 63.6422 72.4612 63.7421 72.4087C64.0789 72.2696 64.1313 71.8789 63.9692 71.6045Z" fill="#E9E9E9"/>
<path d="M62.8471 69.8839C62.7301 69.6688 62.5879 69.543 62.3241 69.533C62.246 69.5222 62.187 69.5671 62.1617 69.6564C62.0938 69.9654 62.2663 70.1617 62.5457 70.2534C62.8025 70.3155 62.9789 70.0879 62.8471 69.8839Z" fill="#E9E9E9"/>
<path d="M61.3209 70.5089C61.35 69.9955 61.4718 69.4818 61.2891 68.9657C61.2017 68.7281 60.8675 68.7482 60.7728 68.9606C60.5476 69.5529 60.9117 70.0012 61.1465 70.5245C61.1768 70.595 61.3217 70.6018 61.3209 70.5089Z" fill="#E9E9E9"/>
<path d="M62.7984 68.4712C63.0871 68.7898 63.37 68.8554 63.7857 68.8201C63.8673 68.8049 63.8925 68.7155 63.8474 68.6562C63.6896 68.4487 63.5466 68.2299 63.374 68.0336C63.0628 67.6854 62.4871 68.123 62.7984 68.4712Z" fill="#E9E9E9"/>
<path d="M64.3653 66.5521C64.361 66.4852 64.3012 66.4371 64.2491 66.4299C63.9142 66.357 63.612 66.6335 63.4695 66.9056C63.36 67.1293 63.6071 67.3624 63.8441 67.2759C64.1253 67.1556 64.3607 66.8831 64.3653 66.5521Z" fill="#E9E9E9"/>
<path d="M62.0866 67.749C62.4191 67.543 62.3199 66.7997 62.117 66.5329C62.0719 66.4736 61.9938 66.4627 61.9348 66.5076C61.6396 66.7321 61.4342 67.473 61.7673 67.7579C61.8757 67.8392 61.9833 67.8276 62.0866 67.749Z" fill="#E9E9E9"/>
<path d="M60.7852 67.6092C60.7377 67.271 60.2761 67.1541 59.9976 67.1553C59.5107 67.1277 59.4235 67.7789 59.8998 67.8846C60.0786 67.9359 60.8552 67.9771 60.7852 67.6092Z" fill="#E9E9E9"/>
<path d="M59.2064 69.0486C58.6675 69.0138 58.6782 69.8245 59.2015 69.7775C59.4167 69.7542 59.6016 69.6604 59.8204 69.6111C59.8759 69.5923 59.8942 69.555 59.8604 69.5105C59.7096 69.2509 59.5075 69.077 59.2064 69.0486Z" fill="#E9E9E9"/>
<path d="M58.0234 71.3259C58.08 71.0021 58.0932 70.805 58.0049 70.4744C57.863 69.9507 56.9462 70.4605 57.444 70.9008C57.5975 71.0414 57.8178 71.1781 57.9418 71.3411C57.9643 71.3708 58.0051 71.3632 58.0234 71.3259Z" fill="#E9E9E9"/>
<path d="M57.8273 68.5532C57.7881 68.7467 57.6743 68.9034 57.6464 69.1118C57.6429 69.1379 57.6542 69.1527 57.6802 69.1563C58.0124 69.3482 58.3103 69.0047 58.4156 68.7142C58.5382 68.2934 57.9387 68.1176 57.8273 68.5532Z" fill="#E9E9E9"/>
<path d="M57.2942 67.4583C57.0957 67.2584 56.7747 67.0813 56.4814 67.0937C56.4146 67.0978 56.352 67.1687 56.3676 67.2504C56.4411 67.5922 56.7741 67.8771 57.1125 67.924C57.3763 67.9339 57.4703 67.6286 57.2942 67.4583Z" fill="#E9E9E9"/>
<path d="M57.7559 66.1283C57.4016 66.3976 58.1793 67.4206 58.5005 67.1997C58.9251 66.9003 58.1987 65.7916 57.7559 66.1283Z" fill="#E9E9E9"/>
<path d="M56.839 65.2584C56.5438 65.4829 56.4681 65.751 56.6084 66.0888C56.6275 66.1445 56.7021 66.1813 56.7498 66.1216C56.9044 65.9573 57.0816 65.8226 57.2362 65.6583C57.4533 65.4231 57.0899 65.0677 56.839 65.2584Z" fill="#E9E9E9"/>
<path d="M56.6775 63.9505C56.7739 63.9241 56.8216 63.8643 56.8208 63.7714C56.8184 63.4925 56.6086 63.2777 56.3553 63.1896C56.0759 63.0979 55.7815 63.4153 55.9843 63.6821C56.1569 63.8785 56.418 64.0075 56.6775 63.9505Z" fill="#E9E9E9"/>
<path d="M53.4394 61.763C53.469 61.7406 53.502 61.6921 53.4942 61.6512C53.4518 61.4729 53.3469 61.3655 53.2012 61.2658C53.0104 61.1067 52.745 60.9108 52.4846 60.8748C52.3432 60.8419 52.1808 60.9654 52.1747 61.1104C52.1456 61.6238 52.9818 62.1109 53.4394 61.763Z" fill="#E9E9E9"/>
<path d="M54.6933 60.8501C54.6831 60.5304 54.5991 60.2667 54.4778 59.9846C54.2621 59.517 53.604 59.8769 53.8753 60.3257C54.0487 60.615 54.2438 60.841 54.5717 60.966C54.6498 60.9768 54.6976 60.9171 54.6933 60.8501Z" fill="#E9E9E9"/>
<path d="M55.7485 60.0273C55.7971 60.0606 55.8674 60.0305 55.8744 59.9784C55.8781 59.5545 55.9549 58.9814 55.5551 58.7006C55.5065 58.6673 55.4397 58.6713 55.3954 58.705C54.838 59.1054 55.3747 59.7501 55.7485 60.0273Z" fill="#E9E9E9"/>
<path d="M56.2531 57.935C56.2974 57.9014 56.2931 57.8344 56.274 57.7787C56.157 57.5636 56.0218 57.3857 55.8127 57.2639C55.5811 57.1124 55.3154 57.3144 55.3994 57.5781C55.5328 57.968 55.9318 58.1559 56.2531 57.935Z" fill="#E9E9E9"/>
<path d="M57.5173 55.7092C57.4983 55.6535 57.4792 55.5978 57.4272 55.5906C56.9838 55.4364 56.6024 56.0071 56.7618 56.4006C56.7844 56.4302 56.8069 56.4599 56.8477 56.4523C57.1888 56.3801 57.5761 56.0623 57.5173 55.7092Z" fill="#E9E9E9"/>
<path d="M60.0312 54.5714C60.1015 54.5413 60.1788 54.4592 60.152 54.3626C60.0863 54.0617 59.7097 53.9034 59.432 53.9976C59.4172 54.0089 59.4025 54.0201 59.399 54.0461C59.3831 54.3623 59.7352 54.7029 60.0312 54.5714Z" fill="#E9E9E9"/>
<path d="M61.72 52.9615C61.878 52.7711 61.6414 52.4598 61.4157 52.5612C61.3011 52.6249 60.6846 53.0702 60.9943 53.2325C61.2667 53.3763 61.5619 53.1518 61.72 52.9615Z" fill="#E9E9E9"/>
<path d="M67.1168 77.3472C66.9719 77.3405 66.8833 77.4078 66.8511 77.5492C66.7832 77.8582 67.1438 78.3326 67.2946 78.5923C67.4792 78.8964 67.9862 78.6747 67.924 78.3477C67.8617 78.0208 67.496 77.3865 67.1168 77.3472Z" fill="#E9E9E9"/>
<path d="M65.7921 78.2641C65.7642 78.4725 65.7432 78.6288 65.8229 78.8255C65.842 78.8812 65.9053 78.9033 65.9496 78.8696C66.0564 78.765 66.1632 78.6604 66.27 78.5558C66.7199 78.167 65.8654 77.7172 65.7921 78.2641Z" fill="#E9E9E9"/>
<path d="M68.5965 78.5867C68.5036 78.5871 68.4003 78.6657 68.3603 78.7663C68.302 78.9041 68.295 78.9562 68.2889 79.1013C68.2854 79.1273 68.3079 79.157 68.3452 79.1754C68.4979 79.2231 68.5795 79.2078 68.7314 79.1625C68.8425 79.1248 68.9416 78.9794 68.9182 78.8568C68.9104 78.8159 68.9027 78.775 68.8949 78.7341C68.8793 78.6524 68.8082 78.5895 68.7266 78.6047C68.678 78.5715 68.6372 78.5791 68.5965 78.5867Z" fill="#E9E9E9"/>
<path d="M66.1702 79.9213C66.2048 80.0587 66.2764 80.6125 66.4986 80.5371C66.7729 80.469 66.8408 80.16 66.8462 79.922C66.8639 79.3938 66.0733 79.4568 66.1702 79.9213Z" fill="#E9E9E9"/>
<path d="M65.0325 79.7515C64.8977 80.0645 64.9417 80.4287 64.9224 80.7709C64.9108 81.154 65.454 81.2557 65.5211 80.8538C65.5847 80.4779 65.5365 80.0468 65.3293 79.713C65.2799 79.5868 65.0872 79.6397 65.0325 79.7515Z" fill="#E9E9E9"/>
<path d="M63.2397 82.2359C63.1807 82.2808 63.1927 82.3886 63.2561 82.4106C63.6291 82.5949 64.1253 82.8493 64.5453 82.8809C64.8204 82.9057 65.0142 82.5478 64.76 82.3668C64.3749 82.0747 63.6565 81.8957 63.2397 82.2359Z" fill="#E9E9E9"/>
<path d="M62.134 83.4754C62.1806 83.7207 62.2716 83.9322 62.3738 84.1586C62.4077 84.2031 62.4597 84.2103 62.4927 84.1618C62.6022 83.9382 62.697 83.7258 62.7171 83.4766C62.7617 83.045 62.0709 83.0555 62.134 83.4754Z" fill="#E9E9E9"/>
<path d="M60.7575 83.8424C60.4746 83.7768 60.2108 83.7668 59.9746 83.9463C59.9008 84.0024 59.8799 84.1587 59.9657 84.2104C60.1748 84.3322 60.3865 84.335 60.6026 84.4047C61.0121 84.5144 61.1705 83.9261 60.7575 83.8424Z" fill="#E9E9E9"/>
<path d="M61.0534 84.5329C60.9466 84.6375 60.5008 85.4911 60.9833 85.4517C61.2506 85.4357 61.4036 85.0854 61.547 84.9063C61.8006 84.5965 61.3036 84.2491 61.0534 84.5329Z" fill="#E9E9E9"/>
<path d="M58.5306 85.0458C58.416 85.1095 58.3986 85.2398 58.507 85.3211C58.7316 85.5246 59.07 85.5715 59.3676 85.6259C59.7398 85.7173 59.8201 85.1182 59.4479 85.0269C59.1503 84.9724 58.8006 84.9107 58.5306 85.0458Z" fill="#E9E9E9"/>
<path d="M57.7347 86.4738C57.7164 86.511 57.7355 86.5667 57.7728 86.5852C58.0226 86.6993 58.3828 86.6828 58.5669 86.4961C58.6147 86.4364 58.6512 86.3618 58.5948 86.2877C58.3582 85.9764 57.8617 86.1199 57.7347 86.4738Z" fill="#E9E9E9"/>
<path d="M55.3193 86.1538C55.2672 86.1466 55.2489 86.1838 55.2567 86.2247C55.3485 86.5292 55.5583 86.744 55.8272 86.9139C56.1447 87.117 56.4375 86.6137 56.087 86.459C55.8337 86.3709 55.6056 86.1934 55.3193 86.1538Z" fill="#E9E9E9"/>
<path d="M57.2243 85.0637C57.2087 84.982 57.1341 84.9451 57.0638 84.9752C56.6342 85.1147 56.3561 85.6068 56.3748 86.0604C56.3826 86.1013 56.4199 86.1197 56.4607 86.1121C56.9164 85.9762 57.2543 85.5322 57.2243 85.0637Z" fill="#E9E9E9"/>
<path d="M58.2103 84.1253C58.0466 83.6649 57.3255 83.6049 56.9133 83.6141C56.5939 83.623 56.5346 84.0658 56.7366 84.2397C57.107 84.543 57.783 84.5437 58.1815 84.2407C58.1998 84.2034 58.218 84.1662 58.2103 84.1253Z" fill="#E9E9E9"/>
<path d="M54.9986 85.1138C54.9461 84.6158 53.9952 85.479 53.9031 85.5724C53.8736 85.5948 53.8927 85.6505 53.9187 85.6541C54.31 85.8012 55.0625 85.6267 54.9986 85.1138Z" fill="#E9E9E9"/>
<path d="M55.4284 83.0779C55.0376 83.4218 55.0829 84.3699 55.5461 84.6728C55.5834 84.6912 55.6355 84.6984 55.6537 84.6612C55.9031 84.2844 55.948 83.455 55.6367 83.1068C55.5656 83.0439 55.4762 83.0182 55.4284 83.0779Z" fill="#E9E9E9"/>
<path d="M56.3659 82.6237C56.4067 82.6161 56.425 82.5788 56.4172 82.538C56.3464 82.0771 55.8424 81.7819 55.4399 81.62C55.0373 81.4582 54.6819 82.0325 55.0593 82.2837C55.4218 82.5461 55.925 82.7484 56.3659 82.6237Z" fill="#E9E9E9"/>
<path d="M52.7032 83.9347C52.6701 83.9831 52.6744 84.0501 52.723 84.0833C53.056 84.3682 53.6913 84.3765 54.0195 84.1036C54.2297 83.9204 54.1006 83.5975 53.822 83.5987C53.4619 83.6152 52.9385 83.6621 52.7032 83.9347Z" fill="#E9E9E9"/>
<path d="M53.4987 81.3388C53.4536 81.2795 53.3755 81.2687 53.2905 81.31C52.8329 81.6579 53.0569 82.6572 53.6078 82.7998C53.6712 82.8219 53.7267 82.803 53.7485 82.7397C53.9015 82.3895 53.7649 81.6277 53.4987 81.3388Z" fill="#E9E9E9"/>
<path d="M54.2258 80.2049C54.1364 80.1793 54.0704 80.2762 54.0712 80.3692C54.0891 80.7299 54.3596 81.0857 54.7641 81.0355C54.9125 81.0163 55.3049 80.8583 55.1618 80.6396C54.9659 80.3206 54.5347 80.2742 54.2258 80.2049Z" fill="#E9E9E9"/>
<path d="M51.8158 82.5514C51.6083 82.6155 51.3341 82.6837 51.2133 82.8925C51.195 82.9297 51.188 82.9818 51.2106 83.0115C51.4169 83.2523 51.7468 83.1653 52.0211 83.0971C52.3804 82.9877 52.1604 82.4532 51.8158 82.5514Z" fill="#E9E9E9"/>
<path d="M51.4966 80.2648C51.0313 80.5718 51.2207 81.4337 51.5762 81.7482C51.6361 81.7963 51.7064 81.7662 51.7281 81.7029C51.9219 81.345 52.0084 80.6009 51.7049 80.2936C51.6598 80.2343 51.5704 80.2086 51.4966 80.2648Z" fill="#E9E9E9"/>
<path d="M52.3809 79.008C52.3175 78.986 52.2325 79.0273 52.2367 79.0942C52.1766 79.444 52.303 79.886 52.6057 80.1003C52.7028 80.1668 53.1174 80.4365 53.227 80.2128C53.4495 79.7396 52.7721 79.155 52.3809 79.008Z" fill="#E9E9E9"/>
<path d="M53.6374 76.4889C53.6035 76.4444 53.5367 76.4484 53.4924 76.4821C53.1537 76.8332 52.9033 77.5148 52.9966 78.0053C53.0313 78.1427 53.1917 78.2313 53.2986 78.1267C53.7562 77.7788 53.9685 76.9857 53.6374 76.4889Z" fill="#E9E9E9"/>
<path d="M54.3938 76.4741C54.1549 76.7726 54.1737 77.2263 54.3956 77.5488C54.4632 77.6378 54.759 77.9042 54.8537 77.6918C55.0067 77.3416 54.8049 76.7698 54.576 76.4993C54.5344 76.414 54.4563 76.4031 54.3938 76.4741Z" fill="#E9E9E9"/>
<path d="M54.6332 75.4991C54.6627 75.4767 54.6697 75.4246 54.6471 75.3949C54.4555 75.1429 54.1494 74.9546 53.877 74.8108C53.7911 74.7591 53.6427 74.7784 53.5801 74.8493C53.1859 75.2192 53.8235 75.5064 54.0656 75.5797C54.2556 75.6458 54.4595 75.6077 54.6332 75.4991Z" fill="#E9E9E9"/>
<path d="M55.0229 72.8604C54.5283 72.792 54.3879 73.7409 54.6429 74.0149C54.7365 74.1075 54.8779 74.1403 54.9735 74.0209C55.1316 73.8305 55.4655 72.9217 55.0229 72.8604Z" fill="#E9E9E9"/>
<path d="M55.9288 72.8269C55.9755 73.0722 56.1542 73.1234 56.3885 73.1559C56.5187 73.1739 56.6333 73.1102 56.6768 72.9835C56.6803 72.9575 56.6985 72.9202 56.702 72.8942C56.7238 72.8308 56.7082 72.7491 56.6596 72.7158C56.4463 72.5271 56.2093 72.6137 55.9688 72.7264C55.9506 72.7636 55.9211 72.7861 55.9288 72.8269Z" fill="#E9E9E9"/>
<path d="M51.9813 75.8083C51.8955 75.7566 51.8139 75.7718 51.655 75.8692C51.4371 76.0115 51.5261 76.4351 51.816 76.4487C52.1466 76.4546 52.4434 76.4161 52.6675 76.1288C52.6971 76.1063 52.678 76.0506 52.652 76.047C52.4647 75.8619 52.2191 75.8147 51.9813 75.8083Z" fill="#E9E9E9"/>
<path d="M52.1225 75.1122C52.2129 74.8329 52.2591 74.5873 52.0528 74.3465C52.0302 74.3168 51.9782 74.3096 51.9486 74.3321C51.768 74.4928 51.6802 74.6531 51.582 74.8915C51.4177 75.2269 52.0103 75.4549 52.1225 75.1122Z" fill="#E9E9E9"/>
<path d="M52.019 78.2806C52.078 78.2357 52.0885 78.1576 52.0434 78.0983C51.8891 77.8647 51.6505 77.7653 51.3972 77.6772C50.887 77.527 50.6964 78.2567 51.2101 78.3809C51.4929 78.4466 51.7828 78.4602 52.019 78.2806Z" fill="#E9E9E9"/>
<path d="M50.2434 81.0598C50.5195 80.7797 50.6057 80.4334 50.6954 80.0612C50.785 79.6889 50.175 79.5912 50.0966 79.9783C50.0365 80.3281 49.9356 80.6856 50.0906 81.0121C50.1357 81.0714 50.1991 81.0935 50.2434 81.0598Z" fill="#E9E9E9"/>
<path d="M48.5347 79.3635C48.4826 79.3563 48.4305 79.3491 48.3975 79.3976C48.1517 79.7483 48.3631 80.149 48.6033 80.4342C48.6596 80.5084 48.9623 80.7227 49.0501 80.5624C49.2699 80.2082 48.9294 79.4845 48.5347 79.3635Z" fill="#E9E9E9"/>
<path d="M48.9453 78.7184C49.0892 79.0301 49.339 79.1443 49.6619 79.1094C49.7955 79.1014 50.043 78.9366 49.9598 78.7659C49.8463 78.5247 49.4845 78.3553 49.2355 78.3341C49.0385 78.3201 48.8396 78.518 48.9453 78.7184Z" fill="#E9E9E9"/>
<path d="M47.5652 77.5723C47.5496 77.4905 47.4967 77.3903 47.4074 77.3647C47.3814 77.3611 47.3701 77.3463 47.3441 77.3427C47.266 77.3319 47.1548 77.3695 47.1071 77.4293C46.8838 77.8096 46.7809 78.379 47.133 78.7196C47.1668 78.764 47.2371 78.734 47.2554 78.6967C47.4908 78.4242 47.5944 77.9477 47.5652 77.5723Z" fill="#E9E9E9"/>
<path d="M49.9135 77.5915C50.0354 77.0777 49.701 76.209 49.2014 75.9807C49.1528 75.9474 49.1085 75.9811 49.0755 76.0296C48.7904 76.5738 49.2037 77.5463 49.8284 77.6328C49.8805 77.64 49.91 77.6175 49.9135 77.5915Z" fill="#E9E9E9"/>
<path d="M50.5988 76.8106C50.6586 76.8586 50.7437 76.8173 50.7767 76.7689C50.9593 76.3962 50.8154 76.0844 50.5492 75.7955C50.4781 75.7326 50.4078 75.7627 50.3713 75.8372C50.2964 76.1983 50.3031 76.5441 50.5988 76.8106Z" fill="#E9E9E9"/>
<path d="M49.2724 75.0094C49.6428 75.3127 49.9874 75.2145 50.3797 75.0565C50.4908 75.0188 50.4562 74.8814 50.3521 74.867C50.0432 74.7977 49.7743 74.6278 49.4654 74.5586C49.1861 74.4668 49.0556 74.8467 49.2724 75.0094Z" fill="#E9E9E9"/>
<path d="M47.6954 75.7601C47.5653 75.7421 47.4584 75.8467 47.4818 75.9693C47.5102 76.2518 47.6245 76.586 47.7345 76.8533C47.822 77.0909 47.9052 77.2616 48.129 77.3722C48.1776 77.4054 48.2219 77.3718 48.2549 77.3233C48.4774 76.85 48.3792 75.8017 47.6954 75.7601Z" fill="#E9E9E9"/>
<path d="M46.413 75.7806C46.394 75.7249 46.3306 75.7029 46.3011 75.7254C45.7907 75.9731 45.6991 76.5573 45.7221 77.0779C45.7229 77.1708 45.8418 77.174 45.8896 77.1143C46.2283 76.7632 46.6478 76.3039 46.413 75.7806Z" fill="#E9E9E9"/>
<path d="M48.0431 74.6801C48.02 74.1595 46.4863 73.3371 46.4477 74.0215C46.4159 74.6538 48.0591 75.2527 48.0431 74.6801Z" fill="#E9E9E9"/>
<path d="M44.9368 75.8687C44.955 75.8314 44.9733 75.7942 44.9655 75.7533C45.1247 75.258 44.9699 74.5335 44.4519 74.3424C44.4146 74.324 44.3591 74.3428 44.3408 74.3801C44.0845 74.8089 44.1985 75.541 44.5471 75.9076C44.652 76.015 44.8082 76.0366 44.9037 75.9172C44.9333 75.8947 44.9333 75.8947 44.9368 75.8687Z" fill="#E9E9E9"/>
<path d="M45.3811 73.6885C45.11 74.1285 45.3083 74.7264 45.7672 74.9623C45.8045 74.9808 45.8488 74.9471 45.8523 74.9211C46.0565 74.4851 45.8625 73.9541 45.5182 73.6544C45.4809 73.636 45.4141 73.64 45.3811 73.6885Z" fill="#E9E9E9"/>
<path d="M47.488 72.9312C47.4293 72.5782 46.2321 72.0145 46.1588 72.5615C46.042 73.2351 47.5891 73.4625 47.488 72.9312Z" fill="#E9E9E9"/>
<path d="M46.0269 72.2384C46.2588 71.9919 46.4153 71.6156 46.4459 71.2882C46.4556 71.1171 46.2648 70.958 46.1137 71.0963C45.874 71.3019 45.7393 71.6149 45.5707 71.8834C45.3544 72.2116 45.7655 72.5073 46.0269 72.2384Z" fill="#E9E9E9"/>
<path d="M44.6423 73.5201C44.6458 73.494 44.6493 73.468 44.6268 73.4383C44.4239 73.1715 43.8955 73.0585 43.5936 72.9372C43.2769 72.827 43.0198 73.1628 43.2079 73.4409C43.4679 73.8749 44.3608 74.0382 44.6423 73.5201Z" fill="#E9E9E9"/>
<path d="M44.4251 72.2829C44.7716 71.9727 44.6568 71.1476 44.0927 71.2022C43.5398 71.2716 44.1154 72.1206 44.347 72.2721C44.3435 72.2981 44.3956 72.3053 44.4251 72.2829Z" fill="#E9E9E9"/>
<path d="M42.8636 71.762C42.9043 71.7543 42.9339 71.7319 42.9374 71.7058C43.0061 71.4899 42.7816 69.9996 42.3682 70.3138C41.9957 70.6204 42.2812 71.8538 42.8636 71.762Z" fill="#E9E9E9"/>
<path d="M45.0825 70.5693C44.9596 70.1013 44.7108 69.6822 44.3735 69.3304C44.246 69.1934 44.016 69.2278 43.9881 69.4362C43.8896 70.0726 44.3839 70.5389 44.9609 70.6851C45.039 70.6959 45.1015 70.625 45.0825 70.5693Z" fill="#E9E9E9"/>
<path d="M44.8846 69.0157C45.0034 69.0189 45.3706 68.9503 45.3317 68.7459C45.2582 68.4041 44.6144 68.262 44.3385 68.1442C44.0253 68.008 43.7907 68.3735 43.9676 68.6367C44.1634 68.9557 44.5392 69.0209 44.8846 69.0157Z" fill="#E9E9E9"/>
<path d="M46.0424 67.6648C45.9941 67.2336 46.0119 66.7055 45.5643 66.4844C45.5157 66.4511 45.4454 66.4812 45.4271 66.5184C45.0597 66.9849 45.4915 67.5222 45.9243 67.7546C45.9877 67.7766 46.0615 67.7205 46.0424 67.6648Z" fill="#E9E9E9"/>
<path d="M46.6155 66.3372C46.8326 66.102 46.709 65.541 46.4661 65.3747C46.4288 65.3563 46.3915 65.3379 46.3359 65.3567C45.796 65.6269 46.3541 66.6062 46.6155 66.3372Z" fill="#E9E9E9"/>
<path d="M53.0543 60.3185C53.1576 60.2399 53.175 60.1097 53.0961 60.0059C52.9419 59.7723 52.6225 59.7811 52.4046 59.9234C52.316 59.9908 52.2985 60.121 52.3662 60.2099C52.5387 60.4063 52.8441 60.5016 53.0543 60.3185Z" fill="#E9E9E9"/>
<path d="M53.9738 58.76C54.2073 58.6995 54.3654 58.5091 54.546 58.3484C54.8222 58.0683 54.3174 57.68 54.0525 57.975C53.8389 58.1842 53.7407 58.4226 53.8212 58.7123C53.8437 58.742 53.9331 58.7676 53.9738 58.76Z" fill="#E9E9E9"/>
<path d="M35.1101 68.326C33.3502 63.6518 28.6636 60.7348 29.2439 55.2173C29.278 54.8638 28.8164 54.7469 28.6557 55.0563C26.1892 59.8087 31.5141 65.6793 34.8444 68.528C34.9719 68.665 35.182 68.4818 35.1101 68.326Z" fill="#E9E9E9"/>
<path d="M56.5362 38.421C58.6489 40.0664 60.2684 42.2273 62.3847 43.8467C62.5044 43.9429 62.6815 43.8082 62.6209 43.6671C61.5449 41.2101 59.1772 39.2906 57.1312 37.6411C55.4331 36.2652 52.9838 34.3609 50.6795 34.6389C50.5866 34.6394 50.5397 34.792 50.6255 34.8437C52.5937 36.0845 54.6628 36.9678 56.5362 38.421Z" fill="#E9E9E9"/>
<path d="M63.5011 44.8239C63.8046 45.1312 64.1342 45.4421 64.4194 45.7867C64.4758 45.8608 64.599 45.9309 64.6953 45.9045C64.8325 45.8704 64.8732 45.8628 64.9315 45.7249C64.9715 45.6243 64.9482 45.5017 64.8918 45.4276C64.558 45.0498 64.0776 44.4792 63.5299 44.7085C63.4891 44.7161 63.4673 44.7794 63.5011 44.8239Z" fill="#E9E9E9"/>
</g>
<defs>
<clipPath id="clip0_145_34324">
<rect width="57" height="86" fill="white" transform="translate(0.789062 35.0176) rotate(-37.2434)"/>
</clipPath>
</defs>
</svg>
