<svg width="43" height="46" viewBox="0 0 43 46" fill="none" xmlns="http://www.w3.org/2000/svg">
<path d="M31.2078 11.0699C30.8065 7.52128 29.9772 -0.926618 24.6806 0.0797144C21.6043 0.662328 19.5177 3.39002 17.6987 5.66751C15.4249 8.47465 14.1409 10.1695 10.262 9.56043C8.336 9.24264 6.40995 9.16319 4.45716 9.42802C-1.02671 10.143 -0.250943 15.0953 2.02286 18.6439C3.11963 20.3388 6.67746 23.3578 5.44693 25.5293C4.24316 27.6215 2.58462 29.2898 1.5681 31.5409C0.685329 33.4211 0.444572 35.4603 1.5146 37.2875C2.42412 38.8235 4.53741 39.0089 6.14245 38.9559C10.7436 38.8235 15.5319 33.4476 19.3572 37.7642C20.989 39.5915 28.8804 50.2639 32.2243 44.1465C33.5351 41.7896 33.4281 39.0089 33.0268 36.3871C32.358 32.2559 31.0205 29.6341 36.5846 27.0653C38.5374 26.1649 40.2227 25.2645 41.6672 23.6756C47.5256 17.2668 32.1173 14.6715 31.2078 11.0699ZM31.3683 25.5823C30.0575 26.8535 28.9875 28.3365 28.8269 30.2167C28.5862 33.3946 29.6295 36.4136 29.7365 39.5915C29.9505 45.3117 24.0653 37.9231 22.9686 36.599C20.026 32.9974 17.886 31.1436 13.2314 32.8385C12.0276 33.2622 3.76165 37.5789 4.48391 33.8713C5.07242 30.9318 7.74749 28.6543 9.19202 26.1384C11.6263 21.8748 5.09918 17.7965 3.76165 14.3538C2.79862 11.8379 12.2951 13.3474 13.0441 13.4269C14.4886 13.5858 16.4147 12.7648 17.3777 11.7055C19.4375 9.4545 21.0693 6.8857 23.2361 4.74062C26.9277 1.11253 27.4359 9.63988 27.6767 11.4672C27.6767 11.4936 27.6767 11.5201 27.7034 11.5201C27.7034 11.6525 27.7302 11.785 27.7569 11.9174C28.9875 17.3727 33.4281 17.055 37.7884 19.4384C41.9615 21.7688 32.4383 24.5495 31.3683 25.5823Z" fill="#E9E9E9"/>
<path d="M26.9259 16.4982C26.4176 15.9156 26.0966 15.1476 25.8558 14.4061C25.5883 13.6381 25.7221 12.8437 25.2941 12.1286C25.1068 11.8373 24.7056 11.8373 24.5183 12.1286C23.6088 13.5587 24.6788 15.8891 25.5616 17.1073C26.1233 17.8488 26.8189 18.4315 27.5946 18.9346C28.4506 19.4908 29.3869 19.4908 30.3767 19.6232C30.6709 19.6497 30.7779 19.1994 30.5372 19.067C29.2799 18.5109 27.8086 17.5311 26.9259 16.4982Z" fill="#E9E9E9"/>
<path d="M14.9397 15.3339C13.9499 14.9367 12.9334 14.8308 11.8633 14.8308C10.9538 14.8308 9.91055 14.6454 9.13479 15.228C8.97428 15.3339 8.92078 15.5458 9.08129 15.7047C9.75005 16.3403 10.5793 16.2608 11.4621 16.2608C12.6659 16.2608 13.8161 16.2079 14.9664 15.8636C15.2072 15.7577 15.1804 15.4399 14.9397 15.3339Z" fill="#E9E9E9"/>
<path d="M21.4148 29.3959C19.7562 28.1512 17.3487 28.6014 15.6099 29.3959C15.3424 29.5283 15.4494 29.8725 15.6901 29.952C17.3754 30.5346 19.0607 29.7666 20.5587 30.9848C22.0033 32.15 22.6453 34.0832 24.2236 35.0631C24.3841 35.169 24.5713 35.0366 24.5713 34.8777C24.6516 32.8386 23.0198 30.614 21.4148 29.3959Z" fill="#E9E9E9"/>
<path d="M12.0259 30.4023C11.6514 30.6671 11.5711 31.4616 12.1864 31.541C12.9354 31.647 13.8717 31.3027 14.1659 30.5612C14.2194 30.4023 14.1392 30.2434 14.0054 30.164C13.4169 29.8197 12.5342 30.058 12.0259 30.4023Z" fill="#E9E9E9"/>
</svg>
