<svg width="51" height="51" viewBox="0 0 51 51" fill="none" xmlns="http://www.w3.org/2000/svg">
<path d="M42.7838 33.7269C42.7334 33.9035 42.683 34.0801 42.5844 34.2724C42.4858 34.4648 42.4036 34.625 42.2896 34.769C30.4395 55.293 -1.02701 38.4278 9.12473 16.8305C19.4748 -5.23188 51.9259 12.2192 42.7838 33.7269ZM38.3558 32.1039C45.7621 15.8603 22.2616 2.95874 13.3534 18.999C4.60951 34.7187 29.7216 48.0013 38.3558 32.1039Z" fill="#E9E9E9"/>
<path d="M31.9354 29.8231C33.6332 27.3737 34.5854 24.4206 35.1847 21.5293C35.1858 21.4489 35.2351 21.3527 35.2998 21.3049C35.3162 21.2728 35.348 21.2891 35.348 21.2891C35.3962 21.2734 35.4445 21.2576 35.4927 21.2419C35.4927 21.2419 35.5245 21.2582 35.5727 21.2424C35.6845 21.2593 35.7964 21.2761 35.8589 21.3892C38.0815 25.1202 36.8357 29.6638 34.215 32.8951C32.0831 35.4862 28.0249 37.292 24.725 36.2881C23.8798 36.0571 23.1331 35.6337 22.438 34.9533C22.1694 34.6941 22.2406 34.1638 22.6418 34.0861C26.3536 33.034 29.5022 33.3934 31.9354 29.8231Z" fill="#E9E9E9"/>
<path d="M21.1992 15.6108C21.7112 15.6304 22.1048 16.1157 21.8418 16.6286C21.25 17.7827 19.9411 18.6906 19.016 19.6332C17.9769 20.7199 17.3972 22.1636 16.3591 23.1698C15.8889 23.617 15.2366 23.323 15.1323 22.7432C14.7055 19.9735 18.3686 15.4144 21.1992 15.6108Z" fill="#E9E9E9"/>
</svg>
