<svg width="30" height="29" viewBox="0 0 30 29" fill="none" xmlns="http://www.w3.org/2000/svg">
<path d="M27.0281 15.2525C27.8626 12.8364 26.7116 10.2406 24.9347 8.65997C23.0158 6.96776 20.486 6.85134 18.2095 7.60523C17.8597 3.34957 13.4309 0.740838 9.25584 3.05557C3.22429 6.40069 6.01839 17.6915 8.11612 22.3703C8.16385 22.4875 8.24106 22.5834 8.31827 22.6794C8.49276 22.9371 8.79184 23.1314 9.18966 23.1383C15.3245 23.2005 24.6414 22.1751 27.0281 15.2525ZM23.3474 17.1828C20.0949 20.5176 14.309 20.9708 9.87313 20.9743C8.35726 17.3389 7.61661 13.3748 8.10561 9.432C8.36178 7.2825 9.289 5.21007 11.4217 4.41732C14.3212 3.34673 16.3825 6.293 16.0364 8.85572C15.952 9.05074 15.9541 9.25452 16.0143 9.45203C16.0709 9.79502 16.3035 10.0464 16.5892 10.1969C16.632 10.2195 16.6749 10.242 16.711 10.2427C16.8186 10.2809 16.9338 10.3047 17.0566 10.3141C17.0709 10.3216 17.0785 10.3072 17.0928 10.3147C17.1289 10.3154 17.1651 10.316 17.2013 10.3166C17.3897 10.3053 17.5723 10.2357 17.7197 10.1291C22.8527 7.41611 27.4764 12.9462 23.3474 17.1828Z" fill="#E9E9E9"/>
<path d="M21.722 16.2161C20.1751 16.7279 18.7113 17.3939 17.1167 17.7884C15.2091 18.2576 13.2374 18.3982 11.2915 18.663C11.1754 18.6755 11.1566 18.8499 11.2717 18.8737C13.1406 19.3789 15.0075 19.091 16.8762 18.7303C18.5926 18.3815 20.6886 17.901 21.9299 16.5835C22.0791 16.4041 21.9189 16.154 21.722 16.2161Z" fill="#E9E9E9"/>
<path d="M12.701 5.66187C12.3268 5.57537 11.9415 5.64877 11.578 5.71526C11.0547 5.80811 10.8608 6.03762 10.5472 6.42515C10.4798 6.51859 10.5257 6.70857 10.6637 6.68913C11.2451 6.59001 11.8979 6.5285 12.489 6.61875C13.1306 6.71714 13.5974 7.14724 14.2229 7.31085C14.3885 7.34281 14.5301 7.17789 14.4833 7.02427C14.2787 6.23485 13.4282 5.8054 12.701 5.66187Z" fill="#E9E9E9"/>
</svg>
