<svg width="126" height="145" viewBox="0 0 126 145" fill="none" xmlns="http://www.w3.org/2000/svg">
<path d="M60.543 59.4025C56.059 52.0057 51.557 44.6041 47.073 37.2073C46.4824 36.2372 48.0031 35.3592 48.5937 36.3293C53.0891 43.7195 57.5797 51.1277 62.0637 58.5245C62.6657 59.4881 61.1336 60.3726 60.543 59.4025Z" fill="#E9E9E9"/>
<path d="M51.4696 64.5015C46.9544 57.077 42.444 49.6345 37.9288 42.21C37.3382 41.2399 38.8589 40.3619 39.4495 41.332C43.9647 48.7565 48.4751 56.199 52.9903 63.6235C53.5923 64.5871 52.0602 65.4716 51.4696 64.5015Z" fill="#E9E9E9"/>
<path d="M30.6042 24.0468C30.4911 24.0359 30.4366 23.9149 30.5148 23.8393C31.2416 23.0385 32.2747 22.6098 33.163 22.0359C34.017 21.4819 34.7834 20.7497 35.7646 20.4424C35.817 20.4274 35.8795 20.4828 35.865 20.5369C35.2801 22.3229 32.4767 24.2006 30.6042 24.0468Z" fill="#E9E9E9"/>
<path d="M32.057 86.3811C27.2922 85.0464 23.0875 78.9519 24.5589 74.0014C24.5211 73.9623 24.4947 73.9165 24.4683 73.8708C16.5701 60.6396 21.7791 43.6523 33.0049 34.0763C31.2067 31.1202 29.4151 28.1756 27.5827 25.2393C25.9795 22.6738 28.8042 20.0672 30.7704 18.8253C32.7757 17.5456 36.1697 16.638 37.881 18.8362C40.0222 21.5943 41.8261 24.7452 43.5874 27.875C43.6217 27.8552 43.656 27.8354 43.6855 27.8337C57.5658 22.6707 75.022 26.5265 82.6915 39.8897C82.739 39.8928 82.7685 39.891 82.816 39.8941C88.7824 40.7485 91.5605 47.9106 90.0892 53.2574C94.2744 63.0677 99.2183 72.6078 103.812 82.228C106.525 87.9033 109.231 93.5673 111.92 99.2559C113.119 101.781 114.209 104.17 114.043 107.025C113.878 109.803 112.001 112.229 110.235 114.239C105.725 119.42 99.5539 123.333 93.6588 126.721C87.8323 130.07 81.4837 133.095 74.8807 134.544C68.5869 135.922 64.7951 133.553 61.2729 128.482C57.6979 123.32 54.1392 118.133 50.5805 112.946C44.5197 104.112 38.7033 95.0145 32.262 86.4457L32.2554 86.4343C32.1899 86.4264 32.1177 86.4071 32.057 86.3811ZM32.7757 36.6631C33.4672 37.1481 34.2661 37.4491 35.1199 37.5812C34.7256 36.9247 34.3198 36.2747 33.9255 35.6181C33.5372 35.949 33.1441 36.2979 32.7757 36.6631ZM36.3735 19.7371C35.3539 18.4201 32.6792 19.7814 31.6484 20.346C30.4689 20.9965 29.3305 22.0349 28.9188 23.355C28.6217 24.3193 30.1393 26.05 30.5979 26.7914C32.8066 30.3795 34.9925 33.9807 37.185 37.5933C40.087 37.2594 43.135 35.5149 44.61 33.1845C42.5297 29.7663 40.4495 26.348 38.3578 22.9363C37.7324 21.8796 37.136 20.7146 36.3735 19.7371ZM44.472 29.4072C44.8086 29.9903 45.1387 30.562 45.4688 31.1337C45.5886 30.4699 45.5889 29.7838 45.4105 29.0788C45.0916 29.1866 44.7728 29.2945 44.472 29.4072ZM47.0901 28.5816C49.2077 35.9726 37.2521 42.3569 31.5203 37.9215C22.8429 47.1848 19.1918 61.3518 25.8702 72.787C28.7554 73.4538 32.113 72.8263 34.937 72.2783C43.6156 70.6216 51.7787 66.488 59.3246 62.0246C65.7223 58.2394 71.5708 53.5822 76.5508 48.0544C78.3254 46.0846 80.3488 43.7272 81.4331 41.1956C81.3886 41.145 81.3556 41.0878 81.3226 41.0307C74.6287 29.0404 59.7747 25.1762 47.0901 28.5816ZM83.1108 41.7514C82.0103 44.3078 80.1078 46.6105 78.3403 48.6982C73.2642 54.6932 66.8989 59.5115 60.2158 63.5682C52.3454 68.3409 43.6989 72.403 34.6064 74.1614C31.9574 74.6693 28.9362 75.0873 26.2011 74.654C25.2057 78.7656 28.7899 83.7853 32.7295 84.7733C38.0379 85.7027 43.8419 83.5562 48.7236 81.7134C52.2287 80.391 55.6362 78.8201 58.9692 77.0939C58.2083 75.7496 57.4426 74.4232 56.6557 73.1396C56.0651 72.1694 57.5858 71.2915 58.1764 72.2616C58.9831 73.5795 59.7897 74.8975 60.5964 76.2155C63.0714 74.878 65.5051 73.4424 67.8763 71.9515C67.0846 70.6858 66.2929 69.4202 65.5126 68.148C64.922 67.1778 66.4428 66.2999 67.0333 67.27C67.7938 68.5079 68.6066 69.7309 69.426 70.9653C74.893 67.443 80.1845 63.458 84.5748 58.6517C86.2518 56.8297 87.7968 54.7791 88.6462 52.4745C90.0424 48.6346 87.0382 42.9294 83.1108 41.7514ZM55.5486 107.318C56.0091 108.882 57.0366 110.133 58.5042 110.932C60.5824 112.05 62.8669 112.072 64.7421 110.99C65.6797 110.449 66.4672 109.674 67.1113 108.677C67.1878 108.572 67.2528 108.473 67.2999 108.37C67.3583 108.26 67.4054 108.156 67.4392 108.03C68.7485 104.911 67.7626 101.593 65.0139 99.9478C62.9088 98.6782 60.2834 98.5933 58.3396 99.7155C57.4592 100.224 56.7517 100.952 56.2448 101.87C55.2944 103.577 55.0413 105.568 55.5486 107.318ZM53.1648 101.209C52.8841 101.066 52.4848 101.114 52.3503 101.435C52.214 101.728 52.2599 102.097 52.5718 102.268C52.8591 102.422 53.1683 102.351 53.3556 102.12C53.3718 102.096 53.4061 102.076 53.4158 102.04C53.4483 101.991 53.4628 101.937 53.4659 101.889C53.5089 101.62 53.4274 101.347 53.1648 101.209ZM70.8177 123.124C71.7552 122.582 72.5428 121.808 73.1868 120.811C73.2633 120.706 73.3284 120.607 73.3754 120.504C73.4339 120.394 73.4809 120.29 73.5147 120.164C74.824 117.045 73.8382 113.727 71.0829 112.07C68.9778 110.801 66.3523 110.716 64.4085 111.838C63.5281 112.346 62.8206 113.075 62.3138 113.993C61.3586 115.718 61.1054 117.709 61.6127 119.459C62.0733 121.022 63.1007 122.274 64.5683 123.073C66.6579 124.184 68.9425 124.206 70.8177 123.124ZM68.0777 126.749C68.365 126.903 68.6741 126.831 68.8615 126.601C68.8777 126.576 68.912 126.556 68.9217 126.52C68.9542 126.471 68.9687 126.417 68.9718 126.37C69.0214 126.112 68.9514 125.832 68.6887 125.694C68.4081 125.552 68.0087 125.599 67.8742 125.921C67.7199 126.208 67.7658 126.578 68.0777 126.749ZM71.5433 126.836C71.9537 127.072 72.4085 126.962 72.6952 126.613C72.7229 126.582 72.762 126.544 72.7831 126.502C72.8319 126.428 72.8512 126.356 72.8525 126.279C72.936 125.895 72.8228 125.488 72.4388 125.298C72.0301 125.092 71.4605 125.161 71.2398 125.624C71.024 126.069 71.0968 126.591 71.5433 126.836ZM69.5194 108.491C69.2387 108.348 68.8393 108.396 68.7049 108.717C68.5686 109.009 68.6145 109.379 68.9264 109.55C69.2136 109.704 69.5228 109.632 69.7101 109.402C69.7264 109.378 69.7607 109.358 69.7704 109.322C69.8029 109.272 69.8174 109.218 69.8204 109.171C69.8635 108.902 69.7868 108.611 69.5194 108.491ZM58.757 114.75C59.1674 114.986 59.6222 114.876 59.9089 114.527C59.9366 114.496 59.9757 114.458 59.9968 114.416C60.0456 114.342 60.0649 114.27 60.0662 114.193C60.1497 113.809 60.0365 113.402 59.6525 113.212C59.2438 113.006 58.6742 113.075 58.4535 113.538C58.2426 113.965 58.3039 114.494 58.757 114.75ZM56.7354 89.9395C57.1459 90.1752 57.6006 90.065 57.8873 89.7166C57.915 89.6854 57.9541 89.6475 57.9752 89.6048C58.024 89.5309 58.0434 89.4588 58.0447 89.3818C58.1281 88.9982 58.0149 88.591 57.6309 88.4011C57.2222 88.1949 56.6526 88.2646 56.432 88.7274C56.2161 89.1722 56.2889 89.6942 56.7354 89.9395ZM61.4426 95.2408C61.8531 95.4765 62.3078 95.3663 62.5945 95.0179C62.6222 94.9867 62.6613 94.9488 62.6824 94.9061C62.7312 94.8322 62.7506 94.7601 62.7518 94.6831C62.8353 94.2995 62.7221 93.8923 62.3381 93.7024C61.9294 93.4962 61.3598 93.5659 61.1392 94.0287C60.9282 94.4554 60.9895 94.9841 61.4426 95.2408ZM75.4601 119.757C74.7501 121.036 74.5667 122.514 74.9476 123.834C75.3034 125.031 76.0756 125.973 77.182 126.569C78.735 127.41 80.4561 127.407 81.8739 126.589C82.5256 126.213 83.0801 125.694 83.5259 125.04C83.6367 124.916 83.7295 124.786 83.7976 124.64C83.8724 124.505 83.9339 124.348 83.9725 124.203C84.8467 121.915 84.0678 119.483 82.0613 118.279C80.4964 117.338 78.5228 117.273 77.0478 118.124C76.3847 118.507 75.8434 119.048 75.4601 119.757ZM74.7555 113.045C76.8337 114.162 79.1182 114.185 80.9934 113.102C81.931 112.561 82.7185 111.786 83.3626 110.789C83.4391 110.684 83.5041 110.585 83.5512 110.482C83.6096 110.372 83.6567 110.269 83.6905 110.142C84.9998 107.023 84.0139 103.705 81.2586 102.049C79.1535 100.779 76.5281 100.694 74.5843 101.816C73.7039 102.325 72.9964 103.053 72.4895 103.971C71.5343 105.696 71.2811 107.687 71.7884 109.437C72.2556 111.012 73.2764 112.252 74.7555 113.045ZM82.5654 115.64C82.5816 115.615 82.6159 115.595 82.6256 115.559C82.6581 115.51 82.6726 115.456 82.6757 115.409C82.7253 115.151 82.6553 114.871 82.3926 114.733C82.112 114.591 81.7126 114.638 81.5781 114.96C81.4419 115.252 81.4877 115.622 81.7996 115.792C82.0574 115.948 82.3781 115.87 82.5654 115.64ZM87.1551 123.616C87.4424 123.77 87.7516 123.698 87.9389 123.468C87.9551 123.444 87.9894 123.424 87.9991 123.388C88.0316 123.339 88.0461 123.284 88.0492 123.237C88.0988 122.98 88.0222 122.688 87.7661 122.562C87.4855 122.419 87.0861 122.467 86.9516 122.788C86.8039 123.087 86.8432 123.445 87.1551 123.616ZM96.8622 104.702C96.973 104.578 97.0658 104.448 97.1339 104.302C97.2086 104.167 97.2702 104.01 97.3088 103.865C98.1829 101.577 97.4041 99.1453 95.3975 97.9407C93.8327 96.9995 91.8591 96.9346 90.3841 97.7862C89.7095 98.1757 89.1634 98.7349 88.7735 99.4326C88.0635 100.711 87.8801 102.189 88.261 103.509C88.6168 104.706 89.389 105.648 90.4954 106.244C92.0484 107.085 93.7695 107.083 95.1873 106.264C95.8505 105.881 96.4164 105.356 96.8622 104.702ZM100.325 114.503C100.736 114.739 101.19 114.628 101.477 114.28C101.505 114.249 101.544 114.211 101.565 114.168C101.614 114.094 101.633 114.022 101.634 113.945C101.718 113.562 101.605 113.154 101.221 112.965C100.812 112.758 100.242 112.828 100.022 113.291C99.8173 113.729 99.8901 114.251 100.325 114.503ZM87.5531 85.0139C86.5979 86.7393 86.3447 88.7301 86.852 90.4801C87.3126 92.0436 88.34 93.2951 89.8076 94.0943C91.8858 95.2117 94.1704 95.2343 96.0455 94.1517C96.9831 93.6104 97.7706 92.8355 98.4033 91.8452C98.4798 91.7401 98.5448 91.6415 98.5919 91.5382C98.6503 91.4282 98.6974 91.3248 98.7312 91.1985C100.04 88.0796 99.0546 84.7613 96.2993 83.1048C94.1942 81.8352 91.5687 81.7503 89.625 82.8725C88.7674 83.3676 88.0599 84.0962 87.5531 85.0139ZM85.2307 80.9122C84.95 80.7693 84.5507 80.817 84.4162 81.1385C84.2799 81.4306 84.3258 81.8005 84.6377 81.9711C84.925 82.1254 85.2342 82.0536 85.4215 81.8235C85.4377 81.7989 85.472 81.7791 85.4817 81.743C85.5142 81.6937 85.5287 81.6396 85.5318 81.5921C85.5748 81.3233 85.4982 81.0322 85.2307 80.9122ZM80.3356 90.4158C79.661 90.8053 79.1149 91.3645 78.725 92.0622C78.015 93.3411 77.8382 94.8305 78.2125 96.1389C78.5683 97.3361 79.3405 98.2775 80.447 98.8736C81.9999 99.715 83.721 99.7122 85.1388 98.8936C85.7906 98.5174 86.345 97.999 86.7908 97.3453C86.9016 97.2203 86.9944 97.0906 87.0625 96.9445C87.1373 96.8099 87.1988 96.6524 87.2375 96.5081C88.1116 94.2197 87.3327 91.7881 85.3262 90.5835C83.7842 89.6291 81.8106 89.5642 80.3356 90.4158ZM84.967 102.24C85.3775 102.476 85.8323 102.366 86.1189 102.017C86.1466 101.986 86.1858 101.948 86.2069 101.905C86.2557 101.831 86.275 101.759 86.2763 101.682C86.3597 101.299 86.2466 100.892 85.8625 100.702C85.4538 100.495 84.8842 100.565 84.6636 101.028C84.4412 101.461 84.5139 101.983 84.967 102.24ZM83.6085 87.6877C84.019 87.9233 84.4737 87.8132 84.7604 87.4648C84.7881 87.4335 84.8272 87.3957 84.8483 87.353C84.8971 87.2791 84.9165 87.207 84.9178 87.13C85.0012 86.7464 84.888 86.3391 84.504 86.1493C84.0953 85.9431 83.5257 86.0128 83.3051 86.4756C83.0893 86.9203 83.162 87.4424 83.6085 87.6877ZM79.543 79.3785C79.8303 79.5328 80.1394 79.461 80.3267 79.2309C80.343 79.2063 80.3773 79.1865 80.387 79.1504C80.4195 79.1011 80.434 79.047 80.4371 78.9995C80.4867 78.7422 80.4167 78.4625 80.154 78.3244C79.8734 78.1816 79.474 78.2292 79.3395 78.5508C79.1852 78.838 79.2311 79.2079 79.543 79.3785ZM98.8709 99.0454C99.2814 99.281 99.7361 99.1709 100.023 98.8225C100.051 98.7912 100.09 98.7534 100.111 98.7107C100.16 98.6368 100.179 98.5647 100.18 98.4877C100.264 98.1041 100.15 97.6968 99.7664 97.507C99.3577 97.3008 98.7881 97.3705 98.5675 97.8333C98.3451 98.2666 98.4244 98.8001 98.8709 99.0454ZM100.305 94.8483C100.592 95.0026 100.901 94.9308 101.089 94.7007C101.105 94.6761 101.139 94.6563 101.149 94.6202C101.181 94.571 101.196 94.5168 101.199 94.4693C101.249 94.212 101.172 93.9209 100.916 93.7943C100.635 93.6514 100.236 93.699 100.101 94.0206C99.9536 94.3193 100.004 94.6712 100.305 94.8483ZM103.623 97.2163C103.343 97.0734 102.943 97.1211 102.809 97.4426C102.673 97.7347 102.718 98.1046 103.03 98.2752C103.318 98.4295 103.627 98.3577 103.814 98.1276C103.83 98.103 103.865 98.0832 103.874 98.0471C103.907 97.9978 103.921 97.9437 103.924 97.8962C103.974 97.6389 103.897 97.3477 103.623 97.2163ZM105.579 101.606C104.014 100.665 102.04 100.6 100.565 101.452C99.8905 101.841 99.3444 102.4 98.9545 103.098C98.2445 104.377 98.0678 105.866 98.442 107.175C98.7978 108.372 99.5701 109.313 100.676 109.909C102.229 110.751 103.951 110.748 105.368 109.93C106.02 109.553 106.575 109.035 107.02 108.381C107.131 108.256 107.224 108.126 107.292 107.98C107.367 107.846 107.428 107.688 107.467 107.544C108.364 105.242 107.585 102.811 105.579 101.606ZM94.2362 108.551C92.1311 107.282 89.5057 107.197 87.5619 108.319C86.6815 108.827 85.974 109.556 85.4671 110.473C84.5119 112.199 84.2587 114.19 84.766 115.94C85.2266 117.503 86.254 118.755 87.7216 119.554C89.7998 120.671 92.0844 120.694 93.9596 119.611C94.8972 119.07 95.6847 118.295 96.3173 117.305C96.3938 117.2 96.4589 117.101 96.5059 116.998C96.5644 116.888 96.6114 116.784 96.6452 116.658C97.9774 113.526 96.9735 110.203 94.2362 108.551ZM69.4342 103.326C69.8446 103.562 70.2994 103.452 70.586 103.103C70.6137 103.072 70.6529 103.034 70.674 102.992C70.7228 102.918 70.7421 102.845 70.7434 102.768C70.8268 102.385 70.7137 101.978 70.3296 101.788C69.9209 101.582 69.3514 101.651 69.1307 102.114C68.9149 102.559 68.9876 103.081 69.4342 103.326ZM68.6902 99.8987C70.2431 100.74 71.9642 100.737 73.382 99.9187C74.0337 99.5425 74.5882 99.0241 75.034 98.3704C75.1448 98.2454 75.2376 98.1156 75.3057 97.9696C75.3805 97.835 75.442 97.6775 75.474 97.5218C76.3482 95.2334 75.5693 92.8017 73.5628 91.5972C71.9979 90.656 70.0243 90.5911 68.5493 91.4427C67.8747 91.8321 67.3286 92.3914 66.9387 93.0891C66.2287 94.368 66.052 95.8573 66.4263 97.1658C66.8049 98.3497 67.5837 99.3026 68.6902 99.8987ZM64.7054 82.8836C65.38 83.9729 66.0432 85.0687 66.7113 86.1466C67.569 87.5266 69.9781 86.471 71.0191 85.9768C72.2382 85.3949 73.3133 84.4845 74.0189 83.3301C74.801 82.0706 73.4748 80.6714 72.8284 79.6573C71.4976 77.59 70.1602 75.5113 68.8523 73.4308C66.4763 74.9398 64.0295 76.3525 61.543 77.6966C62.5987 79.4196 63.6496 81.1606 64.7054 82.8836ZM52.1078 112.079C55.6665 117.266 59.2187 122.442 62.8002 127.615C65.2544 131.153 67.651 133.535 72.2561 133.194C75.4599 132.96 78.6528 131.757 81.6249 130.62C88.8868 127.83 95.796 123.795 102.038 119.185C104.723 117.208 107.24 114.993 109.438 112.489C112.735 108.695 112.724 105.058 110.638 100.652C105.058 88.7958 99.3574 76.9943 93.7138 65.1598C92.1782 61.9455 90.5902 58.7461 89.1526 55.4904C85.7813 61.5072 79.5018 66.078 74.0216 69.9737C72.8528 70.801 71.6593 71.612 70.4526 72.4001C70.8614 73.0026 71.2636 73.5936 71.6724 74.1961C75.1815 72.6427 79.0693 71.1909 82.648 70.2071C90.9226 67.93 94.682 70.7447 95.7995 73.1028C96.8673 75.322 97.917 77.5362 98.9848 79.7554C102.102 86.2641 105.316 92.9919 108.458 99.6234L108.553 99.8129C110.26 103.431 111.737 106.542 109.547 109.773C108.123 111.876 106.18 113.897 103.428 116.127C100.078 118.854 96.396 121.376 92.5199 123.613C89.5928 125.303 86.5324 126.842 83.4187 128.182C79.7918 129.742 76.7379 130.896 73.5878 131.434C69.5657 132.125 67.0701 131.05 64.6867 127.609C61.4365 122.93 58.2092 118.238 54.9867 113.527L54.0141 112.107C52.1153 109.346 50.2178 106.508 48.3731 103.762C47.6131 102.631 46.8399 101.476 46.0733 100.333C44.1577 97.4909 43.1392 93.8255 47.6507 89.7573C51.0172 86.7159 55.8883 83.2176 60.7661 80.127C60.4624 79.601 60.1654 79.0865 59.8617 78.5605C57.0612 79.9945 54.2242 81.3123 51.326 82.4977C46.2341 84.5838 40.3096 86.8914 34.6294 86.6645C40.7336 94.94 46.3123 103.626 52.1078 112.079Z" fill="#E9E9E9"/>
<path d="M74.1781 58.9979C69.3174 63.3592 63.7835 66.9506 58.0542 70.045C52.8117 72.8736 47.2677 75.3121 41.5353 76.9753C38.4016 77.885 33.5233 79.3904 30.4478 77.5225L30.4412 77.511C30.4346 77.4996 30.4165 77.4948 30.4214 77.4767C30.4148 77.4653 30.4148 77.4653 30.4262 77.4587C30.4262 77.4587 30.4196 77.4473 30.431 77.4407C30.431 77.4407 30.4425 77.4341 30.4358 77.4226C30.4407 77.4046 30.4407 77.4046 30.4521 77.398L30.4636 77.3914C30.475 77.3848 30.4864 77.3782 30.4979 77.3716L30.5093 77.365C40.3704 76.4892 49.511 72.6754 58.1102 67.9241C63.3083 65.0449 68.3277 61.7506 72.8828 57.9163C76.7788 54.6303 79.8509 50.9205 82.7785 46.7757C82.811 46.7265 82.8519 46.7181 82.8946 46.7392C82.9307 46.7489 82.9685 46.788 82.9426 46.8487C82.0257 51.6772 77.6866 55.8593 74.1781 58.9979Z" fill="#E9E9E9"/>
<path d="M63.227 114.488C64.7217 111.796 68.1168 111.497 70.565 112.965C73.0198 114.445 73.6238 117.313 72.5491 119.808C72.5298 119.88 72.5039 119.941 72.4551 120.015C72.4243 120.094 72.3803 120.15 72.3364 120.205C70.712 122.805 67.84 123.64 65.0773 122.155C62.18 120.596 61.7487 117.156 63.227 114.488ZM70.9298 119.142C72.7614 115.265 67.2824 111.689 64.7523 115.361C61.9456 119.451 68.3621 123.567 70.9298 119.142Z" fill="#E9E9E9"/>
<path d="M95.6922 116.278C95.6729 116.35 95.6469 116.41 95.5981 116.484C95.5674 116.563 95.5234 116.619 95.4794 116.675C93.855 119.274 90.9831 120.109 88.2204 118.625C85.323 117.066 84.8918 113.625 86.3701 110.957C87.8647 108.265 91.2598 107.967 93.708 109.435C96.1629 110.914 96.7554 113.789 95.6922 116.278ZM87.9019 111.842C85.0838 115.938 91.5069 120.066 94.0795 115.623C95.8931 111.74 90.4255 108.159 87.9019 111.842Z" fill="#E9E9E9"/>
<path d="M57.1489 102.354C58.6435 99.6618 62.0386 99.3634 64.4869 100.831C66.9417 102.311 67.5456 105.179 66.471 107.674C66.4517 107.746 66.4257 107.807 66.3769 107.881C66.3462 107.96 66.3022 108.016 66.2582 108.071C64.6338 110.671 61.7619 111.506 58.9992 110.021C56.1018 108.462 55.6706 105.022 57.1489 102.354ZM64.8517 107.008C66.6833 103.131 61.2043 99.5554 58.6742 103.227C55.8675 107.317 62.284 111.433 64.8517 107.008Z" fill="#E9E9E9"/>
<path d="M91.0028 105.326C88.9738 104.242 88.6436 101.795 89.685 99.9282C90.7361 98.0255 93.1406 97.7806 94.8713 98.8242C96.5954 99.8564 97.0351 101.859 96.3125 103.618C96.2932 103.69 96.2672 103.751 96.2184 103.824C96.1714 103.928 96.1112 104.008 96.0492 104.059C94.8991 105.791 92.9037 106.348 91.0028 105.326ZM91.2217 100.794C89.6108 103.127 93.2355 105.47 94.6932 102.952C95.7103 100.779 92.6307 98.7458 91.2217 100.794Z" fill="#E9E9E9"/>
<path d="M86.2656 96.2473C86.2463 96.3195 86.2204 96.3802 86.1716 96.4541C86.1245 96.5575 86.0643 96.638 86.0023 96.689C84.8408 98.4268 82.8388 98.9728 80.9559 97.9561C78.927 96.8712 78.5967 94.4244 79.6381 92.5578C80.6892 90.6551 83.0938 90.4102 84.8245 91.4539C86.5552 92.4975 86.9882 94.4886 86.2656 96.2473ZM81.17 93.4418C79.5591 95.7744 83.1838 98.1181 84.6415 95.5995C85.6701 93.4202 82.5905 91.3869 81.17 93.4418Z" fill="#E9E9E9"/>
<path d="M81.5391 119.144C83.2632 120.177 83.7028 122.179 82.9803 123.938C82.961 124.01 82.935 124.071 82.8862 124.144C82.8392 124.248 82.779 124.328 82.717 124.379C81.5554 126.117 79.5534 126.663 77.6706 125.646C75.6416 124.562 75.3114 122.115 76.3528 120.248C77.4105 118.357 79.815 118.112 81.5391 119.144ZM77.8846 121.132C76.2738 123.465 79.8984 125.809 81.3562 123.29C82.3847 121.111 79.3051 119.077 77.8846 121.132Z" fill="#E9E9E9"/>
<path d="M67.8696 93.5894C68.9273 91.6981 71.3253 91.4418 73.0559 92.4855C74.78 93.5177 75.2197 95.5202 74.4971 97.2789C74.4778 97.3511 74.4518 97.4118 74.403 97.4857C74.356 97.5891 74.2958 97.6696 74.2338 97.7206C73.0723 99.4584 71.0817 99.9978 69.1874 98.9877C67.1584 97.9028 66.8282 95.456 67.8696 93.5894ZM72.8778 96.6131C73.9015 94.4518 70.8153 92.407 69.4063 94.4554C67.7954 96.788 71.4087 99.1383 72.8778 96.6131Z" fill="#E9E9E9"/>
<path d="M106.482 107.29C106.463 107.362 106.437 107.423 106.388 107.497C106.341 107.6 106.281 107.68 106.219 107.732C105.057 109.469 103.066 110.009 101.172 108.999C99.1432 107.914 98.813 105.467 99.8544 103.6C100.905 101.698 103.31 101.453 105.041 102.496C106.765 103.529 107.216 105.524 106.482 107.29ZM101.391 104.466C99.7802 106.799 103.405 109.143 104.863 106.624C105.886 104.463 102.8 102.418 101.391 104.466Z" fill="#E9E9E9"/>
<path d="M73.3989 104.466C74.8935 101.774 78.2886 101.476 80.7369 102.944C83.1917 104.423 83.7956 107.291 82.721 109.787C82.7017 109.859 82.6757 109.919 82.6269 109.993C82.5962 110.072 82.5522 110.128 82.5082 110.184C80.8838 112.783 78.0119 113.618 75.2492 112.134C72.3584 110.586 71.9206 107.134 73.3989 104.466ZM81.1017 109.121C82.9333 105.243 77.4543 101.668 74.9242 105.339C72.106 109.436 78.5291 113.564 81.1017 109.121Z" fill="#E9E9E9"/>
<path d="M95.7915 83.9931C98.2464 85.4724 98.8503 88.3405 97.7757 90.8361C97.7564 90.9082 97.7304 90.9689 97.6816 91.0428C97.6509 91.1216 97.6069 91.1774 97.5629 91.2333C95.9385 93.8329 93.0666 94.6678 90.3039 93.1833C87.4065 91.6241 86.9753 88.1837 88.4536 85.516C89.9482 82.8237 93.3548 82.5186 95.7915 83.9931ZM89.9903 86.382C87.1722 90.4788 93.5887 94.595 96.1678 90.1636C97.988 86.2924 92.5204 82.7107 89.9903 86.382Z" fill="#E9E9E9"/>
<path d="M62.8731 105.956C63.0687 105.767 63.2266 105.538 63.3598 105.294C63.5303 104.982 63.4092 104.64 63.4962 104.316C63.5059 104.28 63.5631 104.247 63.5943 104.274C64.1412 104.614 64.1208 105.556 63.9037 106.077C63.6413 106.732 62.8331 107.656 62.0665 107.596C61.8698 107.572 61.7546 107.425 61.7897 107.222C61.91 106.664 62.4883 106.346 62.8731 105.956Z" fill="#E9E9E9"/>
<path d="M79.4828 107.467C79.5479 107.369 80.1343 106.299 80.3697 106.574C80.8009 107.057 80.0394 108.168 79.7563 108.575C79.2551 109.291 78.5449 109.777 77.6915 109.355C77.6488 109.334 77.6321 109.253 77.6778 109.226C78.322 108.626 79.0146 108.241 79.4828 107.467Z" fill="#E9E9E9"/>
<path d="M70.5483 96.2979C70.6815 96.0533 70.9089 95.9982 71.1441 95.8776C71.3794 95.757 71.6147 95.6364 71.8583 95.5568C71.9973 95.507 72.1535 95.6455 72.1443 95.788C72.1045 96.4056 71.2888 97.1052 70.6848 96.7984C70.5189 96.6959 70.4639 96.4686 70.5483 96.2979Z" fill="#E9E9E9"/>
<path d="M83.8579 95.505C83.5646 95.842 82.9296 96.3001 82.4585 96.0385C82.0661 95.8077 82.3672 95.4051 82.6614 95.281C83.1795 95.0429 83.4169 94.6619 83.8197 94.2769C83.8865 94.2078 84.011 94.2122 84.0638 94.3037C84.2474 94.7008 84.1283 95.1811 83.8579 95.505Z" fill="#E9E9E9"/>
<path d="M95.5037 87.9375C95.7115 88.6408 95.4852 89.305 94.9782 89.8264C94.7109 90.1027 94.3678 90.3008 94.0279 90.4513C93.5556 90.663 93.3295 90.6411 92.8443 90.5401C92.7246 90.5177 92.7158 90.3703 92.7826 90.3013C93.0157 90.0448 93.0658 89.8939 93.4057 89.7433C93.6771 89.6324 93.9286 89.4872 94.185 89.3239C94.7158 89.0022 95.0063 88.4228 95.3431 87.9235C95.3739 87.8448 95.4755 87.8623 95.5037 87.9375Z" fill="#E9E9E9"/>
<path d="M93.4566 103.133C93.0727 103.339 92.4864 103.327 92.156 103.045C91.9373 102.851 92.0436 102.454 92.3348 102.378C92.6554 102.299 93.0293 102.419 93.3667 102.422C93.5026 102.42 93.8883 102.243 93.9596 102.446C94.0542 102.742 93.6805 103.019 93.4566 103.133Z" fill="#E9E9E9"/>
<path d="M102.958 106.868C102.585 106.855 101.89 106.707 101.966 106.206C102.025 105.806 102.75 106.058 102.966 106.116C103.14 106.153 103.908 106.137 103.929 106.384C103.945 106.756 103.243 106.887 102.958 106.868Z" fill="#E9E9E9"/>
<path d="M90.646 116.249C90.0615 116.267 89.4852 115.929 89.2242 115.424C89.13 115.234 89.2553 115.055 89.4435 115.038C89.6023 115.023 89.879 115 90.0479 115.055C90.2595 115.131 90.4662 115.225 90.6941 115.276C91.0843 115.371 91.4427 115.332 91.8312 115.397C91.9147 115.41 91.9447 115.515 91.9073 115.582C91.6999 116.068 91.1241 116.233 90.646 116.249Z" fill="#E9E9E9"/>
<path d="M80.1073 123.371C79.8399 123.647 79.4568 123.67 79.1027 123.585C78.6584 123.476 78.3232 123.212 78.3015 122.752C78.2962 122.663 78.3727 122.558 78.4659 122.535C78.7817 122.474 78.9621 122.523 79.2493 122.677C79.512 122.815 79.8023 122.922 80.0649 123.06C80.1749 123.118 80.197 123.289 80.1073 123.371Z" fill="#E9E9E9"/>
<path d="M66.1374 117.886C66.6622 118.056 67.0652 118.463 67.5851 118.651C68.0198 118.797 68.4214 118.885 68.8695 118.763C68.9104 118.755 68.9236 118.778 68.9369 118.801C69.2102 119.512 68.1208 119.79 67.6277 119.755C66.92 119.691 65.7503 119.223 65.5503 118.454C65.4834 118.127 65.7929 117.765 66.1374 117.886Z" fill="#E9E9E9"/>
</svg>
