<svg width="60" height="86" viewBox="0 0 60 86" fill="none" xmlns="http://www.w3.org/2000/svg">
<path d="M52.8486 54.5767C51.3464 50.6347 49.6676 46.7618 48.2311 42.795C47.3217 40.286 46.1407 37.5722 45.8422 34.9144C45.7187 33.8306 46.31 32.9059 46.3194 31.8595C46.3365 30.4095 45.4709 29.2539 45.3427 27.8281C45.344 27.8059 45.3336 27.7941 45.3349 27.7718C45.5296 27.581 45.7055 27.3734 45.8574 27.1576C46.8698 25.7262 46.3051 24.6143 45.3117 23.3322C44.8065 22.6862 44.1379 22.3758 43.3498 22.3748C43.0108 22.3779 42.7324 22.445 42.4171 22.5366C41.6498 22.749 42.0902 22.6386 41.6641 21.9641C40.2355 19.7034 38.2452 17.8557 35.9624 16.5096C31.8339 14.0729 26.7753 13.9434 22.2837 15.2319C22.1755 14.8812 22.0691 14.5374 21.9541 14.1885C21.5255 12.8285 21.09 11.4703 20.6528 10.1052C20.3019 9.00913 20.0821 7.67355 19.4085 6.72214C18.7801 5.83164 17.3742 5.79142 16.4892 6.23973C15.5822 6.68663 14.7059 7.59984 14.925 8.71659C15.4696 11.4837 16.531 14.2368 17.3541 16.9368C17.3991 17.0781 17.4423 17.2126 17.4805 17.3556C10.976 21.4162 7.46318 28.5824 9.31137 36.2791C9.34105 36.4171 9.5216 37.7413 9.9299 37.4569C9.69046 37.6158 9.4596 37.7798 9.22199 37.9455C8.81369 38.2299 8.49526 38.607 8.25758 39.0429C7.72002 40.0334 8.25038 42.3956 9.23443 42.9939C9.86537 43.38 10.6152 43.508 11.4011 43.4731C12.2802 44.355 12.7259 45.5353 13.5166 46.4919C14.061 47.1493 15.0545 47.4312 15.7755 47.8298C17.0394 48.5285 17.7625 50.0434 18.4981 51.2264C19.2477 52.435 19.9721 53.6575 20.6781 54.8923C22.7871 58.5625 24.6359 62.368 26.624 66.0997C27.7214 68.1496 28.876 70.1697 30.0723 72.1567C31.2844 74.176 32.4698 76.3922 34.0884 78.1203C34.8769 78.9607 36.1551 79.6045 37.1256 80.2064C37.8716 80.6713 38.9045 80.6141 39.7284 80.5325C42.4792 80.2497 45.1601 79.0292 47.6178 77.8392C50.1914 76.5963 52.7301 75.1145 54.9039 73.2412C56.6238 71.752 56.735 70.1673 56.9068 67.9167C57.0508 65.9948 55.9747 63.7275 55.411 61.9436C54.6376 59.4566 53.7716 57.0017 52.8486 54.5767ZM41.3556 23.2438C40.8849 24.7275 37.8584 26.1426 36.7609 26.823C33.7646 28.6753 30.6286 30.3022 27.467 31.8337C25.8155 26.603 24.2094 21.3529 22.5646 16.1204C29.9094 14.0399 37.2868 16.5424 41.3556 23.2438ZM23.5012 33.6824C22.181 29.502 20.8812 25.3161 19.5997 21.118C19.2441 19.9502 18.8885 18.7823 18.5329 17.6145C19.5296 17.0706 20.5549 16.6066 21.6174 16.2277C21.7816 16.7605 21.9525 17.2915 22.1166 17.8243C23.6087 22.5939 25.0738 27.3707 26.5794 32.1367C26.5885 32.1708 26.6044 32.203 26.6202 32.2353C25.5905 32.7369 24.5486 33.2199 23.5012 33.6824ZM15.8845 8.08773C16.0689 7.15512 17.3557 6.80378 18.1263 6.95544C19.1537 7.14797 19.4756 9.51475 19.7488 10.3469C20.3259 12.1272 20.8896 13.911 21.4551 15.7017C20.3926 16.0806 19.3655 16.5378 18.3669 17.0748C18.1377 16.3258 17.9104 15.5836 17.6879 14.8327C17.3791 13.813 17.0771 12.7914 16.7683 11.7716C16.459 10.7228 15.6709 9.18146 15.8845 8.08773ZM17.7657 18.2868C19.3546 23.5269 20.9688 28.753 22.6185 33.9768C22.6257 34.0041 22.6398 34.0295 22.6538 34.055C20.7051 34.9045 18.7332 35.6945 16.7291 36.391C15.6715 36.7613 11.8029 38.46 10.6616 37.5168C8.16044 29.8925 11.1994 22.4953 17.7657 18.2868ZM9.69985 38.7595C9.8822 38.6304 10.0731 38.5063 10.2555 38.3773C11.6422 39.211 14.3344 38.1409 15.5715 37.7663C19.4009 36.5964 23.0923 34.9379 26.7084 33.241C30.3933 31.5039 34.0246 29.6205 37.4935 27.4812C38.7537 26.7062 41.7116 25.2511 42.2429 23.5614C42.8366 23.4027 43.3634 23.291 43.8821 23.4736C43.8396 25.0179 39.9223 27.2917 39.1537 27.7965C35.6169 30.1146 31.8237 32.0413 28.013 33.8485C24.0998 35.7051 20.0871 37.4058 15.968 38.7626C14.5124 39.2394 13.0305 39.6721 11.5184 39.9377C10.9102 40.0419 9.65425 40.3193 9.11122 39.8293C9.2025 39.3596 9.40024 38.9637 9.69985 38.7595ZM9.05381 40.4798C10.1728 41.0421 12.4497 40.3384 13.2561 40.1374C16.9665 39.2256 20.5545 37.748 24.0574 36.2494C28.1621 34.4876 32.192 32.5268 36.0766 30.3202C38.6932 28.8322 41.6754 27.2245 43.6677 24.8887C43.948 24.5583 44.2371 24.1525 44.3528 23.72C44.4525 23.7956 44.5558 23.8847 44.6647 23.9943C46.2908 25.6693 44.855 27.0314 43.5274 28.0142C42.4221 28.828 41.2026 29.5118 40.01 30.1883C36.4875 32.1814 32.8338 33.9539 29.1741 35.677C25.3211 37.4883 21.4156 39.2114 17.4335 40.7287C16.023 41.2664 14.6017 41.7633 13.1444 42.1529C12.2202 42.4 11.2292 42.6139 10.2704 42.4614C9.45922 42.3206 9.06562 41.3892 9.05381 40.4798ZM55.9736 67.5895C56.2839 70.4266 55.0565 72.0542 52.9411 73.6053C50.3425 75.5119 47.4028 77.0352 44.4217 78.2411C42.5357 79.0008 39.0713 80.5622 37.1965 79.0924C35.7259 77.9453 34.5506 77.3616 33.4545 75.7493C31.8619 73.4157 30.4296 70.9516 29.0297 68.5007C26.9239 64.815 25.0696 60.9891 23.0644 57.2473C21.5966 54.5153 20.0263 51.8325 18.3541 49.2282C17.696 48.1996 16.8737 47.3682 15.8051 46.7779C14.805 46.2277 14.1622 45.9324 13.5004 44.8902C13.1598 44.3461 12.884 43.8285 12.5157 43.343C13.8905 43.0776 15.2967 42.4973 16.3727 42.1147C22.9974 39.774 29.424 36.7199 35.6891 33.5482C38.2617 32.2472 40.8454 30.9067 43.2722 29.3307C43.6792 29.0686 44.1163 28.7838 44.5241 28.4704C44.6967 29.2784 45.0308 30.014 45.2984 30.8257C45.6628 31.9182 44.9939 33.2286 44.9163 34.3444C44.7407 36.6617 46.0335 39.2799 46.7666 41.4272C48.1521 45.4734 49.8252 49.4062 51.3923 53.3746C52.2175 55.4608 52.982 57.5632 53.7079 59.6833C54.5633 62.2068 55.6849 64.9146 55.9736 67.5895Z" fill="#E9E9E9"/>
<path d="M37.8919 66.7443C37.8956 66.758 37.8992 66.7716 37.9011 66.7784C39.4118 69.9954 44.2525 67.7959 42.8339 64.5178C42.1733 62.9935 41.01 62.5088 39.4436 62.9495C37.9108 63.3812 37.3936 65.2861 37.848 66.6612C37.8706 66.6916 37.8779 66.7189 37.8919 66.7443ZM39.6944 63.8607C40.6718 63.4606 41.4426 63.8021 41.9153 64.705C43.0962 66.9589 39.8444 68.5584 38.7442 66.3632C38.4469 65.4133 38.69 64.2679 39.6944 63.8607Z" fill="#E9E9E9"/>
<path d="M49.1896 67.9287C47.6569 68.3604 47.1397 70.2653 47.5941 71.6404C47.6014 71.6676 47.6154 71.6931 47.6295 71.7185C47.6331 71.7321 47.6368 71.7458 47.6386 71.7526C49.1493 74.9695 53.99 72.7701 52.5714 69.492C51.9194 67.9727 50.7561 67.488 49.1896 67.9287ZM48.4768 71.346C48.1863 70.3943 48.4294 69.2489 49.4319 68.8348C50.4093 68.4348 51.1801 68.7763 51.6546 69.686C52.8356 71.9399 49.5837 73.5394 48.4768 71.346Z" fill="#E9E9E9"/>
<path d="M37.4784 60.8176C36.8179 59.2933 35.6546 58.8086 34.0881 59.2493C32.5553 59.681 32.0382 61.5859 32.4926 62.961C32.4998 62.9882 32.5139 63.0137 32.5279 63.0391C32.5316 63.0528 32.5334 63.0596 32.537 63.0732C34.0563 66.2952 38.897 64.0957 37.4784 60.8176ZM33.382 62.6648C33.0914 61.7131 33.3346 60.5677 34.3371 60.1537C35.3145 59.7536 36.0871 60.1019 36.5598 61.0048C37.734 63.2605 34.4889 64.8582 33.382 62.6648Z" fill="#E9E9E9"/>
<path d="M45.9662 60.7897C45.9698 60.8034 45.9716 60.8102 45.9753 60.8238C47.486 64.0408 52.3267 61.8413 50.9081 58.5632C50.2475 57.0389 49.0842 56.5542 47.5178 56.9949C45.985 57.4266 45.4679 59.3315 45.9222 60.7066C45.9399 60.7457 45.954 60.7711 45.9662 60.7897ZM47.7686 57.9061C48.746 57.5061 49.5168 57.8475 49.9913 58.7572C51.1723 61.0112 47.9272 62.6088 46.8135 60.4172C46.5229 59.4656 46.7661 58.3201 47.7686 57.9061Z" fill="#E9E9E9"/>
<path d="M38.5178 72.3072C36.985 72.7389 36.4679 74.6438 36.9222 76.0188C36.9295 76.0461 36.9436 76.0715 36.9576 76.097C36.9612 76.1106 36.9631 76.1174 36.9667 76.1311C38.4774 79.348 43.3182 77.1486 41.8995 73.8705C41.2475 72.3511 40.0775 71.8683 38.5178 72.3072ZM37.805 75.7244C37.5144 74.7728 37.7575 73.6274 38.76 73.2133C39.7374 72.8133 40.5082 73.1547 40.9828 74.0645C42.1569 76.3202 38.9119 77.9178 37.805 75.7244Z" fill="#E9E9E9"/>
<path d="M45.346 69.5106C45.3424 69.497 45.3387 69.4834 45.3369 69.4766C44.8358 68.4133 43.6737 67.9064 42.5773 68.3747C41.4354 68.8625 40.9726 70.1324 41.4668 71.2778C41.9768 72.4555 42.9111 72.8408 44.12 72.4957C45.3222 72.1523 45.7525 70.6795 45.3881 69.587C45.3741 69.5615 45.36 69.5361 45.346 69.5106ZM43.871 71.5913C43.1863 71.8693 42.6855 71.6455 42.3586 71.0175C41.5589 69.4865 43.7392 68.4218 44.5023 69.8968C44.6852 70.5268 44.549 71.3151 43.871 71.5913Z" fill="#E9E9E9"/>
<path d="M45.1498 74.4184C45.0162 74.1621 44.7125 74.0535 44.4505 74.1819C44.1817 74.3122 44.0859 74.6298 44.2096 74.9033C44.3297 75.1632 44.5704 75.2522 44.8402 75.18C45.1321 75.1093 45.2544 74.7554 45.1766 74.4915C45.173 74.4779 45.1626 74.466 45.1589 74.4524C45.1553 74.4388 45.1602 74.4302 45.1498 74.4184Z" fill="#E9E9E9"/>
<path d="M43.3566 62.7427C43.0879 62.873 42.9921 63.1906 43.1158 63.4641C43.2359 63.724 43.4765 63.813 43.7464 63.7408C44.0383 63.6701 44.1606 63.3162 44.0828 63.0523C44.0791 63.0386 44.0687 63.0268 44.0651 63.0132C44.0615 62.9996 44.0596 62.9928 44.056 62.9791C43.9175 62.7315 43.6187 62.6142 43.3566 62.7427Z" fill="#E9E9E9"/>
<path d="M41.6498 53.7824C41.5162 53.5261 41.2125 53.4175 40.9505 53.5459C40.6817 53.6762 40.5859 53.9938 40.7096 54.2673C40.8297 54.5272 41.0704 54.6162 41.3402 54.5441C41.6321 54.4733 41.7544 54.1194 41.6766 53.8555C41.673 53.8419 41.6626 53.8301 41.6589 53.8164C41.6571 53.8096 41.6535 53.796 41.6498 53.7824Z" fill="#E9E9E9"/>
<path d="M28.2123 50.0822C28.0787 49.8259 27.775 49.7173 27.513 49.8457C27.2442 49.976 27.1484 50.2936 27.2721 50.5672C27.3922 50.8271 27.6329 50.916 27.9027 50.8439C28.1946 50.7731 28.3169 50.4192 28.2391 50.1553C28.2355 50.1417 28.2251 50.1299 28.2214 50.1162C28.2178 50.1026 28.2227 50.094 28.2123 50.0822Z" fill="#E9E9E9"/>
<path d="M37.7586 49.0188C37.755 49.0052 37.7446 48.9934 37.741 48.9798C37.7373 48.9661 37.7355 48.9593 37.7318 48.9457C37.5983 48.6894 37.2945 48.5808 37.0325 48.7093C36.7637 48.8395 36.6679 49.1572 36.7917 49.4307C36.9117 49.6906 37.1524 49.7795 37.4223 49.7074C37.7124 49.6298 37.8364 49.2827 37.7586 49.0188Z" fill="#E9E9E9"/>
<path d="M29.2703 45.0616C29.2667 45.0479 29.2563 45.0361 29.2527 45.0225C29.249 45.0089 29.2472 45.002 29.2436 44.9884C29.11 44.7321 28.8063 44.6235 28.5442 44.752C28.2754 44.8823 28.1796 45.1999 28.3034 45.4734C28.4235 45.7333 28.6641 45.8223 28.934 45.7501C29.2259 45.6794 29.35 45.3323 29.2703 45.0616Z" fill="#E9E9E9"/>
<path d="M34.5902 45.4198C34.8821 45.349 35.0062 45.002 34.9266 44.7312C34.923 44.7176 34.9126 44.7058 34.9089 44.6922C34.9053 44.6785 34.9035 44.6717 34.8998 44.6581C34.7662 44.4018 34.4625 44.2932 34.2005 44.4217C33.9317 44.5519 33.8359 44.8696 33.9596 45.1431C34.0797 45.403 34.3204 45.4919 34.5902 45.4198Z" fill="#E9E9E9"/>
<path d="M41.5847 45.8933C41.5811 45.8797 41.5792 45.8729 41.5756 45.8593C41.442 45.603 41.1383 45.4944 40.8762 45.6228C40.6075 45.7531 40.5117 46.0707 40.6354 46.3443C40.7555 46.6042 40.9961 46.6931 41.266 46.621C41.5579 46.5502 41.6802 46.1963 41.6024 45.9324C41.5987 45.9188 41.5883 45.907 41.5847 45.8933Z" fill="#E9E9E9"/>
<path d="M42.2434 40.0884C41.9746 40.2187 41.8788 40.5363 42.0025 40.8098C42.1226 41.0697 42.3633 41.1587 42.6331 41.0865C42.925 41.0158 43.0473 40.6619 42.9695 40.398C42.9659 40.3843 42.9555 40.3725 42.9518 40.3589C42.9482 40.3453 42.9464 40.3385 42.9427 40.3248C42.811 40.0754 42.5054 39.9599 42.2434 40.0884Z" fill="#E9E9E9"/>
<path d="M28.3993 55.8719C28.3956 55.8582 28.3852 55.8464 28.3816 55.8328C28.3779 55.8192 28.3761 55.8124 28.3725 55.7987C28.2389 55.5424 27.9352 55.4338 27.6731 55.5623C27.4043 55.6926 27.3085 56.0102 27.4323 56.2837C27.5524 56.5436 27.793 56.6326 28.0629 56.5604C28.3548 56.4897 28.4789 56.1426 28.3993 55.8719Z" fill="#E9E9E9"/>
<path d="M30.1371 63.6998C30.4272 63.6223 30.5531 63.282 30.4735 63.0113C30.4698 62.9976 30.4594 62.9858 30.4558 62.9722C30.4522 62.9586 30.4503 62.9518 30.4467 62.9381C30.3131 62.6818 30.0094 62.5732 29.7473 62.7017C29.4786 62.832 29.3828 63.1496 29.5065 63.4231C29.6333 63.6812 29.8722 63.7634 30.1371 63.6998Z" fill="#E9E9E9"/>
<path d="M53.8883 67.5196C53.7547 67.2633 53.451 67.1547 53.189 67.2832C52.9135 67.4153 52.8244 67.7311 52.9481 68.0046C53.0682 68.2645 53.3089 68.3535 53.5787 68.2813C53.8707 68.2105 53.9929 67.8567 53.9151 67.5927C53.9115 67.5791 53.9011 67.5673 53.8974 67.5537C53.8956 67.5469 53.8987 67.5314 53.8883 67.5196Z" fill="#E9E9E9"/>
<path d="M35.5872 65.4703C35.3184 65.6005 35.2226 65.9181 35.3463 66.1917C35.4664 66.4516 35.7071 66.5405 35.9769 66.4684C36.267 66.3908 36.3929 66.0505 36.3133 65.7798C36.3097 65.7662 36.2993 65.7544 36.2956 65.7408C36.292 65.7271 36.2902 65.7203 36.2865 65.7067C36.1462 65.4522 35.8492 65.3418 35.5872 65.4703Z" fill="#E9E9E9"/>
<path d="M34.0316 57.1405C34.3235 57.0697 34.4476 56.7227 34.368 56.4519C34.3644 56.4383 34.354 56.4265 34.3503 56.4129C34.3467 56.3992 34.3449 56.3924 34.3412 56.3788C34.2076 56.1225 33.9039 56.0139 33.6419 56.1424C33.3731 56.2726 33.2773 56.5903 33.401 56.8638C33.5279 57.1219 33.7667 57.204 34.0316 57.1405Z" fill="#E9E9E9"/>
<path d="M53.5399 63.7357C53.5363 63.7221 53.5327 63.7085 53.5308 63.7017C53.0297 62.6384 51.8677 62.1315 50.7731 62.6067C49.6312 63.0945 49.1683 64.3644 49.6625 65.5098C50.1726 66.6874 51.1069 67.0727 52.3158 66.7276C53.518 66.3843 53.9464 64.9046 53.5839 63.8189C53.5613 63.7885 53.554 63.7612 53.5399 63.7357ZM52.065 65.8164C51.3803 66.0944 50.8795 65.8706 50.5525 65.2426C49.7529 63.7117 51.9332 62.6469 52.6962 64.1219C52.8791 64.7519 52.7344 65.5353 52.065 65.8164Z" fill="#E9E9E9"/>
<path d="M44.9425 58.8227C44.9352 58.7954 44.9212 58.77 44.9071 58.7445C44.9035 58.7309 44.9017 58.7241 44.898 58.7105C44.3969 57.6472 43.2349 57.1403 42.1402 57.6155C40.9984 58.1033 40.5355 59.3731 41.0297 60.5185C41.5398 61.6962 42.4741 62.0815 43.683 61.7364C44.8766 61.3881 45.3069 59.9152 44.9425 58.8227ZM43.4322 60.8252C42.7475 61.1032 42.2467 60.8794 41.9197 60.2514C41.12 58.7205 43.3004 57.6557 44.0634 59.1307C44.2463 59.7607 44.1083 60.5423 43.4322 60.8252Z" fill="#E9E9E9"/>
<path d="M46.9289 51.9546C45.787 52.4424 45.3241 53.7122 45.8183 54.8576C46.3284 56.0353 47.2627 56.4206 48.4716 56.0755C49.6738 55.7322 50.104 54.2593 49.7397 53.1668C49.7324 53.1395 49.7183 53.1141 49.7043 53.0886C49.7007 53.075 49.697 53.0614 49.6952 53.0546C49.1941 51.9913 48.0253 51.4862 46.9289 51.9546ZM48.852 53.4698C49.0367 54.1066 48.8987 54.8882 48.2226 55.1711C47.5379 55.4491 47.0371 55.2253 46.7101 54.5973C45.9086 53.0596 48.089 51.9948 48.852 53.4698Z" fill="#E9E9E9"/>
<path d="M33.9225 66.0389C33.9153 66.0116 33.9012 65.9862 33.8872 65.9607C33.8835 65.9471 33.8817 65.9403 33.8781 65.9267C33.3769 64.8634 32.2167 64.3633 31.1203 64.8317C29.9785 65.3195 29.5156 66.5894 30.008 67.7279C30.518 68.9056 31.4523 69.2909 32.6612 68.9458C33.8566 68.6043 34.2851 67.1246 33.9225 66.0389ZM32.4104 68.0346C31.7257 68.3126 31.2249 68.0888 30.898 67.4608C30.0983 65.9299 32.2786 64.8651 33.0416 66.3401C33.2245 66.9701 33.0883 67.7585 32.4104 68.0346Z" fill="#E9E9E9"/>
<path d="M38.8853 69.1C38.878 69.0727 38.8639 69.0473 38.8499 69.0218C38.8463 69.0082 38.8444 69.0014 38.8408 68.9878C38.3397 67.9245 37.1776 67.4176 36.0812 67.886C34.9394 68.3738 34.4765 69.6436 34.9707 70.789C35.4807 71.9667 36.415 72.352 37.6239 72.0069C38.8126 71.6672 39.2411 70.1875 38.8853 69.1ZM35.8539 70.5237C35.0542 68.9928 37.2346 67.928 37.9976 69.403C38.1823 70.0398 38.0443 70.8214 37.3682 71.1043C36.6902 71.3805 36.1809 71.1517 35.8539 70.5237Z" fill="#E9E9E9"/>
<path d="M47.2877 67.7297C48.4899 67.3864 48.9183 65.9067 48.5558 64.821C48.5485 64.7937 48.5344 64.7683 48.5204 64.7428C48.5168 64.7292 48.515 64.7224 48.5113 64.7088C48.0102 63.6455 46.8481 63.1386 45.7535 63.6138C44.6117 64.1016 44.1488 65.3714 44.643 66.5168C45.1427 67.6827 46.0837 68.0662 47.2877 67.7297ZM47.6749 65.1222C47.8596 65.759 47.7216 66.5405 47.0454 66.8235C46.3607 67.1015 45.8599 66.8777 45.533 66.2497C44.7315 64.7119 46.9118 63.6472 47.6749 65.1222Z" fill="#E9E9E9"/>
<path d="M36.5043 57.7711C37.0143 58.9487 37.9487 59.334 39.1576 58.9889C40.3597 58.6456 40.79 57.1727 40.4256 56.0802C40.4183 56.053 40.4043 56.0275 40.3903 56.0021C40.3866 55.9884 40.3848 55.9816 40.3812 55.968C39.88 54.9048 38.718 54.3978 37.6234 54.873C36.4815 55.3608 36.0119 56.6325 36.5043 57.7711ZM39.5465 56.3882C39.7313 57.0251 39.5932 57.8066 38.9171 58.0896C38.2324 58.3675 37.7316 58.1437 37.4047 57.5157C36.5964 55.9798 38.7768 54.915 39.5465 56.3882Z" fill="#E9E9E9"/>
<path d="M38.6229 36.3845C40.3307 35.3366 42.092 34.1648 43.4283 32.6468C43.44 32.6364 43.4431 32.621 43.4413 32.6142L43.4394 32.6074C43.4376 32.6006 43.4358 32.5937 43.4254 32.5819C43.4254 32.5819 43.4254 32.5819 43.4168 32.5769C43.4083 32.5719 43.3997 32.5669 43.393 32.5687L43.3862 32.5705C43.3795 32.5723 43.3709 32.5673 43.366 32.5759C39.3828 35.225 35.2078 37.5896 30.9232 39.7061C26.4723 41.9035 21.9011 43.6513 17.2224 45.2672C17.1954 45.2744 17.1807 45.3003 17.1879 45.3275C17.1885 45.3566 17.2074 45.3734 17.2363 45.373C19.3104 45.3441 21.3858 44.5629 23.3084 43.859C25.9568 42.8955 28.5352 41.7243 31.0751 40.4904C33.6518 39.232 36.181 37.8769 38.6229 36.3845Z" fill="#E9E9E9"/>
<path d="M41.5308 57.0699C41.5258 57.0785 41.5344 57.0835 41.5411 57.0817C41.8865 56.9675 42.1897 56.7769 42.5491 56.6881C42.9557 56.5867 43.4163 56.741 43.7924 56.5528C43.8244 56.537 43.8318 56.4839 43.8025 56.4552C43.2452 56.0202 41.763 56.3435 41.5308 57.0699Z" fill="#E9E9E9"/>
<path d="M42.2317 55.889C41.8866 55.9229 41.6524 56.1826 41.5137 56.4752C41.5088 56.4838 41.521 56.5024 41.5327 56.492C41.7568 56.3299 42.0555 56.2573 42.2936 56.1206C42.3305 56.0962 42.3551 56.0531 42.3527 56.0172C42.354 55.995 42.3486 55.9746 42.3363 55.9559C42.3254 55.915 42.274 55.885 42.2317 55.889Z" fill="#E9E9E9"/>
<path d="M35.2584 72.58C35.0012 72.5101 34.7631 72.3767 34.5416 72.2242C34.3287 72.0767 34.1453 71.8775 33.9705 71.6834C33.8391 71.5433 33.7482 71.3924 33.5688 71.3163C33.5602 71.3113 33.5418 71.3235 33.5454 71.3371C33.5769 71.7521 34.0833 72.1861 34.3793 72.4282C34.6857 72.6821 35.3044 73.0495 35.7009 72.856C35.7328 72.8401 35.7403 72.787 35.7127 72.7652C35.58 72.6474 35.4373 72.6271 35.2584 72.58Z" fill="#E9E9E9"/>
<path d="M35.325 73.14C35.149 73.1579 34.9707 73.1398 34.801 73.1268C34.7568 73.124 34.3831 73.0779 34.4073 73.1956C34.4357 73.3559 34.818 73.407 34.9436 73.4172C35.1661 73.438 35.5453 73.5045 35.6593 73.255C35.6673 73.231 35.6619 73.2105 35.6429 73.1937C35.5383 73.1268 35.4451 73.1298 35.325 73.14Z" fill="#E9E9E9"/>
<path d="M47.3488 72.6627C47.2096 72.4663 47.1393 72.1493 46.9484 72.0032C46.9209 71.9814 46.8768 71.9786 46.8638 72.0113C46.7449 72.2694 46.9426 72.6034 47.0671 72.8256C47.2441 73.136 47.5014 73.3957 47.7884 73.6037C47.9842 73.7412 48.1781 73.4119 47.9755 73.2763C47.7234 73.1174 47.5229 72.9082 47.3488 72.6627Z" fill="#E9E9E9"/>
<path d="M46.62 72.7327C46.5839 72.7058 46.5422 72.7389 46.5396 72.7834C46.5275 72.9545 46.624 73.1258 46.718 73.2613C46.8139 73.4036 46.917 73.5731 47.0972 73.5979C47.1719 73.6071 47.2077 73.5246 47.1998 73.4683C47.1665 73.3166 47.005 73.1992 46.9213 73.0755C46.8242 72.9555 46.7436 72.8164 46.62 72.7327Z" fill="#E9E9E9"/>
<path d="M46.989 50.5297C46.7718 50.6096 46.6385 50.7329 46.4666 50.8738C46.4481 50.886 46.4689 50.9096 46.4824 50.906C46.6547 50.8746 46.8172 50.8603 46.9858 50.8152C47.2085 50.7557 47.4543 50.7557 47.6665 50.6843C47.791 50.6365 47.7964 50.4671 47.6684 50.421C47.4584 50.3385 47.1909 50.4465 46.989 50.5297Z" fill="#E9E9E9"/>
<path d="M47.3719 51.0117C47.3504 51.0394 47.3496 51.0907 47.3956 51.1003C47.5095 51.1209 47.6279 51.1039 47.74 51.1177C47.8809 51.1311 47.971 51.1435 48.0846 51.0548C48.103 51.0425 48.1025 51.0135 48.0903 50.9948C47.9559 50.7898 47.5244 50.8249 47.3719 51.0117Z" fill="#E9E9E9"/>
<path d="M31.7052 60.1785C31.6034 60.4466 31.4532 60.9394 31.6174 61.2021C31.6315 61.2275 31.6756 61.2303 31.6904 61.2045C31.7642 61.0752 31.7849 60.9091 31.8281 60.7734C31.8843 60.6051 31.9712 60.4432 32.0274 60.2749C32.1082 60.0634 31.7829 59.9825 31.7052 60.1785Z" fill="#E9E9E9"/>
<path d="M31.2171 61.0247C31.2847 60.9263 31.4533 60.4214 31.199 60.4164C30.9446 60.4114 31.0862 60.9137 31.1509 61.0205C31.1667 61.0528 31.2023 61.0506 31.2171 61.0247Z" fill="#E9E9E9"/>
<path d="M11.5984 35.748C11.6002 35.7548 11.6021 35.7616 11.6039 35.7684C11.6197 35.8007 11.6504 35.8071 11.6706 35.8017C11.6706 35.8017 11.6706 35.8017 11.6774 35.7999C11.6841 35.7981 11.6908 35.7962 11.6958 35.7876C11.7025 35.7858 11.7093 35.784 11.7142 35.7754C11.7259 35.765 11.7357 35.7477 11.7302 35.7273C11.8322 34.1889 11.6767 32.661 11.8938 31.121C12.0756 29.773 12.4546 28.4598 12.9413 27.1981C13.8716 24.8105 15.5175 22.9907 16.7703 20.8088C16.7752 20.8002 16.7734 20.7933 16.7765 20.7779C16.7747 20.7711 16.7796 20.7625 16.7778 20.7557C16.7741 20.742 16.7723 20.7352 16.7705 20.7284C16.7687 20.7216 16.7668 20.7148 16.7583 20.7098C16.7357 20.6793 16.6946 20.6611 16.6511 20.6873C14.3794 21.7619 13.0202 24.6001 12.1498 26.8331C11.1571 29.4199 10.3983 33.0977 11.5984 35.748Z" fill="#E9E9E9"/>
<path d="M33.0018 18.0023C34.2248 18.8726 35.4936 19.5627 36.6293 20.5658C37.6616 21.4797 38.5116 22.7124 39.6546 23.4727C39.6632 23.4777 39.6699 23.4759 39.6785 23.4809C39.6938 23.4841 39.7006 23.4823 39.7122 23.4719C39.719 23.4701 39.719 23.4701 39.7239 23.4614C39.7307 23.4596 39.7288 23.4528 39.7356 23.451C39.7473 23.4406 39.7522 23.432 39.7485 23.4184L39.7467 23.4115C39.7449 23.4047 39.7498 23.3961 39.748 23.3893C39.2679 21.9992 37.8355 20.8054 36.7572 19.8818C35.7445 19.0138 34.3778 17.9849 33.0007 17.9442C32.994 17.946 32.989 17.9547 32.989 17.9547C32.989 17.9547 32.9823 17.9565 32.9841 17.9633C32.9896 17.9837 32.9932 17.9973 33.0018 18.0023Z" fill="#E9E9E9"/>
<path d="M42.2297 35.5154C42.2175 35.4967 42.1918 35.4817 42.1599 35.4975C40.9239 36.12 39.8254 36.932 38.6541 37.6613C37.3085 38.4955 35.7918 39.1493 34.5402 40.119C34.5286 40.1294 34.5237 40.1381 34.534 40.1499C34.5377 40.1635 34.5463 40.1685 34.5597 40.1649C36.0387 39.9374 37.4639 39.1037 38.7468 38.3592C40.0431 37.6111 41.2815 36.7544 42.2326 35.5803C42.2578 35.5663 42.2487 35.5322 42.2297 35.5154Z" fill="#E9E9E9"/>
</svg>
