<svg width="10" height="12" viewBox="0 0 10 12" fill="none" xmlns="http://www.w3.org/2000/svg">
<g clip-path="url(#clip0_312_60165)">
<path d="M0.0143843 5.89594C0.729653 5.12805 2.05015 4.9198 2.8617 4.16492C3.94836 3.13672 4.30599 1.61395 4.63612 0.247352C4.67738 0.0391092 4.84245 -0.0259667 5.00751 6.36623e-05C5.15881 -0.0259667 5.32388 0.0391092 5.3789 0.247352C5.69527 1.66601 6.08041 3.05863 7.13956 4.16492C7.9236 4.98488 9.2441 5.11503 9.98687 5.89594C10.0144 5.92197 10.0144 5.96102 10.0006 6.00006C10.0281 6.02609 10.0144 6.07816 9.98687 6.10419C9.27161 6.87208 7.95111 7.08032 7.13956 7.83521C6.0529 8.8634 5.68151 10.3862 5.36514 11.7528C5.32388 11.961 5.15881 12.0261 4.99375 12.0001C4.82869 12.0261 4.67738 11.961 4.62236 11.7528C4.29224 10.3341 3.90709 8.9415 2.84795 7.83521C2.0639 7.01525 0.743408 6.8851 0.000629387 6.10419C-0.0268809 6.07816 -0.0268818 6.03911 -0.0131266 6.00006C-0.0131266 5.97403 -0.013126 5.92197 0.0143843 5.89594ZM3.46693 6.87208C4.15469 7.44475 4.67738 8.18661 5.00751 9.00657C5.31012 8.30375 5.75029 7.65299 6.31425 7.06731C6.65813 6.7159 7.22209 6.2864 7.84107 6.00006C7.31837 5.75278 6.8507 5.41438 6.52057 5.14106C5.83282 4.55538 5.31012 3.81351 4.98 2.99356C4.67738 3.69638 4.23722 4.34714 3.67326 4.93282C3.32938 5.28423 2.76542 5.71373 2.14643 6.00006C2.66913 6.26037 3.15056 6.59876 3.46693 6.87208Z" fill="#E9E9E9"/>
</g>
<defs>
<clipPath id="clip0_312_60165">
<rect width="10" height="12" fill="white" transform="matrix(-1 0 0 1 10 0)"/>
</clipPath>
</defs>
</svg>
