<svg width="70" height="72" viewBox="0 0 70 72" fill="none" xmlns="http://www.w3.org/2000/svg">
<path d="M20.2543 18.5532C22.1619 16.3997 24.5509 15.4356 27.3099 16.5509C28.6894 17.1086 31.1829 19.3392 32.6107 17.8844C33.7316 16.7366 33.5635 15.0192 34.8735 14.2146C34.5878 11.8476 36.6897 9.1563 38.9115 8.58812C40.2073 8.25118 41.7457 9.00254 42.908 9.46642C45.4155 10.4618 47.8467 11.6517 50.1731 13.0142C52.4552 14.3519 54.6558 15.808 56.8026 17.3583C58.5302 18.6063 60.7955 19.8951 62.0306 21.6696C63.1708 23.3083 61.3506 27.226 59.4281 27.8514C59.3552 28.4547 59.1921 28.8808 58.6931 29.3211C57.3567 30.5027 56.9737 31.7719 56.8234 33.4808C56.662 35.2986 56.1547 36.8249 55.4124 38.4696C53.8475 41.9232 52.0281 45.2727 50.2261 48.5994C48.4168 51.9476 46.5531 55.2723 44.6667 58.5796C42.9973 61.5201 41.2904 64.4861 38.1981 66.1225C34.5464 68.0537 30.2675 65.4066 27.031 63.7819C24.87 62.6993 22.7877 61.4781 20.7303 60.2127C18.6 58.9008 16.0924 57.5983 14.4845 55.6383C12.099 52.7228 13.5041 48.3796 14.9328 45.3996C15.7254 43.7482 13.9945 43.0123 12.9441 42.2367C12.1773 41.6688 11.5165 40.9741 10.935 40.2228C10.0514 39.0871 9.70167 37.619 10.0887 36.2265C10.968 33.0795 12.6749 30.1135 14.2785 27.2943C16.0263 24.2512 17.9148 21.1893 20.2543 18.5532ZM59.099 26.9589C59.7288 26.8082 60.1807 26.1695 60.5241 25.4839C59.9575 23.8862 58.4561 22.6847 57.1783 21.663C55.3849 20.2293 53.4015 19.0205 51.4192 17.8577C48.9758 16.4238 46.4685 15.0855 43.9039 13.893C41.6708 12.8456 39.0535 11.4503 36.5075 11.6985C36.0056 12.4615 35.6663 13.3308 35.8164 14.1858C40.0235 14.4577 44.3977 17.3581 47.9075 19.3813C51.6757 21.5387 55.9532 23.8687 59.099 26.9589ZM60.2787 21.1975C59.8706 21.5898 59.5607 22.2197 59.4255 22.7393C59.4194 22.7708 59.4064 22.7879 59.3933 22.805C59.571 22.986 59.743 23.1626 59.902 23.3563C60.2095 22.8239 60.5456 22.3133 60.9101 21.8245C60.7314 21.5976 60.5195 21.3905 60.2787 21.1975ZM57.7719 21.3944C58.0261 20.8845 58.3488 20.4268 58.6416 19.9373C58.3167 19.6891 57.9861 19.4364 57.6612 19.1882C57.3859 19.6548 57.0991 20.1128 56.8394 20.5825C56.8277 20.6096 56.809 20.6224 56.7858 20.6408C57.0353 20.8224 57.2804 21.0097 57.5254 21.197C57.6009 21.2637 57.6864 21.329 57.7719 21.3944ZM50.9684 16.9354C51.0069 16.9558 51.0455 16.9763 51.0897 17.0011C51.4109 17.1833 51.722 17.3669 52.0389 17.5548C52.4322 17.0519 52.7515 16.4924 53.0607 15.9342C52.7013 15.6956 52.3389 15.4728 51.9808 15.2444C51.5502 15.7369 51.232 16.3424 50.9684 16.9354ZM52.534 17.852C52.8951 18.0647 53.2518 18.2832 53.6085 18.5016C53.8732 17.9545 54.1934 17.4409 54.5352 16.9346C54.2029 16.7078 53.8707 16.481 53.5384 16.2541C53.2292 16.8123 52.9116 17.3461 52.534 17.852ZM54.095 18.8102C54.3746 18.9877 54.6485 19.1609 54.9238 19.3442C55.0352 18.7613 55.4027 18.2567 55.6986 17.7515C55.4662 17.5829 55.2396 17.4187 55.0072 17.2502C54.6712 17.7608 54.3496 18.2644 54.095 18.8102ZM43.1222 12.9075C43.1551 12.9235 43.1879 12.9396 43.2151 12.9513C43.6849 12.4075 43.925 11.7153 44.2436 11.0739C43.8905 10.9215 43.5318 10.7648 43.1745 10.6181C42.8388 11.2463 42.5088 11.8789 42.1118 12.4693C42.4534 12.613 42.785 12.7581 43.1222 12.9075ZM43.7639 13.1902C44.1826 13.3747 44.6027 13.5693 45.0127 13.7653C45.3483 13.137 45.6726 12.5001 46.0924 11.9271C45.6553 11.7194 45.2124 11.5074 44.7709 11.3054C44.4523 11.9467 44.2008 12.6303 43.7639 13.1902ZM46.5993 12.1971C46.1681 12.7614 45.8539 13.397 45.5226 14.0196C45.9611 14.2373 46.3996 14.455 46.8337 14.6785C47.165 14.0559 47.4736 13.4159 47.8106 12.7977C47.4136 12.5847 47.0137 12.3874 46.6124 12.18C46.6023 12.1814 46.6037 12.1914 46.5993 12.1971ZM40.9613 9.75731C40.562 9.64179 40.1725 9.5608 39.7967 9.54449C39.5945 10.1754 39.2135 10.7329 38.8755 11.3052C39.2134 11.3829 39.554 11.4807 39.8859 11.5898C40.3784 11.0634 40.6299 10.3799 40.9613 9.75731ZM37.4912 10.4821C37.3059 10.6655 37.1233 10.869 36.9477 11.0869C37.3969 11.0781 37.8414 11.1108 38.2812 11.1851C38.59 10.6627 38.9707 10.1411 39.191 9.56915C38.6048 9.66285 38.0428 9.93755 37.4912 10.4821ZM41.6535 9.99743C41.6049 9.97834 41.5563 9.95925 41.5077 9.94016C41.5033 9.94586 41.509 9.95021 41.5047 9.95591C41.172 10.5684 40.9148 11.2476 40.4708 11.7931C40.8426 11.9328 41.2157 12.0825 41.5845 12.2379C41.9986 11.6606 42.3185 11.0293 42.6542 10.401C42.3183 10.2617 41.9881 10.1267 41.6535 9.99743ZM48.3118 13.0634C47.9747 13.6816 47.6706 14.3159 47.3393 14.9384C47.7791 15.1662 48.2203 15.4041 48.6514 15.6433C49.1179 15.1511 49.3607 14.4789 49.6803 13.8835C49.6933 13.8664 49.7021 13.855 49.7108 13.8436C49.2498 13.5726 48.7801 13.313 48.3118 13.0634ZM50.1945 14.1321C49.875 14.7275 49.6234 15.411 49.1697 15.922C49.6009 16.1612 50.0377 16.4047 50.4645 16.6496C50.7368 16.0452 51.0594 15.434 51.4886 14.9314C51.2704 14.7917 51.0464 14.6477 50.8282 14.508C50.617 14.3827 50.4058 14.2574 50.1945 14.1321ZM56.1532 18.0899C55.8577 18.5592 55.5046 19.0568 55.4595 19.6001C55.4592 19.636 55.4474 19.6631 55.4357 19.6903C55.7395 19.8953 56.0389 20.1061 56.3325 20.3125C56.614 19.8143 56.9182 19.3335 57.2053 18.8397C56.8546 18.5898 56.5039 18.3398 56.1532 18.0899ZM59.1147 20.2989C59.109 20.2945 59.0976 20.2858 59.0919 20.2814C58.8021 20.7552 58.4794 21.2128 58.2453 21.72C58.2366 21.7314 58.2322 21.7371 58.2235 21.7485C58.4699 21.9459 58.7076 22.1546 58.9467 22.3734C59.1151 21.8341 59.4361 21.2487 59.8315 20.8376C59.5877 20.6604 59.3383 20.4788 59.1147 20.2989ZM61.1869 23.8959C61.4435 23.2884 61.4222 22.7846 61.231 22.3496C60.8853 22.8257 60.568 23.3235 60.2836 23.8375C60.5019 24.1307 60.6914 24.438 60.842 24.7608C60.9726 24.4363 61.0858 24.1346 61.1869 23.8959ZM15.5567 55.4284C16.4252 56.4894 17.8621 57.2083 18.9802 57.9544C20.3108 58.8359 21.672 59.6775 23.0405 60.4976C25.3095 61.8524 27.6586 63.0788 30.0677 64.1795C32.4496 65.2685 34.811 66.396 37.4239 65.4225C37.8673 65.2558 38.2896 65.0458 38.6864 64.7983C34.1173 64.7283 29.5942 62.4363 25.6469 60.3949C21.5854 58.3022 17.2224 55.7534 14.236 52.1711C14.3561 53.3372 14.7664 54.4543 15.5567 55.4284ZM13.8051 30.1466C13.033 31.606 12.3108 33.0944 11.6757 34.6225C10.8514 36.6108 10.5888 38.2067 12.017 40.0475C13.2168 41.5964 15.2412 42.0781 15.9963 43.9372C16.6125 45.4464 15.0906 47.3078 14.6503 48.7228C14.448 49.3537 14.3145 50.001 14.247 50.6446C17.0075 54.4516 21.4074 57.0466 25.4766 59.2355C29.6673 61.4901 34.8154 64.1693 39.7124 63.8219C39.7885 63.8168 39.8559 63.8232 39.9159 63.851C42.0254 61.9059 43.3997 58.9024 44.7237 56.5557C47.4151 51.8051 50.0667 47.0241 52.554 42.1626C53.5195 40.2732 54.4822 38.3636 55.2676 36.3907C55.8782 34.8711 55.8515 33.2166 56.0726 31.616C56.1234 31.2305 56.2268 30.5872 56.4278 30.2533C56.9699 29.3314 58.2803 28.798 58.4841 27.6807C55.6525 24.9119 51.8736 22.8275 48.5086 20.8157C46.1497 19.4012 43.7326 18.0867 41.2394 16.9307C39.4391 16.0966 37.433 15.1775 35.4222 15.1034C35.3719 15.1101 35.3246 15.1011 35.2774 15.092C34.5756 15.585 34.9151 16.4403 34.4816 17.1021C34.0946 17.6912 33.6034 18.3811 33.0414 18.8094C32.3451 19.3425 30.5478 19.4497 29.7914 18.9981C28.0776 17.9682 26.2554 16.7021 24.1619 17.0433C22.429 17.3261 21.1317 18.9529 20.1044 20.2262C17.6436 23.2572 15.6382 26.7083 13.8051 30.1466Z" fill="#E9E9E9"/>
<path d="M27.3268 21.7995C27.3754 21.8185 27.4297 21.842 27.481 21.8812C27.5481 21.9234 27.595 21.9683 27.6276 22.0203C28.7357 23.0748 27.8683 24.2807 27.162 25.4293C25.4149 28.2472 23.7891 31.1307 22.1747 34.0229C21.4266 35.3562 20.6943 36.6925 19.9633 38.0389C19.5359 38.8227 19.1583 39.6357 18.2407 39.8914C16.8842 40.2723 15.4883 38.5193 15.0271 37.4807C14.2455 35.6917 15.712 33.4538 16.4848 31.9227C17.5484 29.8103 18.7491 27.7666 19.9954 25.7577C21.6668 23.0626 23.8248 19.8725 27.3268 21.7995ZM20.7591 26.3414C19.1389 28.9222 17.6183 31.5972 16.3736 34.3837C15.9753 35.2711 15.6491 36.1233 15.9213 37.1258C16.1545 37.9902 17.6436 39.5976 18.5697 38.5629C19.8524 37.1326 20.6786 34.7756 21.6193 33.0839C22.4943 31.5136 23.3821 29.962 24.28 28.4091C24.7872 27.5327 27.8787 23.4401 26.9031 22.6493C23.8261 20.8395 22.0912 24.2085 20.7591 26.3414Z" fill="#E9E9E9"/>
<path d="M53.9484 22.1203C51.9278 20.7476 49.8301 19.4876 47.7016 18.3033C45.8272 17.2591 43.9062 16.2877 41.947 15.4134C40.641 14.8306 39.1924 14.1389 37.755 13.9523C37.7034 13.9489 37.7013 13.8571 37.7573 13.8547C39.1152 13.7909 40.5074 14.3674 41.7454 14.8621C43.8598 15.7105 45.889 16.7647 47.8834 17.8645C49.9878 19.0213 52.0409 20.2924 54.0143 21.656C55.5485 22.7201 57.3358 23.8783 58.4655 25.4007C58.5024 25.447 58.4388 25.5067 58.3932 25.4718C56.9039 24.3608 55.4913 23.173 53.9484 22.1203Z" fill="#E9E9E9"/>
<path d="M53.9165 26.5362C53.4418 26.2005 52.9553 25.8919 52.4588 25.5847C52.0293 25.3197 51.5174 25.1271 51.2169 24.7169C51.1858 24.675 51.2206 24.6294 51.2622 24.6341C52.2376 24.6573 53.3803 25.702 54.143 26.2398C55.1025 26.9099 56.0832 27.6232 56.7733 28.5749C56.7975 28.6024 56.7613 28.638 56.7284 28.6219C55.7877 27.9391 54.876 27.2063 53.9165 26.5362Z" fill="#E9E9E9"/>
<path d="M50.7404 24.5447C50.5963 24.4617 50.4404 24.4057 50.2992 24.3069C50.1809 24.2255 50.0063 24.1823 49.966 24.0342C49.9619 24.004 49.9579 23.9738 49.9911 23.954C50.1355 23.8477 50.3025 23.9482 50.4352 24.0226C50.6294 24.1348 50.7055 24.2833 50.8359 24.4552C50.8755 24.5216 50.8018 24.5826 50.7404 24.5447Z" fill="#E9E9E9"/>
<path d="M34.0029 47.4516C33.9627 47.457 33.9211 47.4523 33.8853 47.4519C32.2669 47.4431 31.0251 46.4218 30.9327 44.7351C30.8447 43.0427 32.2242 41.6865 33.8955 41.7087C35.4492 41.7314 36.5436 42.8747 36.6446 44.3965C36.7537 45.9785 35.6305 47.2238 34.1135 47.4368C34.0834 47.4408 34.0488 47.4506 34.0029 47.4516ZM35.6945 44.7537C35.8182 43.7649 35.1894 42.851 34.2139 42.6743C31.4766 42.1804 31.0338 46.5639 33.8809 46.5007C34.9006 46.3951 35.5604 45.7798 35.6945 44.7537Z" fill="#E9E9E9"/>
<path d="M31.7862 53.7458C33.3398 53.7685 34.4342 54.9118 34.5353 56.4336C34.6443 58.0157 33.5212 59.2609 32.0041 59.4739C31.9696 59.4836 31.9294 59.489 31.8835 59.49C31.8433 59.4954 31.8017 59.4907 31.7658 59.4904C30.1475 59.4815 28.9056 58.4602 28.8133 56.7736C28.7296 55.0755 30.1149 53.7236 31.7862 53.7458ZM31.7672 58.5435C32.7925 58.4423 33.4567 57.8213 33.5807 56.7965C33.7044 55.8077 33.0757 54.8938 32.1002 54.7171C29.3628 54.2232 28.9201 58.6067 31.7672 58.5435Z" fill="#E9E9E9"/>
<path d="M40.0635 37.7829C41.6171 37.8056 42.7116 38.9489 42.8126 40.4707C42.9217 42.0528 41.7985 43.298 40.2815 43.511C40.247 43.5207 40.2067 43.5261 40.1608 43.5271C40.1206 43.5325 40.079 43.5278 40.0432 43.5275C38.4248 43.5186 37.183 42.4973 37.0906 40.8107C37.0113 39.1069 38.3865 37.7563 40.0635 37.7829ZM40.0388 42.5762C41.0642 42.475 41.7283 41.854 41.8524 40.8293C41.9761 39.8404 41.3473 38.9266 40.3718 38.7499C37.6402 38.2603 37.1917 42.6395 40.0388 42.5762Z" fill="#E9E9E9"/>
<path d="M41.1374 51.1142C42.3984 51.1299 43.3081 52.0778 43.3916 53.3154C43.4818 54.6031 42.5758 55.6352 41.3359 55.8162C41.3014 55.8259 41.2612 55.8313 41.2153 55.8323C41.175 55.8377 41.1335 55.833 41.0976 55.8327C39.785 55.8137 38.758 54.9837 38.6916 53.6058C38.6167 52.2033 39.7473 51.0901 41.1374 51.1142ZM41.0889 54.8871C41.8515 54.8108 42.329 54.3632 42.432 53.6022C42.5246 52.8785 42.0672 52.213 41.3539 52.0831C39.3399 51.7177 39.0124 54.9344 41.0889 54.8871Z" fill="#E9E9E9"/>
<path d="M21.1446 42.8344C22.4056 42.8501 23.3153 43.7981 23.3988 45.0356C23.489 46.3234 22.583 47.3554 21.3489 47.5408C21.3143 47.5505 21.2741 47.5559 21.2282 47.5569C21.188 47.5623 21.1464 47.5576 21.1105 47.5573C19.7979 47.5383 18.7709 46.7083 18.7045 45.3304C18.6239 43.9236 19.7602 42.8147 21.1446 42.8344ZM21.1019 46.6117C21.8644 46.5354 22.3419 46.0878 22.4449 45.3268C22.5375 44.6031 22.0845 43.9319 21.3668 43.8077C19.3471 43.438 19.0196 46.6546 21.1019 46.6117Z" fill="#E9E9E9"/>
<path d="M27.3437 47.4616C27.3035 47.4669 27.2619 47.4623 27.2261 47.4619C25.9134 47.4429 24.8865 46.613 24.82 45.235C24.7452 43.8326 25.8758 42.7194 27.2702 42.7377C28.5312 42.7534 29.4409 43.7014 29.5244 44.9389C29.6146 46.2267 28.7086 47.2587 27.4687 47.4397C27.4242 47.4508 27.3839 47.4562 27.3437 47.4616ZM28.5548 45.2271C28.6474 44.5034 28.19 43.8379 27.4766 43.708C25.4627 43.3426 25.1308 46.5649 27.2117 46.512C27.9742 46.4357 28.4618 45.9867 28.5548 45.2271Z" fill="#E9E9E9"/>
<path d="M45.6674 47.5353C45.6271 47.5407 45.5856 47.536 45.5497 47.5356C44.2371 47.5166 43.2101 46.6867 43.1436 45.3087C43.0688 43.9063 44.1994 42.7931 45.5938 42.8114C46.8548 42.8271 47.7645 43.7751 47.848 45.0126C47.9382 46.3004 47.0322 47.3324 45.7981 47.5178C45.7535 47.5289 45.7133 47.5343 45.6674 47.5353ZM46.8827 45.2951C46.9754 44.5714 46.5223 43.9002 45.8046 43.776C43.7906 43.4106 43.4588 46.633 45.5397 46.58C46.3022 46.5037 46.7854 46.0604 46.8827 45.2951Z" fill="#E9E9E9"/>
<path d="M23.9854 48.4529C25.539 48.4755 26.6334 49.6188 26.7345 51.1406C26.8436 52.7227 25.7204 53.9679 24.2034 54.1809C24.1688 54.1907 24.1286 54.196 24.0827 54.1971C24.0425 54.2024 24.0009 54.1978 23.965 54.1974C22.3467 54.1886 21.1048 53.1673 21.0125 51.4806C20.9288 49.7825 22.304 48.4319 23.9854 48.4529ZM23.9621 53.2562C24.9874 53.155 25.6516 52.534 25.7756 51.5093C25.8993 50.5204 25.2705 49.6065 24.2951 49.4299C21.5621 48.9303 21.1149 53.3194 23.9621 53.2562Z" fill="#E9E9E9"/>
<path d="M28.1177 35.4238C29.6713 35.4465 30.7658 36.5898 30.8668 38.1115C30.9759 39.6936 29.8527 40.9389 28.3357 41.1519C28.3012 41.1616 28.2609 41.167 28.215 41.168C28.1748 41.1734 28.1332 41.1687 28.0974 41.1684C26.479 41.1595 25.2372 40.1382 25.1448 38.4515C25.0611 36.7535 26.4364 35.4029 28.1177 35.4238ZM28.0944 40.2272C29.1197 40.1259 29.7839 39.505 29.9079 38.4802C30.0316 37.4914 29.4029 36.5775 28.4274 36.4008C25.69 35.9069 25.2473 40.2904 28.0944 40.2272Z" fill="#E9E9E9"/>
<path d="M28.1521 50.4904C28.0811 49.4611 28.7787 48.6309 29.7631 48.4533C29.812 48.4365 29.8566 48.4254 29.9183 48.4274C29.9743 48.4251 30.0259 48.4284 30.0732 48.4374C31.1116 48.4727 31.9377 49.1401 31.9924 50.2382C32.0551 51.3966 31.1272 52.3036 29.9839 52.2875C28.9682 52.2697 28.2248 51.494 28.1521 50.4904ZM30.0446 49.3726C29.5046 49.4295 29.1762 49.7292 29.1054 50.2709C29.0435 50.7654 29.3463 51.2315 29.8391 51.3192C31.2443 51.5715 31.4839 49.344 30.0446 49.3726Z" fill="#E9E9E9"/>
<path d="M34.4682 38.6691C33.4482 38.657 32.7049 37.8813 32.6365 36.872C32.5655 35.8427 33.2731 35.0112 34.2532 34.8392C34.3021 34.8225 34.3467 34.8114 34.4084 34.8134C34.4643 34.811 34.5103 34.81 34.5575 34.819C35.596 34.8542 36.4221 35.5217 36.4767 36.6198C36.5351 37.7839 35.6072 38.6909 34.4682 38.6691ZM34.5303 35.7643C33.9904 35.8211 33.662 36.1209 33.5911 36.6626C33.5292 37.157 33.832 37.6232 34.3248 37.7108C35.73 37.9631 35.964 35.7313 34.5303 35.7643Z" fill="#E9E9E9"/>
<path d="M38.3196 48.0516C38.2486 47.0222 38.9519 46.1964 39.9306 46.0144C39.9796 45.9976 40.0241 45.9866 40.0902 45.9829C40.1461 45.9805 40.1978 45.9838 40.245 45.9929C41.2835 46.0281 42.1096 46.6955 42.1642 47.7936C42.227 48.952 41.2991 49.859 40.1557 49.8429C39.1257 49.8322 38.3823 49.0565 38.3196 48.0516ZM40.2121 46.9338C39.6722 46.9906 39.3438 47.2904 39.2729 47.832C39.211 48.3265 39.5138 48.7926 40.0066 48.8803C41.4075 49.1383 41.6458 46.9008 40.2121 46.9338Z" fill="#E9E9E9"/>
<path d="M35.6523 52.62C34.6323 52.6079 33.8889 51.8321 33.8162 50.8286C33.7451 49.7992 34.4485 48.9734 35.4329 48.7958C35.4818 48.779 35.5264 48.7679 35.5881 48.7699C35.644 48.7676 35.6957 48.7709 35.7372 48.7756C36.7757 48.8108 37.6018 49.4782 37.6564 50.5763C37.7235 51.729 36.7956 52.636 35.6523 52.62ZM35.713 49.7051C35.1731 49.7619 34.8447 50.0617 34.7738 50.6034C34.7119 51.0978 35.0147 51.564 35.5075 51.6516C36.9127 51.9039 37.1467 49.6721 35.713 49.7051Z" fill="#E9E9E9"/>
<path d="M38.2443 56.5617C38.3003 56.5593 38.3462 56.5583 38.3935 56.5673C39.4319 56.6025 40.258 57.27 40.3127 58.3681C40.3754 59.5265 39.4475 60.4335 38.3042 60.4174C37.2842 60.4053 36.5408 59.6296 36.4681 58.626C36.397 57.5967 37.1047 56.7652 38.0791 56.5889C38.1337 56.5765 38.1826 56.5597 38.2443 56.5617ZM37.4314 58.4052C37.3695 58.8996 37.6723 59.3658 38.1651 59.4534C39.5703 59.7057 39.8042 57.4739 38.3706 57.5069C37.8307 57.5637 37.5023 57.8635 37.4314 58.4052Z" fill="#E9E9E9"/>
<path d="M33.5789 45.8709C33.5293 45.8059 33.54 45.7328 33.5779 45.6714C33.7293 45.426 34.0983 45.392 34.3054 45.1801C34.5356 44.9498 34.6877 44.6326 34.935 44.4154C35.0087 44.3543 35.1086 44.4126 35.1251 44.4974C35.199 44.897 34.9092 45.3707 34.6327 45.6379C34.3938 45.8797 33.8522 46.2693 33.5789 45.8709Z" fill="#E9E9E9"/>
<path d="M29.1475 37.9527C29.5525 38.0725 29.2212 38.8486 29.0945 39.0498C28.8513 39.4507 28.178 39.812 27.7308 39.6056C27.7094 39.5982 27.6852 39.5708 27.6969 39.5436C27.8074 39.0683 28.3387 39.0229 28.6329 38.697C28.7314 38.5917 28.993 37.9068 29.1475 37.9527Z" fill="#E9E9E9"/>
<path d="M26.8287 46.0308C26.7315 45.9926 26.6996 45.869 26.7606 45.7892C26.903 45.591 27.1098 45.5685 27.3286 45.483C27.5951 45.3706 27.7499 45.0736 27.9439 44.8788C27.9801 44.8432 28.0303 44.8365 28.0615 44.8784C28.2671 45.1528 28.0483 45.5454 27.8241 45.7443C27.5768 45.9615 27.1633 46.1601 26.8287 46.0308Z" fill="#E9E9E9"/>
<path d="M23.6383 52.3421C23.9111 52.3159 24.1427 52.2491 24.3679 52.0962C24.6913 51.8738 24.855 51.376 25.2093 51.2314C25.2338 51.2231 25.2509 51.2361 25.2579 51.2505C25.5809 52.021 23.7096 53.3356 23.2505 52.5423C23.2364 52.5135 23.2337 52.4934 23.2568 52.475C23.3768 52.377 23.4918 52.3566 23.6383 52.3421Z" fill="#E9E9E9"/>
<path d="M21.464 45.5605C21.6017 45.4039 21.6704 45.1133 21.8762 45.0448C21.8906 45.0378 21.902 45.0465 21.9134 45.0552C22.1065 45.275 21.8663 45.6603 21.7168 45.844C21.5007 46.1032 21.0902 46.286 20.7519 46.2442C20.58 46.2211 20.5591 45.9885 20.7089 45.9224C20.9784 45.7943 21.2553 45.7982 21.464 45.5605Z" fill="#E9E9E9"/>
<path d="M30.4283 50.4623C30.508 50.3698 30.6411 50.4083 30.6673 50.5276C30.7502 50.8799 30.0485 51.3728 29.8308 51.0079C29.804 50.9603 29.7902 50.8956 29.8351 50.8486C29.9293 50.7491 30.0211 50.747 30.1377 50.7007C30.2601 50.6588 30.3442 50.5605 30.4283 50.4623Z" fill="#E9E9E9"/>
<path d="M30.0943 33.9466C29.0743 33.9345 28.331 33.1587 28.2626 32.1495C28.1916 31.1201 28.8892 30.29 29.8736 30.1123C29.9225 30.0956 29.9671 30.0845 30.0288 30.0865C30.0848 30.0841 30.1307 30.0831 30.1779 30.0921C31.2164 30.1273 32.0425 30.7948 32.0972 31.8929C32.1656 33.0556 31.2377 33.9626 30.0943 33.9466ZM30.1608 31.0361C29.6208 31.0929 29.2924 31.3926 29.2215 31.9343C29.1597 32.4288 29.4625 32.8949 29.9553 32.9826C31.3605 33.2349 31.5944 31.0031 30.1608 31.0361Z" fill="#E9E9E9"/>
<path d="M29.9402 32.6726C29.9133 32.6251 29.8996 32.5604 29.9445 32.5134C30.0386 32.4139 30.1305 32.4118 30.2471 32.3655C30.3694 32.3236 30.4579 32.2196 30.5377 32.1271C30.6174 32.0346 30.7505 32.0731 30.7767 32.1924C30.8596 32.5447 30.1622 33.0319 29.9402 32.6726Z" fill="#E9E9E9"/>
<path d="M31.4979 57.7145C31.7406 57.6923 31.9812 57.5783 32.1846 57.4538C32.3462 57.3606 32.4879 57.2342 32.624 57.1034C32.7469 56.9898 32.8243 56.8412 32.9912 56.7882C33.0214 56.7842 33.0573 56.7845 33.067 56.819C33.2126 57.2192 32.5658 57.6639 32.2803 57.8249C31.8952 58.0452 31.1625 58.3069 30.8192 57.882C30.734 57.7808 30.8399 57.654 30.9475 57.655C31.1426 57.6596 31.3099 57.7243 31.4979 57.7145Z" fill="#E9E9E9"/>
<path d="M35.4738 51.3387C35.3045 51.3357 35.2964 51.1218 35.3919 51.0323C35.4874 50.9428 35.6382 50.9226 35.7605 50.8807C35.9275 50.8277 35.9797 50.7593 36.0843 50.6225C36.1452 50.5427 36.2827 50.5755 36.2961 50.6761C36.3355 51.0853 35.8224 51.3432 35.4738 51.3387Z" fill="#E9E9E9"/>
<path d="M41.7839 53.443C41.8348 53.3646 41.9609 53.3887 41.9874 53.4721C42.0924 53.76 41.8776 54.0293 41.6822 54.214C41.5087 54.3703 41.017 54.6356 40.8329 54.3685C40.7947 54.3122 40.8024 54.2548 40.8359 54.1992C40.9364 54.0322 41.2277 54.0291 41.3879 53.9258C41.5755 53.7984 41.6717 53.6371 41.7839 53.443Z" fill="#E9E9E9"/>
<path d="M40.5368 47.8678C40.5529 47.8349 40.5847 47.8051 40.6206 47.8054C40.8013 47.8171 40.7544 48.0792 40.7075 48.1878C40.6359 48.3407 40.4037 48.6327 40.22 48.6368C40.1483 48.6362 40.0611 48.5966 40.0604 48.5148C40.0593 48.3154 40.2266 48.2265 40.3697 48.1102C40.442 48.0391 40.4829 47.962 40.5368 47.8678Z" fill="#E9E9E9"/>
<path d="M45.4252 45.9964C45.5992 45.8043 45.8623 45.7435 46.0419 45.5558C46.2302 45.3566 46.1154 45.0342 46.2863 44.8578C46.2951 44.8464 46.3095 44.8394 46.3309 44.8467C46.5783 44.9365 46.4953 45.3877 46.4434 45.5737C46.3544 45.9029 45.9204 46.1401 45.6238 46.2565C45.474 46.3225 45.305 46.1302 45.4252 45.9964Z" fill="#E9E9E9"/>
<path d="M38.8703 58.3566C38.931 58.3126 39.0011 58.3391 39.0349 58.4011C39.1563 58.6203 38.9057 58.8892 38.7482 59.0126C38.5907 59.136 38.2002 59.3161 38.0487 59.101C38.0104 59.0447 38.0054 58.9686 38.0503 58.9216C38.1605 58.7892 38.3784 58.8112 38.5198 58.7207C38.67 58.6188 38.736 58.4615 38.8703 58.3566Z" fill="#E9E9E9"/>
<path d="M41.3656 40.7717C41.1979 41.3929 40.6929 42.0182 40.0249 42.1126C39.9344 42.1247 39.5982 42.0212 39.6756 41.8727C39.7999 41.6156 40.1129 41.5839 40.3324 41.4267C40.6401 41.2013 40.8458 40.8258 40.9036 40.4548C40.9555 40.1152 40.7509 39.8867 40.7565 39.584C40.7582 39.5582 40.7857 39.534 40.8102 39.5256C41.382 39.439 41.4621 40.4211 41.3656 40.7717Z" fill="#E9E9E9"/>
<path d="M34.6415 37.3766C34.5942 37.3676 34.5543 37.3371 34.5476 37.2868C34.5248 37.1158 34.6591 37.0109 34.7493 36.8811C34.8481 36.74 34.8541 36.555 34.8986 36.3904C34.9164 36.3317 35.0099 36.3039 35.0568 36.3488C35.2218 36.5109 35.2084 36.7174 35.1391 36.9263C35.0715 37.1093 34.8792 37.4318 34.6415 37.3766Z" fill="#E9E9E9"/>
<path d="M37.6984 20.1213C40.6278 20.4821 43.5509 22.3277 46.0124 23.8206C48.1513 25.1212 50.474 26.4176 52.2789 28.1671C55.3539 31.1491 54.4435 35.3648 52.9623 38.9096C50.3048 44.9861 46.8964 50.8048 43.6448 56.5719C42.3878 58.8073 41.1481 61.6699 38.4672 62.4018C36.606 62.9116 34.4669 62.1074 32.7391 61.5093C30.1645 60.6252 27.7524 59.5403 25.4107 58.1389C23.3857 56.9254 21.3544 55.6259 19.4517 54.217C18.2303 53.3106 16.8597 52.2451 16.2934 50.7651C15.7986 49.4751 15.8625 48.1155 16.372 46.8346C17.4612 44.1098 19.1069 41.5665 20.6416 39.0738C23.6629 34.1871 26.485 29.112 29.8656 24.4639C31.8689 21.7244 34.1184 19.6786 37.6984 20.1213ZM34.3535 27.6408C34.3511 27.4313 34.2066 27.2305 33.9827 27.24C33.7588 27.2494 33.5594 27.404 33.5715 27.6481C33.5867 27.8763 33.7446 28.0241 33.9655 28.0304C33.9712 28.0347 33.9755 28.029 33.9812 28.0334C33.9913 28.0321 33.9913 28.0321 34.0014 28.0307C34.1968 27.9995 34.3516 27.856 34.3535 27.6408ZM32.4868 31.9382C32.4457 31.0942 32.0244 30.3931 31.3335 30.0095C31.0237 29.836 30.6674 29.7352 30.2859 29.7145C30.2014 29.6951 30.1197 29.6958 30.0392 29.7066C29.9876 29.7032 29.9128 29.7183 29.8337 29.7392C28.6596 29.9524 27.8739 30.8506 27.8766 31.9812C27.8758 32.8564 28.339 33.6798 29.0571 34.0751C29.3826 34.2517 29.742 34.3367 30.1194 34.3272C30.817 34.3005 31.4738 34.008 31.9158 33.5242C32.3186 33.0917 32.5158 32.5382 32.4868 31.9382ZM26.3778 41.1372C26.8588 41.4055 27.41 41.5468 28.0153 41.558C28.0827 41.5644 28.1444 41.5663 28.2047 41.5583C28.2406 41.5586 28.3009 41.5505 28.3599 41.5324C30.0666 41.2839 31.2491 39.9846 31.2466 38.3576C31.2435 37.1093 30.5956 35.937 29.5962 35.3899C29.1436 35.1434 28.6525 35.0299 28.1229 35.0495C27.1153 35.0921 26.1776 35.504 25.5473 36.187C24.9894 36.7989 24.7184 37.5669 24.7596 38.4109C24.8277 39.6095 25.4156 40.6005 26.3778 41.1372ZM23.6799 42.6236C23.6951 42.8519 23.853 42.9996 24.0739 43.0059C24.0796 43.0103 24.0839 43.0046 24.0896 43.009C24.0997 43.0076 24.0997 43.0076 24.1097 43.0063C24.3052 42.975 24.46 42.8315 24.4633 42.6264C24.4608 42.4169 24.3163 42.2161 24.0924 42.2256C23.8672 42.225 23.6678 42.3796 23.6799 42.6236ZM40.1769 50.229C40.8744 50.2023 41.5313 49.9099 41.979 49.4304C42.376 48.9935 42.5733 48.44 42.5443 47.84C42.5031 46.996 42.0819 46.2949 41.3909 45.9114C41.0812 45.7378 40.7305 45.6414 40.3491 45.6207C40.2646 45.6013 40.1828 45.602 40.1024 45.6128C40.0507 45.6094 39.976 45.6245 39.8925 45.651C38.7184 45.8643 37.9327 46.7625 37.9354 47.8931C37.9346 48.7683 38.3978 49.5917 39.1102 49.9827C39.4357 50.1592 39.7951 50.2442 40.1769 50.229ZM36.2723 54.7477C36.2874 54.9759 36.4453 55.1237 36.6662 55.13C36.6719 55.1344 36.6763 55.1287 36.682 55.133C36.692 55.1317 36.692 55.1317 36.7021 55.1303C36.8975 55.0991 37.0523 54.9556 37.0556 54.7505C37.0532 54.541 36.9087 54.3402 36.6848 54.3497C36.4595 54.3491 36.2658 54.508 36.2723 54.7477ZM45.4917 40.6398C45.4903 40.4762 45.377 40.3174 45.199 40.3258C45.021 40.3343 44.8635 40.4577 44.8733 40.6457C44.8817 40.8237 45.0098 40.9396 45.1848 40.947C45.1905 40.9513 45.1948 40.9456 45.2005 40.95C45.2062 40.9543 45.2106 40.9486 45.2106 40.9486C45.3701 40.9171 45.4931 40.8034 45.4917 40.6398ZM47.7687 38.4164C47.7687 38.4164 47.7787 38.4151 47.7844 38.4194C47.7901 38.4238 47.7945 38.4181 47.7945 38.4181C47.9453 38.3979 48.0727 38.2786 48.0713 38.115C48.0699 37.9514 47.9565 37.7926 47.7786 37.801C47.6006 37.8094 47.4431 37.9329 47.4528 38.1209C47.467 38.3032 47.5951 38.4192 47.7687 38.4164ZM41.6378 44.3124C41.4598 44.3208 41.3023 44.4442 41.3121 44.6323C41.3205 44.8103 41.4486 44.9262 41.6236 44.9335C41.6293 44.9379 41.6336 44.9322 41.6393 44.9365C41.645 44.9409 41.6494 44.9352 41.6494 44.9352C41.8002 44.915 41.9276 44.7957 41.9262 44.6321C41.9291 44.4628 41.8158 44.304 41.6378 44.3124ZM38.0428 50.6115C38.0016 49.7675 37.5804 49.0664 36.8895 48.6828C36.5797 48.5093 36.2291 48.4129 35.8419 48.3878C35.7574 48.3684 35.6756 48.3691 35.5952 48.3799C35.5436 48.3765 35.4688 48.3916 35.3854 48.4181C34.2112 48.6314 33.4255 49.5296 33.4282 50.6602C33.4275 51.5354 33.8906 52.3588 34.603 52.7498C34.9286 52.9263 35.2879 53.0113 35.6653 53.0018C36.3686 52.9795 37.0198 52.6826 37.4674 52.2032C37.8789 51.7593 38.0718 51.2115 38.0428 50.6115ZM38.7309 44.9619C38.7285 44.7524 38.5839 44.5517 38.36 44.5611C38.1361 44.5706 37.9367 44.7252 37.9489 44.9692C37.964 45.1975 38.1219 45.3452 38.3428 45.3515C38.3485 45.3559 38.3529 45.3502 38.3586 45.3545C38.3686 45.3532 38.3686 45.3532 38.3787 45.3519C38.5741 45.3206 38.7333 45.1714 38.7309 44.9619ZM37.0337 44.6309C37.035 43.377 36.3826 42.2104 35.3833 41.6633C34.9307 41.4167 34.4396 41.3033 33.91 41.3229C32.9024 41.3654 31.9646 41.7773 31.3344 42.4603C30.7765 43.0722 30.5055 43.8402 30.5467 44.6843C30.6047 45.8842 31.1926 46.8752 32.1591 47.4062C32.6402 47.6745 33.1913 47.8158 33.7967 47.827C33.8641 47.8334 33.9258 47.8354 33.9861 47.8273C34.0219 47.8276 34.0779 47.8253 34.1413 47.8014C35.8493 47.5629 37.0362 46.258 37.0337 44.6309ZM29.8912 45.1403C29.8892 44.0915 29.3385 43.1109 28.499 42.6499C28.1178 42.4399 27.6955 42.3428 27.2476 42.3617C26.4023 42.3928 25.62 42.743 25.0926 43.315C24.6188 43.8287 24.3891 44.4837 24.4228 45.1957C24.4711 46.2076 24.9715 47.0414 25.7895 47.495C26.1877 47.7181 26.643 47.8313 27.1364 47.8472C27.2038 47.8536 27.2654 47.8555 27.3258 47.8475C27.3616 47.8478 27.422 47.8397 27.4867 47.826C28.9048 47.6006 29.899 46.5005 29.8912 45.1403ZM32.2007 39.9444C32.2159 40.1727 32.3738 40.3205 32.5947 40.3268C32.6004 40.3311 32.6047 40.3254 32.6104 40.3298C32.6205 40.3284 32.6205 40.3284 32.6306 40.3271C32.8317 40.3002 32.9808 40.1523 32.9841 39.9472C32.9817 39.7377 32.8371 39.537 32.6132 39.5464C32.388 39.5458 32.1886 39.7004 32.2007 39.9444ZM29.9499 42.1336C29.7719 42.142 29.6144 42.2654 29.6242 42.4535C29.6326 42.6315 29.7607 42.7474 29.9357 42.7547C29.9414 42.7591 29.9457 42.7534 29.9514 42.7577C29.9571 42.7621 29.9615 42.7564 29.9615 42.7564C30.1123 42.7362 30.2397 42.6169 30.2383 42.4533C30.2513 42.2827 30.1279 42.1252 29.9499 42.1336ZM27.0346 34.3352C27.0403 34.3396 27.0447 34.3339 27.0504 34.3382C27.0561 34.3426 27.0604 34.3369 27.0604 34.3369C27.2113 34.3167 27.3386 34.1974 27.3372 34.0338C27.3358 33.8702 27.2225 33.7114 27.0445 33.7198C26.8665 33.7282 26.709 33.8516 26.7188 34.0397C26.7316 34.212 26.8553 34.3336 27.0346 34.3352ZM38.5123 26.7472C38.5109 26.5836 38.3976 26.4248 38.2196 26.4332C38.0416 26.4416 37.8841 26.565 37.8939 26.7531C37.9023 26.9311 38.0304 27.047 38.2054 27.0543C38.2111 27.0587 38.2154 27.053 38.2211 27.0573C38.2268 27.0617 38.2312 27.056 38.2312 27.056C38.3907 27.0244 38.5137 26.9108 38.5123 26.7472ZM35.0516 31.5238C35.0492 31.3143 34.9047 31.1135 34.6808 31.123C34.4568 31.1325 34.2575 31.287 34.2696 31.5311C34.2848 31.7593 34.4427 31.9071 34.6636 31.9134C34.6693 31.9178 34.6736 31.9121 34.6793 31.9164C34.6894 31.9151 34.6894 31.9151 34.6994 31.9137C34.8948 31.8825 35.054 31.7333 35.0516 31.5238ZM36.6131 30.9927C36.6117 30.8291 36.4984 30.6703 36.3204 30.6787C36.1424 30.6871 35.9849 30.8105 35.9947 30.9986C36.0031 31.1766 36.1312 31.2925 36.3062 31.2998C36.3119 31.3042 36.3162 31.2985 36.3219 31.3028C36.3276 31.3072 36.332 31.3015 36.332 31.3015C36.4872 31.2756 36.6145 31.1563 36.6131 30.9927ZM39.7822 30.39C39.7808 30.2264 39.6674 30.0676 39.4895 30.076C39.3115 30.0845 39.154 30.2079 39.1637 30.3959C39.1722 30.5739 39.3003 30.6898 39.4752 30.6971C39.4809 30.7015 39.4853 30.6958 39.491 30.7002C39.4967 30.7045 39.5011 30.6988 39.5011 30.6988C39.6562 30.673 39.7792 30.5593 39.7822 30.39ZM35.7012 34.7378C35.3914 34.5642 35.0408 34.4678 34.6593 34.4471C34.5749 34.4277 34.4931 34.4284 34.4126 34.4392C34.361 34.4358 34.2863 34.4509 34.2028 34.4774C33.0287 34.6907 32.2429 35.5889 32.2456 36.7195C32.2449 37.5947 32.7081 38.4181 33.4205 38.8091C33.746 38.9856 34.1054 39.0706 34.4828 39.0611C35.1803 39.0344 35.8372 38.7419 36.2849 38.2625C36.6819 37.8256 36.8792 37.2721 36.8502 36.6721C36.8134 35.8224 36.3965 35.1156 35.7012 34.7378ZM45.099 26.9415C45.0976 26.778 44.9842 26.6191 44.8062 26.6276C44.6283 26.636 44.4708 26.7594 44.4805 26.9474C44.489 27.1254 44.6171 27.2414 44.792 27.2487C44.7977 27.253 44.8021 27.2473 44.8078 27.2517C44.8135 27.2561 44.8178 27.2504 44.8178 27.2504C44.9774 27.2188 45.1004 27.1051 45.099 26.9415ZM39.1746 36.0288C39.1721 35.8194 39.0276 35.6186 38.8037 35.6281C38.5798 35.6375 38.3804 35.7921 38.3926 36.0361C38.4077 36.2644 38.5656 36.4122 38.7865 36.4185C38.7922 36.4228 38.7966 36.4171 38.8023 36.4215C38.8123 36.4201 38.8123 36.4201 38.8224 36.4188C39.0178 36.3876 39.1726 36.244 39.1746 36.0288ZM36.7157 40.7585C36.7737 41.9585 37.3616 42.9495 38.3282 43.4805C38.8093 43.7488 39.3604 43.8901 39.9657 43.9013C40.0331 43.9077 40.0948 43.9097 40.1551 43.9016C40.191 43.9019 40.2513 43.8938 40.3103 43.8757C42.017 43.6272 43.1995 42.3279 43.197 40.7009C43.1939 39.4526 42.546 38.2803 41.5466 37.7332C41.094 37.4867 40.6029 37.3732 40.0733 37.3928C39.0657 37.4354 38.128 37.8473 37.4977 38.5303C36.9455 39.1465 36.6746 39.9145 36.7157 40.7585ZM45.1013 38.7525C45.0989 38.543 44.9544 38.3422 44.7305 38.3517C44.5066 38.3611 44.3072 38.5157 44.3193 38.7597C44.3345 38.988 44.4924 39.1358 44.7133 39.1421C44.719 39.1464 44.7233 39.1407 44.729 39.1451C44.7391 39.1437 44.7391 39.1437 44.7491 39.1424C44.9446 39.1112 45.1037 38.962 45.1013 38.7525ZM48.1086 26.831C47.9376 26.5468 47.608 26.1866 47.2534 26.2135C47.2131 26.2189 47.187 26.2531 47.1924 26.2933C47.2481 26.6338 47.6491 26.8771 47.9465 26.996C48.0537 27.0328 48.1737 26.9349 48.1086 26.831ZM45.0106 31.641C45.0092 31.4774 44.8959 31.3186 44.7179 31.327C44.5399 31.3355 44.3824 31.4589 44.3922 31.6469C44.4006 31.8249 44.5287 31.9408 44.7037 31.9481C44.7094 31.9525 44.7137 31.9468 44.7194 31.9511L44.7295 31.9498C44.889 31.9182 45.012 31.8046 45.0106 31.641ZM52.2306 31.4437C51.8945 30.5367 51.443 29.6862 50.817 28.9459C50.1598 28.1638 49.4139 27.8285 48.6142 27.2445C48.5743 27.214 48.5164 27.278 48.5419 27.3156C49.5831 28.7884 51.0083 29.8415 51.6193 31.6175C52.247 33.4424 51.9569 35.0625 51.8985 36.9229C51.8995 36.9688 51.9568 36.9765 51.983 36.9423C52.9539 35.4001 52.8425 33.1121 52.2306 31.4437ZM48.2267 45.2127C48.2247 44.1639 47.6797 43.1876 46.8345 42.7223C46.4533 42.5123 46.0309 42.4152 45.5875 42.4284C44.7421 42.4595 43.9599 42.8097 43.4325 43.3817C42.9587 43.8953 42.7289 44.5504 42.7627 45.2623C42.8109 46.2743 43.3113 47.1081 44.1293 47.5617C44.5276 47.7848 44.9828 47.8979 45.4762 47.9139C45.5436 47.9202 45.6053 47.9222 45.6656 47.9142C45.7015 47.9145 45.7618 47.9064 45.8265 47.8927C47.2359 47.6787 48.2244 46.5743 48.2267 45.2127ZM42.8627 49.9161C42.8778 50.1444 43.0358 50.2922 43.2567 50.2985C43.2624 50.3028 43.2667 50.2971 43.2724 50.3015C43.2825 50.3001 43.2825 50.3001 43.2925 50.2988C43.4879 50.2676 43.6427 50.1241 43.646 49.9189C43.6436 49.7094 43.4991 49.5087 43.2752 49.5181C43.0556 49.5219 42.8562 49.6765 42.8627 49.9161ZM45.9044 50.3898C46.162 49.8283 46.4943 49.2517 46.5343 48.6322C46.5374 48.6164 46.5089 48.5947 46.4958 48.6118C45.9945 48.9961 45.7365 49.5935 45.4575 50.1476C45.1259 50.806 44.7959 51.4387 44.663 52.1678C44.6497 52.2207 44.7154 52.2529 44.7516 52.2173C45.3058 51.6929 45.5942 51.0556 45.9044 50.3898ZM34.6007 60.1603C34.6158 60.3885 34.7737 60.5363 34.9946 60.5426C35.0003 60.5469 35.0047 60.5412 35.0104 60.5456C35.0204 60.5443 35.0204 60.5443 35.0305 60.5429C35.2259 60.5117 35.3807 60.3682 35.384 60.163C35.3816 59.9535 35.2371 59.7528 35.0132 59.7622C34.7879 59.7616 34.5942 59.9206 34.6007 60.1603ZM36.0881 58.462C36.0873 59.3372 36.5505 60.1606 37.2629 60.5516C37.5884 60.7281 37.9478 60.8132 38.3252 60.8037C39.0227 60.777 39.6796 60.4845 40.1273 60.005C40.5244 59.5681 40.7273 59.019 40.6926 58.4147C40.6515 57.5707 40.2302 56.8696 39.5393 56.486C39.2295 56.3125 38.8789 56.216 38.4974 56.1954C38.4129 56.1759 38.3311 56.1766 38.2507 56.1874C38.1991 56.1841 38.1243 56.1992 38.0409 56.2257C36.8755 56.4275 36.0897 57.3257 36.0881 58.462ZM39.6654 55.8601C40.0637 56.0833 40.519 56.1964 41.0124 56.2123C41.0797 56.2187 41.1414 56.2207 41.2017 56.2126C41.2376 56.2129 41.2979 56.2049 41.3626 56.1911C42.7821 55.9758 43.7763 54.8757 43.7729 53.5098C43.7708 52.461 43.2259 51.4847 42.3807 51.0194C41.9995 50.8094 41.5771 50.7123 41.1293 50.7312C40.284 50.7623 39.5017 51.1125 38.9743 51.6845C38.5005 52.1982 38.2708 52.8532 38.3045 53.5652C38.3528 54.5771 38.8531 55.4109 39.6654 55.8601ZM28.4364 56.7315C28.4944 57.9314 29.088 58.9268 30.0488 59.4534C30.5299 59.7218 31.0854 59.8573 31.6864 59.8742C31.7538 59.8806 31.8154 59.8826 31.8758 59.8745C31.9116 59.8748 31.9619 59.8681 32.031 59.8487C33.7377 59.6001 34.9245 58.2951 34.9177 56.6738C34.9146 55.4255 34.2666 54.2532 33.2673 53.7062C32.8147 53.4596 32.3236 53.3461 31.794 53.3657C30.7864 53.4083 29.8486 53.8202 29.2183 54.5032C28.6648 55.1094 28.3939 55.8774 28.4364 56.7315ZM30.0068 52.6681C30.7044 52.6414 31.3612 52.3489 31.8032 51.8651C32.2003 51.4282 32.3975 50.8747 32.3685 50.2747C32.3274 49.4307 31.9061 48.7296 31.2152 48.346C30.9054 48.1725 30.5491 48.0717 30.1676 48.0511C30.0831 48.0316 30.0014 48.0323 29.9209 48.0431C29.8693 48.0398 29.7945 48.0549 29.7154 48.0757C28.5413 48.2889 27.7556 49.1871 27.7583 50.3177C27.7575 51.1929 28.2207 52.0163 28.9331 52.4073C29.2657 52.5983 29.625 52.6833 30.0068 52.6681ZM27.5441 53.5397C27.5592 53.7679 27.7172 53.9157 27.9381 53.922C27.9438 53.9264 27.9481 53.9207 27.9538 53.925C27.9639 53.9237 27.9639 53.9237 27.9739 53.9223C28.1693 53.8911 28.3241 53.7476 28.3274 53.5425C28.325 53.333 28.1805 53.1322 27.9566 53.1417C27.737 53.1454 27.5376 53.3 27.5441 53.5397ZM22.2485 54.1604C22.7296 54.4288 23.2807 54.5701 23.8861 54.5813C23.9535 54.5876 24.0152 54.5896 24.0755 54.5815C24.1114 54.5819 24.1616 54.5752 24.2307 54.5557C25.9374 54.3071 27.1243 53.0022 27.1174 51.3808C27.1187 50.1269 26.4663 48.9603 25.467 48.4132C25.0144 48.1666 24.5233 48.0532 23.9937 48.0728C22.9861 48.1153 22.0483 48.5272 21.4181 49.2102C20.8602 49.8221 20.5892 50.5901 20.626 51.4398C20.6941 52.6385 21.282 53.6295 22.2485 54.1604ZM17.5698 48.4452C17.2921 49.9664 17.8417 51.858 19.1995 52.7512C19.2552 52.7847 19.3188 52.725 19.2964 52.6718C19.0903 51.9726 18.6078 51.3872 18.3428 50.7061C18.0553 49.9718 17.8268 49.2194 17.6975 48.4434C17.6837 48.3788 17.5818 48.3821 17.5698 48.4452ZM20.448 49.2273C20.4466 49.0637 20.3333 48.9049 20.1553 48.9133C19.9773 48.9217 19.8198 49.0451 19.8296 49.2332C19.838 49.4112 19.9661 49.5271 20.1411 49.5344C20.1468 49.5388 20.1511 49.5331 20.1568 49.5374C20.1625 49.5418 20.1669 49.5361 20.1669 49.5361C20.3264 49.5045 20.4494 49.3909 20.448 49.2273ZM18.3143 45.2854C18.3625 46.2973 18.8629 47.1311 19.6752 47.5804C20.0735 47.8035 20.5287 47.9166 21.0221 47.9326C21.0895 47.9389 21.1512 47.9409 21.2115 47.9329C21.2474 47.9332 21.3077 47.9251 21.3724 47.9113C22.7919 47.696 23.7861 46.596 23.7826 45.23C23.7806 44.1812 23.2356 43.205 22.3905 42.7397C22.0093 42.5296 21.5869 42.4325 21.1391 42.4514C20.2937 42.4825 19.5115 42.8327 18.9841 43.4047C18.5059 43.9241 18.2805 44.5734 18.3143 45.2854ZM23.3241 36.7451C22.443 38.1934 21.4556 39.6508 21.006 41.3024C20.9896 41.3712 21.0741 41.3906 21.1089 41.345C22.1422 39.8866 23.0283 38.3608 23.9546 36.8297C24.6582 35.661 25.3818 34.4896 25.8926 33.2187C25.9087 33.1858 25.8631 33.151 25.8413 33.1795C24.8304 34.2306 24.0756 35.5137 23.3241 36.7451ZM30.119 27.5466C30.1012 27.6052 30.18 27.6203 30.2105 27.5804C31.1285 26.3318 31.9128 24.963 33.0132 23.8538C33.546 23.322 34.1348 22.7879 34.8292 22.4699C35.4559 22.1814 36.0871 22.1943 36.7343 22.0208C36.7544 22.0181 36.7648 21.9809 36.7477 21.9679C35.6111 21.0451 33.7784 22.3801 32.9621 23.1647C31.7202 24.3644 30.6119 25.8738 30.119 27.5466Z" fill="#E9E9E9"/>
<path d="M26.9194 20.1443C26.9579 20.1648 26.9459 20.2278 26.8986 20.2188C21.7913 19.2228 20.0939 24.7872 17.6071 28.0059C17.5461 28.0857 17.4033 28.0126 17.4516 27.9141C18.5399 25.6039 19.7375 23.2689 21.5731 21.4576C22.9353 20.1241 25.0923 19.1092 26.9194 20.1443Z" fill="#E9E9E9"/>
<path d="M17.4153 28.4719C17.3504 28.675 17.2197 28.846 17.1333 29.0418C17.0499 29.2218 17.0037 29.4122 16.8247 29.5282C16.7915 29.548 16.75 29.5433 16.7345 29.5045C16.6503 29.2957 16.7381 29.1099 16.8302 28.9185C16.9297 28.7056 17.0423 28.4757 17.2272 28.3281C17.3241 28.2486 17.4465 28.3602 17.4153 28.4719Z" fill="#E9E9E9"/>
<path d="M12.1178 36.4872C12.2622 37.4914 12.357 38.4306 12.9288 39.301C13.4157 40.0342 14.1841 40.4228 14.7464 41.0692C14.7649 41.0923 14.7444 41.1309 14.7129 41.1249C12.7335 40.9032 11.3758 38.2496 11.9357 36.4655C11.9696 36.374 12.1013 36.4024 12.1178 36.4872Z" fill="#E9E9E9"/>
<path d="M12.2706 35.193C12.3652 35.3646 12.3565 35.5296 12.3046 35.7156C12.2795 35.7957 12.2142 36.0347 12.0801 35.9503C11.9588 35.8846 11.9979 35.6798 12.0133 35.5652C12.0364 35.3932 12.0732 35.286 12.2006 35.1666C12.225 35.1582 12.2579 35.1743 12.2706 35.193Z" fill="#E9E9E9"/>
</svg>
