<svg width="51" height="50" viewBox="0 0 51 50" fill="none" xmlns="http://www.w3.org/2000/svg">
<path d="M8.14585 32.9522C8.19625 33.1288 8.24665 33.3054 8.34529 33.4977C8.44393 33.6901 8.52613 33.8504 8.64012 33.9944C20.4901 54.5183 51.9567 37.6531 41.805 16.0558C31.4548 -6.00654 -0.996242 11.4445 8.14585 32.9522ZM12.5739 31.3293C5.1676 15.0856 28.6681 2.18409 37.5763 18.2243C46.3202 33.944 21.2081 47.2266 12.5739 31.3293Z" fill="#E9E9E9"/>
<path d="M18.9938 29.0489C17.296 26.5996 16.3438 23.6464 15.7445 20.7551C15.7434 20.6747 15.6941 20.5785 15.6294 20.5307C15.613 20.4987 15.5812 20.515 15.5812 20.515C15.533 20.4992 15.4847 20.4835 15.4365 20.4677C15.4365 20.4677 15.4047 20.484 15.3565 20.4682C15.2447 20.4851 15.1328 20.502 15.0703 20.615C12.8477 24.346 14.0935 28.8897 16.7142 32.1209C18.8461 34.7121 22.9043 36.5179 26.2042 35.5139C27.0494 35.2829 27.7961 34.8595 28.4912 34.1792C28.7598 33.92 28.6886 33.3896 28.2874 33.312C24.5756 32.2598 21.427 32.6193 18.9938 29.0489Z" fill="#E9E9E9"/>
<path d="M29.7354 14.8361C29.2234 14.8558 28.8298 15.341 29.0928 15.854C29.6846 17.008 30.9934 17.9159 31.9186 18.8586C32.9577 19.9452 33.5374 21.3889 34.5754 22.3952C35.0457 22.8423 35.698 22.5483 35.8022 21.9685C36.2291 19.1989 32.566 14.6397 29.7354 14.8361Z" fill="#E9E9E9"/>
</svg>
