<svg width="98" height="103" viewBox="0 0 98 103" fill="none" xmlns="http://www.w3.org/2000/svg">
<path d="M51.8307 1.68763C54.7638 2.70103 57.6034 5.09369 59.5504 8.04764C61.3251 8.13362 63.1957 8.73695 65.0572 9.96499C71.6949 14.286 77.0853 24.1387 74.21 31.9652C74.1797 32.0357 74.1494 32.1062 74.1078 32.1916C75.4288 33.6403 76.5746 35.1664 77.236 36.4412C78.921 39.6171 77.6247 42.2108 75.4259 44.7967C74.6082 45.7191 73.8278 46.623 73.0145 47.4784C73.0657 47.5642 73.091 47.6535 73.1197 47.7689C74.0214 51.3318 76.0533 55.2159 75.6456 58.9998C75.2967 62.4307 73.8729 65.1614 71.9137 67.9529C66.0214 76.3163 58.3938 83.8985 51.3066 91.26C47.1278 95.5924 42.6974 97.6515 36.9327 95.4913C30.8606 93.2144 26.0695 87.5368 21.7894 82.9027C17.8846 78.6943 11.5102 74.8542 10.7011 68.7183C9.76294 61.6186 17.6907 54.9898 21.5852 50.0202C26.6441 43.5497 32.7214 36.5668 38.9188 31.1723C43.9411 26.8028 51.2211 28.9921 56.7151 31.1102C59.6927 27.8062 63.5769 25.3319 67.8176 27.199C69.1571 27.7963 70.6965 28.8964 72.145 30.2082C73.5393 23.9928 67.7151 11.892 60.8199 10.2994C62.355 13.642 62.6607 17.4068 60.8094 20.6079C59.622 22.6294 57.223 25.6012 54.4743 25.1724C51.4288 24.7052 49.3256 21.7729 49.4969 18.6982C49.8027 13.3631 52.7556 9.47891 56.7285 8.35862C55.0598 6.29471 52.9047 4.65629 50.9047 3.97801C49.3935 3.48413 50.3308 1.17892 51.8307 1.68763ZM37.8618 35.7492C33.1804 41.0797 28.064 46.0327 23.5485 51.5127C19.6824 56.1998 14.0818 61.2994 13.1666 67.5281C12.3852 72.8759 20.5065 77.8804 23.76 81.3831C27.2966 85.218 30.919 89.0013 35.3184 91.8545C43.0049 96.8793 48.4747 91.0019 53.4612 85.1782C58.2864 79.5359 63.756 74.5473 68.2937 68.6397C70.8894 65.256 73.2718 62.061 73.2025 57.5869C73.1554 54.8609 71.9236 52.0997 71.0885 49.4297C67.7679 52.4494 64.1216 54.0286 59.1018 51.1948C53.7972 48.2148 49.4207 42.2676 52.9258 36.3703C53.5325 35.3578 54.2554 34.223 55.0894 33.126C48.6502 30.7805 42.9333 29.9667 37.8618 35.7492ZM67.1512 49.4307C64.6784 48.8842 62.6958 47.0495 60.7723 45.2596C58.2443 42.9167 56.3524 40.4725 55.149 37.4289C52.1718 42.4174 56.4604 46.9176 60.7779 49.3578C63.2253 50.7037 65.3001 50.4563 67.1512 49.4307ZM66.1329 29.1699C62.3584 27.5169 58.3624 32.6199 56.158 35.8566C57.2105 39.1598 59.1467 41.6377 61.6852 44.0588C63.693 45.9829 65.991 48.2913 69.0125 48.0854C70.6291 46.6943 72.0935 44.86 73.4739 43.2894C75.8453 40.5071 75.9367 38.5179 73.5246 35.6549C71.5025 33.2287 69.0784 30.4734 66.1329 29.1699ZM55.5366 11.3358C52.8208 13.1311 51.4261 17.6618 52.3291 20.6408C53.983 26.1557 58.302 20.1988 59.0549 18.5957C60.2922 15.9571 59.62 12.9196 58.0603 10.2834C57.2195 10.4396 56.3771 10.7817 55.5366 11.3358Z" fill="#E9E9E9"/>
<path d="M47.3979 56.7803C51.363 60.4498 56.8974 64.3531 58.9068 69.5535C60.3058 73.167 57.2257 76.2994 55.0649 78.7739C52.0675 82.2265 48.675 86.6889 44.6467 89.077C44.5305 89.1992 44.3848 89.299 44.1687 89.3687C43.9822 89.4608 43.8035 89.5121 43.6325 89.5225C39.4219 90.6491 35.2879 87.5999 32.122 85.1463C26.9303 81.1293 22.8365 76.0051 18.6074 71.0589C15.0072 66.8481 18.9468 61.8192 21.6673 58.1795C24.6132 54.2432 29.473 48.4635 34.7446 47.9328C39.1015 47.5022 44.6007 54.2094 47.3979 56.7803ZM21.2103 70.3007C24.3215 73.9292 27.3216 77.52 30.837 80.8008C33.6377 83.3978 38.9864 88.587 43.215 87.0997C46.2416 85.4471 48.7107 82.1075 51.0128 79.6001C52.9552 77.4741 56.1988 74.7701 56.7259 71.7788C57.4285 67.8214 50.2463 62.8993 47.9362 60.6986C44.7751 57.6872 41.5654 54.7091 38.0592 52.0903C33.4017 48.5962 29.3646 53.2937 26.1034 56.7563C22.947 60.1115 17.4815 65.922 21.2103 70.3007Z" fill="#E9E9E9"/>
<path d="M28.9436 70.4654C29.0711 70.3284 29.2793 70.2996 29.4079 70.4675C29.6502 70.7921 29.5378 71.3382 29.3715 71.6796C29.3299 71.765 29.2257 71.7794 29.1632 71.7085C28.8723 71.4171 28.6471 70.8248 28.9436 70.4654Z" fill="#E9E9E9"/>
<path d="M28.3268 71.7309C28.2965 71.8014 28.2219 71.8382 28.1256 71.8118C27.7367 71.6799 27.1658 70.6844 27.7583 70.4565C28.3213 70.2061 28.4333 71.4375 28.3268 71.7309Z" fill="#E9E9E9"/>
<path d="M27.8998 64.2283C28.0818 63.8052 28.6576 63.354 29.1297 63.3152C29.2599 63.2972 29.411 63.4355 29.3243 63.5801C29.1241 63.966 28.6489 64.3767 28.2681 64.6018C28.059 64.7236 27.8089 64.4399 27.8998 64.2283Z" fill="#E9E9E9"/>
<path d="M26.147 65.7971C25.8856 65.5282 26.2688 65.0241 26.5865 65.2189C26.9008 65.3876 27.17 65.6157 27.2597 65.988C27.2884 66.1034 27.1757 66.2516 27.0568 66.2548C26.6741 66.268 26.3936 66.0548 26.147 65.7971Z" fill="#E9E9E9"/>
<path d="M26.4349 63.6489C26.6 63.8914 26.7876 64.1042 26.9041 64.3799C26.9441 64.4805 26.8799 64.5955 26.7645 64.6247C26.3515 64.7084 26.038 64.4467 25.8477 64.1149C25.5914 63.6861 26.1673 63.2349 26.4349 63.6489Z" fill="#E9E9E9"/>
<path d="M27.3711 63.4261C27.2173 63.1688 27.1268 62.8895 27.0884 62.603C27.0396 62.2383 27.587 62.0697 27.714 62.4236C27.841 62.7774 27.8308 63.0972 27.6089 63.4197C27.5525 63.4939 27.4076 63.5006 27.3711 63.4261Z" fill="#E9E9E9"/>
<path d="M27.8658 65.9979C27.5706 65.7735 27.8461 65.2578 28.1864 65.423C28.4122 65.5244 28.5745 65.6478 28.7326 65.8382C28.8942 66.0546 28.8561 66.166 28.8242 66.4224C28.8164 66.4633 28.7904 66.4669 28.7496 66.4593C28.6385 66.4216 28.5231 66.4508 28.4197 66.3723C28.2426 66.2376 28.0429 66.1326 27.8658 65.9979Z" fill="#E9E9E9"/>
<path d="M26.5827 67.7141C26.8315 67.295 27.304 66.7653 27.8413 66.9164C27.8969 66.9352 27.9186 66.9986 27.8996 67.0543C27.7845 67.4814 27.3994 67.7735 27.1584 68.1517C26.8914 68.5336 26.3417 68.0923 26.5827 67.7141Z" fill="#E9E9E9"/>
<path d="M28.1596 67.9331C28.1317 67.7248 28.3753 67.4655 28.6045 67.593C28.819 67.7092 29.2567 68.2058 28.987 68.4686C28.6687 68.7647 28.198 68.2197 28.1596 67.9331Z" fill="#E9E9E9"/>
<path d="M30.2267 67.4216C30.06 67.3651 30.0495 67.2869 29.9202 67.212C29.8464 67.1559 29.8732 67.0593 29.9478 67.0225C29.9851 67.004 30.0527 66.9151 30.1013 66.8818C30.2132 66.8265 30.3546 66.7937 30.47 66.7645C30.6053 66.5866 30.8318 66.595 31.0637 66.8415C31.2513 67.0543 31.0806 67.4626 30.7908 67.4762C30.6051 67.4754 30.4081 67.4894 30.2267 67.4216Z" fill="#E9E9E9"/>
<path d="M29.8603 65.2446C29.9738 65.0034 30.1125 64.8516 30.3328 64.7149C30.8967 64.3716 31.2861 65.2993 30.631 65.4563C30.4376 65.4964 30.2849 65.544 30.0879 65.558C29.9282 65.5536 29.7884 65.4005 29.8603 65.2446Z" fill="#E9E9E9"/>
<path d="M29.8984 69.0193C30.0978 68.7264 30.8251 68.8115 30.9936 69.08C31.1109 69.2627 31.0798 69.4262 30.9263 69.5669C30.6601 69.8557 29.6575 69.3976 29.8984 69.0193Z" fill="#E9E9E9"/>
<path d="M28.2279 69.3169C28.32 69.4102 28.2663 69.6034 28.1397 69.6474C27.8863 69.7356 27.6338 69.7307 27.3804 69.8188C27.1271 69.907 26.8773 70.0211 26.622 69.8973C26.5222 69.8448 26.4822 69.7442 26.509 69.6476C26.6743 69.0013 27.8232 68.8688 28.2279 69.3169Z" fill="#E9E9E9"/>
<path d="M24.7957 67.338C24.516 67.0318 25.0208 66.6436 25.3005 66.9498C25.5028 67.1738 25.7017 67.3718 25.7844 67.692C25.8061 67.7553 25.761 67.8146 25.6942 67.8106C25.3341 67.7941 25.0423 67.5957 24.7957 67.338Z" fill="#E9E9E9"/>
<path d="M24.9487 65.7247C24.9529 65.6578 25.0163 65.6357 25.0718 65.6546C25.5163 65.8053 26.0372 66.1312 26.0697 66.6705C26.0767 66.7226 26.0541 66.7523 26.0021 66.7595C25.7192 66.8252 25.5013 66.6829 25.2799 66.5145C24.9734 66.3049 24.9272 66.0593 24.9487 65.7247Z" fill="#E9E9E9"/>
<path d="M24.6757 69.4239C24.6982 69.3942 24.7208 69.3646 24.7546 69.3201C25.0165 69.0981 25.3367 69.014 25.6856 69.0453C25.7524 69.0493 25.7741 69.1126 25.729 69.1719C25.5339 69.3979 25.3354 69.5979 25.1108 69.8014C24.9573 69.942 24.7871 69.8595 24.7028 69.7252C24.7028 69.7252 24.6915 69.74 24.7063 69.7512C24.629 69.6691 24.6263 69.5501 24.6792 69.4499C24.6644 69.4387 24.6644 69.4387 24.6757 69.4239Z" fill="#E9E9E9"/>
<path d="M25.6189 71.3767C25.8626 71.1174 26.1366 70.7877 26.4793 70.6739C26.6059 70.6299 26.7093 70.7084 26.7007 70.8423C26.6897 71.255 26.3932 71.6144 26.0645 71.8323C25.7878 72.0431 25.3675 71.6768 25.6189 71.3767Z" fill="#E9E9E9"/>
<path d="M27.287 71.8748C27.4808 72.2326 27.4838 72.7496 27.432 73.1547C27.3802 73.5598 26.8456 73.5277 26.756 73.1554C26.6446 72.7198 26.75 72.1215 27.0795 71.8106C27.1394 71.7626 27.2392 71.8151 27.287 71.8748Z" fill="#E9E9E9"/>
<path d="M29.7974 73.7825C29.2534 73.9772 28.4571 73.2782 28.5287 72.7244C28.5365 72.6836 28.559 72.6539 28.5963 72.6355C28.8497 72.5474 29.0086 72.6448 29.2378 72.7722C29.467 72.8997 29.7735 73.1093 29.935 73.3257C30.0341 73.4712 29.9874 73.7164 29.7974 73.7825Z" fill="#E9E9E9"/>
<path d="M31.6156 72.1246C31.2422 71.911 30.841 71.489 30.7036 71.057C30.6748 70.9416 30.739 70.8266 30.8726 70.8346C31.3404 70.8627 31.8493 71.2964 31.998 71.7135C32.1222 71.9484 31.8595 72.2633 31.6156 72.1246Z" fill="#E9E9E9"/>
<path d="M32.8639 70.0553C33.0628 70.2532 32.8669 70.5722 32.6326 70.6046C32.361 70.6555 32.1431 70.5132 31.9589 70.3264C31.8817 70.2443 31.9163 70.1068 31.9986 70.0291C32.2753 69.8184 32.606 69.8124 32.8639 70.0553Z" fill="#E9E9E9"/>
<path d="M30.6695 72.2689C30.969 72.4264 31.331 72.6549 31.4918 72.9643C31.5796 73.1246 31.4401 73.3694 31.2543 73.3685C30.7563 73.411 30.3445 72.9108 30.3858 72.4275C30.3831 72.3085 30.5549 72.2052 30.6695 72.2689Z" fill="#E9E9E9"/>
<path d="M31.8986 68.7417C31.8175 68.2356 32.2485 67.7913 32.5598 67.4431C32.8936 67.0652 33.484 67.5141 33.1797 67.9144C32.8867 68.2999 32.4965 68.7518 31.9724 68.7978C31.9464 68.8014 31.9168 68.779 31.8986 68.7417Z" fill="#E9E9E9"/>
<path d="M32.7694 65.8899C32.9325 65.9204 33.0906 66.1107 33.0074 66.2814C32.8263 66.6116 32.4203 66.7474 32.0652 66.571C31.8951 66.4884 31.8854 66.3173 32.0128 66.1803C32.2002 65.9952 32.4838 65.8365 32.7694 65.8899Z" fill="#E9E9E9"/>
<path d="M30.4829 63.8048C30.4523 63.4774 30.499 63.2322 30.7019 62.9653C30.9238 62.6428 31.4152 62.9462 31.2896 63.2952C31.1493 63.633 30.9325 63.7956 30.5568 63.8609C30.5307 63.8645 30.4864 63.8308 30.4829 63.8048Z" fill="#E9E9E9"/>
<path d="M29.2918 61.6612C29.4153 61.989 29.4277 62.2791 29.3542 62.6209C29.3351 62.6766 29.2753 62.7247 29.2162 62.6798C28.9323 62.4405 28.7785 62.1832 28.7036 61.8222C28.6174 61.476 29.1571 61.3482 29.2918 61.6612Z" fill="#E9E9E9"/>
<path d="M25.9387 61.7279C26.253 61.8966 26.4623 62.1727 26.3663 62.5442C26.3274 62.7485 26.0853 62.8219 25.9455 62.6688C25.8351 62.5381 25.7283 62.4335 25.6068 62.3177C25.3488 62.0748 25.5836 61.5515 25.9387 61.7279Z" fill="#E9E9E9"/>
<path d="M24.7631 63.9721C25.0964 64.0852 25.4316 64.4102 25.3616 64.7781C25.3538 64.8189 25.3088 64.8782 25.268 64.8706C24.9781 64.8842 24.6864 64.6858 24.465 64.5175C24.1697 64.293 24.441 63.8443 24.7631 63.9721Z" fill="#E9E9E9"/>
<path d="M24.6769 68.468C24.7577 68.5762 24.7083 68.7025 24.5964 68.7577C24.324 68.9016 23.9553 69.0189 23.648 68.9023C23.4258 68.8269 23.3986 68.5256 23.5782 68.3813C23.8921 68.1522 24.4345 68.1434 24.6769 68.468Z" fill="#E9E9E9"/>
<path d="M25.1425 70.6195C25.2501 70.6311 25.3049 70.743 25.2781 70.8395C25.1906 71.0771 24.959 71.2286 24.7204 71.3279C24.3179 71.4898 24.0562 70.8229 24.4657 70.7132C24.6852 70.6695 24.9273 70.5962 25.1425 70.6195Z" fill="#E9E9E9"/>
<path d="M32.7477 64.5395C32.8071 64.9823 32.3594 65.2035 32.0036 65.1201C31.948 65.1012 31.889 65.0563 31.908 65.0006C31.9772 64.7258 31.9882 64.313 32.4082 64.2814C32.5644 64.2598 32.7233 64.3572 32.7477 64.5395Z" fill="#E9E9E9"/>
<path d="M33.6275 69.5118C33.5537 69.4557 33.4807 69.3066 33.5448 69.1916C33.7217 68.9283 34.0818 68.9448 34.3448 69.0278C34.6486 69.1184 34.5673 69.5011 34.3435 69.6116C34.0859 69.7667 33.8637 69.6913 33.6275 69.5118Z" fill="#E9E9E9"/>
<path d="M37.2978 62.2506C37.5402 62.5752 37.4278 63.1213 37.2614 63.4627C37.2198 63.5481 37.1157 63.5625 37.0532 63.4915C36.7883 63.1966 36.5483 62.5931 36.8483 62.2597C36.9723 62.0966 37.184 62.0939 37.2978 62.2506Z" fill="#E9E9E9"/>
<path d="M35.6691 62.2247C36.2208 61.9892 36.3589 63.217 36.2376 63.4991C36.2073 63.5696 36.1327 63.6065 36.0363 63.58C35.6474 63.4481 35.0913 62.4639 35.6691 62.2247Z" fill="#E9E9E9"/>
<path d="M37.2385 55.3482C37.0384 55.7341 36.5631 56.1447 36.1823 56.3699C35.962 56.5065 35.7083 56.1967 35.8141 55.9964C35.996 55.5732 36.5719 55.1221 37.0439 55.0833C37.1628 55.0801 37.3139 55.2184 37.2385 55.3482Z" fill="#E9E9E9"/>
<path d="M34.5006 56.987C34.8149 57.1557 35.0841 57.3838 35.1737 57.756C35.2024 57.8714 35.0897 58.0197 34.9709 58.0229C34.6029 58.0473 34.3077 57.8228 34.0498 57.58C33.7884 57.3111 34.1716 56.807 34.5006 56.987Z" fill="#E9E9E9"/>
<path d="M34.349 55.4172C34.514 55.6597 34.7016 55.8725 34.8181 56.1482C34.8581 56.2488 34.794 56.3638 34.6786 56.393C34.2656 56.4767 33.9521 56.215 33.7618 55.8832C33.5055 55.4544 34.0814 55.0032 34.349 55.4172Z" fill="#E9E9E9"/>
<path d="M35.0025 54.3713C34.9536 54.0066 35.5011 53.838 35.628 54.1919C35.755 54.5457 35.7448 54.8655 35.5229 55.188C35.4666 55.2622 35.3364 55.2802 35.2851 55.1944C35.1313 54.9371 35.0296 54.6726 35.0025 54.3713Z" fill="#E9E9E9"/>
<path d="M36.746 58.1761C36.7383 58.217 36.7122 58.2206 36.6714 58.2129C36.5603 58.1753 36.4449 58.2045 36.3416 58.1259C36.1532 58.0061 35.9648 57.8863 35.7729 57.7404C35.4777 57.5159 35.7533 57.0003 36.0936 57.1654C36.3193 57.2668 36.4816 57.3902 36.6397 57.5806C36.8161 57.8082 36.778 57.9196 36.746 58.1761Z" fill="#E9E9E9"/>
<path d="M35.7476 58.6847C35.8031 58.7036 35.8249 58.7669 35.8058 58.8226C35.6907 59.2497 35.3056 59.5418 35.0647 59.92C34.8124 60.3131 34.2628 59.8718 34.489 59.4824C34.7377 59.0633 35.2216 58.5187 35.7476 58.6847Z" fill="#E9E9E9"/>
<path d="M36.0893 59.7127C36.0613 59.5043 36.305 59.2451 36.5342 59.3725C36.7486 59.4888 37.1864 59.9853 36.9167 60.2481C36.5837 60.533 36.1129 59.988 36.0893 59.7127Z" fill="#E9E9E9"/>
<path d="M38.9771 58.61C39.1647 58.8228 38.994 59.2311 38.7042 59.2447C38.5072 59.2587 38.3102 59.2727 38.1288 59.2049C37.9621 59.1484 37.9516 59.0703 37.8223 58.9953C37.7485 58.9392 37.7753 58.8426 37.8499 58.8058C37.8872 58.7874 37.9548 58.6984 38.0034 58.6651C38.1153 58.6099 38.2567 58.577 38.3721 58.5478C38.5447 58.3515 38.7599 58.3747 38.9771 58.61Z" fill="#E9E9E9"/>
<path d="M38.0054 57.3115C37.8492 57.3331 37.6946 57.1688 37.7665 57.0129C37.88 56.7717 38.0188 56.6199 38.2391 56.4833C38.8029 56.1399 39.1924 57.0676 38.5373 57.2246C38.3438 57.2647 38.2024 57.2975 38.0054 57.3115Z" fill="#E9E9E9"/>
<path d="M38.8567 61.3463C38.587 61.6091 37.5731 61.1658 37.814 60.7876C38.0134 60.4947 38.7407 60.5797 38.9093 60.8482C39.0266 61.0309 39.0102 61.2057 38.8567 61.3463Z" fill="#E9E9E9"/>
<path d="M36.0631 61.4009C35.8098 61.4891 35.5572 61.4842 35.3039 61.5724C35.0505 61.6605 34.8007 61.7747 34.5455 61.6508C34.4456 61.5983 34.4056 61.4977 34.4325 61.4011C34.6012 60.7808 35.7501 60.6484 36.1661 61.0816C36.2322 61.1786 36.1785 61.3717 36.0631 61.4009Z" fill="#E9E9E9"/>
<path d="M32.7019 59.1061C32.4223 58.7999 32.927 58.4117 33.2067 58.7178C33.4091 58.9419 33.608 59.1398 33.6906 59.46C33.7124 59.5233 33.6673 59.5826 33.6005 59.5786C33.2403 59.5622 32.9486 59.3638 32.7019 59.1061Z" fill="#E9E9E9"/>
<path d="M33.9681 58.4276C33.9751 58.4797 33.9526 58.5093 33.9005 58.5166C33.6177 58.5822 33.3997 58.4399 33.1783 58.2716C32.8979 58.0584 32.8256 57.8164 32.8471 57.4818C32.8514 57.4148 32.9147 57.3928 32.9703 57.4117C33.4147 57.5624 33.9504 57.8995 33.9681 58.4276Z" fill="#E9E9E9"/>
<path d="M33.584 60.8285C33.6508 60.8325 33.6726 60.8958 33.6275 60.9551C33.4324 61.1811 33.2338 61.3811 33.0092 61.5846C32.8557 61.7252 32.6855 61.6427 32.6013 61.5084C32.6013 61.5084 32.59 61.5232 32.6047 61.5345C32.5274 61.4523 32.5248 61.3333 32.5776 61.2331C32.5889 61.2183 32.5889 61.2183 32.5854 61.1922C32.6079 61.1626 32.6305 61.1329 32.6643 61.0885C32.9149 60.8813 33.2351 60.7972 33.584 60.8285Z" fill="#E9E9E9"/>
<path d="M33.5252 63.145C33.7688 62.8857 34.0428 62.556 34.3855 62.4422C34.5122 62.3982 34.6155 62.4767 34.6069 62.6106C34.596 63.0233 34.2994 63.3827 33.9707 63.6007C33.694 63.8114 33.2737 63.4451 33.5252 63.145Z" fill="#E9E9E9"/>
<path d="M35.201 63.6428C35.3948 64.0007 35.3978 64.5176 35.3461 64.9227C35.2943 65.3279 34.7597 65.2957 34.67 64.9235C34.5586 64.4879 34.664 63.8896 34.9936 63.5787C35.0682 63.5418 35.1533 63.5831 35.201 63.6428Z" fill="#E9E9E9"/>
<path d="M36.4205 64.482C36.4283 64.4411 36.4508 64.4115 36.4881 64.3931C36.7302 64.3198 36.9004 64.4023 37.1296 64.5298C37.3588 64.6572 37.6653 64.8669 37.8268 65.0833C37.9406 65.24 37.894 65.4852 37.7039 65.5513C37.1487 65.7608 36.3637 65.047 36.4205 64.482Z" fill="#E9E9E9"/>
<path d="M39.5406 63.9042C39.1673 63.6906 38.7661 63.2686 38.6286 62.8366C38.5999 62.7212 38.664 62.6062 38.7977 62.6142C39.2655 62.6423 39.7743 63.076 39.923 63.4932C40.0326 63.7168 39.7698 64.0317 39.5406 63.9042Z" fill="#E9E9E9"/>
<path d="M39.8849 62.1061C39.8076 62.0239 39.8422 61.8865 39.9246 61.8088C40.1978 61.572 40.5284 61.566 40.7751 61.8237C40.9739 62.0217 40.778 62.3406 40.5438 62.3731C40.2869 62.4351 40.0542 62.2816 39.8849 62.1061Z" fill="#E9E9E9"/>
<path d="M38.2886 64.1963C38.2972 64.0624 38.469 63.9591 38.5836 64.0228C38.8831 64.1803 39.2451 64.4088 39.4059 64.7182C39.4937 64.8785 39.3541 65.1233 39.1684 65.1225C38.659 65.1797 38.2621 64.6908 38.2886 64.1963Z" fill="#E9E9E9"/>
<path d="M39.8126 60.5103C39.7316 60.0042 40.1625 59.5598 40.4738 59.2116C40.8076 58.8338 41.3981 59.2827 41.0938 59.683C40.8008 60.0684 40.4106 60.5204 39.8865 60.5664C39.8604 60.57 39.8309 60.5475 39.8126 60.5103Z" fill="#E9E9E9"/>
<path d="M39.9796 58.3389C39.8095 58.2563 39.7998 58.0852 39.9273 57.9481C40.1146 57.763 40.4095 57.5896 40.6838 57.6577C40.8469 57.6882 41.005 57.8786 40.9219 58.0493C40.7295 58.3942 40.3087 58.5188 39.9796 58.3389Z" fill="#E9E9E9"/>
<path d="M38.3973 55.5728C38.3666 55.2454 38.4133 55.0001 38.6162 54.7333C38.8381 54.4107 39.3295 54.7142 39.2039 55.0632C39.0636 55.4009 38.8468 55.5636 38.4711 55.6289C38.445 55.6325 38.4007 55.5988 38.3973 55.5728Z" fill="#E9E9E9"/>
<path d="M37.1343 54.4478C36.8503 54.2085 36.6965 53.9512 36.6216 53.5902C36.5354 53.2439 37.0864 53.1014 37.2099 53.4292C37.3333 53.757 37.3457 54.0471 37.2722 54.3889C37.2532 54.4446 37.182 54.5075 37.1343 54.4478Z" fill="#E9E9E9"/>
<path d="M33.8692 54.4222C33.7589 54.2916 33.652 54.187 33.5305 54.0712C33.2725 53.8283 33.5073 53.305 33.8511 53.4962C34.1654 53.6649 34.3748 53.941 34.2787 54.3125C34.2398 54.5169 34.0238 54.5866 33.8692 54.4222Z" fill="#E9E9E9"/>
<path d="M32.6928 55.7519C33.0261 55.865 33.3613 56.19 33.2913 56.5578C33.2835 56.5987 33.2384 56.658 33.1977 56.6504C32.9078 56.664 32.6161 56.4656 32.3947 56.2973C32.0994 56.0728 32.3447 55.6277 32.6928 55.7519Z" fill="#E9E9E9"/>
<path d="M31.5684 60.6706C31.3462 60.5952 31.3191 60.2938 31.4986 60.1496C31.8091 59.8944 32.3402 59.9005 32.5826 60.2251C32.6634 60.3333 32.614 60.4595 32.5021 60.5148C32.2332 60.6847 31.8757 60.7872 31.5684 60.6706Z" fill="#E9E9E9"/>
<path d="M33.1979 62.6342C33.1104 62.8718 32.8788 63.0233 32.6402 63.1226C32.2377 63.2844 31.976 62.6176 32.3855 62.5079C32.6016 62.4382 32.8323 62.3797 33.0623 62.4142C33.17 62.4258 33.236 62.5228 33.1979 62.6342Z" fill="#E9E9E9"/>
<path d="M39.9131 56.8884C39.8576 56.8696 39.7985 56.8247 39.8176 56.769C39.8868 56.4941 39.8978 56.0814 40.3178 56.0498C40.4887 56.0394 40.6476 56.1368 40.6573 56.3079C40.7166 56.7507 40.2542 56.9606 39.9131 56.8884Z" fill="#E9E9E9"/>
<path d="M42.2718 61.3911C41.9994 61.5349 41.7919 61.4708 41.5557 61.2912C41.4819 61.2351 41.4089 61.086 41.4731 60.971C41.6499 60.7078 42.0101 60.7243 42.2843 60.7924C42.5734 60.8718 42.4956 61.2805 42.2718 61.3911Z" fill="#E9E9E9"/>
<path d="M47.0413 71.5945C46.7764 71.2995 46.5365 70.696 46.8365 70.3626C46.964 70.2256 47.1722 70.1968 47.3008 70.3647C47.5431 70.6893 47.4455 71.2467 47.2644 71.5769C47.208 71.651 47.1039 71.6654 47.0413 71.5945Z" fill="#E9E9E9"/>
<path d="M45.6456 70.3278C46.1974 70.0922 46.3354 71.32 46.2142 71.6021C46.1838 71.6726 46.1092 71.7095 46.0129 71.683C45.624 71.5511 45.0679 70.5669 45.6456 70.3278Z" fill="#E9E9E9"/>
<path d="M45.8139 64.1106C45.9958 63.6875 46.5717 63.2364 47.0438 63.1975C47.1739 63.1795 47.325 63.3178 47.2384 63.4624C47.0382 63.8483 46.5629 64.259 46.1821 64.4841C45.9618 64.6208 45.7117 64.337 45.8139 64.1106Z" fill="#E9E9E9"/>
<path d="M45.159 65.8593C45.1877 65.9747 45.075 66.123 44.9561 66.1261C44.5882 66.1505 44.293 65.9261 44.0351 65.6832C43.7736 65.4143 44.1568 64.9103 44.4746 65.1051C44.7889 65.2738 45.0841 65.4982 45.159 65.8593Z" fill="#E9E9E9"/>
<path d="M44.3415 63.5313C44.5065 63.7737 44.6942 63.9866 44.8106 64.2623C44.8506 64.3628 44.7865 64.4778 44.6711 64.5071C44.2581 64.5908 43.9446 64.3291 43.7543 63.9972C43.4867 63.5833 44.0739 63.1173 44.3415 63.5313Z" fill="#E9E9E9"/>
<path d="M45.2539 63.3123C45.1001 63.0551 45.0096 62.7757 44.9712 62.4892C44.9224 62.1246 45.4698 61.9559 45.5968 62.3098C45.7238 62.6636 45.7136 62.9834 45.4917 63.306C45.4353 63.3801 45.3052 63.3981 45.2539 63.3123Z" fill="#E9E9E9"/>
<path d="M46.7148 66.294C46.707 66.3349 46.681 66.3385 46.6402 66.3309C46.5291 66.2932 46.4137 66.3224 46.3104 66.2439C46.122 66.124 45.9335 66.0042 45.7416 65.8583C45.4464 65.6339 45.722 65.1182 46.0623 65.2833C46.288 65.3847 46.4504 65.5082 46.6085 65.6985C46.8108 65.9226 46.7727 66.034 46.7148 66.294Z" fill="#E9E9E9"/>
<path d="M45.7319 66.7877C45.7875 66.8066 45.8092 66.8699 45.7902 66.9256C45.6751 67.3527 45.29 67.6448 45.049 68.0231C44.7968 68.4161 44.2471 67.9749 44.4733 67.5854C44.7369 67.1775 45.1947 66.6366 45.7319 66.7877Z" fill="#E9E9E9"/>
<path d="M46.0658 67.816C46.0379 67.6076 46.2816 67.3483 46.5108 67.4758C46.7252 67.592 47.163 68.0886 46.8933 68.3514C46.5602 68.6363 46.1042 68.1025 46.0658 67.816Z" fill="#E9E9E9"/>
<path d="M48.1329 67.3044C47.9663 67.2479 47.9558 67.1698 47.8264 67.0948C47.7526 67.0387 47.7795 66.9421 47.8541 66.9053C47.8914 66.8868 47.959 66.7979 48.0076 66.7646C48.1195 66.7094 48.2609 66.6765 48.3763 66.6473C48.5115 66.4694 48.7381 66.4778 48.9699 66.7243C49.1575 66.9371 48.9869 67.3454 48.6971 67.359C48.5113 67.3582 48.2996 67.3609 48.1329 67.3044Z" fill="#E9E9E9"/>
<path d="M47.9741 65.4289C47.8179 65.4506 47.6634 65.2862 47.7353 65.1304C47.8488 64.8892 47.9875 64.7373 48.2078 64.6007C48.7717 64.2573 49.1611 65.1851 48.506 65.342C48.3238 65.3673 48.1711 65.4149 47.9741 65.4289Z" fill="#E9E9E9"/>
<path d="M48.9001 68.9626C49.0174 69.1454 48.9863 69.3089 48.8328 69.4495C48.5631 69.7123 47.5491 69.269 47.7901 68.8907C47.993 68.6239 48.7315 68.6941 48.9001 68.9626Z" fill="#E9E9E9"/>
<path d="M46.0475 69.504C45.7941 69.5921 45.5416 69.5873 45.2883 69.6754C45.0349 69.7635 44.7851 69.8777 44.5298 69.7538C44.43 69.7013 44.39 69.6007 44.4168 69.5042C44.5856 68.8839 45.7345 68.7514 46.1505 69.1846C46.2165 69.2816 46.1629 69.4747 46.0475 69.504Z" fill="#E9E9E9"/>
<path d="M42.6863 67.2093C42.4066 66.9032 42.9114 66.5149 43.1911 66.8211C43.3935 67.0451 43.5923 67.2431 43.675 67.5633C43.6968 67.6266 43.6517 67.6859 43.5848 67.6819C43.2134 67.6802 42.9364 67.4931 42.6863 67.2093Z" fill="#E9E9E9"/>
<path d="M42.9703 65.5257C43.4147 65.6764 43.9356 66.0022 43.9681 66.5416C43.9751 66.5937 43.9526 66.6234 43.9005 66.6306C43.6177 66.6962 43.3997 66.554 43.1783 66.3856C42.8979 66.1724 42.8256 65.9304 42.8471 65.5958C42.8401 65.5437 42.9147 65.5068 42.9703 65.5257Z" fill="#E9E9E9"/>
<path d="M43.5684 68.9315C43.6352 68.9356 43.6569 68.9989 43.6118 69.0582C43.4168 69.2842 43.2182 69.4841 42.9936 69.6876C42.8401 69.8282 42.6699 69.7457 42.5856 69.6114C42.5856 69.6114 42.5744 69.6263 42.5891 69.6375C42.5118 69.5553 42.5239 69.4475 42.562 69.3361C42.5733 69.3213 42.5733 69.3213 42.5698 69.2953C42.5923 69.2656 42.6149 69.236 42.6487 69.1915C42.9141 68.9956 43.2195 68.9002 43.5684 68.9315Z" fill="#E9E9E9"/>
<path d="M43.5174 71.2595C43.761 71.0002 44.035 70.6705 44.3777 70.5567C44.5044 70.5127 44.6077 70.5912 44.5991 70.7251C44.5882 71.1378 44.2916 71.4972 43.9629 71.7152C43.6715 71.9147 43.2512 71.5484 43.5174 71.2595Z" fill="#E9E9E9"/>
<path d="M44.6491 73.0528C44.5377 72.6172 44.6431 72.0189 44.9727 71.708C45.0438 71.6451 45.1436 71.6976 45.1653 71.761C45.3591 72.1188 45.3621 72.6357 45.3104 73.0409C45.2734 73.4572 44.724 73.4139 44.6491 73.0528Z" fill="#E9E9E9"/>
<path d="M47.1061 72.6475C47.3353 72.7749 47.6418 72.9845 47.8034 73.2009C47.9172 73.3576 47.8705 73.6029 47.6805 73.669C47.1365 73.8636 46.3402 73.1647 46.4118 72.6109C46.4196 72.57 46.4422 72.5404 46.4795 72.5219C46.7328 72.4338 46.903 72.5164 47.1061 72.6475Z" fill="#E9E9E9"/>
<path d="M49.9187 71.6074C50.0022 71.8346 49.7655 72.1459 49.5216 72.0072C49.1482 71.7936 48.747 71.3716 48.6096 70.9396C48.5808 70.8242 48.645 70.7092 48.7786 70.7172C49.2464 70.7453 49.744 71.1938 49.9187 71.6074Z" fill="#E9E9E9"/>
<path d="M50.5239 70.5018C50.2523 70.5527 50.0344 70.4104 49.8502 70.2236C49.7729 70.1415 49.8075 70.004 49.8899 69.9263C50.1631 69.6895 50.4938 69.6835 50.7404 69.9412C50.9393 70.1392 50.7434 70.4582 50.5239 70.5018Z" fill="#E9E9E9"/>
<path d="M49.1555 73.2513C48.6574 73.2938 48.2457 72.7936 48.287 72.3103C48.2956 72.1765 48.4673 72.0731 48.5819 72.1369C48.8814 72.2944 49.2435 72.5228 49.4042 72.8322C49.4807 73.0073 49.3264 73.2409 49.1555 73.2513Z" fill="#E9E9E9"/>
<path d="M49.8126 68.6245C49.7316 68.1184 50.1625 67.6741 50.4738 67.3259C50.8076 66.9481 51.3981 67.3969 51.0938 67.7972C50.8008 68.1827 50.4106 68.6346 49.8865 68.6806C49.8457 68.673 49.8161 68.6506 49.8126 68.6245Z" fill="#E9E9E9"/>
<path d="M50.8881 66.1675C50.707 66.4976 50.301 66.6334 49.9459 66.4571C49.7758 66.3745 49.7661 66.2034 49.8936 66.0664C50.0809 65.8813 50.3758 65.7078 50.6501 65.7759C50.8132 65.8064 50.9974 65.9932 50.8881 66.1675Z" fill="#E9E9E9"/>
<path d="M48.3892 63.6871C48.3586 63.3597 48.4053 63.1145 48.6081 62.8476C48.83 62.5251 49.3215 62.8285 49.1959 63.1775C49.0556 63.5153 48.8387 63.678 48.463 63.7432C48.4109 63.7504 48.3814 63.728 48.3892 63.6871Z" fill="#E9E9E9"/>
<path d="M47.1201 62.5766C46.8362 62.3373 46.6824 62.08 46.6075 61.719C46.5213 61.3728 47.0723 61.2302 47.1957 61.558C47.3192 61.8858 47.3316 62.1759 47.2581 62.5177C47.239 62.5734 47.1644 62.6103 47.1201 62.5766Z" fill="#E9E9E9"/>
<path d="M43.5008 62.1888C43.2429 61.946 43.4777 61.4227 43.8215 61.6139C44.1358 61.7826 44.3451 62.0587 44.2491 62.4302C44.2102 62.6345 43.9681 62.7078 43.8283 62.5547C43.744 62.4205 43.6337 62.2898 43.5008 62.1888Z" fill="#E9E9E9"/>
<path d="M43.2795 64.6608C43.2717 64.7017 43.2266 64.761 43.1858 64.7533C42.896 64.7669 42.6042 64.5685 42.3828 64.4002C42.0876 64.1758 42.3589 63.727 42.6922 63.84C43.0143 63.9679 43.3495 64.2929 43.2795 64.6608Z" fill="#E9E9E9"/>
<path d="M41.5606 68.7848C41.3384 68.7095 41.3113 68.4081 41.4908 68.2639C41.8013 68.0087 42.3324 68.0147 42.5748 68.3394C42.6556 68.4476 42.6062 68.5738 42.4943 68.6291C42.2106 68.7877 41.8532 68.8902 41.5606 68.7848Z" fill="#E9E9E9"/>
<path d="M43.1765 70.737C43.089 70.9746 42.8574 71.126 42.6189 71.2254C42.2163 71.3872 41.9546 70.7204 42.3641 70.6106C42.5802 70.5409 42.811 70.4825 43.041 70.517C43.1486 70.5286 43.2033 70.6404 43.1765 70.737Z" fill="#E9E9E9"/>
<path d="M49.8798 65.0067C49.8243 64.9878 49.7652 64.943 49.7843 64.8873C49.8535 64.6124 49.8645 64.1996 50.2845 64.168C50.4554 64.1576 50.6143 64.255 50.624 64.4261C50.7093 64.8653 50.2469 65.0753 49.8798 65.0067Z" fill="#E9E9E9"/>
<path d="M52.2435 69.4941C51.9711 69.638 51.7636 69.5738 51.5274 69.3943C51.4536 69.3381 51.3806 69.1891 51.4448 69.0741C51.6216 68.8108 51.9818 68.8273 52.2448 68.9103C52.5338 68.9897 52.4673 69.3836 52.2435 69.4941Z" fill="#E9E9E9"/>
<path d="M38.4826 79.2916C38.6101 79.1545 38.8184 79.1257 38.9469 79.2936C39.1893 79.6183 39.0769 80.1644 38.9105 80.5058C38.8689 80.5912 38.7648 80.6056 38.7023 80.5346C38.4113 80.2433 38.1714 79.6398 38.4826 79.2916Z" fill="#E9E9E9"/>
<path d="M37.8568 80.5458C37.8265 80.6163 37.7519 80.6532 37.6555 80.6267C37.2666 80.4948 36.6957 79.4994 37.2883 79.2714C37.8661 79.0323 37.9893 80.2489 37.8568 80.5458Z" fill="#E9E9E9"/>
<path d="M37.4545 73.0545C37.6364 72.6313 38.2123 72.1802 38.6844 72.1414C38.8146 72.1234 38.9657 72.2616 38.879 72.4063C38.6788 72.7922 38.2035 73.2028 37.8227 73.428C37.6137 73.5498 37.3635 73.266 37.4545 73.0545Z" fill="#E9E9E9"/>
<path d="M35.7017 74.6232C35.4403 74.3543 35.8235 73.8503 36.1412 74.0451C36.4555 74.2138 36.7247 74.4419 36.8143 74.8141C36.8431 74.9295 36.7304 75.0778 36.6115 75.081C36.2401 75.0793 35.9596 74.8661 35.7017 74.6232Z" fill="#E9E9E9"/>
<path d="M35.9926 72.4604C36.1577 72.7028 36.3453 72.9156 36.4618 73.1913C36.5018 73.2919 36.4376 73.4069 36.3223 73.4361C35.9092 73.5198 35.5958 73.2581 35.4055 72.9263C35.1379 72.5123 35.7138 72.0612 35.9926 72.4604Z" fill="#E9E9E9"/>
<path d="M36.9085 72.241C36.7547 71.9838 36.6643 71.7044 36.6259 71.4179C36.577 71.0533 37.1245 70.8846 37.2514 71.2385C37.3784 71.5923 37.3682 71.9121 37.1463 72.2347C37.1047 72.32 36.9598 72.3268 36.9085 72.241Z" fill="#E9E9E9"/>
<path d="M37.4048 74.7982C37.1096 74.5738 37.3852 74.0581 37.7255 74.2232C37.9512 74.3247 38.1136 74.4481 38.2717 74.6385C38.4333 74.8549 38.3951 74.9663 38.3632 75.2227C38.3555 75.2636 38.3294 75.2672 38.2886 75.2596C38.1775 75.2219 38.0621 75.2511 37.9588 75.1726C37.7851 75.064 37.5967 74.9441 37.4048 74.7982Z" fill="#E9E9E9"/>
<path d="M36.1374 76.5253C36.3862 76.1062 36.8587 75.5765 37.396 75.7277C37.4516 75.7465 37.4733 75.8098 37.4543 75.8655C37.3392 76.2927 36.9541 76.5848 36.7131 76.963C36.4461 77.3449 35.8852 76.9184 36.1374 76.5253Z" fill="#E9E9E9"/>
<path d="M37.7064 76.7593C37.6785 76.5509 37.9222 76.2917 38.1514 76.4192C38.3658 76.5354 38.8036 77.0319 38.5339 77.2948C38.2269 77.576 37.7448 77.0458 37.7064 76.7593Z" fill="#E9E9E9"/>
<path d="M39.7736 76.2478C39.6069 76.1913 39.5964 76.1131 39.4671 76.0382C39.3933 75.9821 39.4201 75.8855 39.4947 75.8486C39.532 75.8302 39.5996 75.7413 39.6482 75.708C39.7601 75.6527 39.9015 75.6199 40.0169 75.5906C40.1522 75.4127 40.3787 75.4212 40.6106 75.6677C40.7982 75.8805 40.6275 76.2888 40.3377 76.3024C40.1632 76.2867 39.9663 76.3007 39.7736 76.2478Z" fill="#E9E9E9"/>
<path d="M39.3915 74.0596C39.505 73.8184 39.6438 73.6665 39.8641 73.5299C40.4279 73.1865 40.8174 74.1143 40.1623 74.2713C39.9688 74.3113 39.8161 74.359 39.6191 74.373C39.4742 74.3798 39.3196 74.2154 39.3915 74.0596Z" fill="#E9E9E9"/>
<path d="M39.445 77.8457C39.6444 77.5528 40.3717 77.6378 40.5403 77.9063C40.6576 78.0891 40.6264 78.2525 40.473 78.3932C40.218 78.6672 39.2041 78.2239 39.445 77.8457Z" fill="#E9E9E9"/>
<path d="M37.7845 78.1282C37.8765 78.2216 37.8229 78.4147 37.6962 78.4588C37.4429 78.5469 37.1903 78.5421 36.937 78.6302C36.6837 78.7183 36.4338 78.8325 36.1786 78.7087C36.0788 78.6561 36.0388 78.5556 36.0656 78.459C36.2196 77.8275 37.3685 77.695 37.7845 78.1282Z" fill="#E9E9E9"/>
<path d="M34.3269 76.1532C34.0473 75.847 34.552 75.4588 34.8317 75.765C35.0341 75.989 35.233 76.187 35.3156 76.5071C35.3374 76.5705 35.2923 76.6298 35.2255 76.6258C34.8653 76.6093 34.5883 76.4221 34.3269 76.1532Z" fill="#E9E9E9"/>
<path d="M34.4955 74.5513C34.4998 74.4844 34.5632 74.4624 34.6187 74.4812C35.0631 74.632 35.5841 74.9578 35.6166 75.4972C35.6236 75.5493 35.601 75.5789 35.549 75.5861C35.2661 75.6518 35.0482 75.5095 34.8268 75.3412C34.5315 75.1168 34.4741 74.8859 34.4955 74.5513Z" fill="#E9E9E9"/>
<path d="M34.3015 78.1463C34.5634 77.9243 34.8835 77.8402 35.2324 77.8715C35.2992 77.8755 35.321 77.9388 35.2759 77.9981C35.0808 78.2241 34.8822 78.424 34.6576 78.6276C34.5041 78.7682 34.334 78.6856 34.2497 78.5514C34.2497 78.5514 34.2384 78.5662 34.2532 78.5774C34.1759 78.4953 34.1732 78.3763 34.2261 78.2761C34.2373 78.2613 34.2373 78.2613 34.2338 78.2352C34.2303 78.2092 34.2642 78.1647 34.3015 78.1463Z" fill="#E9E9E9"/>
<path d="M35.1658 80.2028C35.4095 79.9436 35.6834 79.6139 36.0262 79.5001C36.1528 79.456 36.2561 79.5346 36.2476 79.6684C36.2366 80.0812 35.9401 80.4406 35.6113 80.6585C35.3312 80.8432 34.8996 80.4917 35.1658 80.2028Z" fill="#E9E9E9"/>
<path d="M36.8349 80.7011C37.0286 81.059 37.0316 81.5759 36.9799 81.981C36.9281 82.3862 36.3935 82.354 36.3038 81.9818C36.1924 81.5462 36.2979 80.9479 36.6274 80.637C36.6985 80.5741 36.7983 80.6266 36.8349 80.7011Z" fill="#E9E9E9"/>
<path d="M38.7702 81.5874C38.9994 81.7149 39.3059 81.9245 39.4675 82.1409C39.5813 82.2976 39.5346 82.5428 39.3446 82.6089C38.8006 82.8036 38.0043 82.1046 38.0759 81.5508C38.0837 81.51 38.1062 81.4803 38.1435 81.4619C38.3821 81.3625 38.541 81.4599 38.7702 81.5874Z" fill="#E9E9E9"/>
<path d="M41.1605 80.9509C40.7872 80.7372 40.3859 80.3152 40.2485 79.8832C40.2198 79.7678 40.2839 79.6528 40.4175 79.6609C40.8853 79.689 41.3942 80.1226 41.5429 80.5398C41.6524 80.7634 41.4045 81.0895 41.1605 80.9509Z" fill="#E9E9E9"/>
<path d="M42.4079 78.8813C42.6067 79.0793 42.4109 79.3982 42.1766 79.4307C41.905 79.4815 41.6871 79.3392 41.5029 79.1525C41.4256 79.0703 41.4602 78.9329 41.5426 78.8552C41.8306 78.6296 42.1465 78.6124 42.4079 78.8813Z" fill="#E9E9E9"/>
<path d="M40.2242 81.0807C40.5237 81.2382 40.8857 81.4666 41.0465 81.776C41.1343 81.9363 40.9947 82.1811 40.809 82.1803C40.3109 82.2227 39.8992 81.7226 39.9405 81.2393C39.9378 81.1203 40.0983 81.0318 40.2242 81.0807Z" fill="#E9E9E9"/>
<path d="M41.4611 77.5532C41.38 77.0471 41.811 76.6028 42.1223 76.2546C42.4561 75.8768 43.0465 76.3257 42.7422 76.7259C42.4492 77.1114 42.059 77.5633 41.5349 77.6093C41.4828 77.6166 41.4533 77.5941 41.4611 77.5532Z" fill="#E9E9E9"/>
<path d="M42.3006 74.7048C42.4638 74.7353 42.6219 74.9257 42.5387 75.0964C42.3576 75.4265 41.9515 75.5623 41.5965 75.3859C41.4263 75.3034 41.4166 75.1323 41.5441 74.9952C41.7462 74.8214 42.0411 74.6479 42.3006 74.7048Z" fill="#E9E9E9"/>
<path d="M40.0298 72.631C39.9992 72.3036 40.0459 72.0583 40.2488 71.7915C40.4707 71.4689 40.9621 71.7723 40.8365 72.1214C40.6962 72.4591 40.4793 72.6218 40.1036 72.6871C40.0628 72.6795 40.0333 72.657 40.0298 72.631Z" fill="#E9E9E9"/>
<path d="M38.7686 71.5058C38.4846 71.2665 38.3308 71.0092 38.2559 70.6482C38.1697 70.302 38.7207 70.1594 38.8442 70.4872C38.9676 70.815 38.98 71.1051 38.9065 71.4469C38.8874 71.5026 38.8128 71.5395 38.7686 71.5058Z" fill="#E9E9E9"/>
<path d="M35.5036 71.4801C35.3933 71.3495 35.2865 71.2449 35.1649 71.129C34.907 70.8862 35.1418 70.3629 35.4856 70.554C35.7998 70.7228 36.0092 70.9989 35.9131 71.3704C35.8742 71.5747 35.6434 71.6332 35.5036 71.4801Z" fill="#E9E9E9"/>
<path d="M34.0162 73.3441C33.721 73.1196 33.9923 72.6709 34.3256 72.7839C34.6589 72.897 34.9941 73.222 34.9241 73.5898C34.9163 73.6307 34.8713 73.69 34.8305 73.6824C34.5294 73.7108 34.2376 73.5124 34.0162 73.3441Z" fill="#E9E9E9"/>
<path d="M33.1314 77.2077C33.4419 76.9525 33.973 76.9586 34.2154 77.2832C34.2962 77.3914 34.2468 77.5176 34.1349 77.5729C33.8625 77.7167 33.4938 77.8341 33.1865 77.7174C32.9903 77.6385 32.9779 77.3484 33.1314 77.2077Z" fill="#E9E9E9"/>
<path d="M34.6896 79.4458C34.7973 79.4575 34.852 79.5693 34.8252 79.6658C34.7377 79.9035 34.5061 80.0549 34.2675 80.1542C33.865 80.3161 33.6033 79.6493 34.0128 79.5395C34.2288 79.4698 34.4596 79.4113 34.6896 79.4458Z" fill="#E9E9E9"/>
<path d="M41.5361 73.9352C41.4805 73.9163 41.4215 73.8714 41.4405 73.8157C41.5097 73.5408 41.5207 73.1281 41.9407 73.0965C42.1117 73.0861 42.2705 73.1835 42.2802 73.3546C42.3656 73.7938 41.9032 74.0037 41.5361 73.9352Z" fill="#E9E9E9"/>
<path d="M43.1822 78.3233C43.1084 78.2672 43.0354 78.1181 43.0995 78.0031C43.2764 77.7399 43.6365 77.7563 43.8995 77.8393C44.2033 77.9299 44.122 78.3126 43.8982 78.4232C43.6406 78.5782 43.4184 78.5028 43.1822 78.3233Z" fill="#E9E9E9"/>
<path d="M30.5621 61.8041C30.5594 61.6851 30.6791 61.5889 30.7832 61.5745C30.9915 61.5457 31.1659 61.5613 31.3205 61.7257C31.3535 61.7741 31.3345 61.8298 31.3119 61.8595C31.0986 62.0482 30.5433 62.2577 30.5621 61.8041Z" fill="#E9E9E9"/>
<path d="M30.5498 60.6252C30.3232 60.6167 30.1174 60.3667 30.0001 60.1839C29.7915 59.8148 30.2555 59.419 30.5422 59.7773C30.6342 59.8706 30.8951 60.6304 30.5498 60.6252Z" fill="#E9E9E9"/>
<path d="M28.6191 59.672C28.9342 59.7478 29.2267 59.8532 29.3354 60.1698C29.3537 60.2071 29.3311 60.2367 29.2938 60.2552C29.044 60.3693 28.8027 60.3497 28.5432 60.2927C28.1465 60.2017 28.2224 59.581 28.6191 59.672Z" fill="#E9E9E9"/>
<path d="M31.7457 57.7934C31.8397 58.0987 31.8815 58.4113 31.6231 58.6593C31.6006 58.689 31.5338 58.685 31.5155 58.6477C31.3835 58.4537 31.3 58.2265 31.22 58.0253C31.1765 57.8987 31.2111 57.7613 31.3083 57.6947C31.3568 57.6615 31.3941 57.6431 31.4462 57.6359C31.5616 57.6066 31.691 57.6816 31.7457 57.7934Z" fill="#E9E9E9"/>
<path d="M29.8372 58.0041C29.8877 58.1829 29.9789 58.3692 29.966 58.57C29.9583 58.6108 29.9322 58.6144 29.8949 58.6329C29.5973 58.6873 29.3984 58.4893 29.2707 58.2285C29.1064 57.893 29.7363 57.6467 29.8372 58.0041Z" fill="#E9E9E9"/>
<path d="M30.5769 57.1333C30.4196 56.85 30.4628 56.5787 30.5954 56.2818C30.8111 55.8142 31.517 56.2338 31.1979 56.6229C31.0401 56.8304 30.8901 56.9971 30.6698 57.1337C30.6472 57.1634 30.5952 57.1706 30.5769 57.1333Z" fill="#E9E9E9"/>
<path d="M32.6426 54.6323C32.451 54.8843 32.2159 55.0097 31.8888 55.0417C31.5243 55.0921 31.3547 54.5187 31.7234 54.4013C31.9655 54.328 32.1997 54.2956 32.4523 54.3004C32.612 54.3049 32.7553 54.484 32.6426 54.6323Z" fill="#E9E9E9"/>
<path d="M28.9673 56.308C28.9952 56.5164 29.0049 56.6875 28.8844 56.8766C28.8619 56.9063 28.8358 56.9099 28.795 56.9022C28.5616 56.8417 28.4851 56.6666 28.3678 56.4838C28.2982 56.3608 28.3702 56.2049 28.4638 56.1124C28.5349 56.0495 28.587 56.0423 28.6946 56.0539C28.8395 56.0471 28.9351 56.1665 28.9673 56.308Z" fill="#E9E9E9"/>
<path d="M30.2815 55.3955C29.9112 55.6988 29.4882 55.2135 29.5695 54.8308C29.624 54.5447 30.0595 54.4313 30.1682 54.7479C30.2152 54.9006 30.4498 55.2661 30.2815 55.3955Z" fill="#E9E9E9"/>
<path d="M31.9152 53.5246C31.7998 53.5538 31.7035 53.5274 31.6487 53.4156C31.6452 53.3895 31.6157 53.3671 31.6122 53.341C31.5722 53.2405 31.5956 53.1178 31.6519 53.0437C31.8097 52.8362 32.0083 52.6362 32.286 52.7304C32.3008 52.7417 32.3303 52.7641 32.3338 52.7902C32.3575 53.0654 32.1981 53.4589 31.9152 53.5246Z" fill="#E9E9E9"/>
<path d="M34.2586 52.4974C34.052 52.3403 34.1732 52.0582 34.3893 51.9885C34.7094 51.9044 35.2024 52.0219 35.3407 52.3609C35.3772 52.4355 35.3504 52.532 35.2758 52.5689C34.9878 52.7944 34.5243 52.6994 34.2586 52.4974Z" fill="#E9E9E9"/>
<path d="M27.8791 57.9171C28.1526 58.0782 28.4781 58.2321 28.6128 58.5451C28.6528 58.6457 28.5965 58.7198 28.5071 58.7455C28.213 58.826 27.9135 58.6684 27.6357 58.5742C27.1991 58.3826 27.5058 57.7035 27.8791 57.9171Z" fill="#E9E9E9"/>
<path d="M25.4867 59.2566C25.5602 58.9148 25.671 58.5545 26.0397 58.4372C26.1031 58.4151 26.1734 58.4452 26.1951 58.5085C26.3411 58.8067 26.2233 59.1148 26.1463 59.4306C26.065 59.8132 25.4054 59.6392 25.4867 59.2566Z" fill="#E9E9E9"/>
<path d="M26.564 61.0311C26.144 61.0627 26.0637 60.4636 26.4767 60.3799C26.8116 60.307 27.335 60.3539 27.4541 60.7487C27.4759 60.812 27.4421 60.8565 27.4048 60.8749C27.1584 61.0151 26.839 61.0063 26.564 61.0311Z" fill="#E9E9E9"/>
<path d="M24.8508 61.347C24.8224 61.6295 24.8868 61.9124 24.7915 62.1909C24.7647 62.2875 24.638 62.3316 24.553 62.2903C24.112 62.1656 24.0309 61.6595 24.0827 61.2544C24.124 60.7711 24.9034 60.8489 24.8508 61.347Z" fill="#E9E9E9"/>
<path d="M23.8236 62.9754C23.8679 63.0091 23.9044 63.0836 23.9001 63.1505C23.8889 63.1653 23.9036 63.1766 23.8923 63.1914C23.8352 63.3585 23.5115 63.4165 23.3623 63.4903C22.9893 63.6745 22.7346 63.0598 23.1111 62.9016C23.387 62.7838 23.6022 62.8071 23.8236 62.9754Z" fill="#E9E9E9"/>
<path d="M22.6282 64.3349C23.0039 64.2696 23.364 64.2861 23.6289 64.5811C23.6585 64.6035 23.6394 64.6592 23.6134 64.6628C23.374 64.8551 23.0946 64.9469 22.83 65.0498C22.3268 65.2521 22.0963 64.4218 22.6282 64.3349Z" fill="#E9E9E9"/>
<path d="M23.0534 66.159C23.2598 65.9182 23.7307 65.5744 24.0329 65.8509C24.0477 65.8622 24.0624 65.8734 24.0512 65.8882C23.9967 66.1743 23.6827 66.4035 23.4659 66.5662C23.2153 66.7733 22.8358 66.4146 23.0534 66.159Z" fill="#E9E9E9"/>
<path d="M23.0821 67.3896C23.1376 67.4084 23.1594 67.4717 23.1256 67.5162C22.9002 67.8127 22.5835 67.9229 22.2225 67.9994C21.8095 68.0831 21.7222 67.4319 22.1388 67.3742C22.4476 67.305 22.7748 67.2729 23.0821 67.3896Z" fill="#E9E9E9"/>
<path d="M21.4655 65.4642C21.7432 65.5584 21.9397 66.0353 21.8002 66.2801C21.7699 66.3506 21.71 66.3987 21.6284 66.3834C21.2796 66.3521 21.0232 65.9233 21.115 65.6188C21.1609 65.4665 21.3396 65.4153 21.4655 65.4642Z" fill="#E9E9E9"/>
<path d="M22.7779 69.341C22.8369 69.3859 22.8249 69.4937 22.7615 69.5157C22.4449 69.6258 22.1907 69.8069 21.8609 69.7199C21.7645 69.6935 21.6915 69.5444 21.7444 69.4442C21.9819 69.0399 22.4419 69.1089 22.7779 69.341Z" fill="#E9E9E9"/>
<path d="M23.7793 70.6359C23.6397 70.8807 23.4446 71.1067 23.2903 71.3403C23.234 71.4144 23.0968 71.3803 23.0976 71.2874C23.0748 70.9191 22.9956 70.625 23.1325 70.2611C23.3152 69.745 24.0696 70.1314 23.7793 70.6359Z" fill="#E9E9E9"/>
<path d="M24.8753 72.4331C24.9977 72.456 25.1045 72.5606 25.1185 72.6647C25.1421 72.94 25.1397 73.2189 24.9299 73.4337C24.9073 73.4633 24.8553 73.4706 24.837 73.4333C24.6642 73.2317 24.6067 73.0009 24.5571 72.7292C24.5396 72.599 24.615 72.4691 24.7304 72.4399C24.7825 72.4327 24.8233 72.4403 24.8753 72.4331Z" fill="#E9E9E9"/>
<path d="M26.5225 74.4076C26.8072 74.5539 27.0321 74.7483 27.2007 75.0168C27.2372 75.0913 27.2216 75.1731 27.1323 75.1987C26.8312 75.2271 26.5534 75.1329 26.2834 74.9978C25.9023 74.8251 26.1526 74.22 26.5225 74.4076Z" fill="#E9E9E9"/>
<path d="M28.3771 74.2449C28.6871 74.4806 28.7352 74.9382 28.784 75.3029C28.8434 75.7457 28.2151 75.8061 28.1072 75.3966C28.0063 75.0391 27.9322 74.5851 28.1688 74.2738C28.24 74.2109 28.3181 74.2 28.3771 74.2449Z" fill="#E9E9E9"/>
<path d="M29.5822 76.7567C29.3055 76.9675 29.0227 77.0331 28.6843 77.08C28.6322 77.0872 28.5879 77.0535 28.5957 77.0126C28.5814 76.5105 28.9222 76.1848 29.4273 76.1945C29.7206 76.207 29.799 76.5941 29.5822 76.7567Z" fill="#E9E9E9"/>
<path d="M30.8141 75.0479C31.1684 75.3173 30.7514 75.8658 30.3971 75.5965C30.2643 75.4955 29.5557 74.9568 29.8549 74.7164C30.1316 74.5057 30.5814 74.8944 30.8141 75.0479Z" fill="#E9E9E9"/>
<path d="M32.2047 74.4964C32.2516 74.6491 32.2058 74.8014 32.1859 74.95C32.1194 75.3439 31.5778 75.2597 31.5923 74.873C31.6016 74.6462 31.7291 74.5092 31.9269 74.4022C31.9902 74.3802 32.1794 74.4071 32.2047 74.4964Z" fill="#E9E9E9"/>
<path d="M32.5788 75.2677C32.779 74.8819 33.286 75.1035 33.1822 75.5159C33.151 75.6793 33.0413 76.3445 32.7523 76.2651C32.3556 76.1741 32.428 75.5274 32.5788 75.2677Z" fill="#E9E9E9"/>
<path d="M33.8543 74.4403C33.5263 74.5652 33.2459 74.352 32.9837 74.1761C32.6624 73.9552 33.0456 73.4512 33.3556 73.6868C33.577 73.8552 33.8245 74.0199 33.9149 74.2992C33.9219 74.3513 33.9029 74.407 33.8543 74.4403Z" fill="#E9E9E9"/>
<path d="M33.1359 71.6481C33.3439 71.2214 33.9611 71.5737 33.6941 71.9555C33.5624 72.1595 33.4011 72.341 33.192 72.4628C33.1808 72.4776 33.14 72.47 33.1252 72.4587C32.9602 72.2163 33.0146 71.9302 33.1359 71.6481Z" fill="#E9E9E9"/>
<path d="M34.2435 71.0839C34.2773 71.0394 34.3666 71.0138 34.4222 71.0326C34.7069 71.1789 34.7349 71.3873 34.6839 71.6994C34.6683 71.7812 34.5704 71.9407 34.4706 71.8882C34.1337 71.7491 34.0814 71.3584 34.2435 71.0839Z" fill="#E9E9E9"/>
<path d="M35.3655 69.3634C35.4825 69.1482 35.6247 69.0224 35.8886 69.0124C35.9666 69.0016 36.0257 69.0465 36.0509 69.1358C36.1188 69.4448 35.9463 69.6411 35.6669 69.7329C35.4101 69.7949 35.2338 69.5673 35.3655 69.3634Z" fill="#E9E9E9"/>
<path d="M36.8917 69.9878C36.8627 69.4745 36.7408 68.9608 36.9235 68.4447C37.011 68.207 37.3451 68.2271 37.4399 68.4395C37.6651 69.0318 37.3009 69.4802 37.0661 70.0035C37.0358 70.074 36.8909 70.0808 36.8917 69.9878Z" fill="#E9E9E9"/>
<path d="M35.4143 67.9507C35.1255 68.2692 34.8427 68.3349 34.427 68.2996C34.3454 68.2843 34.3202 68.195 34.3652 68.1357C34.523 67.9281 34.6661 67.7093 34.8386 67.513C35.1499 67.1648 35.7256 67.6025 35.4143 67.9507Z" fill="#E9E9E9"/>
<path d="M33.8473 66.032C33.8516 65.9651 33.9115 65.917 33.9635 65.9098C34.2985 65.8369 34.6007 66.1135 34.7432 66.3856C34.8527 66.6092 34.6055 66.8424 34.3686 66.7558C34.0873 66.6355 33.8519 66.363 33.8473 66.032Z" fill="#E9E9E9"/>
<path d="M36.126 67.2285C35.7935 67.0225 35.8927 66.2791 36.0956 66.0123C36.1407 65.953 36.2188 65.9422 36.2778 65.9871C36.5731 66.2115 36.7784 66.9525 36.4454 67.2373C36.337 67.3187 36.2294 67.307 36.126 67.2285Z" fill="#E9E9E9"/>
<path d="M37.4274 67.0891C37.4749 66.7509 37.9365 66.634 38.2151 66.6352C38.7019 66.6076 38.7892 67.2588 38.3128 67.3646C38.1341 67.4158 37.3574 67.457 37.4274 67.0891Z" fill="#E9E9E9"/>
<path d="M39.0063 68.528C39.5452 68.4932 39.5345 69.3039 39.0112 69.2569C38.7959 69.2337 38.611 69.1399 38.3923 69.0906C38.3367 69.0717 38.3185 69.0344 38.3523 68.99C38.5031 68.7303 38.7052 68.5564 39.0063 68.528Z" fill="#E9E9E9"/>
<path d="M40.1893 70.8053C40.1326 70.4815 40.1195 70.2844 40.2078 69.9538C40.3497 69.4301 41.2665 69.9399 40.7687 70.3802C40.6152 70.5209 40.3949 70.6575 40.2709 70.8206C40.2483 70.8502 40.2075 70.8426 40.1893 70.8053Z" fill="#E9E9E9"/>
<path d="M40.3851 68.0321C40.4243 68.2257 40.5381 68.3824 40.566 68.5908C40.5695 68.6168 40.5582 68.6316 40.5322 68.6352C40.2 68.8271 39.9021 68.4837 39.7968 68.1932C39.6742 67.7724 40.2737 67.5965 40.3851 68.0321Z" fill="#E9E9E9"/>
<path d="M40.9184 66.9372C41.117 66.7373 41.4379 66.5602 41.7313 66.5727C41.7981 66.5767 41.8606 66.6476 41.8451 66.7294C41.7716 67.0712 41.4385 67.3561 41.1001 67.4029C40.8363 67.4129 40.7424 67.1075 40.9184 66.9372Z" fill="#E9E9E9"/>
<path d="M40.4568 65.6077C40.811 65.8771 40.0334 66.9 39.7121 66.6792C39.2875 66.3798 40.0139 65.2711 40.4568 65.6077Z" fill="#E9E9E9"/>
<path d="M41.3737 64.7379C41.6689 64.9623 41.7446 65.2304 41.6042 65.5682C41.5852 65.6239 41.5106 65.6607 41.4628 65.601C41.3082 65.4367 41.1311 65.302 40.9765 65.1377C40.7594 64.9025 41.1227 64.5471 41.3737 64.7379Z" fill="#E9E9E9"/>
<path d="M41.5351 63.4299C41.4388 63.4035 41.391 63.3438 41.3918 63.2508C41.3942 62.9719 41.604 62.7572 41.8574 62.669C42.1368 62.5773 42.4312 62.8947 42.2283 63.1616C42.0558 63.3579 41.7946 63.4869 41.5351 63.4299Z" fill="#E9E9E9"/>
<path d="M44.7732 61.2425C44.7437 61.22 44.7107 61.1715 44.7184 61.1307C44.7608 60.9523 44.8658 60.845 45.0115 60.7452C45.2023 60.5861 45.4677 60.3902 45.728 60.3542C45.8694 60.3214 46.0318 60.4448 46.038 60.5899C46.067 61.1032 45.2308 61.5903 44.7732 61.2425Z" fill="#E9E9E9"/>
<path d="M43.5194 60.3296C43.5295 60.0098 43.6135 59.7461 43.7348 59.4641C43.9505 58.9964 44.6086 59.3564 44.3373 59.8051C44.164 60.0944 43.9689 60.3204 43.6409 60.4454C43.5628 60.4562 43.5151 60.3965 43.5194 60.3296Z" fill="#E9E9E9"/>
<path d="M42.464 59.5067C42.4155 59.54 42.3452 59.5099 42.3382 59.4578C42.3344 59.0339 42.2576 58.4609 42.6574 58.18C42.706 58.1467 42.7728 58.1508 42.8171 58.1844C43.3746 58.5848 42.8379 59.2295 42.464 59.5067Z" fill="#E9E9E9"/>
<path d="M41.9596 57.4145C41.9153 57.3808 41.9196 57.3139 41.9386 57.2582C42.0556 57.043 42.1909 56.8651 42.3999 56.7433C42.6315 56.5919 42.8972 56.7939 42.8132 57.0575C42.6799 57.4474 42.2808 57.6353 41.9596 57.4145Z" fill="#E9E9E9"/>
<path d="M40.6953 55.1887C40.7144 55.133 40.7334 55.0773 40.7855 55.0701C41.2288 54.9159 41.6102 55.4865 41.4508 55.88C41.4283 55.9097 41.4057 55.9393 41.3649 55.9317C41.0238 55.8595 40.6366 55.5417 40.6953 55.1887Z" fill="#E9E9E9"/>
<path d="M38.1814 54.0508C38.1111 54.0207 38.0338 53.9386 38.0607 53.842C38.1264 53.5411 38.5029 53.3829 38.7807 53.4771C38.7954 53.4883 38.8102 53.4995 38.8137 53.5256C38.8295 53.8417 38.4775 54.1823 38.1814 54.0508Z" fill="#E9E9E9"/>
<path d="M36.4927 52.4405C36.3346 52.2501 36.5713 51.9388 36.797 52.0402C36.9116 52.104 37.5281 52.5492 37.2184 52.7115C36.946 52.8553 36.6508 52.6309 36.4927 52.4405Z" fill="#E9E9E9"/>
<path d="M31.0959 76.8267C31.2408 76.8199 31.3294 76.8872 31.3616 77.0287C31.4295 77.3376 31.0688 77.812 30.918 78.0717C30.7334 78.3758 30.2264 78.1541 30.2887 77.8272C30.3509 77.5002 30.7167 76.8659 31.0959 76.8267Z" fill="#E9E9E9"/>
<path d="M32.4206 77.7436C32.4485 77.952 32.4694 78.1082 32.3897 78.305C32.3707 78.3607 32.3073 78.3827 32.2631 78.349C32.1562 78.2444 32.0494 78.1398 31.9426 78.0352C31.4928 77.6465 32.3473 77.1966 32.4206 77.7436Z" fill="#E9E9E9"/>
<path d="M29.6162 78.0657C29.709 78.0661 29.8124 78.1446 29.8524 78.2452C29.9106 78.3831 29.9176 78.4352 29.9238 78.5802C29.9273 78.6063 29.9047 78.6359 29.8674 78.6543C29.7147 78.702 29.6331 78.6868 29.4812 78.6415C29.3701 78.6038 29.2711 78.4583 29.2944 78.3357C29.3022 78.2948 29.31 78.254 29.3178 78.2131C29.3333 78.1313 29.4044 78.0684 29.486 78.0837C29.5346 78.0504 29.5754 78.058 29.6162 78.0657Z" fill="#E9E9E9"/>
<path d="M32.0425 79.4007C32.0079 79.5381 31.9363 80.0919 31.714 80.0165C31.4398 79.9484 31.3718 79.6394 31.3664 79.4014C31.3487 78.8733 32.1393 78.9363 32.0425 79.4007Z" fill="#E9E9E9"/>
<path d="M33.1802 79.2309C33.3149 79.5439 33.2709 79.9082 33.2903 80.2504C33.3018 80.6335 32.7587 80.7352 32.6915 80.3332C32.6279 79.9574 32.6762 79.5262 32.8833 79.1924C32.9327 79.0662 33.1254 79.1191 33.1802 79.2309Z" fill="#E9E9E9"/>
<path d="M34.9729 81.7154C35.032 81.7602 35.0199 81.868 34.9566 81.8901C34.5835 82.0743 34.0873 82.3287 33.6673 82.3603C33.3923 82.3851 33.1985 82.0273 33.4526 81.8462C33.8377 81.5541 34.5561 81.3751 34.9729 81.7154Z" fill="#E9E9E9"/>
<path d="M36.0787 82.9549C36.032 83.2001 35.941 83.4117 35.8388 83.6381C35.805 83.6825 35.7529 83.6897 35.7199 83.6413C35.6104 83.4176 35.5157 83.2052 35.4955 82.956C35.4509 82.5244 36.1417 82.5349 36.0787 82.9549Z" fill="#E9E9E9"/>
<path d="M37.4552 83.3219C37.738 83.2562 38.0019 83.2462 38.238 83.4258C38.3118 83.4819 38.3328 83.6382 38.2469 83.6898C38.0379 83.8116 37.8261 83.8144 37.6101 83.8841C37.2005 83.9938 37.0422 83.4056 37.4552 83.3219Z" fill="#E9E9E9"/>
<path d="M37.1592 84.0123C37.266 84.1169 37.7118 84.9705 37.2293 84.9312C36.962 84.9151 36.809 84.5649 36.6657 84.3857C36.4121 84.0759 36.9091 83.7286 37.1592 84.0123Z" fill="#E9E9E9"/>
<path d="M39.682 84.5252C39.7966 84.589 39.8141 84.7192 39.7057 84.8005C39.4811 85.0041 39.1426 85.0509 38.845 85.1054C38.4728 85.1967 38.3925 84.5976 38.7647 84.5063C39.0624 84.4518 39.412 84.3902 39.682 84.5252Z" fill="#E9E9E9"/>
<path d="M40.4779 85.9537C40.4962 85.991 40.4771 86.0466 40.4398 86.0651C40.19 86.1792 39.8298 86.1628 39.6457 85.976C39.598 85.9163 39.5615 85.8418 39.6178 85.7676C39.8545 85.4563 40.351 85.5998 40.4779 85.9537Z" fill="#E9E9E9"/>
<path d="M42.8934 85.6332C42.9455 85.626 42.9637 85.6633 42.9559 85.7041C42.8642 86.0087 42.6543 86.2234 42.3854 86.3933C42.0679 86.5964 41.7751 86.0931 42.1256 85.9385C42.3789 85.8503 42.607 85.6728 42.8934 85.6332Z" fill="#E9E9E9"/>
<path d="M40.9883 84.5427C41.0039 84.4609 41.0785 84.4241 41.1488 84.4541C41.5785 84.5936 41.8566 85.0858 41.8378 85.5394C41.83 85.5802 41.7927 85.5987 41.7519 85.591C41.2962 85.4551 40.9583 85.0111 40.9883 84.5427Z" fill="#E9E9E9"/>
<path d="M40.0024 83.6047C40.1661 83.1443 40.8872 83.0843 41.2994 83.0936C41.6187 83.1024 41.6781 83.5452 41.476 83.7191C41.1057 84.0224 40.4297 84.0231 40.0311 83.7201C40.0129 83.6829 39.9946 83.6456 40.0024 83.6047Z" fill="#E9E9E9"/>
<path d="M43.214 84.5933C43.2666 84.0952 44.2175 84.9585 44.3095 85.0518C44.339 85.0743 44.32 85.13 44.294 85.1336C43.9027 85.2806 43.1502 85.1062 43.214 84.5933Z" fill="#E9E9E9"/>
<path d="M42.7842 82.5574C43.175 82.9012 43.1297 83.8493 42.6665 84.1522C42.6292 84.1707 42.5772 84.1779 42.5589 84.1406C42.3096 83.7639 42.2647 82.9344 42.576 82.5862C42.6471 82.5233 42.7365 82.4977 42.7842 82.5574Z" fill="#E9E9E9"/>
<path d="M41.8467 82.1031C41.8059 82.0955 41.7877 82.0582 41.7954 82.0174C41.8663 81.5565 42.3702 81.2613 42.7728 81.0994C43.1753 80.9376 43.5307 81.5119 43.1534 81.7631C42.7908 82.0255 42.2877 82.2278 41.8467 82.1031Z" fill="#E9E9E9"/>
<path d="M45.5095 83.4136C45.5425 83.4621 45.5382 83.529 45.4896 83.5623C45.1566 83.8471 44.5214 83.8555 44.1931 83.5825C43.983 83.3994 44.1121 83.0764 44.3906 83.0776C44.7508 83.0941 45.2741 83.1411 45.5095 83.4136Z" fill="#E9E9E9"/>
<path d="M44.7139 80.8178C44.759 80.7585 44.8371 80.7477 44.9222 80.7889C45.3798 81.1368 45.1558 82.1362 44.6048 82.2788C44.5415 82.3008 44.4859 82.282 44.4642 82.2186C44.3112 81.8684 44.4477 81.1066 44.7139 80.8178Z" fill="#E9E9E9"/>
<path d="M43.9869 79.6843C44.0762 79.6587 44.1423 79.7557 44.1415 79.8486C44.1235 80.2093 43.853 80.5651 43.4486 80.5149C43.3002 80.4957 42.9078 80.3378 43.0508 80.119C43.2467 79.8 43.678 79.7536 43.9869 79.6843Z" fill="#E9E9E9"/>
<path d="M46.3969 82.0303C46.6043 82.0945 46.8786 82.1626 46.9994 82.3714C47.0176 82.4087 47.0246 82.4608 47.0021 82.4904C46.7957 82.7312 46.4659 82.6442 46.1916 82.5761C45.8322 82.4666 46.0523 81.9321 46.3969 82.0303Z" fill="#E9E9E9"/>
<path d="M46.716 79.7447C47.1814 80.0517 46.992 80.9136 46.6364 81.2281C46.5766 81.2762 46.5063 81.2461 46.4845 81.1828C46.2907 80.825 46.2043 80.0808 46.5078 79.7735C46.5528 79.7142 46.6422 79.6886 46.716 79.7447Z" fill="#E9E9E9"/>
<path d="M45.8318 78.4874C45.8951 78.4654 45.9802 78.5067 45.9759 78.5736C46.036 78.9234 45.9097 79.3654 45.607 79.5798C45.5098 79.6463 45.0952 79.9159 44.9857 79.6923C44.7632 79.219 45.4405 78.6344 45.8318 78.4874Z" fill="#E9E9E9"/>
<path d="M44.5753 75.9683C44.6091 75.9238 44.6759 75.9279 44.7202 75.9615C45.0589 76.3126 45.3094 76.9943 45.216 77.4847C45.1814 77.6222 45.0209 77.7107 44.9141 77.6061C44.4565 77.2582 44.2442 76.4652 44.5753 75.9683Z" fill="#E9E9E9"/>
<path d="M43.8188 75.9535C44.0577 76.2521 44.039 76.7057 43.817 77.0282C43.7494 77.1172 43.4537 77.3836 43.3589 77.1712C43.2059 76.821 43.4077 76.2492 43.6366 75.9787C43.6782 75.8934 43.7563 75.8826 43.8188 75.9535Z" fill="#E9E9E9"/>
<path d="M43.5795 74.9785C43.5499 74.9561 43.543 74.904 43.5655 74.8744C43.7571 74.6223 44.0633 74.434 44.3357 74.2902C44.4216 74.2385 44.57 74.2578 44.6325 74.3287C45.0268 74.6986 44.3891 74.9859 44.1471 75.0592C43.9571 75.1253 43.7531 75.0872 43.5795 74.9785Z" fill="#E9E9E9"/>
<path d="M43.1896 72.3398C43.6842 72.2714 43.8246 73.2203 43.5697 73.4943C43.476 73.5869 43.3346 73.6197 43.239 73.5003C43.081 73.3099 42.747 72.4011 43.1896 72.3398Z" fill="#E9E9E9"/>
<path d="M42.2836 72.306C42.2369 72.5513 42.0582 72.6025 41.8239 72.635C41.6937 72.653 41.5791 72.5893 41.5356 72.4626C41.5321 72.4366 41.5139 72.3993 41.5104 72.3733C41.4886 72.3099 41.5042 72.2282 41.5528 72.1949C41.7661 72.0062 42.0031 72.0928 42.2436 72.2055C42.2618 72.2427 42.2913 72.2652 42.2836 72.306Z" fill="#E9E9E9"/>
<path d="M46.2313 75.2872C46.3172 75.2356 46.3988 75.2508 46.5577 75.3482C46.7756 75.4905 46.6865 75.914 46.3967 75.9276C46.066 75.9336 45.7692 75.8951 45.5451 75.6077C45.5156 75.5853 45.5346 75.5296 45.5607 75.526C45.748 75.3409 45.9935 75.2936 46.2313 75.2872Z" fill="#E9E9E9"/>
<path d="M46.0902 74.5917C45.9997 74.3124 45.9535 74.0667 46.1599 73.8259C46.1824 73.7963 46.2345 73.789 46.264 73.8115C46.4446 73.9722 46.5324 74.1325 46.6306 74.3709C46.7949 74.7064 46.2024 74.9343 46.0902 74.5917Z" fill="#E9E9E9"/>
<path d="M46.1937 77.7605C46.1346 77.7156 46.1242 77.6375 46.1693 77.5782C46.3236 77.3446 46.5621 77.2452 46.8155 77.1571C47.3256 77.0069 47.5162 77.7367 47.0026 77.8608C46.7197 77.9265 46.4299 77.9401 46.1937 77.7605Z" fill="#E9E9E9"/>
<path d="M47.9693 80.5388C47.6931 80.2586 47.6069 79.9124 47.5173 79.5401C47.4276 79.1678 48.0376 79.0701 48.116 79.4572C48.1762 79.8071 48.2771 80.1645 48.122 80.4911C48.0769 80.5504 48.0136 80.5724 47.9693 80.5388Z" fill="#E9E9E9"/>
<path d="M49.678 78.8435C49.73 78.8363 49.7821 78.829 49.8151 78.8775C50.061 79.2282 49.8495 79.6289 49.6094 79.9142C49.553 79.9883 49.2503 80.2026 49.1625 80.0423C48.9427 79.6881 49.2832 78.9644 49.678 78.8435Z" fill="#E9E9E9"/>
<path d="M49.2673 78.1978C49.1235 78.5096 48.8736 78.6237 48.5508 78.5888C48.4171 78.5808 48.1697 78.4161 48.2529 78.2454C48.3664 78.0042 48.7281 77.8347 48.9772 77.8135C49.1742 77.7995 49.373 77.9975 49.2673 78.1978Z" fill="#E9E9E9"/>
<path d="M50.6475 77.0512C50.663 76.9694 50.7159 76.8693 50.8053 76.8436C50.8313 76.84 50.8426 76.8252 50.8686 76.8216C50.9467 76.8108 51.0578 76.8485 51.1056 76.9082C51.3289 77.2885 51.4317 77.8579 51.0796 78.1985C51.0458 78.243 50.9755 78.2129 50.9573 78.1757C50.7219 77.9031 50.6183 77.4267 50.6475 77.0512Z" fill="#E9E9E9"/>
<path d="M48.2991 77.0709C48.1773 76.5572 48.5116 75.6885 49.0113 75.4601C49.0599 75.4269 49.1041 75.4605 49.1372 75.509C49.4222 76.0532 49.009 77.0257 48.3842 77.1122C48.3322 77.1194 48.3026 77.097 48.2991 77.0709Z" fill="#E9E9E9"/>
<path d="M47.6138 76.2905C47.554 76.3386 47.4689 76.2973 47.4359 76.2488C47.2534 75.8761 47.3972 75.5643 47.6634 75.2755C47.7345 75.2126 47.8048 75.2426 47.8414 75.3172C47.9163 75.6782 47.9096 76.024 47.6138 76.2905Z" fill="#E9E9E9"/>
<path d="M48.9402 74.4888C48.5699 74.7921 48.2253 74.6939 47.8329 74.536C47.7218 74.4983 47.7564 74.3608 47.8606 74.3464C48.1694 74.2771 48.4383 74.1073 48.7472 74.038C49.0266 73.9463 49.1571 74.3262 48.9402 74.4888Z" fill="#E9E9E9"/>
<path d="M50.5172 75.2396C50.6474 75.2216 50.7542 75.3262 50.7309 75.4488C50.7024 75.7313 50.5881 76.0655 50.4781 76.3327C50.3906 76.5703 50.3075 76.741 50.0837 76.8516C50.0351 76.8848 49.9908 76.8512 49.9578 76.8027C49.7353 76.3294 49.8334 75.2812 50.5172 75.2396Z" fill="#E9E9E9"/>
<path d="M51.7996 75.2601C51.8187 75.2044 51.882 75.1823 51.9115 75.2048C52.422 75.4525 52.5135 76.0368 52.4905 76.5573C52.4897 76.6503 52.3708 76.6534 52.323 76.5937C51.9843 76.2427 51.5648 75.7834 51.7996 75.2601Z" fill="#E9E9E9"/>
<path d="M50.1696 74.1595C50.1926 73.639 51.7263 72.8165 51.765 73.5009C51.7967 74.1333 50.1535 74.7321 50.1696 74.1595Z" fill="#E9E9E9"/>
<path d="M53.2759 75.3486C53.2576 75.3113 53.2394 75.2741 53.2472 75.2332C53.088 74.7379 53.2428 74.0134 53.7607 73.8223C53.798 73.8039 53.8536 73.8228 53.8718 73.86C54.1282 74.2888 54.0142 75.0209 53.6656 75.3875C53.5606 75.4949 53.4045 75.5165 53.3089 75.3971C53.2794 75.3747 53.2794 75.3747 53.2759 75.3486Z" fill="#E9E9E9"/>
<path d="M52.8316 73.1675C53.1026 73.6075 52.9044 74.2053 52.4455 74.4413C52.4082 74.4597 52.3639 74.426 52.3604 74.4C52.1561 73.964 52.3501 73.4331 52.6944 73.1334C52.7317 73.1149 52.7985 73.119 52.8316 73.1675Z" fill="#E9E9E9"/>
<path d="M50.7246 72.4106C50.7834 72.0576 51.9806 71.4939 52.0539 72.0409C52.1707 72.7146 50.6235 72.942 50.7246 72.4106Z" fill="#E9E9E9"/>
<path d="M52.1857 71.7178C51.9538 71.4713 51.7974 71.095 51.7667 70.7676C51.7571 70.5965 51.9479 70.4375 52.099 70.5757C52.3386 70.7813 52.4734 71.0943 52.6419 71.3628C52.8583 71.691 52.4472 71.9867 52.1857 71.7178Z" fill="#E9E9E9"/>
<path d="M53.5703 72.9995C53.5668 72.9735 53.5633 72.9474 53.5859 72.9178C53.7888 72.6509 54.3172 72.538 54.6191 72.4166C54.9358 72.3064 55.1929 72.6423 55.0048 72.9203C54.7447 73.3543 53.8519 73.5177 53.5703 72.9995Z" fill="#E9E9E9"/>
<path d="M53.7875 71.7623C53.4411 71.4521 53.5559 70.627 54.12 70.6816C54.6728 70.751 54.0972 71.6001 53.8656 71.7515C53.8691 71.7775 53.8171 71.7847 53.7875 71.7623Z" fill="#E9E9E9"/>
<path d="M55.3491 71.2409C55.3083 71.2333 55.2788 71.2108 55.2753 71.1848C55.2066 70.9688 55.4311 69.4786 55.8444 69.7928C56.2169 70.0994 55.9315 71.3327 55.3491 71.2409Z" fill="#E9E9E9"/>
<path d="M53.1302 70.0487C53.2531 69.5807 53.5018 69.1616 53.8391 68.8098C53.9666 68.6728 54.1966 68.7073 54.2245 68.9157C54.3231 69.552 53.8288 70.0184 53.2518 70.1646C53.1737 70.1754 53.1111 70.1044 53.1302 70.0487Z" fill="#E9E9E9"/>
<path d="M53.3281 68.4951C53.2092 68.4983 52.8421 68.4297 52.881 68.2254C52.9545 67.8836 53.5983 67.7414 53.8742 67.6236C54.1873 67.4874 54.4219 67.8529 54.2451 68.1161C54.0492 68.4351 53.6735 68.5004 53.3281 68.4951Z" fill="#E9E9E9"/>
<path d="M52.1702 67.1438C52.2185 66.7126 52.2008 66.1844 52.6484 65.9633C52.697 65.9301 52.7673 65.9601 52.7855 65.9974C53.153 66.4639 52.7212 67.0012 52.2883 67.2335C52.225 67.2556 52.1512 67.1995 52.1702 67.1438Z" fill="#E9E9E9"/>
<path d="M51.5971 65.8172C51.38 65.5819 51.5037 65.0209 51.7466 64.8547C51.7839 64.8362 51.8212 64.8178 51.8767 64.8366C52.4167 65.1068 51.8586 66.0861 51.5971 65.8172Z" fill="#E9E9E9"/>
<path d="M45.1584 59.7974C45.0551 59.7188 45.0376 59.5886 45.1165 59.4848C45.2708 59.2512 45.5902 59.2601 45.8081 59.4024C45.8967 59.4697 45.9141 59.5999 45.8465 59.6889C45.6739 59.8852 45.3685 59.9806 45.1584 59.7974Z" fill="#E9E9E9"/>
<path d="M44.2388 58.2389C44.0053 58.1784 43.8472 57.988 43.6666 57.8273C43.3904 57.5472 43.8952 57.159 44.1601 57.4539C44.3737 57.6631 44.472 57.9016 44.3915 58.1913C44.369 58.2209 44.2796 58.2466 44.2388 58.2389Z" fill="#E9E9E9"/>
<path d="M63.1025 67.8059C64.8624 63.1318 69.5491 60.2147 68.9687 54.6972C68.9346 54.3438 69.3962 54.2268 69.557 54.5362C72.0234 59.2886 66.6985 65.1592 63.3682 68.0079C63.2408 68.1449 63.0306 67.9618 63.1025 67.8059Z" fill="#E9E9E9"/>
<path d="M41.6765 37.9008C39.5637 39.5462 37.9442 41.7071 35.828 43.3265C35.7083 43.4227 35.5311 43.288 35.5918 43.1469C36.6678 40.6899 39.0355 38.7704 41.0814 37.1209C42.7796 35.745 45.2289 33.8407 47.5331 34.1187C47.626 34.1192 47.673 34.2718 47.5871 34.3235C45.619 35.5643 43.5499 36.4476 41.6765 37.9008Z" fill="#E9E9E9"/>
<path d="M34.7115 44.3033C34.408 44.6106 34.0785 44.9216 33.7932 45.2661C33.7369 45.3403 33.6137 45.4104 33.5173 45.3839C33.3802 45.3498 33.3394 45.3422 33.2812 45.2044C33.2412 45.1038 33.2645 44.9812 33.3208 44.907C33.6547 44.5292 34.135 43.9586 34.6828 44.1879C34.7236 44.1955 34.7453 44.2589 34.7115 44.3033Z" fill="#E9E9E9"/>
</svg>
