<svg width="68" height="46" viewBox="0 0 68 46" fill="none" xmlns="http://www.w3.org/2000/svg">
<g clip-path="url(#clip0_353_60718)">
<path d="M16.5096 29.6072C15.7605 28.3096 13.3797 27.8329 12.2295 26.8266C10.2232 25.0522 9.6079 22.2981 8.96589 19.8352C8.93913 19.7028 8.85888 19.6233 8.77863 19.5439C8.64488 19.4115 8.48437 19.332 8.27037 19.332C8.05637 19.332 7.86911 19.385 7.73536 19.5439C7.65511 19.6233 7.57485 19.7028 7.5481 19.8352C6.87934 22.404 6.21057 24.9198 4.28453 26.8266C3.16101 27.9388 0.806956 28.2831 0.00443794 29.6072C-0.0223126 29.6602 -0.0223126 29.7131 0.00443794 29.7661C-0.0223126 29.8191 -0.0223126 29.872 0.00443794 29.925C0.753454 31.2226 3.13426 31.6993 4.28453 32.7057C6.29083 34.48 6.90609 37.2342 7.5481 39.697C7.57485 39.8294 7.65511 39.9089 7.73536 39.9883C7.86911 40.1472 8.08312 40.2002 8.27037 40.2002C8.45762 40.2002 8.64488 40.1207 8.77863 39.9883C8.85888 39.9089 8.93913 39.803 8.96589 39.697C9.63465 37.1282 10.3034 34.6389 12.2295 32.7057C13.353 31.5934 15.707 31.2491 16.5096 29.925C16.5363 29.872 16.5363 29.8191 16.5096 29.7661C16.5363 29.7131 16.5363 29.6602 16.5096 29.6072ZM10.3302 31.461C9.42064 32.3349 8.75188 33.3677 8.27037 34.48C7.78886 33.3942 7.09334 32.3879 6.23733 31.461C5.78257 30.9578 4.8998 30.2693 3.93677 29.7396C4.8998 29.21 5.75581 28.495 6.23733 28.0448C7.14685 27.1708 7.81561 26.138 8.29712 25.0258C8.77863 26.1115 9.47415 27.1179 10.3302 28.0448C10.7849 28.5479 11.6677 29.2365 12.6307 29.7661C11.6677 30.2958 10.8117 31.0108 10.3302 31.461Z" fill="#E9E9E9"/>
<path d="M56.2078 11.0699C55.8065 7.52128 54.9772 -0.926618 49.6806 0.0797144C46.6043 0.662328 44.5177 3.39002 42.6987 5.66751C40.4249 8.47465 39.1409 10.1695 35.262 9.56043C33.336 9.24264 31.41 9.16319 29.4572 9.42802C23.9733 10.143 24.7491 15.0953 27.0229 18.6439C28.1196 20.3388 31.6775 23.3578 30.4469 25.5293C29.2432 27.6215 27.5846 29.2898 26.5681 31.5409C25.6853 33.4211 25.4446 35.4603 26.5146 37.2875C27.4241 38.8235 29.5374 39.0089 31.1424 38.9559C35.7436 38.8235 40.5319 33.4476 44.3572 37.7642C45.989 39.5915 53.8804 50.2639 57.2243 44.1465C58.5351 41.7896 58.428 39.0089 58.0268 36.3871C57.358 32.2559 56.0205 29.6341 61.5846 27.0653C63.5374 26.1649 65.2227 25.2645 66.6672 23.6756C72.5256 17.2668 57.1173 14.6715 56.2078 11.0699ZM56.3683 25.5823C55.0575 26.8535 53.9875 28.3365 53.8269 30.2167C53.5862 33.3946 54.6295 36.4136 54.7365 39.5915C54.9505 45.3117 49.0653 37.9231 47.9686 36.599C45.026 32.9974 42.886 31.1436 38.2314 32.8385C37.0276 33.2622 28.7616 37.5789 29.4839 33.8713C30.0724 30.9318 32.7475 28.6543 34.192 26.1384C36.6263 21.8748 30.0992 17.7965 28.7616 14.3538C27.7986 11.8379 37.2951 13.3474 38.0441 13.4269C39.4886 13.5858 41.4147 12.7648 42.3777 11.7055C44.4375 9.4545 46.0693 6.8857 48.2361 4.74062C51.9277 1.11253 52.4359 9.63988 52.6767 11.4672C52.6767 11.4936 52.6767 11.5201 52.7034 11.5201C52.7034 11.6525 52.7302 11.785 52.7569 11.9174C53.9875 17.3727 58.4281 17.055 62.7884 19.4384C66.9615 21.7688 57.4383 24.5495 56.3683 25.5823Z" fill="#E9E9E9"/>
<path d="M51.9259 16.4987C51.4176 15.9161 51.0966 15.1481 50.8558 14.4066C50.5883 13.6386 50.7221 12.8442 50.2941 12.1291C50.1068 11.8378 49.7056 11.8378 49.5183 12.1291C48.6088 13.5592 49.6788 15.8896 50.5616 17.1078C51.1233 17.8493 51.8189 18.4319 52.5946 18.9351C53.4506 19.4912 54.3869 19.4912 55.3767 19.6237C55.6709 19.6501 55.7779 19.1999 55.5372 19.0675C54.2799 18.5114 52.8086 17.5315 51.9259 16.4987Z" fill="#E9E9E9"/>
<path d="M39.9397 15.3334C38.9499 14.9362 37.9334 14.8303 36.8633 14.8303C35.9538 14.8303 34.9106 14.6449 34.1348 15.2275C33.9743 15.3334 33.9208 15.5453 34.0813 15.7042C34.7501 16.3398 35.5793 16.2603 36.4621 16.2603C37.6659 16.2603 38.8161 16.2074 39.9664 15.8631C40.2072 15.7572 40.1804 15.4394 39.9397 15.3334Z" fill="#E9E9E9"/>
<path d="M46.4148 29.3959C44.7562 28.1512 42.3487 28.6014 40.6099 29.3959C40.3424 29.5283 40.4494 29.8725 40.6901 29.952C42.3754 30.5346 44.0607 29.7666 45.5587 30.9848C47.0033 32.15 47.6453 34.0832 49.2236 35.0631C49.3841 35.169 49.5713 35.0366 49.5713 34.8777C49.6516 32.8386 48.0198 30.614 46.4148 29.3959Z" fill="#E9E9E9"/>
<path d="M37.0259 30.4023C36.6514 30.6671 36.5711 31.4616 37.1864 31.541C37.9354 31.647 38.8717 31.3027 39.1659 30.5612C39.2194 30.4023 39.1392 30.2434 39.0054 30.164C38.4169 29.8197 37.5342 30.058 37.0259 30.4023Z" fill="#E9E9E9"/>
</g>
<defs>
<clipPath id="clip0_353_60718">
<rect width="68" height="46" fill="white"/>
</clipPath>
</defs>
</svg>
