<svg width="116" height="124" viewBox="0 0 116 124" fill="none" xmlns="http://www.w3.org/2000/svg">
<g clip-path="url(#clip0_326_60028)">
<path d="M25.2636 77.3924C24.2361 75.8341 23.202 74.2662 22.3004 72.6215C21.1348 70.4889 21.7442 67.9346 22.1068 65.6637C22.1505 65.292 22.2039 64.9136 22.2476 64.5418C20.134 64.0142 18.8924 61.5636 17.7907 59.8143C16.8557 58.3491 15.9957 56.6615 16.737 55.17C14.959 54.4262 13.7162 53.0727 13.3751 51.0004C13.1551 49.6849 13.1062 48.494 13.4302 47.2036C13.9548 45.1063 15.4888 44.2094 14.7061 41.7427C13.9305 39.3279 14.2952 37.6821 16.0009 35.7703C16.8343 34.8278 17.944 34.08 18.9097 33.2886C21.3245 31.3312 21.9192 29.1288 21.966 26.1493C21.9734 25.9734 22.017 25.8295 22.1065 25.7111C22.2644 25.3605 22.626 25.1407 23.0328 25.3597C23.1373 25.3876 23.2292 25.4384 23.318 25.5056C26.7886 27.4078 30.0249 24.1174 33.5686 23.7626C36.9497 23.4197 39.8478 25.5871 43.1459 25.6002C45.2815 25.6001 47.3282 24.5789 49.4697 25.0019C51.9932 25.5043 52.9322 28.6754 53.509 30.8422C54.2797 31.0106 54.9994 31.4988 55.6192 32.2976C57.2931 34.4656 59.823 36.6152 59.5139 39.4616C62.5004 40.0162 65.3175 40.8011 67.379 42.9735C73.2045 39.286 79.3852 34.9132 85.6923 39.9506C89.5438 43.0294 92.2723 48.2463 95.0358 52.2289C96.8993 54.9217 98.7464 57.6114 100.581 60.324C101.97 62.3885 103.35 64.2317 103.726 66.7496C104.665 72.9255 99.3774 79.3044 94.8293 82.8408C96.6716 86.8296 97.959 91.8971 94.7437 95.5291C91.8743 98.7526 88.0974 101.318 84.6324 103.84C79.9489 107.241 75.1228 110.456 70.1669 113.461C67.3612 115.16 63.855 117.767 60.5155 118.295C54.7754 119.204 51.1001 114.495 48.142 110.333C44.1214 104.665 40.1038 98.9809 36.1315 93.2797C32.4583 88.0139 28.7947 82.7415 25.2636 77.3924ZM29.7172 26.5926C27.8156 27.5141 26.0291 28.0434 24.1898 27.5836C24.6978 28.3026 25.4986 28.7637 26.2782 29.111C27.8144 29.7931 29.4721 29.5944 31.0632 29.299C31.1249 29.2852 31.1653 29.3855 31.1073 29.4254C29.6518 30.3538 27.5585 30.3533 25.9683 29.7794C25.2419 29.5095 24.0973 28.9002 23.4352 28.1019C23.3342 29.2818 23.1057 30.4212 22.5454 31.5749C21.4592 33.7874 18.913 35.18 17.1936 36.8022C15.7603 38.1567 15.9276 39.665 16.2127 41.2205C16.3568 40.8083 16.5335 40.4022 16.6757 40.091C17.3015 38.7215 18.4436 37.0259 19.8808 36.4233C19.9001 36.4101 19.9364 36.4421 19.9237 36.4651C19.2721 37.6103 18.331 38.5413 17.6993 39.7155C17.3532 40.3519 17.1153 41.0421 16.9493 41.7541C17.8499 40.7227 18.8496 39.7941 19.8245 38.9537C21.5202 37.5044 23.4346 36.332 25.4396 35.3538C27.0921 34.5464 29.1369 33.6262 31.0163 33.6882C31.0423 33.6846 31.0719 33.707 31.0755 33.733C31.0791 33.759 31.0664 33.7819 31.0471 33.7952C27.3474 35.3535 24.1795 37.2301 21.1853 39.8986C18.8794 41.9521 16.6403 44.3726 15.2304 47.1918C14.3333 49.6589 14.6816 52.965 17.7647 53.909C17.7973 53.915 17.8269 53.9374 17.8499 53.9501C22.6873 49.9019 28.4829 46.6478 33.6985 43.1087C33.8049 43.0357 33.9017 42.9692 34.0081 42.8961C32.086 43.7463 30.1234 44.4961 28.1265 45.1128C26.6839 45.5625 24.9892 46.1425 23.4073 46.1611C23.1794 46.1609 22.9449 46.1512 22.72 46.1347C22.671 46.1256 22.6735 46.067 22.7091 46.0567C24.5315 45.2893 26.5186 44.9071 28.3742 44.1881C30.6312 43.3073 32.8375 42.2904 35.0039 41.2155C37.2447 40.1038 39.4584 38.9111 41.6388 37.6699C41.7906 37.5799 41.9327 37.4966 42.0844 37.4066C43.4069 36.5126 44.7197 35.6253 46.0422 34.7313C45.6331 34.343 45.2307 33.9644 44.7026 33.6722C43.8136 33.1863 42.6318 33.1863 41.6447 33.1381C39.7908 33.0301 37.9414 33.4886 36.1038 33.3837C36.0778 33.3873 36.0645 33.368 36.0513 33.3486C36.038 33.3293 36.0507 33.3063 36.07 33.293C36.2218 33.203 36.4159 33.1124 36.6263 33.0249C37.0858 32.8232 37.5689 32.6766 38.0688 32.5753C41.1836 31.8031 46.3104 31.5143 47.1325 33.9968C48.3582 33.1693 49.5936 32.3351 50.8193 31.5076C51.187 31.2551 51.5558 31.0872 51.9155 30.9683C51.2922 28.7338 50.5019 26.8988 48.4727 26.5979C48.072 26.5741 47.6845 26.5697 47.294 26.5816C47.1477 26.5966 47.0014 26.6117 46.8454 26.6334C45.7379 26.8244 44.718 26.998 43.7031 27.0543C42.9988 27.2105 42.2787 27.406 41.546 27.6245C38.887 28.3969 35.774 29.296 33.0068 29.0606C33.0068 29.0606 32.9971 29.0673 32.9905 29.0576C32.9808 29.0642 32.9742 29.0546 32.9742 29.0546C32.9675 29.0449 32.9609 29.0352 32.9542 29.0255L32.9476 29.0159L32.9409 29.0062C32.944 28.9899 32.944 28.9899 32.947 28.9736C32.9567 28.9669 32.95 28.9572 32.9663 28.9603L32.976 28.9536C35.0481 27.8865 37.4441 27.1666 39.8231 26.6292C36.1212 25.4268 33.362 24.83 29.7172 26.5926ZM89.7521 74.6807C92.4632 72.2635 94.7321 68.2278 92.7765 64.7583C91.4514 62.3934 89.6893 60.2007 88.161 57.9754C86.7427 55.9309 85.3274 53.87 83.8607 51.8588C82.8652 50.4921 81.7778 49.3025 80.2627 48.5062C77.8853 47.2628 75.0273 49.4248 73.0137 50.7223C74.1693 52.3634 75.3152 54.0113 76.4611 55.6591C80.0214 60.7604 83.572 65.8683 87.1099 70.9992C87.9568 72.2116 88.8592 73.4428 89.7521 74.6807ZM101.941 65.7259C101.458 63.7368 99.6499 61.7465 98.5167 60.0758C97.0779 57.9599 95.636 55.8604 94.1778 53.7578C91.9157 50.4846 89.6759 47.1817 87.2946 44.0045C85.527 41.6588 83.39 39.6665 80.4258 39.0823C76.2964 38.2732 71.6447 42.0943 68.3594 44.1938C69.6334 45.9245 70.8881 47.6685 72.1234 49.4258C75.5416 47.2918 78.7095 45.4153 82.4301 47.9718C85.1844 49.8676 87.1555 53.7537 89.022 56.4301C90.3008 58.2714 91.5699 60.1194 92.8293 61.974C93.71 63.2771 94.8324 64.642 95.0208 66.264C95.4408 70.0477 93.457 73.5032 90.6841 75.9342C91.9424 77.7042 93.1426 79.5141 94.1421 81.4048C98.5863 77.8829 103.401 71.7286 101.941 65.7259ZM37.8799 93.0473C41.4667 98.1872 45.0893 103.317 48.7148 108.43C51.6367 112.561 55.5688 118.659 61.5109 116.344C65.8599 114.653 69.9102 111.843 73.8116 109.335C78.6328 106.237 83.3537 102.952 87.8892 99.4391C91.7032 96.4923 95.6718 93.895 95.0344 88.5092C94.4216 83.2632 90.5667 78.7487 87.6666 74.5466C82.5709 67.168 77.4721 59.8058 72.3183 52.4671C70.4886 49.865 68.6589 47.263 66.7809 44.6941C64.8267 42.0352 61.5754 41.4061 58.436 40.8568C58.0443 40.7841 57.6933 40.356 57.8114 39.9474C58.575 37.2445 55.7138 35.1515 54.3064 33.185C52.8856 31.1991 49.6833 34.1244 48.3415 35.0317C44.2193 37.8199 40.0874 40.6148 35.9718 43.4127C31.8079 46.2439 27.6536 49.0684 23.4896 51.8995C22.0704 52.86 20.6675 53.8234 19.2549 54.7935C16.8458 56.448 20.5092 63.1301 23.0675 63.0818C23.5849 63.0682 23.9619 63.4927 23.8909 64.0113C23.8054 64.6538 23.7264 65.3061 23.6506 65.9419C23.2582 68.4183 22.8805 70.5429 24.164 72.7228C25.2107 74.4957 26.3607 76.2118 27.4945 77.9249C30.8855 83.0285 34.386 88.0427 37.8799 93.0473Z" fill="#E9E9E9"/>
<path d="M25.9308 62.4825C25.8468 62.526 25.7876 62.4812 25.7574 62.4165C25.7272 62.3518 25.726 62.2672 25.8034 62.214C27.6691 60.5768 29.8097 59.2776 31.8711 57.9047C34.6424 56.0727 37.4234 54.234 40.188 52.3923C43.1238 50.4473 46.0397 48.4733 48.9755 46.5284C51.4112 44.9126 53.8047 43.0695 56.45 41.7796C56.4596 41.773 56.4596 41.773 56.4693 41.7663C56.4983 41.7464 56.528 41.7688 56.5576 41.7912C56.5642 41.8008 56.5642 41.8008 56.5709 41.8105C56.5775 41.8202 56.5841 41.8299 56.5811 41.8462C56.5781 41.8625 56.575 41.8788 56.5557 41.8921C54.8108 43.7881 52.5746 45.2384 50.5053 46.7449C47.5979 48.8556 44.6306 50.8791 41.6567 52.893C38.6858 54.8905 35.695 56.859 32.6643 58.7695C30.4857 60.1376 28.3245 61.5933 25.9308 62.4825Z" fill="#E9E9E9"/>
<path d="M56.0513 38.6075C56.0712 38.6365 56.0652 38.6692 56.0428 38.6988C56.0331 38.7054 56.0331 38.7054 56.0234 38.7121C53.761 40.8496 50.8689 42.4229 48.218 44.0156C45.0664 45.8951 41.8448 47.652 38.593 49.3441C35.4803 50.9692 32.3271 52.494 29.1238 53.925C27.5868 54.6103 26.0462 55.2696 24.4821 55.8739C23.2287 56.3502 21.8054 57.0145 20.4519 57.0754C20.374 57.0863 20.3081 57.0318 20.2942 56.9702C20.264 56.9055 20.2858 56.8336 20.3536 56.7871C21.3913 56.0175 22.7038 55.5859 23.8816 55.0618C25.2729 54.4338 26.6871 53.8186 28.0717 53.1809C31.3361 51.6937 34.5601 50.1061 37.7508 48.4702C40.9252 46.8312 44.0531 45.1245 47.1707 43.3821C50.0622 41.7666 52.8976 39.8621 55.96 38.599C55.9957 38.5888 56.0187 38.6015 56.0319 38.6208C56.035 38.6045 56.0447 38.5978 56.0513 38.6075Z" fill="#E9E9E9"/>
<path d="M27.3273 56.3265C27.2233 56.341 27.2083 56.1947 27.2923 56.1512C29.417 55.1192 31.5152 54.0485 33.6531 53.0358C33.6725 53.0225 33.6991 53.0612 33.6797 53.0745C32.0957 54.8316 29.6614 56.0762 27.3273 56.3265Z" fill="#E9E9E9"/>
<path d="M37.6048 35.5281C36.502 37.2395 33.3247 38.6669 31.3473 38.8146C31.2693 38.8254 31.2319 38.7087 31.2899 38.6689C32.148 38.0938 33.1099 37.7322 34.035 37.2962C35.2092 36.7461 36.2935 35.8164 37.5486 35.467C37.6006 35.4598 37.6272 35.4985 37.6048 35.5281Z" fill="#E9E9E9"/>
<path d="M31.7384 39.3005C31.6706 39.347 31.6585 39.4123 31.5745 39.4558C31.4324 39.5391 31.2867 39.5965 31.121 39.6248C30.7087 39.7086 30.4186 39.68 30.0324 39.5323C29.8656 39.476 29.9473 39.2633 30.0869 39.2386C30.2526 39.2103 30.4207 39.1233 30.5833 39.1113C30.7459 39.0993 30.9182 39.0806 31.0808 39.0686C31.2174 39.0602 31.3673 39.0712 31.5045 39.1051C31.6091 39.133 31.649 39.191 31.7342 39.2322C31.7571 39.2449 31.7511 39.2775 31.7384 39.3005Z" fill="#E9E9E9"/>
<path d="M16.8382 51.8969C16.7759 51.8685 16.7711 51.7579 16.8425 51.7374C17.6369 51.505 18.4422 51.3507 19.1895 51.0083C19.9271 50.6726 20.6195 50.1259 21.4212 49.9455C21.4665 49.9286 21.4998 49.977 21.4677 50.0133C20.6359 51.3107 18.3629 52.6866 16.8382 51.8969Z" fill="#E9E9E9"/>
<path d="M22.0002 49.6477C21.9543 49.6223 21.9471 49.5703 21.9791 49.5341C22.1993 49.212 22.7569 48.8006 23.1715 48.8861C23.2042 48.8921 23.2241 48.9212 23.218 48.9538C23.1271 49.4434 22.4523 49.8499 22.0002 49.6477Z" fill="#E9E9E9"/>
<path d="M46.8924 27.6975C47.9447 26.804 50.5789 28.2555 50.435 29.6216C50.4259 29.6705 50.3805 29.6874 50.3413 29.6717C49.7586 29.4453 49.3049 28.8884 48.7538 28.5834C48.1731 28.2561 47.4894 28.2558 46.9153 27.9381C46.8168 27.8776 46.812 27.767 46.8924 27.6975Z" fill="#E9E9E9"/>
<path d="M22.1522 41.3276C21.9701 41.5808 21.8406 41.8691 21.5993 42.0775C21.4094 42.2364 21.1617 41.9793 21.25 41.7763C21.4836 41.2456 22.0553 40.4401 22.7135 40.4864C22.7559 40.4858 22.7697 40.5475 22.7474 40.5771C22.5393 40.8339 22.3276 41.0647 22.1522 41.3276Z" fill="#E9E9E9"/>
<path d="M22.7588 41.1533C22.8011 41.1527 22.8307 41.1751 22.8313 41.2174C22.8584 41.5263 22.5771 41.9046 22.3117 42.0157C22.1756 42.0664 21.998 41.9321 22.0416 41.7883C22.1288 41.5006 22.4493 41.138 22.7588 41.1533Z" fill="#E9E9E9"/>
<path d="M25.0931 32.4023C24.8162 32.3931 24.1845 32.3855 24.0759 32.0614C23.957 31.7017 24.4914 31.7334 24.6872 31.7698C24.8897 31.8158 25.0988 31.8715 25.3079 31.9272C25.5104 31.9733 25.722 31.9704 25.9245 32.0164C25.9408 32.0194 25.9541 32.0388 25.9414 32.0618C25.7925 32.3633 25.3959 32.4079 25.0931 32.4023Z" fill="#E9E9E9"/>
<path d="M25.4534 32.824C25.509 32.8428 25.5458 32.9171 25.4781 32.9637C25.1939 33.1303 24.8741 33.3073 24.584 33.0509C24.5478 33.0188 24.5406 32.9668 24.5726 32.9306C24.8194 32.6472 25.1397 32.7404 25.4534 32.824Z" fill="#E9E9E9"/>
<path d="M41.5783 29.7237C42.0045 29.7016 42.5081 29.6263 42.8827 29.8815C42.9057 29.8942 42.8996 29.9269 42.8869 29.9498C42.5815 30.2308 42.1548 30.2106 41.7679 30.2485C41.3387 30.287 40.8102 30.4505 40.4193 30.1922C40.3733 30.1668 40.3728 30.1245 40.3982 30.0786C40.6504 29.7202 41.1618 29.7392 41.5783 29.7237Z" fill="#E9E9E9"/>
<path d="M41.0601 30.6493C41.3637 30.4693 41.7965 30.4568 42.0732 30.6939C42.1029 30.7163 42.1034 30.7586 42.0744 30.7786C41.8168 30.984 41.4764 31.0896 41.1506 31.0713C40.9421 31.0579 40.8824 30.7429 41.0601 30.6493Z" fill="#E9E9E9"/>
<path d="M75.4909 42.2009C75.4196 42.2214 75.3241 42.1446 75.3653 42.0594C76.5183 40.2139 80.2899 39.8591 81.8191 41.443C81.8554 41.4751 81.8432 41.5404 81.7846 41.5379C80.7552 41.4903 79.7754 41.2661 78.7345 41.326C77.6058 41.4034 76.5677 41.9028 75.4909 42.2009Z" fill="#E9E9E9"/>
<path d="M73.741 43.0323C73.6951 43.0069 73.6552 42.9489 73.674 42.8933C73.7697 42.5143 74.3901 42.1737 74.766 42.2857C74.8379 42.3075 74.8681 42.3722 74.8463 42.4441C74.718 42.817 74.1145 43.203 73.741 43.0323Z" fill="#E9E9E9"/>
<path d="M95.1566 72.8058C96.0139 71.4624 96.5804 70.0482 96.5939 68.43C96.6003 66.5319 95.7948 64.7784 95.3532 62.9744C95.3327 62.9031 95.4168 62.8596 95.4566 62.9176C97.5747 65.4213 98.9362 71.1357 95.3318 72.9987C95.1928 73.0657 95.0738 72.9339 95.1566 72.8058Z" fill="#E9E9E9"/>
<path d="M62.1763 93.7609C66.4953 88.0041 75.3293 94.0256 71.5144 99.9773C71.4859 100.04 71.4478 100.108 71.4031 100.168C71.3583 100.227 71.3069 100.276 71.2651 100.319C69.2873 102.56 66.0753 103.357 63.5259 101.448C61.1016 99.639 60.2709 96.2939 62.1763 93.7609ZM64.1928 99.9936C66.1305 101.696 68.6957 100.973 70.2073 99.1521C73.0251 95.0243 67.0247 90.7445 63.7108 94.316C62.0845 96.0736 62.5154 98.5256 64.1928 99.9936Z" fill="#E9E9E9"/>
<path d="M56.3545 104.565C60.6735 98.8083 69.5075 104.83 65.6926 110.782C65.6642 110.844 65.626 110.913 65.5813 110.972C65.5365 111.031 65.4851 111.081 65.4434 111.124C63.4656 113.365 60.2535 114.161 57.7041 112.252C55.2895 110.437 54.4558 107.108 56.3545 104.565ZM58.3776 110.807C60.3154 112.509 62.8806 111.787 64.3921 109.966C67.21 105.838 61.2095 101.558 57.8957 105.13C56.2724 106.871 56.71 109.333 58.3776 110.807Z" fill="#E9E9E9"/>
<path d="M75.2256 91.2208C79.5446 85.464 88.3786 91.4856 84.5637 97.4373C84.5352 97.4995 84.4971 97.5684 84.4524 97.6277C84.4076 97.6869 84.3562 97.7364 84.3145 97.7793C82.3366 100.02 79.1246 100.817 76.5752 98.9082C74.1606 97.0923 73.3202 93.7539 75.2256 91.2208ZM77.2421 97.4535C79.1798 99.1556 81.7451 98.4333 83.2566 96.6121C86.0744 92.4843 80.074 88.2045 76.7602 91.7759C75.1435 93.5269 75.5744 95.9789 77.2421 97.4535Z" fill="#E9E9E9"/>
<path d="M65.9948 88.2907C65.9501 88.35 65.8987 88.3995 65.8569 88.4424C63.8791 90.6835 60.6671 91.4798 58.1177 89.5713C55.6934 87.762 54.8693 84.4266 56.7681 81.8839C61.0871 76.1271 69.9211 82.1487 66.1062 88.1004C66.0844 88.1723 66.0396 88.2315 65.9948 88.2907ZM58.3026 82.439C56.6859 84.19 57.1169 86.642 58.7846 88.1166C60.7223 89.8186 63.2875 89.0964 64.7991 87.2752C67.6235 83.157 61.6068 78.8742 58.3026 82.439Z" fill="#E9E9E9"/>
<path d="M37.9473 81.1827C42.2663 75.4259 51.1003 81.4475 47.2854 87.3992C47.2569 87.4615 47.2188 87.5304 47.174 87.5896C47.1293 87.6488 47.0779 87.6983 47.0361 87.7412C45.0583 89.9823 41.8463 90.7786 39.2969 88.8701C36.8726 87.0609 36.0389 83.7321 37.9473 81.1827ZM39.9704 87.4251C41.9082 89.1271 44.4734 88.4049 45.9849 86.5837C48.8027 82.4559 42.8023 78.176 39.4885 81.7475C37.8555 83.4955 38.2864 85.9475 39.9704 87.4251Z" fill="#E9E9E9"/>
<path d="M75.1376 67.1046C75.1092 67.1668 75.071 67.2357 75.0263 67.2949C74.9815 67.3541 74.9301 67.4037 74.8884 67.4466C72.9106 69.6876 69.6985 70.4839 67.1491 68.5755C64.7248 66.7662 63.9008 63.4308 65.7996 60.8881C70.1185 55.1313 78.9459 61.1432 75.1376 67.1046ZM67.3244 61.4498C65.7077 63.2008 66.1387 65.6529 67.8063 67.1274C69.7441 68.8295 72.3093 68.1072 73.8208 66.286C76.6483 62.1515 70.6316 57.8687 67.3244 61.4498Z" fill="#E9E9E9"/>
<path d="M58.8194 100.338C58.8067 100.361 58.797 100.368 58.7843 100.39C58.7589 100.436 58.7432 100.476 58.7111 100.512C54.9619 105.564 47.1255 100.353 50.4112 94.9779C51.8886 92.5679 55.0195 92.0267 57.3546 93.4986C59.7258 95.0025 60.2296 98.0168 58.8194 100.338ZM51.5882 96.049C50.5948 97.671 51.3471 99.5749 52.8578 100.531C54.5559 101.614 56.3195 101.072 57.4706 99.5556C59.7273 95.5853 54.0493 92.0238 51.5882 96.049Z" fill="#E9E9E9"/>
<path d="M51.2642 104.886C51.7881 103.928 53.2319 104.745 52.7339 105.699C52.7308 105.715 52.7115 105.729 52.7018 105.735C52.6891 105.758 52.6861 105.775 52.6734 105.798C52.0298 106.581 50.785 105.785 51.2642 104.886Z" fill="#E9E9E9"/>
<path d="M59.7344 91.864C60.2584 90.9061 61.7021 91.7229 61.2041 92.6772C61.2011 92.6935 61.1817 92.7068 61.172 92.7134C61.1593 92.7364 61.1563 92.7527 61.1339 92.7823C60.503 93.5431 59.2552 92.7626 59.7344 91.864Z" fill="#E9E9E9"/>
<path d="M68.1895 105.108C68.7134 104.15 70.1571 104.967 69.6592 105.921C69.6561 105.938 69.6368 105.951 69.6271 105.958C69.6144 105.981 69.6114 105.997 69.589 106.026C68.9484 106.794 67.7036 105.997 68.1895 105.108Z" fill="#E9E9E9"/>
<path d="M88.1895 93.5945C88.7134 92.6366 90.1571 93.4534 89.6592 94.4076C89.6561 94.424 89.6368 94.4373 89.6271 94.4439C89.6144 94.4669 89.6114 94.4832 89.589 94.5128C88.9485 95.2802 87.7036 94.4834 88.1895 93.5945Z" fill="#E9E9E9"/>
<path d="M48.6928 67.5959C48.6897 67.6122 48.6704 67.6255 48.6607 67.6322C48.648 67.6551 48.645 67.6714 48.6323 67.6944C47.9984 68.4715 46.7469 67.665 47.2327 66.7761C47.747 65.8249 49.2071 66.6447 48.6928 67.5959Z" fill="#E9E9E9"/>
<path d="M56.1463 79.7765C56.1433 79.7929 56.1239 79.8062 56.1142 79.8128C56.1015 79.8358 56.0985 79.8521 56.0858 79.875C55.4519 80.6521 54.207 79.8554 54.6863 78.9567C55.2006 78.0055 56.6509 78.832 56.1463 79.7765Z" fill="#E9E9E9"/>
<path d="M47.0203 74.5107C47.0172 74.527 46.9979 74.5403 46.9882 74.547C46.9755 74.5699 46.9725 74.5862 46.9501 74.6158C46.3095 75.3832 45.0647 74.5865 45.5506 73.6975C46.0745 72.7397 47.5346 73.5595 47.0203 74.5107Z" fill="#E9E9E9"/>
<path d="M59.5598 62.6245C59.5568 62.6408 59.5374 62.6541 59.5278 62.6607C59.5151 62.6837 59.512 62.7 59.4896 62.7296C58.8491 63.497 57.6109 62.7099 58.0901 61.8113C58.6141 60.8534 60.0741 61.6733 59.5598 62.6245Z" fill="#E9E9E9"/>
<path d="M34.967 68.778C34.964 68.7943 34.9446 68.8076 34.935 68.8143C34.9223 68.8372 34.9192 68.8536 34.9065 68.8765C34.2726 69.6536 33.0211 68.8472 33.507 67.9582C34.0213 67.007 35.4747 67.8171 34.967 68.778Z" fill="#E9E9E9"/>
<path d="M50.112 56.9532C50.0993 56.9761 50.0962 56.9925 50.0739 57.0221C49.4333 57.7894 48.1885 56.9927 48.6743 56.1037C49.1983 55.1459 50.642 55.9627 50.144 56.9169C50.1247 56.9302 50.115 56.9368 50.112 56.9532Z" fill="#E9E9E9"/>
<path d="M63.3571 55.1755C63.354 55.1918 63.3347 55.2051 63.325 55.2117C63.3123 55.2347 63.3093 55.251 63.2966 55.274C62.6627 56.051 61.4178 55.2543 61.897 54.3556C62.4113 53.4044 63.855 54.2212 63.3571 55.1755Z" fill="#E9E9E9"/>
<path d="M35.1937 78.8312C35.1906 78.8476 35.1713 78.8608 35.1616 78.8675C35.1489 78.8904 35.1459 78.9068 35.1331 78.9297C34.4926 79.6971 33.2544 78.91 33.7336 78.0114C34.2479 77.0602 35.6983 77.8867 35.1937 78.8312Z" fill="#E9E9E9"/>
<path d="M68.1294 83.4787C68.6534 82.5209 70.0971 83.3377 69.5991 84.2919C69.5961 84.3082 69.5767 84.3215 69.5671 84.3282C69.5543 84.3511 69.5513 84.3675 69.5289 84.3971C68.8884 85.1644 67.6502 84.3774 68.1294 83.4787Z" fill="#E9E9E9"/>
<path d="M42.7123 63.843C42.7093 63.8593 42.6899 63.8726 42.6802 63.8792C42.6675 63.9022 42.6645 63.9185 42.6518 63.9415C42.0179 64.7185 40.7664 63.9121 41.2523 63.0231C41.7666 62.0719 43.2266 62.8918 42.7123 63.843Z" fill="#E9E9E9"/>
<path d="M84.252 75.2971C84.7759 74.3392 86.2196 75.156 85.7217 76.1103C85.7186 76.1266 85.6993 76.1399 85.6896 76.1465C85.6769 76.1695 85.6739 76.1858 85.6515 76.2154C85.0206 76.9762 83.7661 76.1861 84.252 75.2971Z" fill="#E9E9E9"/>
<path d="M65.876 70.4745C65.8729 70.4909 65.8536 70.5041 65.8439 70.5108C65.8312 70.5337 65.8282 70.5501 65.8058 70.5797C65.1652 71.3471 63.927 70.56 64.4063 69.6614C64.9302 68.7035 66.3739 69.5203 65.876 70.4745Z" fill="#E9E9E9"/>
<path d="M65.8586 74.1604C67.336 71.7505 70.467 71.2092 72.802 72.6811C75.1732 74.1851 75.6867 77.1927 74.2668 79.5205C74.2541 79.5434 74.2444 79.5501 74.2317 79.573C74.216 79.6123 74.1906 79.6583 74.1585 79.6945C70.3997 84.7534 62.5632 79.5417 65.8586 74.1604ZM67.029 75.2219C66.0356 76.8439 66.7878 78.7478 68.2986 79.7036C69.9966 80.7871 71.7602 80.2452 72.9113 78.7285C75.1747 74.7678 69.4901 71.1966 67.029 75.2219Z" fill="#E9E9E9"/>
<path d="M54.8127 70.8679C56.2901 68.458 59.4211 67.9167 61.7561 69.3886C64.1273 70.8926 64.6408 73.9002 63.2209 76.228C63.2082 76.2509 63.1985 76.2576 63.1858 76.2806C63.1604 76.3265 63.1447 76.3658 63.1126 76.402C59.3634 81.4543 51.527 76.2426 54.8127 70.8679ZM55.9831 71.9294C54.9897 73.5514 55.7419 75.4553 57.2527 76.4111C58.9507 77.4947 60.7143 76.9527 61.8654 75.436C64.1288 71.4753 58.4508 67.9138 55.9831 71.9294Z" fill="#E9E9E9"/>
<path d="M76.323 79.6741C77.8004 77.2641 80.9313 76.7229 83.2663 78.1948C85.6376 79.6988 86.1511 82.7064 84.7312 85.0341C84.7185 85.0571 84.7088 85.0638 84.6961 85.0867C84.6803 85.126 84.6549 85.1719 84.6229 85.2082C80.8737 90.2604 73.0373 85.0488 76.323 79.6741ZM78.7696 85.227C80.4676 86.3105 82.2312 85.7685 83.3823 84.2519C85.6488 80.2748 79.9611 76.72 77.5097 80.7386C76.5066 82.3672 77.2588 84.2711 78.7696 85.227Z" fill="#E9E9E9"/>
<path d="M71.1604 101.929C72.109 100.366 74.1476 99.9343 75.6813 100.903C77.215 101.871 77.636 103.832 76.6934 105.362C76.6807 105.385 76.671 105.392 76.6583 105.415C76.6329 105.461 76.6172 105.5 76.5851 105.536C74.1625 108.809 69.0369 105.409 71.1604 101.929ZM73.0297 105.045C73.8969 105.602 74.7367 105.353 75.3319 104.603C76.4082 102.625 73.6617 100.823 72.436 102.833C71.952 103.621 72.2744 104.567 73.0297 105.045Z" fill="#E9E9E9"/>
<path d="M54.8609 89.971C54.8482 89.9939 54.8385 90.0006 54.8258 90.0235C54.81 90.0628 54.7846 90.1087 54.7526 90.145C52.3299 93.4177 47.1947 90.0245 49.3279 86.5377C50.2765 84.9749 52.3151 84.5432 53.8488 85.5117C55.3825 86.4803 55.7968 88.4312 54.8609 89.971ZM50.5969 87.4318C50.1129 88.2198 50.4352 89.166 51.1906 89.6439C52.0577 90.2017 52.8975 89.9524 53.4927 89.202C54.5691 87.224 51.8226 85.4224 50.5969 87.4318Z" fill="#E9E9E9"/>
<path d="M81.9571 74.1111C81.9444 74.1341 81.9347 74.1407 81.922 74.1637C81.9062 74.2029 81.8808 74.2489 81.8488 74.2851C79.4261 77.5578 74.2909 74.1646 76.4241 70.6778C77.3727 69.1151 79.4113 68.6833 80.945 69.6519C82.4787 70.6204 82.893 72.5713 81.9571 74.1111ZM77.6931 71.5719C77.1994 72.3665 77.5314 73.3061 78.2868 73.784C79.1539 74.3418 79.9937 74.0926 80.5889 73.3421C81.6653 71.3641 78.9188 69.5626 77.6931 71.5719Z" fill="#E9E9E9"/>
<path d="M43.3556 92.3338C44.3043 90.771 46.3428 90.3392 47.8669 91.3145C49.4006 92.283 49.8215 94.2436 48.8789 95.7737C48.8662 95.7967 48.8566 95.8033 48.8438 95.8263C48.8281 95.8655 48.8027 95.9115 48.7706 95.9477C46.3577 99.2138 41.2224 95.8206 43.3556 92.3338ZM45.2153 95.4563C46.0824 96.0141 46.9222 95.7648 47.5174 95.0144C48.5938 93.0364 45.8473 91.2348 44.6216 93.2442C44.1376 94.0322 44.4599 94.9784 45.2153 95.4563Z" fill="#E9E9E9"/>
<path d="M75.2159 89.0916C75.2031 89.1145 75.1935 89.1212 75.1808 89.1441C75.165 89.1834 75.1396 89.2293 75.1076 89.2656C72.6849 92.5383 67.5497 89.1451 69.6829 85.6583C70.6315 84.0955 72.6701 83.6638 74.2038 84.6323C75.7375 85.6009 76.1518 87.5518 75.2159 89.0916ZM70.9519 86.5524C70.4679 87.3404 70.7902 88.2866 71.5455 88.7645C72.4127 89.3223 73.2525 89.073 73.8477 88.3226C74.9241 86.3446 72.1776 84.543 70.9519 86.5524Z" fill="#E9E9E9"/>
<path d="M85.1594 86.8189C86.1081 85.2562 88.1466 84.8244 89.6803 85.793C91.214 86.7615 91.635 88.7221 90.6924 90.2522C90.6797 90.2752 90.67 90.2818 90.6573 90.3048C90.6319 90.3507 90.6162 90.39 90.5841 90.4262C88.1615 93.6989 83.0196 90.2961 85.1594 86.8189ZM87.0191 89.9415C87.8862 90.4992 88.726 90.25 89.3212 89.4995C90.3976 87.5216 87.6511 85.72 86.4254 87.7293C85.9414 88.5173 86.2734 89.4569 87.0191 89.9415Z" fill="#E9E9E9"/>
<path d="M72.7192 65.7184C71.9077 66.3612 70.898 66.7983 69.8687 66.5227C69.7871 66.5076 69.7629 66.4103 69.8337 66.3474C70.9543 65.4497 72.7726 65.34 73.1416 63.7625C73.1446 63.7462 73.1736 63.7262 73.1966 63.7389C73.7941 64.3395 73.2701 65.2973 72.7192 65.7184Z" fill="#E9E9E9"/>
<path d="M57.7167 75.1383C57.6309 75.0549 57.6679 74.9013 57.7979 74.8833C58.302 74.8503 58.7916 74.9412 59.2928 74.9245C59.7939 74.9078 60.2733 74.7352 60.7678 74.7089C60.8005 74.7149 60.8301 74.7373 60.8143 74.7766C60.3139 75.7895 58.4781 75.8115 57.7167 75.1383Z" fill="#E9E9E9"/>
<path d="M41.4874 85.9852C42.1334 86.3247 42.8744 86.4707 43.5884 86.3079C43.7214 86.2735 43.8144 86.409 43.7346 86.5207C42.7945 87.9922 40.2109 86.6767 39.5889 85.4807C39.5521 85.4064 39.5799 85.3018 39.6742 85.294C40.3773 85.2811 40.8873 85.6712 41.4874 85.9852Z" fill="#E9E9E9"/>
<path d="M51.6985 88.6831C51.6605 88.5241 51.7687 88.3501 51.9579 88.3768C52.0982 88.3944 52.1809 88.4941 52.3115 88.5184C52.4324 88.5493 52.5491 88.5119 52.67 88.5428C52.7352 88.5549 52.7981 88.6256 52.7829 88.7072C52.6461 89.1714 51.8028 89.1668 51.6985 88.6831Z" fill="#E9E9E9"/>
<path d="M46.2216 94.3092C46.3564 94.4017 46.4906 94.452 46.638 94.5216C46.7003 94.55 46.7178 94.6377 46.676 94.6806C46.4262 94.9803 45.9397 94.873 45.8691 94.4801C45.8305 94.2788 46.0869 94.2166 46.2216 94.3092Z" fill="#E9E9E9"/>
<path d="M55.0072 99.8662C54.2334 99.942 53.4791 99.7766 52.9759 99.1682C52.8931 99.0684 52.9857 98.9337 53.0993 98.9126C53.6615 98.8397 54.1481 98.947 54.709 99.0174C55.3775 99.0993 55.9435 98.8246 56.5843 98.7832C56.6266 98.7826 56.6628 98.8146 56.6537 98.8636C56.4678 99.5466 55.6347 99.8055 55.0072 99.8662Z" fill="#E9E9E9"/>
<path d="M64.2891 98.2471C65.0995 98.7015 65.7249 99.1975 66.7181 99.2131C66.9103 99.2234 68.2892 99.1165 67.7992 99.7093C67.322 100.279 66.1663 100.048 65.5644 99.8345C64.9231 99.6057 64.0856 99.0703 64.2051 98.2905C64.2045 98.2482 64.2595 98.2247 64.2891 98.2471Z" fill="#E9E9E9"/>
<path d="M73.184 103.715C73.5515 103.69 73.8591 104.034 74.2429 104.012C74.3372 104.005 74.3843 104.115 74.3299 104.181C74.0395 104.608 73.1685 104.48 72.9638 104.037C72.9131 103.901 73.0377 103.73 73.184 103.715Z" fill="#E9E9E9"/>
<path d="M58.8357 108.841C58.8672 108.763 58.9645 108.738 59.0431 108.77C59.2691 108.871 59.4437 109.022 59.6123 109.205C59.8829 109.475 60.2202 109.613 60.5895 109.715C61.2888 109.904 61.9441 109.739 62.6441 109.743C62.7288 109.741 62.7559 109.822 62.7112 109.882C62.2393 110.604 61.0315 110.608 60.2838 110.452C59.6407 110.324 58.4272 109.677 58.8357 108.841Z" fill="#E9E9E9"/>
<path d="M78.0575 95.427C78.75 95.8341 79.2769 96.2696 80.1238 96.3003C80.8697 96.3291 81.5034 96.0078 82.2252 95.9393C82.2675 95.9387 82.2941 95.9774 82.2783 96.0167C81.9406 96.7896 80.7382 96.9462 80.0153 96.9301C79.1587 96.9061 78.0013 96.5477 77.864 95.5599C77.8398 95.4625 77.9753 95.3695 78.0575 95.427Z" fill="#E9E9E9"/>
<path d="M72.3496 88.2975C71.9519 88.2574 71.5972 88.0312 71.52 87.6285C71.5092 87.5505 71.5733 87.478 71.6579 87.4769C71.9638 87.4661 72.1741 87.6065 72.4527 87.7426C72.6986 87.8727 72.9646 87.8039 73.2167 87.9014C73.256 87.9171 73.2565 87.9595 73.2438 87.9824C73.1052 88.3197 72.6398 88.3261 72.3496 88.2975Z" fill="#E9E9E9"/>
<path d="M61.0995 87.6521C60.611 87.6458 60.1305 87.5059 59.6948 87.3068C59.2198 87.092 59.0924 86.8235 58.9916 86.3659C58.9742 86.2782 59.0383 86.2057 59.1332 86.2402C59.3852 86.3376 59.6264 86.3571 59.8856 86.5065C60.2826 86.7322 60.6973 86.8177 61.1379 86.8995C61.5949 86.9844 62.0338 86.9392 62.4787 86.8615C62.7677 86.8054 63.0912 86.6545 63.3879 86.6927C63.4043 86.6957 63.4175 86.7151 63.4145 86.7314C63.2533 87.554 61.7245 87.65 61.0995 87.6521Z" fill="#E9E9E9"/>
<path d="M79.2128 83.3426C79.712 83.4269 80.1387 83.6749 80.6573 83.7459C80.9444 83.7908 81.234 83.777 81.5302 83.773C81.7091 83.764 81.9002 83.6897 82.0609 83.7787C82.0839 83.7914 82.0972 83.8107 82.0845 83.8337C82.068 84.0586 81.7893 84.1503 81.6146 84.2276C81.2651 84.3822 80.9036 84.3741 80.5355 84.3564C79.9522 84.3156 79.1483 84.0988 79.113 83.4254C79.1124 83.3831 79.1638 83.3335 79.2128 83.3426Z" fill="#E9E9E9"/>
<path d="M87.1278 88.5855C87.4427 88.5258 87.6264 88.6274 87.9111 88.7309C88.1891 88.8248 88.4151 88.9258 88.6357 89.1018C88.6587 89.1146 88.6526 89.1472 88.6332 89.1605C88.3684 89.3139 88.1502 89.3071 87.8498 89.2429C87.4908 89.1762 87.1831 89.06 87.0382 88.7039C87.0213 88.6585 87.0727 88.609 87.1278 88.5855Z" fill="#E9E9E9"/>
<path d="M79.1511 73.4465C78.9685 73.4295 78.7793 73.4028 78.6156 73.3302C78.3732 73.2261 78.3424 73.1191 78.2126 72.9093C78.1661 72.8415 78.2036 72.7303 78.2979 72.7225C78.4085 72.7177 78.5119 72.661 78.6165 72.6888C78.7634 72.7161 78.9078 72.802 79.0389 72.8686C79.2879 72.9823 79.6101 72.9747 79.8464 73.1114C79.876 73.1338 79.9093 73.1821 79.8838 73.2281C79.7501 73.448 79.4086 73.469 79.1511 73.4465Z" fill="#E9E9E9"/>
<path d="M69.3329 78.6797C68.7528 78.3947 67.8011 77.6102 68.2796 76.8971C68.3274 76.8216 68.4253 76.8398 68.4942 76.8779C68.6978 77.0086 68.8011 77.1797 68.9147 77.3865C69.1146 77.7191 69.4433 77.9489 69.7908 78.1232C70.1383 78.2975 70.4786 78.4197 70.8636 78.4828C71.0921 78.5252 71.3133 78.5157 71.4849 78.6826C71.4982 78.702 71.5115 78.7213 71.4988 78.7443C71.1491 79.3546 69.8049 78.9108 69.3329 78.6797Z" fill="#E9E9E9"/>
</g>
<defs>
<clipPath id="clip0_326_60028">
<rect width="71.9836" height="100" fill="white" transform="matrix(-0.824328 0.566112 0.566112 0.824328 59.3379 0)"/>
</clipPath>
</defs>
</svg>
