<svg width="85" height="78" viewBox="0 0 85 78" fill="none" xmlns="http://www.w3.org/2000/svg">
<path d="M58.9482 77.0002C59.2002 76.758 59.3311 76.3899 59.462 76.0217C62.4256 57.418 67.5836 40.3409 74.8003 25.4056C77.2272 27.6783 79.4021 30.1931 81.5769 32.708C82.3035 33.4639 83.2919 33.4835 84.0429 33.004C84.9199 32.4034 84.8184 31.2891 84.3389 30.538C81.9267 27.5241 79.2626 24.7524 76.4724 22.1017C78.9151 17.33 81.6 12.8103 84.4059 8.4165C84.9197 7.43794 84.6921 6.4447 83.9607 5.93586C83.2292 5.42702 81.9889 5.64965 81.48 6.38113C78.679 10.5278 76.1201 14.9264 73.8034 19.5771C62.8654 10.2148 49.7759 3.40541 35.7507 0.161638C35.1355 0.0258691 34.3893 0.258284 34.0065 0.868664C33.6236 1.47904 33.6089 2.2203 33.9673 2.84535L50.1688 27.2663C39.3019 26.8041 28.3813 29.0598 18.526 33.6848C18.0269 33.9221 17.523 34.4065 17.5132 34.9006C17.3774 35.5159 17.6147 36.015 17.978 36.3929C22.8268 41.1854 28.5624 44.883 34.8167 47.3551L1.2682 62.6344C0.643143 62.9928 0.134296 63.7242 0.245618 64.3444C0.352043 65.2117 0.836436 65.7156 1.69879 65.8563C20.2975 69.067 39.0076 72.8978 57.4608 77.218C57.955 77.2278 58.4492 77.2375 58.8271 76.8742C58.8222 77.1213 58.8222 77.1213 58.9482 77.0002ZM72.1313 22.8809C64.6626 38.0585 59.3835 55.0096 56.2939 73.7343C40.3017 69.9573 24.0527 66.6695 7.79397 63.8758L40.0972 49.0663C40.7223 48.7079 41.1051 48.0975 41.1198 47.3562C41.1345 46.615 40.529 45.985 39.9137 45.8493C33.4026 43.8665 27.289 40.5321 22.1883 35.9819C32.0337 31.8511 42.5716 30.2057 53.1816 31.1573C53.9229 31.172 54.4219 30.9347 54.8048 30.3243C55.1876 29.7139 55.2023 28.9726 54.7179 28.4687L39.243 4.80364C51.2866 8.25538 62.6563 14.5364 72.1313 22.8809Z" fill="white"/>
</svg>
