<svg width="60" height="60" viewBox="0 0 60 60" fill="none" xmlns="http://www.w3.org/2000/svg">
<g clip-path="url(#clip0_74_40691)">
<path d="M57.5037 35.3736C57.3085 35.5739 57.2109 35.6741 56.9155 35.7768C56.1269 35.9846 55.4284 35.4991 55.1229 34.8107C53.2571 28.1092 45.974 23.1583 39.0596 23.84C37.48 24.058 35.9029 24.4737 34.5261 25.0847C35.2322 26.1636 35.8406 27.3427 36.2513 28.5242C37.8967 33.4483 36.976 38.8007 33.8572 42.401C32.0049 44.5016 28.7631 46.2243 25.8765 44.7777C23.6859 43.6189 22.564 40.9629 22.7189 37.5982C23.0462 32.2534 26.0497 27.3688 30.4604 24.2465C29.156 22.7797 27.4585 21.5157 25.4681 20.5521C20.5912 18.1418 13.4664 17.8372 9.46894 22.3389C7.51903 24.5396 6.76837 27.714 7.39958 30.673C7.70508 31.3614 7.22202 32.2577 6.53108 32.3654C5.74253 32.5733 4.94387 31.9901 4.83614 31.2992C3.79928 27.5542 4.93285 23.3858 7.36835 20.4866C12.2419 14.8858 20.7485 14.975 26.6245 18.1637C29.0129 19.32 31.1109 20.9745 32.6182 22.8344C34.4857 21.9204 36.4558 21.3018 38.6287 21.0763C47.0251 20.2767 55.4048 25.9059 57.784 34.0843C57.9868 34.4774 57.7966 35.0732 57.5037 35.3736ZM29.7224 28.4098C27.2818 30.9135 25.5448 34.2984 25.2924 37.7632C25.1174 39.5456 25.4406 41.6184 26.9327 42.2917C28.4248 42.9649 30.3899 41.9508 31.5588 40.5512C33.9943 37.652 34.7298 33.2909 33.4927 29.3507C33.0845 28.3669 32.6763 27.3831 32.0704 26.4018C31.1892 27.1054 30.4057 27.7088 29.7224 28.4098Z" fill="white"/>
</g>
<defs>
<clipPath id="clip0_74_40691">
<rect width="37.6213" height="46.2924" fill="white" transform="translate(0.534668 27.497) rotate(-45.7319)"/>
</clipPath>
</defs>
</svg>
