<svg width="16" height="16" viewBox="0 0 16 16" fill="none" xmlns="http://www.w3.org/2000/svg">
<g clip-path="url(#clip0_145_43010)">
<path d="M8 0C3.58156 0 0 3.58156 0 8C0 12.4184 3.58156 16 8 16C12.4181 16 16 12.4184 16 8C16 3.58156 12.4184 0 8 0ZM12.0425 8.24312H11.7131V11.5972C11.7131 11.9509 11.4262 12.2381 11.0722 12.2381H9.23594V10.0719C9.23594 9.73062 9.0975 9.42156 8.87375 9.19781C8.65031 8.97437 8.34125 8.83594 8 8.83594C7.3175 8.83594 6.76406 9.38906 6.76406 10.0719V12.2381H4.92781C4.57375 12.2381 4.28687 11.9509 4.28687 11.5972V8.24312H3.9575C3.35625 8.24312 3.08313 7.49188 3.54406 7.10563L7.17656 4.06125C7.65312 3.66219 8.34688 3.66219 8.82344 4.06125L12.4559 7.10563C12.9169 7.49188 12.6437 8.24312 12.0425 8.24312Z" fill="#5F5F5F"/>
</g>
<defs>
<clipPath id="clip0_145_43010">
<rect width="16" height="16" fill="white"/>
</clipPath>
</defs>
</svg>
