<svg width="32" height="32" viewBox="0 0 32 32" fill="none" xmlns="http://www.w3.org/2000/svg">
<circle cx="16" cy="16" r="16" fill="#FE0032"/>
<g clip-path="url(#clip0_374_3398)">
<path d="M23.2 15.2H16.8V8.79995C16.8 8.35845 16.4416 8 16 8C15.5584 8 15.2 8.35845 15.2 8.79995V15.2H8.79995C8.35845 15.2 8 15.5584 8 16C8 16.4416 8.35845 16.8 8.79995 16.8H15.2V23.2C15.2 23.6416 15.5584 24 16 24C16.4416 24 16.8 23.6416 16.8 23.2V16.8H23.2C23.6416 16.8 24 16.4416 24 16C24 15.5584 23.6416 15.2 23.2 15.2Z" fill="white"/>
</g>
<defs>
<clipPath id="clip0_374_3398">
<rect width="16" height="16" fill="white" transform="translate(8 8)"/>
</clipPath>
</defs>
</svg>
